<?xml version="1.0" encoding="UTF-8" standalone="no"?>
<!DOCTYPE svg PUBLIC "-//W3C//DTD SVG 1.1//EN" "http://www.w3.org/Graphics/SVG/1.1/DTD/svg11.dtd">
<svg width="100%" height="100%" viewBox="0 0 24 24" version="1.1" xmlns="http://www.w3.org/2000/svg" xmlns:xlink="http://www.w3.org/1999/xlink" xml:space="preserve" xmlns:serif="http://www.serif.com/" style="fill-rule:evenodd;clip-rule:evenodd;stroke-linejoin:round;stroke-miterlimit:2;">
    <path d="M3.439,10.667C3.207,12.595 3.067,14.534 3.019,16.476C3.012,16.785 3.195,17.067 3.48,17.186C4.148,17.465 4.809,17.759 5.462,18.068C5.211,18.58 4.875,19.052 4.463,19.462C4.17,19.754 4.17,20.23 4.462,20.523C4.754,20.816 5.23,20.816 5.523,20.524C6.052,19.996 6.485,19.388 6.808,18.729C8.452,19.569 10.047,20.503 11.584,21.528C11.836,21.696 12.164,21.696 12.416,21.528C14.972,19.824 17.686,18.37 20.521,17.186C20.806,17.067 20.989,16.785 20.982,16.476C20.934,14.534 20.794,12.595 20.562,10.667C21.234,10.449 21.914,10.245 22.599,10.056C22.879,9.978 23.089,9.746 23.138,9.46C23.187,9.174 23.067,8.886 22.83,8.719C19.525,6.402 15.998,4.422 12.3,2.806C12.109,2.722 11.891,2.722 11.7,2.806C8.002,4.422 4.475,6.403 1.17,8.72C0.933,8.887 0.813,9.176 0.862,9.462C0.911,9.748 1.122,9.98 1.401,10.057C2.085,10.246 2.765,10.449 3.439,10.667ZM19.109,11.159C16.787,11.988 14.529,12.988 12.354,14.15C12.133,14.269 11.867,14.269 11.646,14.15C10.295,13.428 8.911,12.769 7.5,12.174L7.5,12.954C7.947,13.214 8.25,13.7 8.25,14.25C8.25,14.8 7.947,15.286 7.5,15.546L7.5,15.749C7.501,16.277 7.439,16.8 7.319,17.306C8.927,18.119 10.49,19.021 12,20.006C14.37,18.46 16.868,17.121 19.468,16.003C19.414,14.384 19.295,12.768 19.109,11.159ZM4.892,11.16C4.706,12.769 4.587,14.385 4.533,16.003C5.001,16.205 5.466,16.413 5.927,16.629C5.976,16.341 6,16.047 6,15.751L6,15.546C5.553,15.286 5.25,14.8 5.25,14.25C5.25,13.7 5.553,13.214 6,12.954L6,11.57C5.632,11.429 5.263,11.292 4.892,11.16ZM19.515,9.432C19.896,9.304 20.28,9.18 20.667,9.06C17.916,7.239 15.017,5.651 12,4.313C8.983,5.651 6.085,7.239 3.335,9.061C3.718,9.179 4.099,9.302 4.479,9.43L4.505,9.438L4.518,9.443C5.334,9.718 6.142,10.012 6.943,10.327C8.478,9.399 10.057,8.544 11.675,7.767C12.048,7.588 12.497,7.745 12.676,8.118C12.855,8.491 12.698,8.94 12.325,9.119C11.084,9.715 9.867,10.358 8.675,11.046C9.802,11.537 10.911,12.069 12,12.64C14.411,11.376 16.92,10.304 19.501,9.436L19.515,9.432Z"/>
</svg>
