<?xml version="1.0" encoding="UTF-8" standalone="no"?>
<!DOCTYPE svg PUBLIC "-//W3C//DTD SVG 1.1//EN" "http://www.w3.org/Graphics/SVG/1.1/DTD/svg11.dtd">
<svg width="100%" height="100%" viewBox="0 0 24 24" version="1.1" xmlns="http://www.w3.org/2000/svg" xmlns:xlink="http://www.w3.org/1999/xlink" xml:space="preserve" xmlns:serif="http://www.serif.com/" style="fill-rule:evenodd;clip-rule:evenodd;stroke-linejoin:round;stroke-miterlimit:2;">
    <path d="M6.88,17.25L3.75,17.25C3.336,17.25 3,17.586 3,18C3,18.414 3.336,18.75 3.75,18.75L6.88,18.75C7.192,19.62 8.028,20.25 9,20.25C9.972,20.25 10.808,19.62 11.12,18.75L20.25,18.75C20.664,18.75 21,18.414 21,18C21,17.586 20.664,17.25 20.25,17.25L11.12,17.25C10.808,16.38 9.972,15.75 9,15.75C8.028,15.75 7.192,16.38 6.88,17.25ZM9.749,17.962C9.729,17.568 9.399,17.25 9,17.25C8.601,17.25 8.271,17.568 8.251,17.962L8.25,18C8.25,18.411 8.589,18.75 9,18.75C9.411,18.75 9.75,18.411 9.75,18L9.749,17.962ZM12.88,11.25L3.75,11.25C3.336,11.25 3,11.586 3,12C3,12.414 3.336,12.75 3.75,12.75L12.88,12.75C13.192,13.62 14.028,14.25 15,14.25C15.972,14.25 16.808,13.62 17.12,12.75L20.25,12.75C20.664,12.75 21,12.414 21,12C21,11.586 20.664,11.25 20.25,11.25L17.12,11.25C16.808,10.38 15.972,9.75 15,9.75C14.028,9.75 13.192,10.38 12.88,11.25ZM15.749,11.962C15.729,11.568 15.399,11.25 15,11.25C14.601,11.25 14.271,11.568 14.251,11.962L14.25,12C14.25,12.411 14.589,12.75 15,12.75C15.411,12.75 15.75,12.411 15.75,12L15.749,11.962ZM6.88,5.25L3.75,5.25C3.336,5.25 3,5.586 3,6C3,6.414 3.336,6.75 3.75,6.75L6.88,6.75C7.192,7.62 8.028,8.25 9,8.25C9.972,8.25 10.808,7.62 11.12,6.75L20.25,6.75C20.664,6.75 21,6.414 21,6C21,5.586 20.664,5.25 20.25,5.25L11.12,5.25C10.808,4.38 9.972,3.75 9,3.75C8.028,3.75 7.192,4.38 6.88,5.25ZM9.75,6C9.75,5.589 9.411,5.25 9,5.25C8.589,5.25 8.25,5.589 8.25,6C8.25,6.411 8.589,6.75 9,6.75C9.411,6.75 9.75,6.411 9.75,6Z"/>
</svg>
