<?xml version="1.0" encoding="UTF-8" standalone="no"?>
<!DOCTYPE svg PUBLIC "-//W3C//DTD SVG 1.1//EN" "http://www.w3.org/Graphics/SVG/1.1/DTD/svg11.dtd">
<svg width="100%" height="100%" viewBox="0 0 24 24" version="1.1" xmlns="http://www.w3.org/2000/svg" xmlns:xlink="http://www.w3.org/1999/xlink" xml:space="preserve" xmlns:serif="http://www.serif.com/" style="fill-rule:evenodd;clip-rule:evenodd;stroke-linejoin:round;stroke-miterlimit:2;">
    <path d="M3.041,8.22L3.626,18.176C3.719,19.753 5.042,21.001 6.622,21C6.622,21 17.378,21 17.378,21C18.958,21.001 20.281,19.753 20.374,18.176L20.959,8.22C21.835,8.063 22.5,7.296 22.5,6.375L22.5,4.875C22.5,3.84 21.66,3 20.625,3L3.375,3C2.34,3 1.5,3.84 1.5,4.875C1.5,4.875 1.5,6.375 1.5,6.375C1.5,7.296 2.165,8.063 3.041,8.22ZM19.455,8.25L4.545,8.25L5.124,18.088C5.17,18.877 5.832,19.5 6.622,19.5L17.378,19.5C18.168,19.5 18.83,18.877 18.876,18.088L19.455,8.25ZM3.375,6.75C3.168,6.75 3,6.582 3,6.375L3,4.875C3,4.668 3.168,4.5 3.375,4.5C3.375,4.5 20.625,4.5 20.625,4.5C20.832,4.5 21,4.668 21,4.875C21,4.875 21,6.375 21,6.375C21,6.582 20.832,6.75 20.625,6.75L3.375,6.75Z"/>
    <g transform="matrix(1,0,0,1,0.0275744,-0.00089093)">
        <path d="M11.25,15.439L9.53,13.72C9.238,13.427 8.762,13.427 8.47,13.72C8.177,14.012 8.177,14.488 8.47,14.78L11.47,17.78C11.513,17.823 11.56,17.86 11.61,17.89L11.619,17.896L11.651,17.914L11.684,17.93L11.698,17.936L11.708,17.941L11.718,17.945L11.728,17.949L11.742,17.954L11.752,17.958L11.76,17.96L11.777,17.966L11.813,17.976L11.823,17.979C11.88,17.993 11.939,18 12,18C12.061,18 12.12,17.993 12.177,17.979L12.187,17.976L12.223,17.966L12.258,17.954L12.282,17.945L12.292,17.941L12.316,17.93L12.325,17.926L12.349,17.914L12.381,17.896L12.413,17.876L12.443,17.855L12.473,17.832L12.502,17.807L12.53,17.78C12.53,17.78 15.53,14.78 15.53,14.78C15.823,14.488 15.823,14.012 15.53,13.72C15.238,13.427 14.762,13.427 14.47,13.72L12.75,15.439L12.75,10.5C12.75,10.086 12.414,9.75 12,9.75C11.586,9.75 11.25,10.086 11.25,10.5L11.25,15.439Z"/>
    </g>
</svg>
