<?xml version="1.0" encoding="UTF-8" standalone="no"?>
<!DOCTYPE svg PUBLIC "-//W3C//DTD SVG 1.1//EN" "http://www.w3.org/Graphics/SVG/1.1/DTD/svg11.dtd">
<svg width="100%" height="100%" viewBox="0 0 24 24" version="1.1" xmlns="http://www.w3.org/2000/svg" xmlns:xlink="http://www.w3.org/1999/xlink" xml:space="preserve" xmlns:serif="http://www.serif.com/" style="fill-rule:evenodd;clip-rule:evenodd;stroke-linejoin:round;stroke-miterlimit:2;">
    <path d="M3.041,8.22L3.626,18.176C3.719,19.753 5.042,21.001 6.622,21C6.622,21 17.378,21 17.378,21C18.958,21.001 20.281,19.753 20.374,18.176L20.959,8.22C21.835,8.063 22.5,7.296 22.5,6.375L22.5,4.875C22.5,3.84 21.66,3 20.625,3L3.375,3C2.34,3 1.5,3.84 1.5,4.875C1.5,4.875 1.5,6.375 1.5,6.375C1.5,7.296 2.165,8.063 3.041,8.22ZM19.455,8.25L4.545,8.25L5.124,18.088C5.17,18.877 5.832,19.5 6.622,19.5L17.378,19.5C18.168,19.5 18.83,18.877 18.876,18.088L19.455,8.25ZM3.375,6.75C3.168,6.75 3,6.582 3,6.375L3,4.875C3,4.668 3.168,4.5 3.375,4.5C3.375,4.5 20.625,4.5 20.625,4.5C20.832,4.5 21,4.668 21,4.875C21,4.875 21,6.375 21,6.375C21,6.582 20.832,6.75 20.625,6.75L3.375,6.75Z"/>
    <g transform="matrix(1,0,0,1,0.0195269,0.0224664)">
        <path d="M10.939,13.875L9.22,15.595C8.927,15.887 8.927,16.363 9.22,16.655C9.512,16.948 9.988,16.948 10.28,16.655L12,14.936L13.72,16.655C14.012,16.948 14.488,16.948 14.78,16.655C15.073,16.363 15.073,15.887 14.78,15.595L13.061,13.875L14.78,12.155C15.073,11.863 15.073,11.387 14.78,11.095C14.488,10.802 14.012,10.802 13.72,11.095L12,12.814L10.28,11.095C9.988,10.802 9.512,10.802 9.22,11.095C8.927,11.387 8.927,11.863 9.22,12.155L10.939,13.875Z"/>
    </g>
</svg>
