<?xml version="1.0" encoding="UTF-8" standalone="no"?>
<!DOCTYPE svg PUBLIC "-//W3C//DTD SVG 1.1//EN" "http://www.w3.org/Graphics/SVG/1.1/DTD/svg11.dtd">
<svg width="100%" height="100%" viewBox="0 0 24 24" version="1.1" xmlns="http://www.w3.org/2000/svg" xmlns:xlink="http://www.w3.org/1999/xlink" xml:space="preserve" xmlns:serif="http://www.serif.com/" style="fill-rule:evenodd;clip-rule:evenodd;stroke-linejoin:round;stroke-miterlimit:2;">
    <path d="M3.041,8.22L3.626,18.176C3.719,19.753 5.042,21.001 6.622,21C6.622,21 17.378,21 17.378,21C18.958,21.001 20.281,19.753 20.374,18.176L20.959,8.22C21.835,8.063 22.5,7.296 22.5,6.375L22.5,4.875C22.5,3.84 21.66,3 20.625,3L3.375,3C2.34,3 1.5,3.84 1.5,4.875C1.5,4.875 1.5,6.375 1.5,6.375C1.5,7.296 2.165,8.063 3.041,8.22ZM19.455,8.25L4.545,8.25L5.124,18.088C5.17,18.877 5.832,19.5 6.622,19.5L17.378,19.5C18.168,19.5 18.83,18.877 18.876,18.088L19.455,8.25ZM10,12L14,12C14.414,12 14.75,11.664 14.75,11.25C14.75,10.836 14.414,10.5 14,10.5L10,10.5C9.586,10.5 9.25,10.836 9.25,11.25C9.25,11.664 9.586,12 10,12ZM3.375,6.75C3.168,6.75 3,6.582 3,6.375L3,4.875C3,4.668 3.168,4.5 3.375,4.5C3.375,4.5 20.625,4.5 20.625,4.5C20.832,4.5 21,4.668 21,4.875C21,4.875 21,6.375 21,6.375C21,6.582 20.832,6.75 20.625,6.75L3.375,6.75Z"/>
</svg>
