<?xml version="1.0" encoding="UTF-8" standalone="no"?>
<!DOCTYPE svg PUBLIC "-//W3C//DTD SVG 1.1//EN" "http://www.w3.org/Graphics/SVG/1.1/DTD/svg11.dtd">
<svg width="100%" height="100%" viewBox="0 0 24 24" version="1.1" xmlns="http://www.w3.org/2000/svg" xmlns:xlink="http://www.w3.org/1999/xlink" xml:space="preserve" xmlns:serif="http://www.serif.com/" style="fill-rule:evenodd;clip-rule:evenodd;stroke-linejoin:round;stroke-miterlimit:2;">
    <path d="M4.794,15.402L7.977,15.402C8.391,15.402 8.727,15.066 8.727,14.652C8.727,14.238 8.391,13.902 7.977,13.902L2.985,13.902L2.946,13.903L2.908,13.906L2.877,13.91L2.871,13.911L2.857,13.913L2.841,13.916L2.806,13.924L2.795,13.927C2.67,13.959 2.552,14.024 2.454,14.122C2.298,14.277 2.225,14.484 2.235,14.688L2.235,19.644C2.235,20.058 2.571,20.394 2.985,20.394C3.399,20.394 3.735,20.058 3.735,19.644L3.735,16.464L5.635,18.365C7.322,20.053 9.613,21.001 11.999,21.001C16.06,21.001 19.642,18.252 20.692,14.329C20.8,13.929 20.562,13.518 20.162,13.411C19.762,13.303 19.351,13.541 19.244,13.941C18.368,17.21 15.383,19.501 11.999,19.501C10.01,19.501 8.101,18.711 6.695,17.305L4.794,15.402ZM16.023,10.098L21.015,10.098L21.017,10.097C21.208,10.096 21.399,10.023 21.545,9.877C21.643,9.78 21.708,9.661 21.741,9.536L21.743,9.526L21.751,9.49L21.754,9.474L21.756,9.46L21.761,9.423L21.764,9.385L21.765,9.346L21.765,4.356C21.765,3.942 21.429,3.606 21.015,3.606C20.601,3.606 20.265,3.942 20.265,4.356L20.265,7.536L18.364,5.635C16.677,3.947 14.386,2.999 12,2.999C7.939,2.999 4.357,5.748 3.307,9.671C3.199,10.071 3.437,10.482 3.837,10.589C4.237,10.697 4.648,10.459 4.755,10.059C5.631,6.79 8.616,4.499 12,4.499C13.989,4.499 15.898,5.289 17.304,6.695L19.206,8.598L16.023,8.598C15.609,8.598 15.273,8.934 15.273,9.348C15.273,9.762 15.609,10.098 16.023,10.098ZM21.015,10.097L21.015,10.097L21.015,10.097L21.015,10.097Z"/>
</svg>
