<?xml version="1.0" encoding="UTF-8" standalone="no"?>
<!DOCTYPE svg PUBLIC "-//W3C//DTD SVG 1.1//EN" "http://www.w3.org/Graphics/SVG/1.1/DTD/svg11.dtd">
<svg width="100%" height="100%" viewBox="0 0 24 24" version="1.1" xmlns="http://www.w3.org/2000/svg" xmlns:xlink="http://www.w3.org/1999/xlink" xml:space="preserve" xmlns:serif="http://www.serif.com/" style="fill-rule:evenodd;clip-rule:evenodd;stroke-linejoin:round;stroke-miterlimit:2;">
    <path d="M15.75,19.189L12.53,15.97C12.238,15.677 11.762,15.677 11.47,15.97C11.177,16.262 11.177,16.738 11.47,17.03L15.97,21.53L15.998,21.557C16.033,21.589 16.07,21.617 16.11,21.64L16.119,21.646L16.151,21.664L16.184,21.68L16.198,21.686L16.208,21.691L16.218,21.695L16.228,21.699L16.242,21.704L16.252,21.708L16.26,21.71L16.277,21.716L16.313,21.726L16.323,21.729C16.38,21.743 16.439,21.75 16.5,21.75C16.561,21.75 16.62,21.743 16.677,21.729L16.687,21.726L16.723,21.716L16.758,21.704L16.772,21.699L16.782,21.695L16.792,21.691L16.803,21.686L16.816,21.68L16.825,21.676L16.849,21.664L16.881,21.646L16.913,21.626L16.943,21.605L16.973,21.582L17.002,21.557L17.03,21.53C17.03,21.53 21.53,17.03 21.53,17.03C21.823,16.738 21.823,16.262 21.53,15.97C21.238,15.677 20.762,15.677 20.47,15.97L17.25,19.189L17.25,7.5C17.25,7.086 16.914,6.75 16.5,6.75C16.086,6.75 15.75,7.086 15.75,7.5L15.75,19.189ZM7.323,2.271L7.313,2.274L7.277,2.284L7.242,2.296L7.228,2.301L7.218,2.305L7.208,2.309L7.184,2.32L7.175,2.324L7.151,2.336L7.119,2.354L7.087,2.374L7.057,2.395L7.027,2.418L6.998,2.443L6.97,2.47C6.97,2.47 2.47,6.97 2.47,6.97C2.177,7.262 2.177,7.738 2.47,8.03C2.762,8.323 3.238,8.323 3.53,8.03L6.75,4.811L6.75,16.5C6.75,16.914 7.086,17.25 7.5,17.25C7.914,17.25 8.25,16.914 8.25,16.5L8.25,4.811L11.47,8.03C11.762,8.323 12.238,8.323 12.53,8.03C12.823,7.738 12.823,7.262 12.53,6.97L8.03,2.47C7.987,2.427 7.94,2.39 7.89,2.36L7.881,2.354L7.849,2.336L7.816,2.32L7.802,2.314L7.792,2.309L7.782,2.305L7.772,2.301L7.758,2.296L7.748,2.292L7.74,2.29L7.723,2.284L7.687,2.274L7.677,2.271C7.62,2.257 7.561,2.25 7.5,2.25C7.439,2.25 7.38,2.257 7.323,2.271Z"/>
</svg>
