<?xml version="1.0" encoding="UTF-8" standalone="no"?>
<!DOCTYPE svg PUBLIC "-//W3C//DTD SVG 1.1//EN" "http://www.w3.org/Graphics/SVG/1.1/DTD/svg11.dtd">
<svg width="100%" height="100%" viewBox="0 0 24 24" version="1.1" xmlns="http://www.w3.org/2000/svg" xmlns:xlink="http://www.w3.org/1999/xlink" xml:space="preserve" xmlns:serif="http://www.serif.com/" style="fill-rule:evenodd;clip-rule:evenodd;stroke-linejoin:round;stroke-miterlimit:2;">
    <path d="M2.25,16.5L2.25,18.75C2.25,20.396 3.604,21.75 5.25,21.75L18.75,21.75C20.396,21.75 21.75,20.396 21.75,18.75L21.75,16.5C21.75,16.086 21.414,15.75 21,15.75C20.586,15.75 20.25,16.086 20.25,16.5L20.25,18.75C20.25,19.573 19.573,20.25 18.75,20.25C18.75,20.25 5.25,20.25 5.25,20.25C4.427,20.25 3.75,19.573 3.75,18.75C3.75,18.75 3.75,16.5 3.75,16.5C3.75,16.086 3.414,15.75 3,15.75C2.586,15.75 2.25,16.086 2.25,16.5ZM11.25,14.689L8.03,11.47C7.738,11.177 7.262,11.177 6.97,11.47C6.677,11.762 6.677,12.238 6.97,12.53L11.47,17.03L11.498,17.057L11.527,17.082L11.557,17.105C11.574,17.118 11.592,17.129 11.61,17.14L11.619,17.146L11.651,17.164L11.684,17.18L11.698,17.186L11.708,17.191L11.718,17.195L11.728,17.199L11.742,17.204L11.752,17.208L11.76,17.21L11.777,17.216L11.813,17.226L11.823,17.229C11.88,17.243 11.939,17.25 12,17.25C12.061,17.25 12.12,17.243 12.177,17.229L12.187,17.226L12.223,17.216L12.258,17.204L12.272,17.199L12.282,17.195L12.292,17.191L12.302,17.186L12.316,17.18L12.325,17.176L12.334,17.172L12.349,17.164L12.381,17.146L12.413,17.126L12.443,17.105L12.473,17.082L12.502,17.057L12.53,17.03C12.53,17.03 17.03,12.53 17.03,12.53C17.323,12.238 17.323,11.762 17.03,11.47C16.738,11.177 16.262,11.177 15.97,11.47L12.75,14.689L12.75,3C12.75,2.586 12.414,2.25 12,2.25C11.586,2.25 11.25,2.586 11.25,3L11.25,14.689Z"/>
</svg>
