<?xml version="1.0" encoding="UTF-8" standalone="no"?>
<!DOCTYPE svg PUBLIC "-//W3C//DTD SVG 1.1//EN" "http://www.w3.org/Graphics/SVG/1.1/DTD/svg11.dtd">
<svg width="100%" height="100%" viewBox="0 0 24 24" version="1.1" xmlns="http://www.w3.org/2000/svg" xmlns:xlink="http://www.w3.org/1999/xlink" xml:space="preserve" xmlns:serif="http://www.serif.com/" style="fill-rule:evenodd;clip-rule:evenodd;stroke-linejoin:round;stroke-miterlimit:2;">
    <path d="M9,7.5L7.5,7.5C5.854,7.5 4.5,8.854 4.5,10.5C4.5,10.5 4.5,19.5 4.5,19.5C4.5,21.146 5.854,22.5 7.5,22.5L16.5,22.5C18.146,22.5 19.5,21.146 19.5,19.5L19.5,10.5C19.5,8.854 18.146,7.5 16.5,7.5C16.5,7.5 15,7.5 15,7.5C14.586,7.5 14.25,7.836 14.25,8.25C14.25,8.664 14.586,9 15,9L16.5,9C17.323,9 18,9.677 18,10.5C18,10.5 18,19.5 18,19.5C18,20.323 17.323,21 16.5,21C16.5,21 7.5,21 7.5,21C6.677,21 6,20.323 6,19.5L6,10.5C6,9.677 6.677,9 7.5,9L9,9C9.414,9 9.75,8.664 9.75,8.25C9.75,7.836 9.414,7.5 9,7.5ZM11.25,13.189L9.53,11.47C9.238,11.177 8.762,11.177 8.47,11.47C8.177,11.762 8.177,12.238 8.47,12.53L11.47,15.53L11.498,15.557C11.533,15.589 11.57,15.617 11.61,15.64L11.619,15.646L11.651,15.664L11.684,15.68L11.698,15.686L11.708,15.691L11.718,15.695L11.728,15.699L11.742,15.704L11.752,15.708L11.76,15.71L11.777,15.716L11.813,15.726L11.823,15.729C11.88,15.743 11.939,15.75 12,15.75C12.061,15.75 12.12,15.743 12.177,15.729L12.187,15.726L12.223,15.716L12.258,15.704L12.272,15.699L12.282,15.695L12.292,15.691L12.303,15.686L12.316,15.68L12.325,15.676L12.349,15.664L12.381,15.646L12.413,15.626L12.443,15.605L12.473,15.582L12.502,15.557L12.53,15.53L15.53,12.53C15.823,12.238 15.823,11.762 15.53,11.47C15.238,11.177 14.762,11.177 14.47,11.47L12.75,13.189L12.75,2.25C12.75,1.836 12.414,1.5 12,1.5C11.586,1.5 11.25,1.836 11.25,2.25L11.25,13.189Z"/>
</svg>
