<?xml version="1.0" encoding="UTF-8" standalone="no"?>
<!DOCTYPE svg PUBLIC "-//W3C//DTD SVG 1.1//EN" "http://www.w3.org/Graphics/SVG/1.1/DTD/svg11.dtd">
<svg width="100%" height="100%" viewBox="0 0 24 24" version="1.1" xmlns="http://www.w3.org/2000/svg" xmlns:xlink="http://www.w3.org/1999/xlink" xml:space="preserve" xmlns:serif="http://www.serif.com/" style="fill-rule:evenodd;clip-rule:evenodd;stroke-linejoin:round;stroke-miterlimit:2;">
    <path d="M16.5,9L16.5,5.25C16.5,3.604 15.146,2.25 13.5,2.25L7.5,2.25C5.854,2.25 4.5,3.604 4.5,5.25C4.5,5.25 4.5,18.75 4.5,18.75C4.5,20.396 5.854,21.75 7.5,21.75L13.5,21.75C15.146,21.75 16.5,20.396 16.5,18.75L16.5,15C16.5,14.586 16.164,14.25 15.75,14.25C15.336,14.25 15,14.586 15,15L15,18.75C15,19.573 14.323,20.25 13.5,20.25C13.5,20.25 7.5,20.25 7.5,20.25C6.677,20.25 6,19.573 6,18.75L6,5.25C6,4.427 6.677,3.75 7.5,3.75C7.5,3.75 13.5,3.75 13.5,3.75C14.323,3.75 15,4.427 15,5.25C15,5.25 15,9 15,9C15,9.414 15.336,9.75 15.75,9.75C16.164,9.75 16.5,9.414 16.5,9ZM8.47,11.47L8.443,11.498L8.418,11.527L8.395,11.557C8.388,11.567 8.381,11.577 8.374,11.587L8.354,11.619L8.336,11.651L8.32,11.684L8.314,11.698L8.309,11.708L8.305,11.718L8.301,11.728L8.296,11.742L8.292,11.752L8.29,11.76L8.284,11.777L8.274,11.813L8.271,11.823C8.257,11.88 8.25,11.939 8.25,12C8.25,12.061 8.257,12.12 8.271,12.177L8.274,12.187L8.284,12.223L8.296,12.258L8.301,12.272L8.305,12.282L8.309,12.292L8.314,12.302L8.32,12.316L8.324,12.325L8.328,12.332L8.336,12.349L8.354,12.381L8.374,12.413L8.395,12.443L8.418,12.473L8.443,12.502L8.47,12.53L11.47,15.53C11.762,15.823 12.238,15.823 12.53,15.53C12.823,15.238 12.823,14.762 12.53,14.47L10.811,12.75L21.75,12.75C22.164,12.75 22.5,12.414 22.5,12C22.5,11.586 22.164,11.25 21.75,11.25L10.811,11.25L12.53,9.53C12.823,9.238 12.823,8.762 12.53,8.47C12.238,8.177 11.762,8.177 11.47,8.47L8.47,11.47Z"/>
</svg>
