<?xml version="1.0" encoding="UTF-8" standalone="no"?>
<!DOCTYPE svg PUBLIC "-//W3C//DTD SVG 1.1//EN" "http://www.w3.org/Graphics/SVG/1.1/DTD/svg11.dtd">
<svg width="100%" height="100%" viewBox="0 0 24 24" version="1.1" xmlns="http://www.w3.org/2000/svg" xmlns:xlink="http://www.w3.org/1999/xlink" xml:space="preserve" xmlns:serif="http://www.serif.com/" style="fill-rule:evenodd;clip-rule:evenodd;stroke-linejoin:round;stroke-miterlimit:2;">
    <path d="M9,7.5L7.5,7.5C5.854,7.5 4.5,8.854 4.5,10.5C4.5,10.5 4.5,19.5 4.5,19.5C4.5,21.146 5.854,22.5 7.5,22.5L16.5,22.5C18.146,22.5 19.5,21.146 19.5,19.5L19.5,10.5C19.5,8.854 18.146,7.5 16.5,7.5C16.5,7.5 15,7.5 15,7.5C14.586,7.5 14.25,7.836 14.25,8.25C14.25,8.664 14.586,9 15,9L16.5,9C17.323,9 18,9.677 18,10.5C18,10.5 18,19.5 18,19.5C18,20.323 17.323,21 16.5,21C16.5,21 7.5,21 7.5,21C6.677,21 6,20.323 6,19.5L6,10.5C6,9.677 6.677,9 7.5,9L9,9C9.414,9 9.75,8.664 9.75,8.25C9.75,7.836 9.414,7.5 9,7.5ZM11.823,1.521L11.813,1.524L11.777,1.534L11.742,1.546L11.728,1.551L11.718,1.555L11.708,1.559L11.698,1.564L11.684,1.57L11.675,1.574L11.668,1.578L11.651,1.586L11.619,1.604L11.587,1.624L11.557,1.645L11.527,1.668L11.498,1.693L11.47,1.72L8.47,4.72C8.177,5.012 8.177,5.488 8.47,5.78C8.762,6.073 9.238,6.073 9.53,5.78L11.25,4.061L11.25,15C11.25,15.414 11.586,15.75 12,15.75C12.414,15.75 12.75,15.414 12.75,15L12.75,4.061L14.47,5.78C14.762,6.073 15.238,6.073 15.53,5.78C15.823,5.488 15.823,5.012 15.53,4.72L12.53,1.72L12.527,1.716C12.485,1.675 12.439,1.639 12.39,1.61L12.381,1.604L12.349,1.586L12.316,1.57L12.302,1.564L12.292,1.559L12.282,1.555L12.272,1.551L12.258,1.546L12.248,1.542L12.24,1.54L12.223,1.534L12.187,1.524L12.177,1.521C12.12,1.507 12.061,1.5 12,1.5C11.939,1.5 11.88,1.507 11.823,1.521Z"/>
</svg>
