<?xml version="1.0" encoding="UTF-8" standalone="no"?>
<!DOCTYPE svg PUBLIC "-//W3C//DTD SVG 1.1//EN" "http://www.w3.org/Graphics/SVG/1.1/DTD/svg11.dtd">
<svg width="100%" height="100%" viewBox="0 0 24 24" version="1.1" xmlns="http://www.w3.org/2000/svg" xmlns:xlink="http://www.w3.org/1999/xlink" xml:space="preserve" xmlns:serif="http://www.serif.com/" style="fill-rule:evenodd;clip-rule:evenodd;stroke-linejoin:round;stroke-miterlimit:2;">
    <path d="M4.811,9.75L15,9.75C17.88,9.75 20.25,12.12 20.25,15C20.25,17.88 17.88,20.25 15,20.25C15,20.25 12,20.25 12,20.25C11.586,20.25 11.25,20.586 11.25,21C11.25,21.414 11.586,21.75 12,21.75L15,21.75C18.703,21.75 21.75,18.703 21.75,15C21.75,11.297 18.703,8.25 15,8.25L4.811,8.25L9.53,3.53C9.823,3.238 9.823,2.762 9.53,2.47C9.238,2.177 8.762,2.177 8.47,2.47L2.47,8.47C2.427,8.513 2.39,8.56 2.36,8.61L2.354,8.619L2.336,8.651L2.32,8.684L2.314,8.698L2.309,8.708L2.305,8.718L2.301,8.728L2.296,8.742L2.292,8.752L2.29,8.76L2.284,8.777L2.274,8.813L2.271,8.823C2.257,8.88 2.25,8.939 2.25,9C2.25,9.061 2.257,9.12 2.271,9.177L2.274,9.187L2.284,9.223L2.292,9.248L2.296,9.258L2.305,9.282L2.309,9.292L2.32,9.316L2.324,9.325L2.336,9.349L2.354,9.381L2.374,9.413L2.395,9.443L2.418,9.473L2.443,9.502L2.47,9.53C2.47,9.53 8.47,15.53 8.47,15.53C8.762,15.823 9.238,15.823 9.53,15.53C9.823,15.238 9.823,14.762 9.53,14.47L4.811,9.75Z"/>
</svg>
