<?xml version="1.0" encoding="UTF-8" standalone="no"?>
<!DOCTYPE svg PUBLIC "-//W3C//DTD SVG 1.1//EN" "http://www.w3.org/Graphics/SVG/1.1/DTD/svg11.dtd">
<svg width="100%" height="100%" viewBox="0 0 24 24" version="1.1" xmlns="http://www.w3.org/2000/svg" xmlns:xlink="http://www.w3.org/1999/xlink" xml:space="preserve" xmlns:serif="http://www.serif.com/" style="fill-rule:evenodd;clip-rule:evenodd;stroke-linejoin:round;stroke-miterlimit:2;">
    <path d="M19.901,8.869L18.815,9.353C16.456,10.399 14.477,12.138 13.136,14.326C13.136,14.326 9.53,10.72 9.53,10.72C9.39,10.579 9.199,10.5 9,10.5C8.801,10.5 8.61,10.579 8.47,10.72L1.72,17.47C1.427,17.762 1.427,18.238 1.72,18.53C2.012,18.823 2.488,18.823 2.78,18.53L9,12.311C9,12.311 12.776,16.087 12.776,16.087C12.946,16.257 13.187,16.335 13.424,16.298C13.661,16.26 13.866,16.111 13.975,15.896C15.141,13.597 17.067,11.769 19.424,10.724L20.511,10.24L18.88,14.49C18.731,14.877 18.925,15.311 19.311,15.459C19.698,15.608 20.132,15.414 20.28,15.028L22.56,9.087L22.573,9.05L22.584,9.014L22.593,8.977L22.6,8.94L22.605,8.903L22.609,8.867L22.61,8.83L22.61,8.815L22.61,8.804L22.61,8.793L22.609,8.782L22.608,8.767L22.608,8.757L22.607,8.749L22.605,8.73L22.6,8.694L22.598,8.683C22.587,8.626 22.57,8.569 22.545,8.513C22.52,8.457 22.49,8.406 22.454,8.36L22.447,8.351L22.424,8.323L22.399,8.296L22.388,8.286L22.38,8.277L22.373,8.27L22.364,8.263L22.353,8.253L22.345,8.246L22.339,8.241L22.325,8.229L22.295,8.207L22.264,8.186L22.232,8.167L22.199,8.149L22.164,8.133L22.129,8.118L16.189,5.838C15.802,5.689 15.368,5.883 15.22,6.269C15.071,6.656 15.265,7.09 15.651,7.238L19.901,8.869Z"/>
</svg>
