<?xml version="1.0" encoding="UTF-8" standalone="no"?>
<!DOCTYPE svg PUBLIC "-//W3C//DTD SVG 1.1//EN" "http://www.w3.org/Graphics/SVG/1.1/DTD/svg11.dtd">
<svg width="100%" height="100%" viewBox="0 0 24 24" version="1.1" xmlns="http://www.w3.org/2000/svg" xmlns:xlink="http://www.w3.org/1999/xlink" xml:space="preserve" xmlns:serif="http://www.serif.com/" style="fill-rule:evenodd;clip-rule:evenodd;stroke-linejoin:round;stroke-miterlimit:2;">
    <path d="M17.689,11.25L4.5,11.25C4.086,11.25 3.75,11.586 3.75,12C3.75,12.414 4.086,12.75 4.5,12.75L17.689,12.75L12.22,18.22C11.927,18.512 11.927,18.988 12.22,19.28C12.512,19.573 12.988,19.573 13.28,19.28L20.03,12.53L20.057,12.502L20.082,12.473L20.105,12.443L20.126,12.413L20.146,12.381L20.164,12.349L20.18,12.316L20.186,12.302L20.191,12.292L20.195,12.282L20.199,12.272L20.204,12.258L20.216,12.223L20.226,12.187L20.229,12.177C20.243,12.12 20.25,12.061 20.25,12C20.25,11.939 20.243,11.88 20.229,11.823L20.226,11.813L20.216,11.777L20.204,11.742L20.199,11.728L20.195,11.718L20.191,11.708L20.186,11.698L20.18,11.684L20.176,11.675L20.172,11.668L20.164,11.651L20.146,11.619L20.126,11.587L20.105,11.557L20.082,11.527L20.057,11.498L20.03,11.47C20.03,11.47 13.28,4.72 13.28,4.72C12.988,4.427 12.512,4.427 12.22,4.72C11.927,5.012 11.927,5.488 12.22,5.78L17.689,11.25Z"/>
</svg>
