<?xml version="1.0" encoding="UTF-8" standalone="no"?>
<!DOCTYPE svg PUBLIC "-//W3C//DTD SVG 1.1//EN" "http://www.w3.org/Graphics/SVG/1.1/DTD/svg11.dtd">
<svg width="100%" height="100%" viewBox="0 0 24 24" version="1.1" xmlns="http://www.w3.org/2000/svg" xmlns:xlink="http://www.w3.org/1999/xlink" xml:space="preserve" xmlns:serif="http://www.serif.com/" style="fill-rule:evenodd;clip-rule:evenodd;stroke-linejoin:round;stroke-miterlimit:2;">
    <path d="M21.75,12C21.75,6.651 17.349,2.25 12,2.25C6.651,2.25 2.25,6.651 2.25,12C2.25,17.349 6.651,21.75 12,21.75C17.349,21.75 21.75,17.349 21.75,12ZM20.25,12C20.25,16.526 16.526,20.25 12,20.25C7.474,20.25 3.75,16.526 3.75,12C3.75,7.474 7.474,3.75 12,3.75C16.526,3.75 20.25,7.474 20.25,12ZM13.939,11.25L8.25,11.25C7.836,11.25 7.5,11.586 7.5,12C7.5,12.414 7.836,12.75 8.25,12.75L13.939,12.75L12.22,14.47C11.927,14.762 11.927,15.238 12.22,15.53C12.512,15.823 12.988,15.823 13.28,15.53L16.28,12.53C16.323,12.487 16.36,12.44 16.39,12.39L16.396,12.381L16.414,12.349L16.43,12.316L16.436,12.302L16.441,12.292L16.445,12.282L16.449,12.272L16.454,12.258L16.458,12.248L16.46,12.24L16.466,12.223L16.476,12.187L16.479,12.177C16.493,12.12 16.5,12.061 16.5,12C16.5,11.939 16.493,11.88 16.479,11.823L16.476,11.813L16.466,11.777L16.454,11.742L16.449,11.728L16.445,11.718L16.441,11.708L16.436,11.698L16.43,11.684L16.426,11.675L16.422,11.668L16.414,11.651L16.396,11.619L16.376,11.587L16.355,11.557L16.332,11.527L16.307,11.498L16.28,11.47C16.28,11.47 13.28,8.47 13.28,8.47C12.988,8.177 12.512,8.177 12.22,8.47C11.927,8.762 11.927,9.238 12.22,9.53L13.939,11.25Z"/>
</svg>
