<?xml version="1.0" encoding="UTF-8" standalone="no"?>
<!DOCTYPE svg PUBLIC "-//W3C//DTD SVG 1.1//EN" "http://www.w3.org/Graphics/SVG/1.1/DTD/svg11.dtd">
<svg width="100%" height="100%" viewBox="0 0 24 24" version="1.1" xmlns="http://www.w3.org/2000/svg" xmlns:xlink="http://www.w3.org/1999/xlink" xml:space="preserve" xmlns:serif="http://www.serif.com/" style="fill-rule:evenodd;clip-rule:evenodd;stroke-linejoin:round;stroke-miterlimit:2;">
    <path d="M5.25,17.689L5.25,8.25C5.25,7.836 4.914,7.5 4.5,7.5C4.086,7.5 3.75,7.836 3.75,8.25L3.75,19.5L3.751,19.539L3.754,19.577L3.759,19.614L3.765,19.651L3.774,19.687L3.784,19.723L3.796,19.758L3.801,19.772L3.805,19.782L3.809,19.792L3.814,19.802L3.82,19.816L3.824,19.825L3.828,19.832L3.836,19.849L3.854,19.881L3.86,19.89C3.89,19.94 3.927,19.987 3.97,20.03C4.013,20.073 4.06,20.11 4.11,20.14L4.119,20.146L4.151,20.164L4.184,20.18L4.198,20.186L4.208,20.191L4.218,20.195L4.228,20.199L4.242,20.204L4.252,20.208L4.261,20.211L4.277,20.216L4.313,20.226L4.349,20.235L4.386,20.241L4.423,20.246L4.461,20.249L4.5,20.25L15.75,20.25C16.164,20.25 16.5,19.914 16.5,19.5C16.5,19.086 16.164,18.75 15.75,18.75L6.311,18.75L20.03,5.03C20.323,4.738 20.323,4.262 20.03,3.97C19.738,3.677 19.262,3.677 18.97,3.97L5.25,17.689Z"/>
</svg>
