<?xml version="1.0" encoding="UTF-8" standalone="no"?>
<!DOCTYPE svg PUBLIC "-//W3C//DTD SVG 1.1//EN" "http://www.w3.org/Graphics/SVG/1.1/DTD/svg11.dtd">
<svg width="100%" height="100%" viewBox="0 0 24 24" version="1.1" xmlns="http://www.w3.org/2000/svg" xmlns:xlink="http://www.w3.org/1999/xlink" xml:space="preserve" xmlns:serif="http://www.serif.com/" style="fill-rule:evenodd;clip-rule:evenodd;stroke-linejoin:round;stroke-miterlimit:2;">
    <path d="M21.75,12C21.75,6.651 17.349,2.25 12,2.25C6.651,2.25 2.25,6.651 2.25,12C2.25,17.349 6.651,21.75 12,21.75C17.349,21.75 21.75,17.349 21.75,12ZM20.25,12C20.25,16.526 16.526,20.25 12,20.25C7.474,20.25 3.75,16.526 3.75,12C3.75,7.474 7.474,3.75 12,3.75C16.526,3.75 20.25,7.474 20.25,12ZM7.61,11.61L7.604,11.619L7.586,11.651L7.57,11.684L7.564,11.698L7.559,11.708L7.555,11.718L7.551,11.728L7.546,11.742L7.542,11.752L7.54,11.76L7.534,11.777L7.524,11.813L7.521,11.823C7.507,11.88 7.5,11.939 7.5,12C7.5,12.061 7.507,12.12 7.521,12.177L7.524,12.187L7.534,12.223L7.546,12.258L7.551,12.272L7.555,12.282L7.559,12.292L7.564,12.302L7.57,12.316L7.574,12.325L7.586,12.349L7.604,12.381L7.624,12.413L7.645,12.443L7.668,12.473L7.693,12.502L7.72,12.53L10.72,15.53C11.012,15.823 11.488,15.823 11.78,15.53C12.073,15.238 12.073,14.762 11.78,14.47L10.061,12.75L15.75,12.75C16.164,12.75 16.5,12.414 16.5,12C16.5,11.586 16.164,11.25 15.75,11.25L10.061,11.25L11.78,9.53C12.073,9.238 12.073,8.762 11.78,8.47C11.488,8.177 11.012,8.177 10.72,8.47L7.72,11.47C7.677,11.513 7.64,11.56 7.61,11.61Z"/>
</svg>
