<?xml version="1.0" encoding="UTF-8" standalone="no"?>
<!DOCTYPE svg PUBLIC "-//W3C//DTD SVG 1.1//EN" "http://www.w3.org/Graphics/SVG/1.1/DTD/svg11.dtd">
<svg width="100%" height="100%" viewBox="0 0 24 24" version="1.1" xmlns="http://www.w3.org/2000/svg" xmlns:xlink="http://www.w3.org/1999/xlink" xml:space="preserve" xmlns:serif="http://www.serif.com/" style="fill-rule:evenodd;clip-rule:evenodd;stroke-linejoin:round;stroke-miterlimit:2;">
    <path d="M19.189,11.25L3,11.25C2.586,11.25 2.25,11.586 2.25,12C2.25,12.414 2.586,12.75 3,12.75L19.189,12.75L16.72,15.22C16.427,15.512 16.427,15.988 16.72,16.28C17.012,16.573 17.488,16.573 17.78,16.28L21.53,12.53C21.573,12.487 21.61,12.44 21.64,12.39L21.646,12.381L21.664,12.349L21.68,12.316L21.686,12.302L21.691,12.292L21.695,12.282L21.699,12.272L21.704,12.258L21.708,12.248L21.71,12.24L21.716,12.223L21.726,12.187L21.729,12.177C21.743,12.12 21.75,12.061 21.75,12C21.75,11.939 21.743,11.88 21.729,11.823L21.726,11.813L21.716,11.777L21.704,11.742L21.699,11.728L21.695,11.718L21.691,11.708L21.686,11.698L21.68,11.684L21.676,11.675L21.672,11.668L21.664,11.651L21.646,11.619L21.626,11.587L21.605,11.557L21.582,11.527L21.557,11.498L21.53,11.47C21.53,11.47 17.78,7.72 17.78,7.72C17.488,7.427 17.012,7.427 16.72,7.72C16.427,8.012 16.427,8.488 16.72,8.78L19.189,11.25Z"/>
</svg>
