<?xml version="1.0" encoding="UTF-8" standalone="no"?>
<!DOCTYPE svg PUBLIC "-//W3C//DTD SVG 1.1//EN" "http://www.w3.org/Graphics/SVG/1.1/DTD/svg11.dtd">
<svg width="100%" height="100%" viewBox="0 0 24 24" version="1.1" xmlns="http://www.w3.org/2000/svg" xmlns:xlink="http://www.w3.org/1999/xlink" xml:space="preserve" xmlns:serif="http://www.serif.com/" style="fill-rule:evenodd;clip-rule:evenodd;stroke-linejoin:round;stroke-miterlimit:2;">
    <path d="M6.673,20.249L6.75,20.25C6.75,21.896 8.104,23.25 9.75,23.25L17.25,23.25C18.896,23.25 20.25,21.896 20.25,20.25L20.25,12.75C20.25,11.104 18.896,9.75 17.25,9.75C17.25,8.104 15.896,6.75 14.25,6.75L13.5,6.75C13.086,6.75 12.75,7.086 12.75,7.5C12.75,7.914 13.086,8.25 13.5,8.25L14.25,8.25C15.073,8.25 15.75,8.927 15.75,9.75C15.75,9.75 15.75,17.25 15.75,17.25C15.75,18.073 15.073,18.75 14.25,18.75C14.25,18.75 6.75,18.75 6.75,18.75C5.927,18.75 5.25,18.073 5.25,17.25L5.25,9.75C5.25,8.927 5.927,8.25 6.75,8.25C6.75,8.25 7.5,8.25 7.5,8.25C7.914,8.25 8.25,7.914 8.25,7.5C8.25,7.086 7.914,6.75 7.5,6.75L6.75,6.75C5.104,6.75 3.75,8.104 3.75,9.75C3.75,9.75 3.75,17.25 3.75,17.25C3.75,18.87 5.062,20.208 6.673,20.249ZM17.25,11.25L17.25,17.25C17.25,18.896 15.896,20.25 14.25,20.25L8.25,20.25C8.25,21.073 8.927,21.75 9.75,21.75C9.75,21.75 17.25,21.75 17.25,21.75C18.073,21.75 18.75,21.073 18.75,20.25C18.75,20.25 18.75,12.75 18.75,12.75C18.75,11.927 18.073,11.25 17.25,11.25ZM10.323,0.771L10.313,0.774L10.277,0.784L10.242,0.796L10.228,0.801L10.218,0.805L10.208,0.809L10.198,0.814L10.184,0.82L10.175,0.824L10.168,0.828L10.151,0.836L10.119,0.854L10.087,0.874L10.057,0.895L10.027,0.918L9.998,0.943L9.97,0.97C9.97,0.97 6.97,3.97 6.97,3.97C6.677,4.262 6.677,4.738 6.97,5.03C7.262,5.323 7.738,5.323 8.03,5.03L9.75,3.311L9.75,12.75C9.75,13.164 10.086,13.5 10.5,13.5C10.914,13.5 11.25,13.164 11.25,12.75L11.25,3.311L12.97,5.03C13.262,5.323 13.738,5.323 14.03,5.03C14.323,4.738 14.323,4.262 14.03,3.97L11.03,0.97C10.987,0.927 10.94,0.89 10.89,0.86L10.881,0.854L10.849,0.836L10.816,0.82L10.802,0.814L10.792,0.809L10.782,0.805L10.772,0.801L10.758,0.796L10.748,0.792L10.74,0.79L10.723,0.784L10.687,0.774L10.677,0.771C10.62,0.757 10.561,0.75 10.5,0.75C10.439,0.75 10.38,0.757 10.323,0.771Z"/>
</svg>
