<?xml version="1.0" encoding="UTF-8" standalone="no"?>
<!DOCTYPE svg PUBLIC "-//W3C//DTD SVG 1.1//EN" "http://www.w3.org/Graphics/SVG/1.1/DTD/svg11.dtd">
<svg width="100%" height="100%" viewBox="0 0 24 24" version="1.1" xmlns="http://www.w3.org/2000/svg" xmlns:xlink="http://www.w3.org/1999/xlink" xml:space="preserve" xmlns:serif="http://www.serif.com/" style="fill-rule:evenodd;clip-rule:evenodd;stroke-linejoin:round;stroke-miterlimit:2;">
    <path d="M2.25,16.5L2.25,18.75C2.25,20.396 3.604,21.75 5.25,21.75L18.75,21.75C20.396,21.75 21.75,20.396 21.75,18.75L21.75,16.5C21.75,16.086 21.414,15.75 21,15.75C20.586,15.75 20.25,16.086 20.25,16.5L20.25,18.75C20.25,19.573 19.573,20.25 18.75,20.25C18.75,20.25 5.25,20.25 5.25,20.25C4.427,20.25 3.75,19.573 3.75,18.75C3.75,18.75 3.75,16.5 3.75,16.5C3.75,16.086 3.414,15.75 3,15.75C2.586,15.75 2.25,16.086 2.25,16.5ZM11.823,2.271L11.813,2.274L11.777,2.284L11.742,2.296L11.728,2.301L11.718,2.305L11.708,2.309L11.698,2.314L11.684,2.32L11.675,2.324L11.651,2.336L11.619,2.354L11.587,2.374L11.557,2.395L11.527,2.418L11.498,2.443L11.47,2.47C11.47,2.47 6.97,6.97 6.97,6.97C6.677,7.262 6.677,7.738 6.97,8.03C7.262,8.323 7.738,8.323 8.03,8.03L11.25,4.811L11.25,16.5C11.25,16.914 11.586,17.25 12,17.25C12.414,17.25 12.75,16.914 12.75,16.5L12.75,4.811L15.97,8.03C16.262,8.323 16.738,8.323 17.03,8.03C17.323,7.738 17.323,7.262 17.03,6.97L12.53,2.47C12.487,2.427 12.44,2.39 12.39,2.36L12.381,2.354L12.349,2.336L12.316,2.32L12.302,2.314L12.292,2.309L12.282,2.305L12.272,2.301L12.258,2.296L12.248,2.292L12.24,2.29L12.223,2.284L12.187,2.274L12.177,2.271C12.12,2.257 12.061,2.25 12,2.25C11.939,2.25 11.88,2.257 11.823,2.271Z"/>
</svg>
