<?xml version="1.0" encoding="UTF-8" standalone="no"?>
<!DOCTYPE svg PUBLIC "-//W3C//DTD SVG 1.1//EN" "http://www.w3.org/Graphics/SVG/1.1/DTD/svg11.dtd">
<svg width="100%" height="100%" viewBox="0 0 24 24" version="1.1" xmlns="http://www.w3.org/2000/svg" xmlns:xlink="http://www.w3.org/1999/xlink" xml:space="preserve" xmlns:serif="http://www.serif.com/" style="fill-rule:evenodd;clip-rule:evenodd;stroke-linejoin:round;stroke-miterlimit:2;">
    <path d="M21.75,12C21.75,6.651 17.349,2.25 12,2.25C6.651,2.25 2.25,6.651 2.25,12C2.25,17.349 6.651,21.75 12,21.75C17.349,21.75 21.75,17.349 21.75,12ZM20.25,12C20.25,16.526 16.526,20.25 12,20.25C7.474,20.25 3.75,16.526 3.75,12C3.75,7.474 7.474,3.75 12,3.75C16.526,3.75 20.25,7.474 20.25,12ZM11.25,13.939L9.53,12.22C9.238,11.927 8.762,11.927 8.47,12.22C8.177,12.512 8.177,12.988 8.47,13.28L11.47,16.28C11.513,16.323 11.56,16.36 11.61,16.39L11.619,16.396L11.651,16.414L11.684,16.43L11.698,16.436L11.708,16.441L11.718,16.445L11.728,16.449L11.742,16.454L11.752,16.458L11.76,16.46L11.777,16.466L11.813,16.476L11.823,16.479C11.88,16.493 11.939,16.5 12,16.5C12.061,16.5 12.12,16.493 12.177,16.479L12.187,16.476L12.223,16.466L12.258,16.454L12.272,16.449L12.282,16.445L12.292,16.441L12.316,16.43L12.325,16.426L12.349,16.414L12.381,16.396L12.413,16.376L12.443,16.355L12.473,16.332L12.502,16.307L12.53,16.28C12.53,16.28 15.53,13.28 15.53,13.28C15.823,12.988 15.823,12.512 15.53,12.22C15.238,11.927 14.762,11.927 14.47,12.22L12.75,13.939L12.75,8.25C12.75,7.836 12.414,7.5 12,7.5C11.586,7.5 11.25,7.836 11.25,8.25L11.25,13.939Z"/>
</svg>
