<?xml version="1.0" encoding="UTF-8" standalone="no"?>
<!DOCTYPE svg PUBLIC "-//W3C//DTD SVG 1.1//EN" "http://www.w3.org/Graphics/SVG/1.1/DTD/svg11.dtd">
<svg width="100%" height="100%" viewBox="0 0 24 24" version="1.1" xmlns="http://www.w3.org/2000/svg" xmlns:xlink="http://www.w3.org/1999/xlink" xml:space="preserve" xmlns:serif="http://www.serif.com/" style="fill-rule:evenodd;clip-rule:evenodd;stroke-linejoin:round;stroke-miterlimit:2;">
    <path d="M2.36,16.11L2.354,16.119L2.336,16.151L2.32,16.184L2.314,16.198L2.309,16.208L2.305,16.218L2.301,16.228L2.296,16.242L2.292,16.252L2.29,16.26L2.284,16.277L2.274,16.313L2.271,16.323C2.257,16.38 2.25,16.439 2.25,16.5C2.25,16.561 2.257,16.62 2.271,16.677L2.274,16.687L2.284,16.723L2.296,16.758L2.301,16.772L2.305,16.782L2.309,16.792L2.314,16.802L2.32,16.816L2.324,16.825L2.328,16.832L2.336,16.849L2.354,16.881L2.374,16.913L2.395,16.943L2.418,16.973L2.443,17.002L2.47,17.03C2.47,17.03 6.97,21.53 6.97,21.53C7.262,21.823 7.738,21.823 8.03,21.53C8.323,21.238 8.323,20.762 8.03,20.47L4.811,17.25L16.5,17.25C16.914,17.25 17.25,16.914 17.25,16.5C17.25,16.086 16.914,15.75 16.5,15.75L4.811,15.75L8.03,12.53C8.323,12.238 8.323,11.762 8.03,11.47C7.738,11.177 7.262,11.177 6.97,11.47L2.47,15.97C2.427,16.013 2.39,16.06 2.36,16.11ZM19.189,6.75L7.5,6.75C7.086,6.75 6.75,7.086 6.75,7.5C6.75,7.914 7.086,8.25 7.5,8.25L19.189,8.25L15.97,11.47C15.677,11.762 15.677,12.238 15.97,12.53C16.262,12.823 16.738,12.823 17.03,12.53L21.53,8.03C21.573,7.987 21.61,7.94 21.64,7.89L21.646,7.881L21.664,7.849L21.68,7.816L21.686,7.802L21.691,7.792L21.695,7.782L21.699,7.772L21.704,7.758L21.708,7.748L21.71,7.74L21.716,7.723L21.726,7.687L21.729,7.677C21.743,7.62 21.75,7.561 21.75,7.5C21.75,7.439 21.743,7.38 21.729,7.323L21.726,7.313L21.716,7.277L21.704,7.242L21.699,7.228L21.695,7.218L21.691,7.208L21.686,7.198L21.68,7.184L21.676,7.175L21.672,7.168L21.664,7.151L21.646,7.119L21.626,7.087L21.605,7.057L21.582,7.027L21.557,6.998L21.53,6.97C21.53,6.97 17.03,2.47 17.03,2.47C16.738,2.177 16.262,2.177 15.97,2.47C15.677,2.762 15.677,3.238 15.97,3.53L19.189,6.75Z"/>
</svg>
