<?xml version="1.0" encoding="UTF-8" standalone="no"?>
<!DOCTYPE svg PUBLIC "-//W3C//DTD SVG 1.1//EN" "http://www.w3.org/Graphics/SVG/1.1/DTD/svg11.dtd">
<svg width="100%" height="100%" viewBox="0 0 24 24" version="1.1" xmlns="http://www.w3.org/2000/svg" xmlns:xlink="http://www.w3.org/1999/xlink" xml:space="preserve" xmlns:serif="http://www.serif.com/" style="fill-rule:evenodd;clip-rule:evenodd;stroke-linejoin:round;stroke-miterlimit:2;">
    <path d="M19.189,8.25L9,8.25C5.297,8.25 2.25,11.297 2.25,15C2.25,18.703 5.297,21.75 9,21.75L12,21.75C12.414,21.75 12.75,21.414 12.75,21C12.75,20.586 12.414,20.25 12,20.25L9,20.25C6.12,20.25 3.75,17.88 3.75,15C3.75,12.12 6.12,9.75 9,9.75L19.189,9.75L14.47,14.47C14.177,14.762 14.177,15.238 14.47,15.53C14.762,15.823 15.238,15.823 15.53,15.53L21.53,9.53C21.573,9.487 21.61,9.44 21.64,9.39L21.646,9.381L21.664,9.349L21.68,9.316L21.686,9.302L21.691,9.292L21.695,9.282L21.699,9.272L21.704,9.258L21.708,9.248L21.71,9.24L21.716,9.223L21.726,9.187L21.729,9.177C21.743,9.12 21.75,9.061 21.75,9C21.75,8.939 21.743,8.88 21.729,8.823L21.726,8.813L21.716,8.777L21.704,8.742L21.699,8.728L21.695,8.718L21.691,8.708L21.686,8.698L21.68,8.684L21.676,8.675L21.664,8.651L21.646,8.619L21.626,8.587L21.605,8.557L21.582,8.527L21.557,8.498L21.53,8.47C21.53,8.47 15.53,2.47 15.53,2.47C15.238,2.177 14.762,2.177 14.47,2.47C14.177,2.762 14.177,3.238 14.47,3.53L19.189,8.25Z"/>
</svg>
