<?xml version="1.0" encoding="UTF-8" standalone="no"?>
<!DOCTYPE svg PUBLIC "-//W3C//DTD SVG 1.1//EN" "http://www.w3.org/Graphics/SVG/1.1/DTD/svg11.dtd">
<svg width="100%" height="100%" viewBox="0 0 24 24" version="1.1" xmlns="http://www.w3.org/2000/svg" xmlns:xlink="http://www.w3.org/1999/xlink" xml:space="preserve" xmlns:serif="http://www.serif.com/" style="fill-rule:evenodd;clip-rule:evenodd;stroke-linejoin:round;stroke-miterlimit:2;">
    <path d="M19.5,3.75C19.5,3.75 8.25,3.75 8.25,3.75C7.836,3.75 7.5,4.086 7.5,4.5C7.5,4.914 7.836,5.25 8.25,5.25L17.689,5.25L3.97,18.97C3.677,19.262 3.677,19.738 3.97,20.03C4.262,20.323 4.738,20.323 5.03,20.03L18.75,6.311L18.75,15.75C18.75,16.164 19.086,16.5 19.5,16.5C19.914,16.5 20.25,16.164 20.25,15.75L20.25,4.5C20.25,4.439 20.243,4.38 20.229,4.323L20.226,4.313L20.216,4.277L20.204,4.242L20.199,4.228L20.195,4.218L20.191,4.208L20.186,4.198L20.18,4.184L20.176,4.175L20.172,4.168L20.164,4.151L20.146,4.119L20.14,4.11C20.11,4.06 20.073,4.013 20.03,3.97C19.987,3.927 19.94,3.89 19.89,3.86L19.881,3.854L19.849,3.836L19.816,3.82L19.802,3.814L19.792,3.809L19.782,3.805L19.772,3.801L19.758,3.796L19.748,3.792L19.74,3.79L19.723,3.784L19.687,3.774L19.651,3.765L19.614,3.759L19.577,3.754L19.539,3.751L19.5,3.75Z"/>
</svg>
