<?xml version="1.0" encoding="UTF-8" standalone="no"?>
<!DOCTYPE svg PUBLIC "-//W3C//DTD SVG 1.1//EN" "http://www.w3.org/Graphics/SVG/1.1/DTD/svg11.dtd">
<svg width="100%" height="100%" viewBox="0 0 24 24" version="1.1" xmlns="http://www.w3.org/2000/svg" xmlns:xlink="http://www.w3.org/1999/xlink" xml:space="preserve" xmlns:serif="http://www.serif.com/" style="fill-rule:evenodd;clip-rule:evenodd;stroke-linejoin:round;stroke-miterlimit:2;">
    <path d="M3.711,20.999L3.75,21L8.25,21C8.664,21 9,20.664 9,20.25C9,19.836 8.664,19.5 8.25,19.5L5.561,19.5L9.53,15.53C9.823,15.238 9.823,14.762 9.53,14.47C9.238,14.177 8.762,14.177 8.47,14.47L4.5,18.439L4.5,15.75C4.5,15.336 4.164,15 3.75,15C3.336,15 3,15.336 3,15.75L3,20.25L3.001,20.289C3.003,20.336 3.01,20.382 3.021,20.427L3.024,20.437L3.034,20.473L3.046,20.508L3.051,20.522L3.055,20.532L3.059,20.542L3.064,20.552L3.07,20.566L3.074,20.575L3.078,20.582L3.086,20.599L3.104,20.631L3.11,20.64C3.14,20.69 3.177,20.737 3.22,20.78C3.263,20.823 3.31,20.86 3.36,20.89L3.369,20.896L3.401,20.914L3.434,20.93L3.448,20.936L3.458,20.941L3.468,20.945L3.48,20.95L3.492,20.954L3.502,20.958L3.527,20.966L3.563,20.976L3.599,20.985L3.636,20.991L3.673,20.996L3.711,20.999ZM18.439,19.5L15.75,19.5C15.336,19.5 15,19.836 15,20.25C15,20.664 15.336,21 15.75,21L20.25,21C20.311,21 20.37,20.993 20.427,20.979L20.437,20.976L20.473,20.966L20.508,20.954L20.522,20.949L20.532,20.945L20.542,20.941L20.552,20.936L20.566,20.93L20.575,20.926L20.582,20.922L20.599,20.914L20.631,20.896L20.64,20.89C20.69,20.86 20.737,20.823 20.78,20.78C20.823,20.737 20.86,20.69 20.89,20.64L20.896,20.631L20.914,20.599L20.93,20.566L20.936,20.552L20.941,20.542L20.945,20.532L20.949,20.522L20.954,20.508L20.958,20.498L20.96,20.49L20.966,20.473L20.976,20.437L20.985,20.401L20.991,20.364L20.996,20.327L20.999,20.289L21,20.25L21,15.75C21,15.336 20.664,15 20.25,15C19.836,15 19.5,15.336 19.5,15.75L19.5,18.439L15.53,14.47C15.238,14.177 14.762,14.177 14.47,14.47C14.177,14.762 14.177,15.238 14.47,15.53L18.439,19.5ZM3.75,3C3.75,3 3.74,3 3.74,3C3.683,3.001 3.627,3.008 3.573,3.021L3.563,3.024L3.527,3.034L3.492,3.046L3.478,3.051L3.468,3.055L3.458,3.059L3.448,3.064L3.434,3.07L3.425,3.074L3.418,3.078L3.401,3.086L3.369,3.104L3.36,3.11C3.31,3.14 3.263,3.177 3.22,3.22C3.177,3.263 3.14,3.31 3.11,3.36L3.104,3.369L3.086,3.401L3.07,3.434L3.064,3.448L3.059,3.458L3.055,3.468L3.051,3.478L3.046,3.492L3.042,3.502L3.04,3.51L3.034,3.527L3.024,3.563L3.015,3.599L3.009,3.636L3.004,3.673L3.001,3.711L3,3.75L3,8.25C3,8.664 3.336,9 3.75,9C4.164,9 4.5,8.664 4.5,8.25L4.5,5.561L8.47,9.53C8.762,9.823 9.238,9.823 9.53,9.53C9.823,9.238 9.823,8.762 9.53,8.47L5.561,4.5L8.25,4.5C8.664,4.5 9,4.164 9,3.75C9,3.336 8.664,3 8.25,3L3.75,3ZM20.289,3.001L20.25,3L15.75,3C15.336,3 15,3.336 15,3.75C15,4.164 15.336,4.5 15.75,4.5L18.439,4.5L14.47,8.47C14.177,8.762 14.177,9.238 14.47,9.53C14.762,9.823 15.238,9.823 15.53,9.53L19.5,5.561L19.5,8.25C19.5,8.664 19.836,9 20.25,9C20.664,9 21,8.664 21,8.25L21,3.75C21,3.689 20.993,3.63 20.979,3.573L20.976,3.563L20.966,3.527L20.954,3.492L20.949,3.478L20.945,3.468L20.941,3.458L20.936,3.448L20.93,3.434L20.926,3.425L20.922,3.418L20.914,3.401L20.896,3.369L20.89,3.36C20.86,3.31 20.823,3.263 20.78,3.22C20.737,3.177 20.69,3.14 20.64,3.11L20.631,3.104L20.599,3.086L20.566,3.07L20.552,3.064L20.542,3.059L20.532,3.055L20.522,3.051L20.508,3.046L20.498,3.042L20.49,3.04L20.473,3.034L20.437,3.024L20.427,3.021C20.394,3.013 20.361,3.007 20.327,3.004L20.289,3.001Z"/>
</svg>
