<?xml version="1.0" encoding="UTF-8" standalone="no"?>
<!DOCTYPE svg PUBLIC "-//W3C//DTD SVG 1.1//EN" "http://www.w3.org/Graphics/SVG/1.1/DTD/svg11.dtd">
<svg width="100%" height="100%" viewBox="0 0 24 24" version="1.1" xmlns="http://www.w3.org/2000/svg" xmlns:xlink="http://www.w3.org/1999/xlink" xml:space="preserve" xmlns:serif="http://www.serif.com/" style="fill-rule:evenodd;clip-rule:evenodd;stroke-linejoin:round;stroke-miterlimit:2;">
    <path d="M11.25,19.189L5.03,12.97C4.738,12.677 4.262,12.677 3.97,12.97C3.677,13.262 3.677,13.738 3.97,14.03L11.47,21.53C11.513,21.573 11.56,21.61 11.61,21.64L11.619,21.646L11.651,21.664L11.684,21.68L11.698,21.686L11.708,21.691L11.718,21.695L11.728,21.699L11.742,21.704L11.752,21.708L11.76,21.71L11.777,21.716L11.813,21.726L11.823,21.729C11.88,21.743 11.939,21.75 12,21.75C12.061,21.75 12.12,21.743 12.177,21.729L12.187,21.726L12.223,21.716L12.258,21.704L12.272,21.699L12.282,21.695L12.292,21.691L12.302,21.686L12.316,21.68L12.325,21.676L12.332,21.672L12.349,21.664L12.381,21.646L12.413,21.626L12.443,21.605L12.473,21.582L12.502,21.557L12.53,21.53C12.53,21.53 20.03,14.03 20.03,14.03C20.323,13.738 20.323,13.262 20.03,12.97C19.738,12.677 19.262,12.677 18.97,12.97L12.75,19.189L12.75,3C12.75,2.586 12.414,2.25 12,2.25C11.586,2.25 11.25,2.586 11.25,3L11.25,19.189Z"/>
</svg>
