<?xml version="1.0" encoding="UTF-8" standalone="no"?>
<!DOCTYPE svg PUBLIC "-//W3C//DTD SVG 1.1//EN" "http://www.w3.org/Graphics/SVG/1.1/DTD/svg11.dtd">
<svg width="100%" height="100%" viewBox="0 0 24 24" version="1.1" xmlns="http://www.w3.org/2000/svg" xmlns:xlink="http://www.w3.org/1999/xlink" xml:space="preserve" xmlns:serif="http://www.serif.com/" style="fill-rule:evenodd;clip-rule:evenodd;stroke-linejoin:round;stroke-miterlimit:2;">
    <path d="M11.823,2.271L11.813,2.274L11.777,2.284L11.742,2.296L11.728,2.301L11.718,2.305L11.708,2.309L11.698,2.314L11.684,2.32L11.675,2.324L11.668,2.328L11.651,2.336L11.619,2.354L11.587,2.374L11.557,2.395L11.527,2.418L11.498,2.443L11.47,2.47C11.47,2.47 7.72,6.22 7.72,6.22C7.427,6.512 7.427,6.988 7.72,7.28C8.012,7.573 8.488,7.573 8.78,7.28L11.25,4.811L11.25,21C11.25,21.414 11.586,21.75 12,21.75C12.414,21.75 12.75,21.414 12.75,21L12.75,4.811L15.22,7.28C15.512,7.573 15.988,7.573 16.28,7.28C16.573,6.988 16.573,6.512 16.28,6.22L12.53,2.47C12.487,2.427 12.44,2.39 12.39,2.36L12.381,2.354L12.349,2.336L12.316,2.32L12.302,2.314L12.292,2.309L12.282,2.305L12.272,2.301L12.258,2.296L12.248,2.292L12.24,2.29L12.223,2.284L12.187,2.274L12.177,2.271C12.12,2.257 12.061,2.25 12,2.25C11.939,2.25 11.88,2.257 11.823,2.271Z"/>
</svg>
