<?xml version="1.0" encoding="UTF-8" standalone="no"?>
<!DOCTYPE svg PUBLIC "-//W3C//DTD SVG 1.1//EN" "http://www.w3.org/Graphics/SVG/1.1/DTD/svg11.dtd">
<svg width="100%" height="100%" viewBox="0 0 24 24" version="1.1" xmlns="http://www.w3.org/2000/svg" xmlns:xlink="http://www.w3.org/1999/xlink" xml:space="preserve" xmlns:serif="http://www.serif.com/" style="fill-rule:evenodd;clip-rule:evenodd;stroke-linejoin:round;stroke-miterlimit:2;">
    <path d="M17.175,16.236L13.232,13.96C12.873,13.754 12.414,13.877 12.207,14.235C12.001,14.594 12.124,15.053 12.482,15.26L17.964,18.424L17.993,18.442C18.046,18.472 18.1,18.495 18.156,18.511L18.167,18.515L18.203,18.524L18.239,18.531L18.254,18.533L18.265,18.535L18.275,18.536L18.286,18.537L18.301,18.539L18.311,18.54L18.32,18.54L18.338,18.542L18.375,18.542L18.386,18.542C18.444,18.54 18.503,18.532 18.562,18.516C18.621,18.501 18.676,18.478 18.727,18.45L18.737,18.445L18.769,18.426L18.799,18.406L18.811,18.397L18.821,18.39L18.829,18.384L18.837,18.377L18.849,18.367L18.857,18.361L18.863,18.356L18.877,18.343L18.903,18.317L18.911,18.31C18.951,18.267 18.987,18.22 19.018,18.167L22.2,12.656C22.406,12.298 22.283,11.838 21.925,11.631C21.567,11.425 21.107,11.548 20.9,11.906L18.624,15.849L18.316,14.7C17.592,11.979 15.981,9.574 13.74,7.867C13.442,7.64 13.021,7.668 12.756,7.934L9,11.689C9,11.689 2.78,5.47 2.78,5.47C2.488,5.177 2.012,5.177 1.72,5.47C1.427,5.762 1.427,6.238 1.72,6.53L8.47,13.28C8.763,13.573 9.237,13.573 9.53,13.28L13.339,9.471C15.051,10.941 16.284,12.897 16.867,15.087L17.175,16.236Z"/>
</svg>
