<?xml version="1.0" encoding="UTF-8" standalone="no"?>
<!DOCTYPE svg PUBLIC "-//W3C//DTD SVG 1.1//EN" "http://www.w3.org/Graphics/SVG/1.1/DTD/svg11.dtd">
<svg width="100%" height="100%" viewBox="0 0 24 24" version="1.1" xmlns="http://www.w3.org/2000/svg" xmlns:xlink="http://www.w3.org/1999/xlink" xml:space="preserve" xmlns:serif="http://www.serif.com/" style="fill-rule:evenodd;clip-rule:evenodd;stroke-linejoin:round;stroke-miterlimit:2;">
    <path d="M14.823,2.271L14.813,2.274L14.777,2.284L14.742,2.296L14.728,2.301L14.718,2.305L14.708,2.309L14.698,2.314L14.684,2.32L14.675,2.324L14.668,2.328L14.651,2.336L14.619,2.354L14.587,2.374L14.557,2.395L14.527,2.418L14.498,2.443L14.47,2.47C14.47,2.47 8.47,8.47 8.47,8.47C8.177,8.762 8.177,9.238 8.47,9.53C8.762,9.823 9.238,9.823 9.53,9.53L14.25,4.811L14.25,15C14.25,17.88 11.88,20.25 9,20.25C6.12,20.25 3.75,17.88 3.75,15C3.75,15 3.75,12 3.75,12C3.75,11.586 3.414,11.25 3,11.25C2.586,11.25 2.25,11.586 2.25,12L2.25,15C2.25,18.703 5.297,21.75 9,21.75C12.703,21.75 15.75,18.703 15.75,15L15.75,4.811L20.47,9.53C20.762,9.823 21.238,9.823 21.53,9.53C21.823,9.238 21.823,8.762 21.53,8.47L15.53,2.47C15.487,2.427 15.44,2.39 15.39,2.36L15.381,2.354L15.349,2.336L15.316,2.32L15.302,2.314L15.292,2.309L15.282,2.305L15.272,2.301L15.258,2.296L15.248,2.292L15.24,2.29L15.223,2.284L15.187,2.274L15.177,2.271C15.12,2.257 15.061,2.25 15,2.25C14.939,2.25 14.88,2.257 14.823,2.271Z"/>
</svg>
