<?xml version="1.0" encoding="UTF-8" standalone="no"?>
<!DOCTYPE svg PUBLIC "-//W3C//DTD SVG 1.1//EN" "http://www.w3.org/Graphics/SVG/1.1/DTD/svg11.dtd">
<svg width="100%" height="100%" viewBox="0 0 24 24" version="1.1" xmlns="http://www.w3.org/2000/svg" xmlns:xlink="http://www.w3.org/1999/xlink" xml:space="preserve" xmlns:serif="http://www.serif.com/" style="fill-rule:evenodd;clip-rule:evenodd;stroke-linejoin:round;stroke-miterlimit:2;">
    <path d="M11.823,3.771L11.813,3.774L11.777,3.784L11.742,3.796L11.728,3.801L11.718,3.805L11.708,3.809L11.698,3.814L11.684,3.82L11.675,3.824L11.668,3.828L11.651,3.836L11.619,3.854L11.587,3.874L11.557,3.895L11.527,3.918L11.498,3.943L11.47,3.97L4.72,10.72C4.427,11.012 4.427,11.488 4.72,11.78C5.012,12.073 5.488,12.073 5.78,11.78L11.25,6.311L11.25,19.5C11.25,19.914 11.586,20.25 12,20.25C12.414,20.25 12.75,19.914 12.75,19.5L12.75,6.311L18.22,11.78C18.512,12.073 18.988,12.073 19.28,11.78C19.573,11.488 19.573,11.012 19.28,10.72L12.53,3.97C12.487,3.927 12.44,3.89 12.39,3.86L12.381,3.854L12.349,3.836L12.316,3.82L12.302,3.814L12.292,3.809L12.282,3.805L12.272,3.801L12.258,3.796L12.248,3.792L12.24,3.79L12.223,3.784L12.187,3.774L12.177,3.771C12.12,3.757 12.061,3.75 12,3.75C11.939,3.75 11.88,3.757 11.823,3.771Z"/>
</svg>
