<?xml version="1.0" encoding="UTF-8" standalone="no"?>
<!DOCTYPE svg PUBLIC "-//W3C//DTD SVG 1.1//EN" "http://www.w3.org/Graphics/SVG/1.1/DTD/svg11.dtd">
<svg width="100%" height="100%" viewBox="0 0 24 24" version="1.1" xmlns="http://www.w3.org/2000/svg" xmlns:xlink="http://www.w3.org/1999/xlink" xml:space="preserve" xmlns:serif="http://www.serif.com/" style="fill-rule:evenodd;clip-rule:evenodd;stroke-linejoin:round;stroke-miterlimit:2;">
    <path d="M3.97,11.47L3.943,11.498C3.911,11.533 3.883,11.57 3.86,11.61L3.854,11.619L3.836,11.651L3.82,11.684L3.814,11.698L3.809,11.708L3.805,11.718L3.801,11.728L3.796,11.742L3.792,11.752L3.79,11.76L3.784,11.777L3.774,11.813L3.771,11.823C3.757,11.88 3.75,11.939 3.75,12C3.75,12.061 3.757,12.12 3.771,12.177L3.774,12.187L3.784,12.223L3.792,12.248L3.796,12.258L3.805,12.282L3.809,12.292L3.82,12.316L3.824,12.325L3.836,12.349L3.854,12.381L3.874,12.413L3.895,12.443L3.918,12.473L3.943,12.502L3.97,12.53C3.97,12.53 10.72,19.28 10.72,19.28C11.012,19.573 11.488,19.573 11.78,19.28C12.073,18.988 12.073,18.512 11.78,18.22L6.311,12.75L19.5,12.75C19.914,12.75 20.25,12.414 20.25,12C20.25,11.586 19.914,11.25 19.5,11.25L6.311,11.25L11.78,5.78C12.073,5.488 12.073,5.012 11.78,4.72C11.488,4.427 11.012,4.427 10.72,4.72L3.97,11.47Z"/>
</svg>
