<?xml version="1.0" encoding="UTF-8" standalone="no"?>
<!DOCTYPE svg PUBLIC "-//W3C//DTD SVG 1.1//EN" "http://www.w3.org/Graphics/SVG/1.1/DTD/svg11.dtd">
<svg width="100%" height="100%" viewBox="0 0 24 24" version="1.1" xmlns="http://www.w3.org/2000/svg" xmlns:xlink="http://www.w3.org/1999/xlink" xml:space="preserve" xmlns:serif="http://www.serif.com/" style="fill-rule:evenodd;clip-rule:evenodd;stroke-linejoin:round;stroke-miterlimit:2;">
    <path d="M11.25,17.689L5.78,12.22C5.488,11.927 5.012,11.927 4.72,12.22C4.427,12.512 4.427,12.988 4.72,13.28L11.47,20.03C11.47,20.03 11.475,20.036 11.475,20.036C11.517,20.077 11.562,20.111 11.61,20.14L11.619,20.146L11.651,20.164L11.684,20.18L11.698,20.186L11.708,20.191L11.718,20.195L11.728,20.199L11.742,20.204L11.752,20.208L11.76,20.21L11.777,20.216L11.813,20.226L11.823,20.229C11.88,20.243 11.939,20.25 12,20.25C12.061,20.25 12.12,20.243 12.177,20.229L12.187,20.226L12.223,20.216L12.258,20.204L12.272,20.199L12.282,20.195L12.292,20.191L12.302,20.186L12.316,20.18L12.325,20.176L12.332,20.172L12.349,20.164L12.381,20.146L12.413,20.126L12.443,20.105L12.473,20.082L12.502,20.057L12.53,20.03C12.53,20.03 19.28,13.28 19.28,13.28C19.573,12.988 19.573,12.512 19.28,12.22C18.988,11.927 18.512,11.927 18.22,12.22L12.75,17.689L12.75,4.5C12.75,4.086 12.414,3.75 12,3.75C11.586,3.75 11.25,4.086 11.25,4.5L11.25,17.689Z"/>
</svg>
