<?xml version="1.0" encoding="UTF-8" standalone="no"?>
<!DOCTYPE svg PUBLIC "-//W3C//DTD SVG 1.1//EN" "http://www.w3.org/Graphics/SVG/1.1/DTD/svg11.dtd">
<svg width="100%" height="100%" viewBox="0 0 24 24" version="1.1" xmlns="http://www.w3.org/2000/svg" xmlns:xlink="http://www.w3.org/1999/xlink" xml:space="preserve" xmlns:serif="http://www.serif.com/" style="fill-rule:evenodd;clip-rule:evenodd;stroke-linejoin:round;stroke-miterlimit:2;">
    <path d="M6.673,20.249L6.75,20.25C6.75,21.896 8.104,23.25 9.75,23.25L17.25,23.25C18.896,23.25 20.25,21.896 20.25,20.25L20.25,12.75C20.25,11.104 18.896,9.75 17.25,9.75C17.25,8.104 15.896,6.75 14.25,6.75L13.5,6.75C13.086,6.75 12.75,7.086 12.75,7.5C12.75,7.914 13.086,8.25 13.5,8.25L14.25,8.25C15.073,8.25 15.75,8.927 15.75,9.75C15.75,9.75 15.75,17.25 15.75,17.25C15.75,18.073 15.073,18.75 14.25,18.75C14.25,18.75 6.75,18.75 6.75,18.75C5.927,18.75 5.25,18.073 5.25,17.25L5.25,9.75C5.25,8.927 5.927,8.25 6.75,8.25C6.75,8.25 7.5,8.25 7.5,8.25C7.914,8.25 8.25,7.914 8.25,7.5C8.25,7.086 7.914,6.75 7.5,6.75L6.75,6.75C5.104,6.75 3.75,8.104 3.75,9.75C3.75,9.75 3.75,17.25 3.75,17.25C3.75,18.87 5.062,20.208 6.673,20.249ZM17.25,11.25L17.25,17.25C17.25,18.896 15.896,20.25 14.25,20.25L8.25,20.25C8.25,21.073 8.927,21.75 9.75,21.75C9.75,21.75 17.25,21.75 17.25,21.75C18.073,21.75 18.75,21.073 18.75,20.25C18.75,20.25 18.75,12.75 18.75,12.75C18.75,11.927 18.073,11.25 17.25,11.25ZM9.75,12.439L8.03,10.72C7.738,10.427 7.262,10.427 6.97,10.72C6.677,11.012 6.677,11.488 6.97,11.78L9.97,14.78L9.998,14.807C10.033,14.839 10.07,14.867 10.11,14.89L10.119,14.896L10.151,14.914L10.184,14.93L10.198,14.936L10.208,14.941L10.218,14.945L10.228,14.949L10.242,14.954L10.252,14.958L10.26,14.96L10.277,14.966L10.313,14.976L10.323,14.979C10.38,14.993 10.439,15 10.5,15C10.561,15 10.62,14.993 10.677,14.979L10.687,14.976L10.723,14.966L10.758,14.954L10.772,14.949L10.782,14.945L10.792,14.941L10.803,14.936L10.816,14.93L10.825,14.926L10.849,14.914L10.881,14.896L10.913,14.876L10.943,14.855L10.973,14.832L11.002,14.807L11.03,14.78L14.03,11.78C14.323,11.488 14.323,11.012 14.03,10.72C13.738,10.427 13.262,10.427 12.97,10.72L11.25,12.439L11.25,1.5C11.25,1.086 10.914,0.75 10.5,0.75C10.086,0.75 9.75,1.086 9.75,1.5L9.75,12.439Z"/>
</svg>
