<?xml version="1.0" encoding="UTF-8" standalone="no"?>
<!DOCTYPE svg PUBLIC "-//W3C//DTD SVG 1.1//EN" "http://www.w3.org/Graphics/SVG/1.1/DTD/svg11.dtd">
<svg width="100%" height="100%" viewBox="0 0 24 24" version="1.1" xmlns="http://www.w3.org/2000/svg" xmlns:xlink="http://www.w3.org/1999/xlink" xml:space="preserve" xmlns:serif="http://www.serif.com/" style="fill-rule:evenodd;clip-rule:evenodd;stroke-linejoin:round;stroke-miterlimit:2;">
    <path d="M15,14.25C15,14.25 14.99,14.25 14.99,14.25C14.933,14.251 14.877,14.258 14.823,14.271L14.813,14.274L14.777,14.284L14.742,14.296L14.728,14.301L14.718,14.305L14.708,14.309L14.698,14.314L14.684,14.32L14.675,14.324L14.668,14.328L14.651,14.336L14.619,14.354L14.61,14.36C14.56,14.39 14.513,14.427 14.47,14.47C14.427,14.513 14.39,14.56 14.36,14.61L14.354,14.619L14.336,14.651L14.32,14.684L14.314,14.698L14.309,14.708L14.305,14.718L14.301,14.728L14.296,14.742L14.292,14.752L14.29,14.76L14.284,14.777L14.274,14.813L14.265,14.849L14.259,14.886L14.254,14.923L14.251,14.961L14.25,15L14.25,19.5C14.25,19.914 14.586,20.25 15,20.25C15.414,20.25 15.75,19.914 15.75,19.5L15.75,16.811L19.72,20.78C20.012,21.073 20.488,21.073 20.78,20.78C21.073,20.488 21.073,20.012 20.78,19.72L16.811,15.75L19.5,15.75C19.914,15.75 20.25,15.414 20.25,15C20.25,14.586 19.914,14.25 19.5,14.25L15,14.25ZM9,14.25C9,14.25 4.5,14.25 4.5,14.25C4.086,14.25 3.75,14.586 3.75,15C3.75,15.414 4.086,15.75 4.5,15.75L7.189,15.75L3.22,19.72C2.927,20.012 2.927,20.488 3.22,20.78C3.512,21.073 3.988,21.073 4.28,20.78L8.25,16.811L8.25,19.5C8.25,19.914 8.586,20.25 9,20.25C9.414,20.25 9.75,19.914 9.75,19.5L9.75,15C9.75,15 9.75,14.996 9.75,14.996C9.75,14.936 9.742,14.879 9.729,14.823L9.726,14.813L9.716,14.777L9.704,14.742L9.699,14.728L9.695,14.718L9.691,14.708L9.686,14.698L9.68,14.684L9.676,14.675L9.672,14.668L9.664,14.651L9.646,14.619L9.64,14.61C9.61,14.56 9.573,14.513 9.53,14.47C9.487,14.427 9.44,14.39 9.39,14.36L9.381,14.354L9.349,14.336L9.316,14.32L9.302,14.314L9.292,14.309L9.282,14.305L9.272,14.301L9.258,14.296L9.248,14.292L9.24,14.29L9.223,14.284L9.187,14.274L9.151,14.265L9.114,14.259L9.077,14.254L9.039,14.251L9,14.25ZM7.189,8.25L4.5,8.25C4.086,8.25 3.75,8.586 3.75,9C3.75,9.414 4.086,9.75 4.5,9.75L9,9.75C9,9.75 9.01,9.75 9.01,9.75C9.067,9.749 9.123,9.742 9.177,9.729L9.187,9.726L9.223,9.716L9.258,9.704L9.272,9.699L9.282,9.695L9.292,9.691L9.302,9.686L9.316,9.68L9.325,9.676L9.332,9.672L9.349,9.664L9.381,9.646L9.39,9.64C9.44,9.61 9.487,9.573 9.53,9.53C9.573,9.487 9.61,9.44 9.64,9.39L9.646,9.381L9.664,9.349L9.68,9.316L9.686,9.302L9.691,9.292L9.695,9.282L9.699,9.272L9.704,9.258L9.708,9.248L9.71,9.24L9.716,9.223L9.726,9.187L9.735,9.151L9.741,9.114L9.746,9.077L9.749,9.039L9.75,9L9.75,4.5C9.75,4.086 9.414,3.75 9,3.75C8.586,3.75 8.25,4.086 8.25,4.5L8.25,7.189L4.28,3.22C3.988,2.927 3.512,2.927 3.22,3.22C2.927,3.512 2.927,3.988 3.22,4.28L7.189,8.25ZM15.75,7.189L15.75,4.5C15.75,4.086 15.414,3.75 15,3.75C14.586,3.75 14.25,4.086 14.25,4.5L14.25,9L14.251,9.039L14.254,9.077L14.259,9.114C14.261,9.126 14.263,9.139 14.265,9.151L14.274,9.187L14.284,9.223L14.296,9.258L14.301,9.272L14.305,9.282L14.309,9.292L14.314,9.302L14.32,9.316L14.324,9.325L14.328,9.332L14.336,9.349L14.354,9.381L14.36,9.39C14.39,9.44 14.427,9.487 14.47,9.53C14.513,9.573 14.56,9.61 14.61,9.64L14.619,9.646L14.651,9.664L14.684,9.68L14.698,9.686L14.708,9.691L14.718,9.695L14.728,9.699L14.742,9.704L14.752,9.708L14.76,9.71L14.777,9.716L14.813,9.726L14.849,9.735L14.886,9.741L14.923,9.746L14.961,9.749L15,9.75L19.5,9.75C19.914,9.75 20.25,9.414 20.25,9C20.25,8.586 19.914,8.25 19.5,8.25L16.811,8.25L20.78,4.28C21.073,3.988 21.073,3.512 20.78,3.22C20.488,2.927 20.012,2.927 19.72,3.22L15.75,7.189Z"/>
</svg>
