<?xml version="1.0" encoding="UTF-8" standalone="no"?>
<!DOCTYPE svg PUBLIC "-//W3C//DTD SVG 1.1//EN" "http://www.w3.org/Graphics/SVG/1.1/DTD/svg11.dtd">
<svg width="100%" height="100%" viewBox="0 0 24 24" version="1.1" xmlns="http://www.w3.org/2000/svg" xmlns:xlink="http://www.w3.org/1999/xlink" xml:space="preserve" xmlns:serif="http://www.serif.com/" style="fill-rule:evenodd;clip-rule:evenodd;stroke-linejoin:round;stroke-miterlimit:2;">
    <path d="M2.47,11.47C2.427,11.513 2.39,11.56 2.36,11.61L2.354,11.619L2.336,11.651L2.32,11.684L2.314,11.698L2.309,11.708L2.305,11.718L2.301,11.728L2.296,11.742L2.292,11.752L2.29,11.76L2.284,11.777L2.274,11.813L2.271,11.823C2.257,11.88 2.25,11.939 2.25,12C2.25,12.061 2.257,12.12 2.271,12.177L2.274,12.187L2.284,12.223L2.296,12.258L2.301,12.272L2.305,12.282L2.309,12.292L2.314,12.302L2.32,12.316L2.324,12.325L2.328,12.332L2.336,12.349L2.354,12.381L2.374,12.413L2.395,12.443L2.418,12.473L2.443,12.502L2.47,12.53C2.47,12.53 6.22,16.28 6.22,16.28C6.512,16.573 6.988,16.573 7.28,16.28C7.573,15.988 7.573,15.512 7.28,15.22L4.811,12.75L21,12.75C21.414,12.75 21.75,12.414 21.75,12C21.75,11.586 21.414,11.25 21,11.25L4.811,11.25L7.28,8.78C7.573,8.488 7.573,8.012 7.28,7.72C6.988,7.427 6.512,7.427 6.22,7.72L2.47,11.47Z"/>
</svg>
