<?xml version="1.0" encoding="UTF-8" standalone="no"?>
<!DOCTYPE svg PUBLIC "-//W3C//DTD SVG 1.1//EN" "http://www.w3.org/Graphics/SVG/1.1/DTD/svg11.dtd">
<svg width="100%" height="100%" viewBox="0 0 24 24" version="1.1" xmlns="http://www.w3.org/2000/svg" xmlns:xlink="http://www.w3.org/1999/xlink" xml:space="preserve" xmlns:serif="http://www.serif.com/" style="fill-rule:evenodd;clip-rule:evenodd;stroke-linejoin:round;stroke-miterlimit:2;">
    <path d="M4.323,11.271L4.313,11.274L4.277,11.284L4.242,11.296L4.228,11.301L4.218,11.305L4.208,11.309L4.198,11.314L4.184,11.32L4.175,11.324L4.168,11.328L4.151,11.336L4.119,11.354L4.087,11.374L4.057,11.395L4.027,11.418L3.998,11.443L3.97,11.47C3.97,11.47 0.97,14.47 0.97,14.47C0.677,14.762 0.677,15.238 0.97,15.53C1.262,15.823 1.738,15.823 2.03,15.53L3.782,13.779C3.805,14.428 3.841,15.074 3.89,15.717C4.063,18.057 5.943,19.937 8.283,20.11C10.757,20.297 13.243,20.297 15.717,20.11C18.057,19.937 19.937,18.057 20.11,15.717C20.127,15.496 20.142,15.272 20.156,15.047C20.183,14.634 19.869,14.278 19.455,14.252C19.042,14.225 18.686,14.539 18.66,14.953L18.614,15.607C18.496,17.209 17.209,18.496 15.607,18.614C15.606,18.614 15.606,18.614 15.606,18.614C13.205,18.795 10.795,18.795 8.394,18.614C8.394,18.614 8.394,18.614 8.393,18.614C6.791,18.496 5.504,17.209 5.386,15.607C5.386,15.606 5.386,15.606 5.386,15.605C5.341,15.022 5.308,14.435 5.285,13.846L6.97,15.53C7.262,15.823 7.738,15.823 8.03,15.53C8.323,15.238 8.323,14.762 8.03,14.47L5.03,11.47C5.03,11.47 5.029,11.468 5.029,11.468C4.986,11.426 4.94,11.39 4.89,11.36L4.881,11.354L4.849,11.336L4.816,11.32L4.802,11.314L4.792,11.309L4.782,11.305L4.772,11.301L4.758,11.296L4.748,11.292L4.74,11.29L4.723,11.284L4.687,11.274L4.677,11.271C4.62,11.257 4.561,11.25 4.5,11.25C4.439,11.25 4.38,11.257 4.323,11.271ZM18.715,10.154L17.03,8.47C16.738,8.177 16.262,8.177 15.97,8.47C15.677,8.762 15.677,9.238 15.97,9.53L18.97,12.53C19.013,12.573 19.06,12.61 19.11,12.64L19.119,12.646L19.151,12.664L19.184,12.68L19.198,12.686L19.208,12.691L19.218,12.695L19.228,12.699L19.242,12.704L19.252,12.708L19.26,12.71L19.277,12.716L19.313,12.726L19.323,12.729C19.38,12.743 19.439,12.75 19.5,12.75C19.561,12.75 19.62,12.743 19.677,12.729L19.687,12.726L19.723,12.716L19.758,12.704L19.792,12.691L19.802,12.686L19.816,12.68L19.825,12.676L19.832,12.672L19.849,12.664L19.881,12.646L19.913,12.626L19.943,12.605L19.973,12.582L20.002,12.557L20.03,12.53C20.03,12.53 23.03,9.53 23.03,9.53C23.323,9.238 23.323,8.762 23.03,8.47C22.738,8.177 22.262,8.177 21.97,8.47L20.218,10.221C20.195,9.572 20.159,8.926 20.11,8.283C19.937,5.943 18.057,4.063 15.717,3.89C13.243,3.703 10.757,3.703 8.283,3.89C5.943,4.063 4.063,5.943 3.89,8.283C3.873,8.504 3.858,8.728 3.844,8.953C3.817,9.366 4.131,9.722 4.545,9.748C4.958,9.775 5.314,9.461 5.34,9.047L5.386,8.393C5.504,6.791 6.791,5.504 8.393,5.386C8.394,5.386 8.394,5.386 8.394,5.386C10.795,5.205 13.205,5.205 15.606,5.386C15.606,5.386 15.606,5.386 15.607,5.386C17.209,5.504 18.496,6.791 18.614,8.393C18.614,8.394 18.614,8.394 18.614,8.395C18.659,8.978 18.692,9.565 18.715,10.154Z"/>
</svg>
