<?xml version="1.0" encoding="UTF-8" standalone="no"?>
<!DOCTYPE svg PUBLIC "-//W3C//DTD SVG 1.1//EN" "http://www.w3.org/Graphics/SVG/1.1/DTD/svg11.dtd">
<svg width="100%" height="100%" viewBox="0 0 24 24" version="1.1" xmlns="http://www.w3.org/2000/svg" xmlns:xlink="http://www.w3.org/1999/xlink" xml:space="preserve" xmlns:serif="http://www.serif.com/" style="fill-rule:evenodd;clip-rule:evenodd;stroke-linejoin:round;stroke-miterlimit:2;">
    <path d="M8.25,19.189L3.53,14.47C3.238,14.177 2.762,14.177 2.47,14.47C2.177,14.762 2.177,15.238 2.47,15.53L8.47,21.53C8.513,21.573 8.56,21.61 8.61,21.64L8.619,21.646L8.651,21.664L8.684,21.68L8.698,21.686L8.708,21.691L8.718,21.695L8.728,21.699L8.742,21.704L8.752,21.708L8.76,21.71L8.777,21.716L8.813,21.726L8.823,21.729C8.88,21.743 8.939,21.75 9,21.75C9.061,21.75 9.12,21.743 9.177,21.729L9.187,21.726L9.223,21.716L9.258,21.704L9.272,21.699L9.282,21.695L9.292,21.691L9.302,21.686L9.316,21.68L9.325,21.676L9.332,21.672L9.349,21.664L9.381,21.646L9.413,21.626L9.443,21.605L9.473,21.582L9.502,21.557L9.53,21.53C9.53,21.53 15.53,15.53 15.53,15.53C15.823,15.238 15.823,14.762 15.53,14.47C15.238,14.177 14.762,14.177 14.47,14.47L9.75,19.189L9.75,9C9.75,6.12 12.12,3.75 15,3.75C17.88,3.75 20.25,6.12 20.25,9C20.25,9 20.25,12 20.25,12C20.25,12.414 20.586,12.75 21,12.75C21.414,12.75 21.75,12.414 21.75,12L21.75,9C21.75,5.297 18.703,2.25 15,2.25C11.297,2.25 8.25,5.297 8.25,9L8.25,19.189Z"/>
</svg>
