<?xml version="1.0" encoding="UTF-8" standalone="no"?>
<!DOCTYPE svg PUBLIC "-//W3C//DTD SVG 1.1//EN" "http://www.w3.org/Graphics/SVG/1.1/DTD/svg11.dtd">
<svg width="100%" height="100%" viewBox="0 0 24 24" version="1.1" xmlns="http://www.w3.org/2000/svg" xmlns:xlink="http://www.w3.org/1999/xlink" xml:space="preserve" xmlns:serif="http://www.serif.com/" style="fill-rule:evenodd;clip-rule:evenodd;stroke-linejoin:round;stroke-miterlimit:2;">
    <path d="M16.5,9L16.5,5.25C16.5,3.604 15.146,2.25 13.5,2.25L7.5,2.25C5.854,2.25 4.5,3.604 4.5,5.25C4.5,5.25 4.5,18.75 4.5,18.75C4.5,20.396 5.854,21.75 7.5,21.75L13.5,21.75C15.146,21.75 16.5,20.396 16.5,18.75L16.5,15C16.5,14.586 16.164,14.25 15.75,14.25C15.336,14.25 15,14.586 15,15L15,18.75C15,19.573 14.323,20.25 13.5,20.25C13.5,20.25 7.5,20.25 7.5,20.25C6.677,20.25 6,19.573 6,18.75L6,5.25C6,4.427 6.677,3.75 7.5,3.75C7.5,3.75 13.5,3.75 13.5,3.75C14.323,3.75 15,4.427 15,5.25C15,5.25 15,9 15,9C15,9.414 15.336,9.75 15.75,9.75C16.164,9.75 16.5,9.414 16.5,9ZM19.939,11.25L9,11.25C8.586,11.25 8.25,11.586 8.25,12C8.25,12.414 8.586,12.75 9,12.75L19.939,12.75L18.22,14.47C17.927,14.762 17.927,15.238 18.22,15.53C18.512,15.823 18.988,15.823 19.28,15.53L22.28,12.53L22.307,12.502C22.339,12.467 22.367,12.43 22.39,12.39L22.396,12.381L22.414,12.349L22.43,12.316L22.436,12.302L22.441,12.292L22.445,12.282L22.449,12.272L22.454,12.258L22.458,12.248L22.46,12.24L22.466,12.223L22.476,12.187L22.479,12.177C22.493,12.12 22.5,12.061 22.5,12C22.5,11.939 22.493,11.88 22.479,11.823L22.476,11.813L22.466,11.777L22.458,11.752L22.454,11.742L22.448,11.726L22.445,11.718L22.441,11.708L22.435,11.695L22.43,11.684L22.426,11.675L22.414,11.651L22.396,11.619L22.376,11.587L22.355,11.557L22.332,11.527L22.307,11.498L22.28,11.47C22.28,11.47 19.28,8.47 19.28,8.47C18.988,8.177 18.512,8.177 18.22,8.47C17.927,8.762 17.927,9.238 18.22,9.53L19.939,11.25Z"/>
</svg>
