<?xml version="1.0" encoding="UTF-8" standalone="no"?>
<!DOCTYPE svg PUBLIC "-//W3C//DTD SVG 1.1//EN" "http://www.w3.org/Graphics/SVG/1.1/DTD/svg11.dtd">
<svg width="100%" height="100%" viewBox="0 0 24 24" version="1.1" xmlns="http://www.w3.org/2000/svg" xmlns:xlink="http://www.w3.org/1999/xlink" xml:space="preserve" xmlns:serif="http://www.serif.com/" style="fill-rule:evenodd;clip-rule:evenodd;stroke-linejoin:round;stroke-miterlimit:2;">
    <path d="M17.689,18.75L8.25,18.75C7.836,18.75 7.5,19.086 7.5,19.5C7.5,19.914 7.836,20.25 8.25,20.25L19.5,20.25C19.5,20.25 19.51,20.25 19.51,20.25C19.567,20.249 19.623,20.242 19.677,20.229L19.687,20.226L19.723,20.216L19.758,20.204L19.772,20.199L19.782,20.195L19.792,20.191L19.802,20.186L19.816,20.18L19.825,20.176L19.832,20.172L19.849,20.164L19.881,20.146L19.89,20.14C19.94,20.11 19.987,20.073 20.03,20.03C20.073,19.987 20.11,19.94 20.14,19.89L20.146,19.881L20.164,19.849L20.18,19.816L20.186,19.802L20.191,19.792L20.195,19.782L20.199,19.772L20.204,19.758L20.208,19.748L20.21,19.74L20.216,19.723L20.226,19.687L20.235,19.651L20.241,19.614L20.246,19.577L20.249,19.539L20.25,19.5L20.25,8.25C20.25,7.836 19.914,7.5 19.5,7.5C19.086,7.5 18.75,7.836 18.75,8.25L18.75,17.689L5.03,3.97C4.738,3.677 4.262,3.677 3.97,3.97C3.677,4.262 3.677,4.738 3.97,5.03L17.689,18.75Z"/>
</svg>
