<?xml version="1.0" encoding="UTF-8" standalone="no"?>
<!DOCTYPE svg PUBLIC "-//W3C//DTD SVG 1.1//EN" "http://www.w3.org/Graphics/SVG/1.1/DTD/svg11.dtd">
<svg width="100%" height="100%" viewBox="0 0 24 24" version="1.1" xmlns="http://www.w3.org/2000/svg" xmlns:xlink="http://www.w3.org/1999/xlink" xml:space="preserve" xmlns:serif="http://www.serif.com/" style="fill-rule:evenodd;clip-rule:evenodd;stroke-linejoin:round;stroke-miterlimit:2;">
    <path d="M21.75,12C21.75,6.651 17.349,2.25 12,2.25C6.651,2.25 2.25,6.651 2.25,12C2.25,17.349 6.651,21.75 12,21.75C17.349,21.75 21.75,17.349 21.75,12ZM20.25,12C20.25,16.526 16.526,20.25 12,20.25C7.474,20.25 3.75,16.526 3.75,12C3.75,7.474 7.474,3.75 12,3.75C16.526,3.75 20.25,7.474 20.25,12ZM11.823,7.521L11.813,7.524L11.777,7.534L11.752,7.542L11.742,7.546L11.718,7.555L11.708,7.559L11.684,7.57L11.675,7.574L11.651,7.586L11.619,7.604L11.587,7.624L11.557,7.645L11.527,7.668L11.498,7.693L11.47,7.72L8.47,10.72C8.177,11.012 8.177,11.488 8.47,11.78C8.762,12.073 9.238,12.073 9.53,11.78L11.25,10.061L11.25,15.75C11.25,16.164 11.586,16.5 12,16.5C12.414,16.5 12.75,16.164 12.75,15.75L12.75,10.061L14.47,11.78C14.762,12.073 15.238,12.073 15.53,11.78C15.823,11.488 15.823,11.012 15.53,10.72L12.53,7.72L12.502,7.693C12.467,7.661 12.43,7.633 12.39,7.61L12.381,7.604L12.349,7.586L12.316,7.57L12.302,7.564L12.292,7.559L12.282,7.555L12.272,7.551L12.258,7.546L12.248,7.542L12.24,7.54L12.223,7.534L12.187,7.524L12.177,7.521C12.12,7.507 12.061,7.5 12,7.5C11.939,7.5 11.88,7.507 11.823,7.521Z"/>
</svg>
