<?xml version="1.0" encoding="UTF-8" standalone="no"?>
<!DOCTYPE svg PUBLIC "-//W3C//DTD SVG 1.1//EN" "http://www.w3.org/Graphics/SVG/1.1/DTD/svg11.dtd">
<svg width="100%" height="100%" viewBox="0 0 24 24" version="1.1" xmlns="http://www.w3.org/2000/svg" xmlns:xlink="http://www.w3.org/1999/xlink" xml:space="preserve" xmlns:serif="http://www.serif.com/" style="fill-rule:evenodd;clip-rule:evenodd;stroke-linejoin:round;stroke-miterlimit:2;">
    <path d="M4.49,3.75C4.433,3.751 4.377,3.758 4.323,3.771L4.313,3.774L4.277,3.784L4.242,3.796L4.228,3.801L4.218,3.805L4.208,3.809L4.198,3.814L4.184,3.82L4.175,3.824L4.168,3.828L4.151,3.836L4.119,3.854L4.11,3.86C4.06,3.89 4.013,3.927 3.97,3.97C3.927,4.013 3.89,4.06 3.86,4.11L3.854,4.119L3.836,4.151L3.82,4.184L3.814,4.198L3.809,4.208L3.805,4.218L3.801,4.228L3.796,4.242L3.792,4.252L3.79,4.26L3.784,4.277L3.774,4.313L3.765,4.349L3.759,4.386L3.754,4.423L3.751,4.461L3.75,4.5L3.75,15.75C3.75,16.164 4.086,16.5 4.5,16.5C4.914,16.5 5.25,16.164 5.25,15.75L5.25,6.311L18.97,20.03C19.262,20.323 19.738,20.323 20.03,20.03C20.323,19.738 20.323,19.262 20.03,18.97L6.311,5.25L15.75,5.25C16.164,5.25 16.5,4.914 16.5,4.5C16.5,4.086 16.164,3.75 15.75,3.75L4.5,3.75L4.49,3.75Z"/>
</svg>
