<?xml version="1.0" encoding="UTF-8" standalone="no"?>
<!DOCTYPE svg PUBLIC "-//W3C//DTD SVG 1.1//EN" "http://www.w3.org/Graphics/SVG/1.1/DTD/svg11.dtd">
<svg width="100%" height="100%" viewBox="0 0 24 24" version="1.1" xmlns="http://www.w3.org/2000/svg" xmlns:xlink="http://www.w3.org/1999/xlink" xml:space="preserve" xmlns:serif="http://www.serif.com/" style="fill-rule:evenodd;clip-rule:evenodd;stroke-linejoin:round;stroke-miterlimit:2;">
    <path d="M17.25,12L17.25,8.25C17.25,7.836 16.914,7.5 16.5,7.5C16.086,7.5 15.75,7.836 15.75,8.25L15.75,8.341C14.794,7.362 13.463,6.75 12,6.75C9.12,6.75 6.75,9.12 6.75,12C6.75,14.88 9.12,17.25 12,17.25C13.95,17.25 15.667,16.163 16.571,14.567C17.129,15.301 17.914,15.75 18.75,15.75C20.342,15.75 21.75,14.122 21.75,12L21.75,12C21.75,6.651 17.349,2.25 12,2.25C6.651,2.25 2.25,6.651 2.25,12C2.25,17.349 6.651,21.75 12,21.75C14.585,21.75 17.067,20.722 18.894,18.894C19.187,18.602 19.187,18.126 18.894,17.834C18.602,17.541 18.126,17.541 17.834,17.834C16.287,19.38 14.187,20.25 12,20.25C7.474,20.25 3.75,16.526 3.75,12C3.75,7.474 7.474,3.75 12,3.75C16.526,3.75 20.25,7.474 20.25,12C20.25,12.652 20.061,13.244 19.741,13.671C19.484,14.014 19.142,14.25 18.75,14.25C18.358,14.25 18.016,14.014 17.759,13.671C17.439,13.244 17.25,12.652 17.25,12ZM15.75,12C15.75,14.057 14.057,15.75 12,15.75C9.943,15.75 8.25,14.057 8.25,12C8.25,9.943 9.943,8.25 12,8.25C14.057,8.25 15.75,9.943 15.75,12Z"/>
</svg>
