<?xml version="1.0" encoding="UTF-8" standalone="no"?>
<!DOCTYPE svg PUBLIC "-//W3C//DTD SVG 1.1//EN" "http://www.w3.org/Graphics/SVG/1.1/DTD/svg11.dtd">
<svg width="100%" height="100%" viewBox="0 0 24 24" version="1.1" xmlns="http://www.w3.org/2000/svg" xmlns:xlink="http://www.w3.org/1999/xlink" xml:space="preserve" xmlns:serif="http://www.serif.com/" style="fill-rule:evenodd;clip-rule:evenodd;stroke-linejoin:round;stroke-miterlimit:2;">
    <path d="M12,16.811L12,16.81L12,14.47L18.945,18.439C20.195,19.153 21.75,18.251 21.75,16.811L21.75,8.688C21.75,7.659 20.904,6.813 19.875,6.813C19.549,6.813 19.228,6.898 18.945,7.06L12,11.029L12,8.687C12,7.658 11.154,6.812 10.125,6.812C9.799,6.812 9.478,6.897 9.195,7.059L2.087,11.122C1.504,11.456 1.143,12.078 1.143,12.75C1.143,13.421 1.504,14.043 2.087,14.377L9.195,18.439C10.445,19.153 12,18.251 12,16.811L12,16.811ZM11.25,17.561L11.249,17.56L11.249,17.56L11.25,17.561ZM11.249,17.56L11.249,17.56L10.5,16.811L10.5,16.81C10.5,16.637 11.22,17.524 11.249,17.56ZM10.502,16.857C10.51,16.997 10.557,17.126 10.632,17.235C10.561,17.139 10.51,17.016 10.502,16.857ZM20.25,16.811C20.25,17.099 19.939,17.279 19.689,17.137C19.689,17.137 12.581,13.075 12.581,13.075C12.465,13.008 12.393,12.884 12.393,12.75C12.393,12.615 12.465,12.491 12.581,12.424C12.581,12.424 19.689,8.362 19.689,8.362C19.746,8.33 19.81,8.313 19.875,8.313C20.081,8.313 20.25,8.482 20.25,8.688L20.25,16.811ZM10.5,16.81L10.5,16.811L10.5,16.811C10.5,17.099 10.189,17.279 9.939,17.137C9.939,17.137 2.831,13.075 2.831,13.075C2.715,13.008 2.643,12.884 2.643,12.75C2.643,12.615 2.715,12.491 2.831,12.424C2.831,12.424 9.939,8.361 9.939,8.361C9.996,8.329 10.06,8.312 10.125,8.312C10.331,8.312 10.5,8.481 10.5,8.687L10.5,16.81Z"/>
</svg>
