<?xml version="1.0" encoding="UTF-8" standalone="no"?>
<!DOCTYPE svg PUBLIC "-//W3C//DTD SVG 1.1//EN" "http://www.w3.org/Graphics/SVG/1.1/DTD/svg11.dtd">
<svg width="100%" height="100%" viewBox="0 0 24 24" version="1.1" xmlns="http://www.w3.org/2000/svg" xmlns:xlink="http://www.w3.org/1999/xlink" xml:space="preserve" xmlns:serif="http://www.serif.com/" style="fill-rule:evenodd;clip-rule:evenodd;stroke-linejoin:round;stroke-miterlimit:2;">
    <path d="M8.89,19.7C9.241,20.052 9.719,20.25 10.216,20.25L19.5,20.25C21.146,20.25 22.5,18.896 22.5,17.25L22.5,6.75C22.5,5.104 21.146,3.75 19.5,3.75C19.5,3.75 10.216,3.75 10.216,3.75C9.719,3.75 9.241,3.948 8.89,4.3L2.514,10.675C1.788,11.402 1.788,12.598 2.514,13.325L8.89,19.7ZM9.95,18.64L3.576,12.265C3.43,12.12 3.43,11.88 3.576,11.735C3.576,11.735 9.95,5.36 9.95,5.36C10.021,5.29 10.117,5.25 10.216,5.25L19.5,5.25C20.323,5.25 21,5.927 21,6.75C21,6.75 21,17.25 21,17.25C21,18.073 20.323,18.75 19.5,18.75C19.5,18.75 10.216,18.75 10.216,18.75C10.117,18.75 10.021,18.71 9.95,18.64ZM14.25,10.939L12.53,9.22C12.238,8.927 11.762,8.927 11.47,9.22C11.177,9.512 11.177,9.988 11.47,10.28L13.189,12L11.47,13.72C11.177,14.012 11.177,14.488 11.47,14.78C11.762,15.073 12.238,15.073 12.53,14.78L14.25,13.061L15.97,14.78C16.262,15.073 16.738,15.073 17.03,14.78C17.323,14.488 17.323,14.012 17.03,13.72L15.311,12L17.03,10.28C17.323,9.988 17.323,9.512 17.03,9.22C16.738,8.927 16.262,8.927 15.97,9.22L14.25,10.939Z"/>
</svg>
