<?xml version="1.0" encoding="UTF-8" standalone="no"?>
<!DOCTYPE svg PUBLIC "-//W3C//DTD SVG 1.1//EN" "http://www.w3.org/Graphics/SVG/1.1/DTD/svg11.dtd">
<svg width="100%" height="100%" viewBox="0 0 24 24" version="1.1" xmlns="http://www.w3.org/2000/svg" xmlns:xlink="http://www.w3.org/1999/xlink" xml:space="preserve" xmlns:serif="http://www.serif.com/" style="fill-rule:evenodd;clip-rule:evenodd;stroke-linejoin:round;stroke-miterlimit:2;">
    <path d="M2.251,19.5C7.52,19.496 12.766,20.193 17.85,21.575C19.053,21.902 20.25,21.003 20.25,19.755L20.25,18.75C20.25,18.336 19.914,18 19.5,18C19.086,18 18.75,18.336 18.75,18.75L18.75,19.755C18.75,20.015 18.495,20.196 18.244,20.127C18.244,20.127 18.244,20.127 18.244,20.127C13.03,18.711 7.652,17.996 2.249,18C1.835,18 1.5,18.337 1.5,18.751C1.5,19.165 1.837,19.5 2.251,19.5ZM3.375,17.25L20.625,17.25L20.673,17.249C21.686,17.224 22.5,16.394 22.5,15.375L22.5,5.625C22.5,4.59 21.66,3.75 20.625,3.75C20.652,3.75 20.678,3.751 20.704,3.754C20.678,3.751 20.65,3.75 20.62,3.75L20.331,3.75C20.317,3.75 20.304,3.75 20.291,3.751L20.289,3.751L20.25,3.75L3.375,3.75C2.34,3.75 1.5,4.59 1.5,5.625L1.5,5.636L1.5,5.636L1.5,15L1.5,15.011L1.5,15.011L1.5,15.366L1.5,15.375L1.5,15.375C1.5,16.404 2.346,17.25 3.375,17.25ZM19.5,5.25C19.5,5.25 4.5,5.25 4.5,5.25C4.5,6.073 3.823,6.75 3,6.75L3,14.25C3.823,14.25 4.5,14.927 4.5,15.75L19.5,15.75C19.5,14.927 20.177,14.25 21,14.25L21,6.75C20.172,6.75 19.5,6.078 19.5,5.25ZM15.75,10.5C15.75,8.443 14.057,6.75 12,6.75C9.943,6.75 8.25,8.443 8.25,10.5C8.25,12.557 9.943,14.25 12,14.25C14.057,14.25 15.75,12.557 15.75,10.5ZM14.25,10.5C14.25,11.734 13.234,12.75 12,12.75C10.766,12.75 9.75,11.734 9.75,10.5C9.75,9.266 10.766,8.25 12,8.25C13.234,8.25 14.25,9.266 14.25,10.5Z"/>
    <g transform="matrix(1.5,0,0,1.5,-3.7688,-6.73022)">
        <circle cx="6.5" cy="11.5" r="0.5"/>
    </g>
    <g transform="matrix(1.5,0,0,1.5,8.24394,-6.75298)">
        <circle cx="6.5" cy="11.5" r="0.5"/>
    </g>
</svg>
