<?xml version="1.0" encoding="UTF-8" standalone="no"?>
<!DOCTYPE svg PUBLIC "-//W3C//DTD SVG 1.1//EN" "http://www.w3.org/Graphics/SVG/1.1/DTD/svg11.dtd">
<svg width="100%" height="100%" viewBox="0 0 24 24" version="1.1" xmlns="http://www.w3.org/2000/svg" xmlns:xlink="http://www.w3.org/1999/xlink" xml:space="preserve" xmlns:serif="http://www.serif.com/" style="fill-rule:evenodd;clip-rule:evenodd;stroke-linejoin:round;stroke-miterlimit:2;">
    <path d="M3.75,18L12,18C12.414,18 12.75,17.664 12.75,17.25C12.75,16.836 12.414,16.5 12,16.5L3.75,16.5C3.336,16.5 3,16.836 3,17.25C3,17.664 3.336,18 3.75,18ZM3.75,12.75L20.25,12.75C20.664,12.75 21,12.414 21,12C21,11.586 20.664,11.25 20.25,11.25L3.75,11.25C3.336,11.25 3,11.586 3,12C3,12.414 3.336,12.75 3.75,12.75ZM3.75,7.5L20.25,7.5C20.664,7.5 21,7.164 21,6.75C21,6.336 20.664,6 20.25,6L3.75,6C3.336,6 3,6.336 3,6.75C3,7.164 3.336,7.5 3.75,7.5Z"/>
</svg>
