<?xml version="1.0" encoding="UTF-8" standalone="no"?>
<!DOCTYPE svg PUBLIC "-//W3C//DTD SVG 1.1//EN" "http://www.w3.org/Graphics/SVG/1.1/DTD/svg11.dtd">
<svg width="100%" height="100%" viewBox="0 0 24 24" version="1.1" xmlns="http://www.w3.org/2000/svg" xmlns:xlink="http://www.w3.org/1999/xlink" xml:space="preserve" xmlns:serif="http://www.serif.com/" style="fill-rule:evenodd;clip-rule:evenodd;stroke-linejoin:round;stroke-miterlimit:2;">
    <path d="M16.5,19.189L14.03,16.72C13.738,16.427 13.262,16.427 12.97,16.72C12.677,17.012 12.677,17.488 12.97,17.78L16.72,21.53C16.763,21.573 16.81,21.61 16.86,21.64L16.869,21.646L16.901,21.664L16.934,21.68L16.948,21.686L16.958,21.691L16.968,21.695L16.978,21.699L16.992,21.704L17.002,21.708L17.01,21.71L17.027,21.716L17.063,21.726L17.073,21.729C17.13,21.743 17.189,21.75 17.25,21.75C17.311,21.75 17.37,21.743 17.427,21.729L17.437,21.726L17.473,21.716L17.508,21.704L17.532,21.695L17.542,21.691L17.566,21.68L17.575,21.676L17.599,21.664L17.631,21.646L17.663,21.626L17.693,21.605L17.723,21.582L17.752,21.557L17.78,21.53C17.78,21.53 21.53,17.78 21.53,17.78C21.823,17.488 21.823,17.012 21.53,16.72C21.238,16.427 20.762,16.427 20.47,16.72L18,19.189L18,9C18,8.586 17.664,8.25 17.25,8.25C16.836,8.25 16.5,8.586 16.5,9L16.5,19.189ZM3,14.25L12.75,14.25C13.164,14.25 13.5,13.914 13.5,13.5C13.5,13.086 13.164,12.75 12.75,12.75L3,12.75C2.586,12.75 2.25,13.086 2.25,13.5C2.25,13.914 2.586,14.25 3,14.25ZM3,9.75L12.75,9.75C13.164,9.75 13.5,9.414 13.5,9C13.5,8.586 13.164,8.25 12.75,8.25L3,8.25C2.586,8.25 2.25,8.586 2.25,9C2.25,9.414 2.586,9.75 3,9.75ZM3,5.25L17.25,5.25C17.664,5.25 18,4.914 18,4.5C18,4.086 17.664,3.75 17.25,3.75L3,3.75C2.586,3.75 2.25,4.086 2.25,4.5C2.25,4.914 2.586,5.25 3,5.25Z"/>
</svg>
