<?xml version="1.0" encoding="UTF-8" standalone="no"?>
<!DOCTYPE svg PUBLIC "-//W3C//DTD SVG 1.1//EN" "http://www.w3.org/Graphics/SVG/1.1/DTD/svg11.dtd">
<svg width="100%" height="100%" viewBox="0 0 24 24" version="1.1" xmlns="http://www.w3.org/2000/svg" xmlns:xlink="http://www.w3.org/1999/xlink" xml:space="preserve" xmlns:serif="http://www.serif.com/" style="fill-rule:evenodd;clip-rule:evenodd;stroke-linejoin:round;stroke-miterlimit:2;">
    <path d="M17.073,8.271L17.063,8.274L17.027,8.284L16.992,8.296L16.978,8.301L16.968,8.305L16.958,8.309L16.948,8.314L16.934,8.32L16.925,8.324L16.918,8.328L16.901,8.336L16.869,8.354L16.837,8.374L16.807,8.395L16.777,8.418L16.748,8.443L16.72,8.47L12.97,12.22C12.677,12.512 12.677,12.988 12.97,13.28C13.262,13.573 13.738,13.573 14.03,13.28L16.5,10.811L16.5,21C16.5,21.414 16.836,21.75 17.25,21.75C17.664,21.75 18,21.414 18,21L18,10.811L20.47,13.28C20.762,13.573 21.238,13.573 21.53,13.28C21.823,12.988 21.823,12.512 21.53,12.22L17.78,8.47C17.737,8.427 17.69,8.39 17.64,8.36L17.631,8.354L17.599,8.336L17.566,8.32L17.552,8.314L17.542,8.309L17.532,8.305L17.522,8.301L17.508,8.296L17.498,8.292L17.49,8.29L17.473,8.284L17.437,8.274L17.427,8.271C17.37,8.257 17.311,8.25 17.25,8.25C17.189,8.25 17.13,8.257 17.073,8.271ZM3,14.25L8.25,14.25C8.664,14.25 9,13.914 9,13.5C9,13.086 8.664,12.75 8.25,12.75L3,12.75C2.586,12.75 2.25,13.086 2.25,13.5C2.25,13.914 2.586,14.25 3,14.25ZM3,9.75L12.75,9.75C13.164,9.75 13.5,9.414 13.5,9C13.5,8.586 13.164,8.25 12.75,8.25L3,8.25C2.586,8.25 2.25,8.586 2.25,9C2.25,9.414 2.586,9.75 3,9.75ZM3,5.25L17.25,5.25C17.664,5.25 18,4.914 18,4.5C18,4.086 17.664,3.75 17.25,3.75L3,3.75C2.586,3.75 2.25,4.086 2.25,4.5C2.25,4.914 2.586,5.25 3,5.25Z"/>
</svg>
