<?xml version="1.0" encoding="UTF-8" standalone="no"?>
<!DOCTYPE svg PUBLIC "-//W3C//DTD SVG 1.1//EN" "http://www.w3.org/Graphics/SVG/1.1/DTD/svg11.dtd">
<svg width="100%" height="100%" viewBox="0 0 24 24" version="1.1" xmlns="http://www.w3.org/2000/svg" xmlns:xlink="http://www.w3.org/1999/xlink" xml:space="preserve" xmlns:serif="http://www.serif.com/" style="fill-rule:evenodd;clip-rule:evenodd;stroke-linejoin:round;stroke-miterlimit:2;">
    <path d="M3.75,19.5L20.25,19.5C20.664,19.5 21,19.164 21,18.75C21,18.336 20.664,18 20.25,18L3.75,18C3.336,18 3,18.336 3,18.75C3,19.164 3.336,19.5 3.75,19.5ZM3.75,15L20.25,15C20.664,15 21,14.664 21,14.25C21,13.836 20.664,13.5 20.25,13.5L3.75,13.5C3.336,13.5 3,13.836 3,14.25C3,14.664 3.336,15 3.75,15ZM3.75,10.5L20.25,10.5C20.664,10.5 21,10.164 21,9.75C21,9.336 20.664,9 20.25,9L3.75,9C3.336,9 3,9.336 3,9.75C3,10.164 3.336,10.5 3.75,10.5ZM3.75,6L20.25,6C20.664,6 21,5.664 21,5.25C21,4.836 20.664,4.5 20.25,4.5L3.75,4.5C3.336,4.5 3,4.836 3,5.25C3,5.664 3.336,6 3.75,6Z"/>
</svg>
