<?xml version="1.0" encoding="UTF-8" standalone="no"?>
<!DOCTYPE svg PUBLIC "-//W3C//DTD SVG 1.1//EN" "http://www.w3.org/Graphics/SVG/1.1/DTD/svg11.dtd">
<svg width="100%" height="100%" viewBox="0 0 24 24" version="1.1" xmlns="http://www.w3.org/2000/svg" xmlns:xlink="http://www.w3.org/1999/xlink" xml:space="preserve" xmlns:serif="http://www.serif.com/" style="fill-rule:evenodd;clip-rule:evenodd;stroke-linejoin:round;stroke-miterlimit:2;">
    <path d="M3.75,16.5L20.25,16.5C20.664,16.5 21,16.164 21,15.75C21,15.336 20.664,15 20.25,15L3.75,15C3.336,15 3,15.336 3,15.75C3,16.164 3.336,16.5 3.75,16.5ZM3.75,9.75L20.25,9.75C20.664,9.75 21,9.414 21,9C21,8.586 20.664,8.25 20.25,8.25L3.75,8.25C3.336,8.25 3,8.586 3,9C3,9.414 3.336,9.75 3.75,9.75Z"/>
</svg>
