<?xml version="1.0" encoding="UTF-8" standalone="no"?>
<!DOCTYPE svg PUBLIC "-//W3C//DTD SVG 1.1//EN" "http://www.w3.org/Graphics/SVG/1.1/DTD/svg11.dtd">
<svg width="100%" height="100%" viewBox="0 0 24 24" version="1.1" xmlns="http://www.w3.org/2000/svg" xmlns:xlink="http://www.w3.org/1999/xlink" xml:space="preserve" xmlns:serif="http://www.serif.com/" style="fill-rule:evenodd;clip-rule:evenodd;stroke-linejoin:round;stroke-miterlimit:2;">
    <path d="M9.682,2.357L9.672,2.358C9.415,2.382 9.159,2.409 8.904,2.442C8.494,2.495 8.203,2.871 8.256,3.282C8.305,3.66 8.628,3.936 9,3.936L9,8.818C9,9.216 8.842,9.597 8.561,9.879C8.561,9.879 4.47,13.97 4.47,13.97L2.268,16.173C0.599,17.839 1.413,20.656 3.739,21.052C6.424,21.511 9.184,21.75 12,21.75C14.768,21.751 17.532,21.518 20.261,21.052C20.261,21.052 20.261,21.052 20.261,21.052C22.586,20.656 23.4,17.84 21.732,16.172L15.439,9.878C15.158,9.598 15,9.216 15,8.818L15,3.936C15.372,3.936 15.695,3.66 15.744,3.282C15.797,2.871 15.506,2.495 15.096,2.442C14.841,2.409 14.585,2.382 14.328,2.358L14.318,2.357C12.776,2.214 11.224,2.214 9.682,2.357ZM19.57,16.131L18.41,16.421C16.144,16.981 13.752,16.715 11.664,15.671C9.896,14.786 7.87,14.561 5.951,15.035L5.384,15.177L3.328,17.234C2.531,18.029 2.881,19.384 3.991,19.574C3.991,19.574 3.991,19.574 3.991,19.574C6.594,20.019 9.27,20.25 12,20.25C12,20.25 12,20.25 12,20.25C14.684,20.251 17.363,20.025 20.009,19.574C21.118,19.384 21.468,18.029 20.672,17.232L19.57,16.131ZM13.5,3.798C12.501,3.734 11.499,3.734 10.5,3.798L10.5,8.818C10.5,9.613 10.184,10.377 9.621,10.939L7.243,13.318C8.99,13.192 10.751,13.537 12.336,14.329C14.104,15.214 16.13,15.439 18.05,14.965L18.333,14.894L14.379,10.94C13.816,10.378 13.5,9.614 13.5,8.818L13.5,3.798Z"/>
</svg>
