<?xml version="1.0" encoding="UTF-8" standalone="no"?>
<!DOCTYPE svg PUBLIC "-//W3C//DTD SVG 1.1//EN" "http://www.w3.org/Graphics/SVG/1.1/DTD/svg11.dtd">
<svg width="100%" height="100%" viewBox="0 0 24 24" version="1.1" xmlns="http://www.w3.org/2000/svg" xmlns:xlink="http://www.w3.org/1999/xlink" xml:space="preserve" xmlns:serif="http://www.serif.com/" style="fill-rule:evenodd;clip-rule:evenodd;stroke-linejoin:round;stroke-miterlimit:2;">
    <path d="M8.26,17.719C8.253,17.812 8.25,17.904 8.25,17.997C8.25,20.054 9.943,21.747 12,21.747C14.057,21.747 15.75,20.054 15.75,17.997C15.75,17.904 15.747,17.812 15.74,17.719C17.387,17.47 19.006,17.053 20.571,16.476C20.804,16.389 20.98,16.193 21.039,15.951C21.099,15.71 21.034,15.454 20.868,15.269C19.502,13.757 18.747,11.789 18.75,9.751L18.75,9.05L18.725,9.075C18.741,9.046 18.75,9.021 18.75,9.001L18.75,9L18.75,9C18.75,5.297 15.703,2.25 12,2.25C8.297,2.25 5.25,5.297 5.25,9L5.25,9.751C5.253,11.789 4.497,13.757 3.131,15.269C2.965,15.454 2.9,15.71 2.96,15.951C3.019,16.193 3.195,16.389 3.428,16.476C4.972,17.046 6.589,17.466 8.26,17.719ZM9.752,17.9C9.751,17.932 9.75,17.965 9.75,17.997C9.75,19.231 10.766,20.247 12,20.247C13.234,20.247 14.25,19.231 14.25,17.997C14.25,17.965 14.249,17.932 14.248,17.9C12.752,18.035 11.248,18.035 9.752,17.9ZM17.25,9.001L17.25,9C17.25,6.12 14.88,3.75 12,3.75C9.12,3.75 6.75,6.12 6.75,9C6.75,9 6.75,9.75 6.75,9.749C6.753,11.787 6.114,13.765 4.94,15.409C6.316,15.847 7.748,16.161 9.223,16.336L9.231,16.337C11.071,16.555 12.929,16.555 14.769,16.337L14.777,16.336C16.232,16.163 17.665,15.853 19.059,15.409C17.885,13.765 17.247,11.787 17.25,9.75L17.25,9.05L17.25,9.05L17.25,9.001L17.25,9.001Z"/>
</svg>
