<?xml version="1.0" encoding="UTF-8" standalone="no"?>
<!DOCTYPE svg PUBLIC "-//W3C//DTD SVG 1.1//EN" "http://www.w3.org/Graphics/SVG/1.1/DTD/svg11.dtd">
<svg width="100%" height="100%" viewBox="0 0 24 24" version="1.1" xmlns="http://www.w3.org/2000/svg" xmlns:xlink="http://www.w3.org/1999/xlink" xml:space="preserve" xmlns:serif="http://www.serif.com/" style="fill-rule:evenodd;clip-rule:evenodd;stroke-linejoin:round;stroke-miterlimit:2;">
    <path d="M8.251,17.718C8.242,17.824 8.237,17.93 8.237,18.036C8.237,20.094 9.93,21.786 11.987,21.786C13.565,21.786 14.982,20.791 15.516,19.306C15.656,18.916 15.453,18.486 15.064,18.346C14.674,18.206 14.244,18.409 14.104,18.798C13.784,19.689 12.934,20.286 11.987,20.286C10.753,20.286 9.737,19.271 9.737,18.036C9.737,17.99 9.739,17.944 9.742,17.898C10.831,17.997 11.925,18.024 13.018,17.979C13.431,17.962 13.753,17.613 13.736,17.199C13.719,16.786 13.37,16.464 12.956,16.481C11.715,16.531 10.471,16.484 9.237,16.338L9.229,16.337C7.772,16.164 6.336,15.854 4.94,15.409C6.013,13.908 6.64,12.126 6.737,10.269C6.759,9.856 6.44,9.503 6.027,9.481C5.614,9.459 5.261,9.778 5.239,10.191C5.141,12.075 4.396,13.869 3.131,15.269C2.965,15.454 2.9,15.709 2.96,15.951C3.019,16.193 3.195,16.389 3.428,16.476C4.99,17.052 6.606,17.468 8.251,17.718ZM2.47,3.53L20.47,21.53C20.762,21.823 21.238,21.823 21.53,21.53C21.823,21.238 21.823,20.762 21.53,20.47L18.261,17.201C19.042,16.997 19.813,16.755 20.571,16.476C20.804,16.389 20.98,16.193 21.039,15.951C21.099,15.71 21.034,15.454 20.868,15.269C19.502,13.757 18.747,11.789 18.75,9.751L18.75,8.996C18.75,5.293 15.703,2.246 12,2.246C9.707,2.246 7.59,3.414 6.355,5.295L3.53,2.47C3.238,2.177 2.762,2.177 2.47,2.47C2.177,2.762 2.177,3.238 2.47,3.53ZM17.018,15.957C17.706,15.806 18.387,15.623 19.059,15.409C17.885,13.765 17.247,11.787 17.25,9.75L17.25,8.996C17.25,6.116 14.88,3.746 12,3.746C10.11,3.746 8.373,4.766 7.445,6.385L17.018,15.957Z"/>
</svg>
