<?xml version="1.0" encoding="UTF-8" standalone="no"?>
<!DOCTYPE svg PUBLIC "-//W3C//DTD SVG 1.1//EN" "http://www.w3.org/Graphics/SVG/1.1/DTD/svg11.dtd">
<svg width="100%" height="100%" viewBox="0 0 24 24" version="1.1" xmlns="http://www.w3.org/2000/svg" xmlns:xlink="http://www.w3.org/1999/xlink" xml:space="preserve" xmlns:serif="http://www.serif.com/" style="fill-rule:evenodd;clip-rule:evenodd;stroke-linejoin:round;stroke-miterlimit:2;">
    <path d="M21.53,20.47L3.53,2.47C3.238,2.177 2.762,2.177 2.47,2.47C2.177,2.762 2.177,3.238 2.47,3.53L20.47,21.53C20.762,21.823 21.238,21.823 21.53,21.53C21.823,21.238 21.823,20.762 21.53,20.47Z"/>
    <g transform="matrix(1,0,0,1,0.00807262,0.00441303)">
        <path d="M10.688,15.458L9.026,21.553C8.936,21.885 9.084,22.237 9.385,22.405C9.686,22.573 10.063,22.514 10.298,22.262L14.043,18.25C14.326,17.947 14.309,17.472 14.007,17.19C13.704,16.907 13.229,16.924 12.947,17.226L11.272,19.021C11.272,19.021 12.136,15.852 12.136,15.852C12.244,15.453 12.009,15.04 11.609,14.931C11.21,14.823 10.797,15.058 10.688,15.458ZM9.005,8.969L12.728,4.98C12.728,4.98 11.276,10.303 11.276,10.303C11.215,10.528 11.262,10.769 11.404,10.955C11.546,11.141 11.766,11.25 12,11.25L18.524,11.25C18.524,11.25 14.995,15.031 14.995,15.031C14.712,15.334 14.729,15.809 15.031,16.091C15.334,16.374 15.809,16.357 16.091,16.055L20.798,11.012C21.002,10.793 21.057,10.475 20.938,10.201C20.819,9.927 20.549,9.75 20.25,9.75L12.982,9.75C12.982,9.75 14.974,2.447 14.974,2.447C15.064,2.115 14.916,1.763 14.615,1.595C14.314,1.427 13.937,1.486 13.702,1.738L7.909,7.945C7.626,8.248 7.643,8.723 7.945,9.005C8.248,9.288 8.723,9.271 9.005,8.969ZM9.257,12.75L5.476,12.75C5.476,12.75 6.957,11.163 6.957,11.163C7.24,10.86 7.223,10.385 6.921,10.103C6.618,9.82 6.143,9.837 5.861,10.139L3.202,12.988C2.998,13.207 2.943,13.525 3.062,13.799C3.181,14.073 3.451,14.25 3.75,14.25L9.257,14.25C9.671,14.25 10.007,13.914 10.007,13.5C10.007,13.086 9.671,12.75 9.257,12.75Z"/>
    </g>
</svg>
