<?xml version="1.0" encoding="UTF-8" standalone="no"?>
<!DOCTYPE svg PUBLIC "-//W3C//DTD SVG 1.1//EN" "http://www.w3.org/Graphics/SVG/1.1/DTD/svg11.dtd">
<svg width="100%" height="100%" viewBox="0 0 24 24" version="1.1" xmlns="http://www.w3.org/2000/svg" xmlns:xlink="http://www.w3.org/1999/xlink" xml:space="preserve" xmlns:serif="http://www.serif.com/" style="fill-rule:evenodd;clip-rule:evenodd;stroke-linejoin:round;stroke-miterlimit:2;">
    <path d="M3.202,12.988C2.998,13.207 2.943,13.525 3.062,13.799C3.181,14.073 3.451,14.25 3.75,14.25L11.018,14.25C11.018,14.25 9.026,21.553 9.026,21.553C8.936,21.885 9.084,22.237 9.385,22.405C9.686,22.573 10.063,22.514 10.298,22.262L20.798,11.012C21.002,10.793 21.057,10.475 20.938,10.201C20.819,9.927 20.549,9.75 20.25,9.75L12.982,9.75C12.982,9.75 14.974,2.447 14.974,2.447C15.064,2.115 14.916,1.763 14.615,1.595C14.314,1.427 13.937,1.486 13.702,1.738L3.202,12.988ZM5.476,12.75L12.728,4.98C12.728,4.98 11.276,10.303 11.276,10.303C11.215,10.528 11.262,10.769 11.404,10.955C11.546,11.141 11.766,11.25 12,11.25L18.524,11.25C18.524,11.25 11.272,19.02 11.272,19.02C11.272,19.02 12.724,13.697 12.724,13.697C12.785,13.472 12.738,13.231 12.596,13.045C12.454,12.859 12.234,12.75 12,12.75L5.476,12.75Z"/>
</svg>
