<?xml version="1.0" encoding="UTF-8" standalone="no"?>
<!DOCTYPE svg PUBLIC "-//W3C//DTD SVG 1.1//EN" "http://www.w3.org/Graphics/SVG/1.1/DTD/svg11.dtd">
<svg width="100%" height="100%" viewBox="0 0 24 24" version="1.1" xmlns="http://www.w3.org/2000/svg" xmlns:xlink="http://www.w3.org/1999/xlink" xml:space="preserve" xmlns:serif="http://www.serif.com/" style="fill-rule:evenodd;clip-rule:evenodd;stroke-linejoin:round;stroke-miterlimit:2;">
    <path d="M14.351,17.587L12.336,16.579C12.124,16.474 11.876,16.474 11.665,16.579L5.25,19.786C5.25,19.786 5.25,8.742 5.25,8.742C5.25,8.328 4.914,7.992 4.5,7.992C4.086,7.992 3.75,8.328 3.75,8.742L3.75,21C3.75,21.26 3.885,21.501 4.106,21.638C4.327,21.775 4.603,21.787 4.835,21.671L12,18.089C12,18.089 13.679,18.929 13.679,18.929C14.05,19.114 14.501,18.964 14.686,18.594C14.871,18.223 14.721,17.772 14.351,17.587ZM2.47,3.53L20.47,21.53C20.762,21.823 21.238,21.823 21.53,21.53C21.823,21.238 21.823,20.762 21.53,20.47L20.25,19.189L20.25,5.507C20.25,4.018 19.158,2.749 17.68,2.577C17.68,2.577 17.68,2.577 17.679,2.577C13.906,2.139 10.094,2.139 6.321,2.577C6.32,2.577 6.319,2.577 6.318,2.577C5.627,2.66 5.001,2.987 4.541,3.48L3.53,2.47C3.238,2.177 2.762,2.177 2.47,2.47C2.177,2.762 2.177,3.238 2.47,3.53ZM18.75,17.689L18.75,5.507C18.75,4.78 18.228,4.151 17.506,4.067C13.848,3.642 10.154,3.642 6.496,4.067C6.144,4.109 5.827,4.282 5.603,4.542L18.75,17.689Z"/>
</svg>
