<?xml version="1.0" encoding="UTF-8" standalone="no"?>
<!DOCTYPE svg PUBLIC "-//W3C//DTD SVG 1.1//EN" "http://www.w3.org/Graphics/SVG/1.1/DTD/svg11.dtd">
<svg width="100%" height="100%" viewBox="0 0 24 24" version="1.1" xmlns="http://www.w3.org/2000/svg" xmlns:xlink="http://www.w3.org/1999/xlink" xml:space="preserve" xmlns:serif="http://www.serif.com/" style="fill-rule:evenodd;clip-rule:evenodd;stroke-linejoin:round;stroke-miterlimit:2;">
    <path d="M12,5.064C10.292,3.728 8.18,2.997 5.999,3C4.86,3 3.766,3.195 2.75,3.555C2.45,3.661 2.25,3.944 2.25,4.262L2.25,18.512C2.25,18.755 2.368,18.984 2.567,19.124C2.765,19.265 3.02,19.3 3.25,19.219C4.133,18.908 5.063,18.749 5.999,18.75C5.999,18.75 6,18.75 6,18.75C8.113,18.75 10.041,19.545 11.5,20.851L11.524,20.872L11.554,20.895L11.584,20.916L11.616,20.936L11.623,20.94L11.648,20.954L11.655,20.958L11.68,20.971L11.688,20.974L11.722,20.989L11.732,20.993L11.742,20.996L11.757,21.002L11.765,21.004L11.777,21.008L11.791,21.012L11.799,21.014L11.813,21.018L11.826,21.022L11.833,21.023L11.849,21.027L11.886,21.033L11.923,21.038L11.961,21.041L12,21.042L12.039,21.041L12.077,21.038L12.114,21.033L12.139,21.029L12.151,21.027L12.174,21.022L12.187,21.018L12.223,21.008L12.235,21.004L12.244,21.001L12.258,20.996L12.268,20.992L12.279,20.989L12.292,20.983L12.3,20.979L12.312,20.974L12.325,20.968L12.332,20.965L12.346,20.958L12.358,20.951L12.378,20.94L12.385,20.936L12.41,20.92L12.416,20.916L12.441,20.899L12.447,20.895L12.476,20.871L12.501,20.85C14.011,19.496 15.97,18.747 17.999,18.75C18,18.75 18,18.75 18.001,18.75C18.937,18.749 19.867,18.908 20.75,19.219C20.98,19.3 21.235,19.265 21.433,19.124C21.632,18.984 21.75,18.755 21.75,18.512L21.75,4.262C21.75,3.944 21.55,3.661 21.25,3.555C20.234,3.195 19.14,3 18.001,3C15.82,2.997 13.708,3.728 12,5.064ZM11.25,6.386C9.777,5.167 7.92,4.497 6.001,4.5C6.001,4.5 6,4.5 6,4.5C5.22,4.5 4.465,4.608 3.75,4.81C3.75,4.81 3.75,17.511 3.75,17.511C4.486,17.337 5.242,17.249 6,17.25C7.933,17.25 9.735,17.813 11.25,18.783L11.25,6.386ZM12.75,18.783C14.308,17.786 16.129,17.248 18,17.25C18.759,17.249 19.514,17.337 20.25,17.511C20.25,17.511 20.25,4.81 20.25,4.81C19.535,4.608 18.78,4.5 18,4.5C18,4.5 17.999,4.5 17.999,4.5C16.08,4.497 14.223,5.167 12.75,6.386L12.75,18.783Z"/>
</svg>
