<?xml version="1.0" encoding="UTF-8" standalone="no"?>
<!DOCTYPE svg PUBLIC "-//W3C//DTD SVG 1.1//EN" "http://www.w3.org/Graphics/SVG/1.1/DTD/svg11.dtd">
<svg width="100%" height="100%" viewBox="0 0 24 24" version="1.1" xmlns="http://www.w3.org/2000/svg" xmlns:xlink="http://www.w3.org/1999/xlink" xml:space="preserve" xmlns:serif="http://www.serif.com/" style="fill-rule:evenodd;clip-rule:evenodd;stroke-linejoin:round;stroke-miterlimit:2;">
    <path d="M17.68,2.577C17.68,2.577 17.68,2.577 17.679,2.577C13.906,2.139 10.094,2.139 6.321,2.577C6.32,2.577 6.32,2.577 6.32,2.577C4.841,2.749 3.75,4.018 3.75,5.507C3.75,5.507 3.75,21 3.75,21C3.75,21.26 3.885,21.501 4.106,21.638C4.327,21.775 4.603,21.787 4.835,21.671L12,18.089C12,18.089 19.165,21.671 19.165,21.671C19.397,21.787 19.673,21.775 19.894,21.638C20.115,21.501 20.25,21.26 20.25,21L20.25,5.507C20.25,4.018 19.158,2.749 17.68,2.577ZM17.506,4.067C18.228,4.151 18.75,4.78 18.75,5.507C18.75,5.507 18.75,19.786 18.75,19.786C18.75,19.786 12.335,16.579 12.335,16.579C12.124,16.474 11.876,16.474 11.665,16.579L5.25,19.786C5.25,19.786 5.25,5.507 5.25,5.507C5.25,4.78 5.771,4.151 6.494,4.067C10.152,3.642 13.848,3.642 17.506,4.067L17.506,4.067Z"/>
</svg>
