<?xml version="1.0" encoding="UTF-8" standalone="no"?>
<!DOCTYPE svg PUBLIC "-//W3C//DTD SVG 1.1//EN" "http://www.w3.org/Graphics/SVG/1.1/DTD/svg11.dtd">
<svg width="100%" height="100%" viewBox="0 0 24 24" version="1.1" xmlns="http://www.w3.org/2000/svg" xmlns:xlink="http://www.w3.org/1999/xlink" xml:space="preserve" xmlns:serif="http://www.serif.com/" style="fill-rule:evenodd;clip-rule:evenodd;stroke-linejoin:round;stroke-miterlimit:2;">
    <path d="M18,3L6,3C4.354,3 3,4.354 3,6L3,18C3,19.646 4.354,21 6,21C6,21 18,21 18,21C19.646,21 21,19.646 21,18C21,18 21,6 21,6C21,4.354 19.646,3 18,3ZM17.25,4.5L17.25,16.5C17.25,16.76 17.115,17.001 16.894,17.138C16.673,17.275 16.397,17.287 16.165,17.171C16.165,17.171 12,15.089 12,15.089L7.835,17.171C7.603,17.287 7.327,17.275 7.106,17.138C6.885,17.001 6.75,16.76 6.75,16.5L6.75,4.5L6,4.5C5.177,4.5 4.5,5.177 4.5,6C4.5,6 4.5,18 4.5,18C4.5,18.823 5.177,19.5 6,19.5L18,19.5C18.823,19.5 19.5,18.823 19.5,18L19.5,6C19.5,5.177 18.823,4.5 18,4.5L17.25,4.5ZM15.75,4.5L8.25,4.5L8.25,15.286L11.665,13.579C11.876,13.474 12.124,13.474 12.335,13.579C12.335,13.579 15.75,15.286 15.75,15.286L15.75,4.5Z"/>
</svg>
