<?xml version="1.0" encoding="UTF-8" standalone="no"?>
<!DOCTYPE svg PUBLIC "-//W3C//DTD SVG 1.1//EN" "http://www.w3.org/Graphics/SVG/1.1/DTD/svg11.dtd">
<svg width="100%" height="100%" viewBox="0 0 24 24" version="1.1" xmlns="http://www.w3.org/2000/svg" xmlns:xlink="http://www.w3.org/1999/xlink" xml:space="preserve" xmlns:serif="http://www.serif.com/" style="fill-rule:evenodd;clip-rule:evenodd;stroke-linejoin:round;stroke-miterlimit:2;">
    <path d="M7.5,5.455C6.572,5.539 5.648,5.651 4.726,5.789C3.289,6.004 2.25,7.253 2.25,8.706L2.25,12.489C2.244,13.217 2.515,13.922 3,14.462L3,18.4C3,19.87 4.065,21.13 5.523,21.323C7.643,21.605 9.805,21.75 12,21.75C14.195,21.75 16.357,21.605 18.477,21.323C19.935,21.13 21,19.87 21,18.4L21,14.462C21.485,13.922 21.756,13.217 21.75,12.483C21.75,12.489 21.75,8.706 21.75,8.706C21.75,7.253 20.711,6.004 19.274,5.789C18.352,5.651 17.428,5.539 16.5,5.455L16.5,5.25C16.5,3.605 15.145,2.25 13.5,2.25L10.5,2.25C8.855,2.25 7.5,3.605 7.5,5.25L7.5,5.455ZM19.5,15.343C17.075,16.113 14.545,16.503 12,16.5C9.385,16.5 6.866,16.094 4.5,15.343L4.5,18.4C4.5,19.118 5.009,19.742 5.721,19.837C5.721,19.837 5.721,19.837 5.721,19.837C7.775,20.109 9.871,20.25 12,20.25C14.129,20.25 16.225,20.109 18.279,19.837C18.279,19.837 18.279,19.837 18.279,19.837C18.991,19.742 19.5,19.118 19.5,18.4L19.5,15.343ZM15.692,6.892L15.692,6.892C13.235,6.702 10.765,6.702 8.308,6.892L8.308,6.892C7.184,6.978 6.063,7.105 4.948,7.273C4.948,7.273 4.948,7.273 4.948,7.273C4.247,7.378 3.75,7.997 3.75,8.706L3.75,12.495C3.747,12.911 3.926,13.308 4.24,13.582C4.363,13.687 4.505,13.767 4.659,13.818C4.659,13.818 4.659,13.818 4.659,13.818C6.967,14.585 9.435,15 12,15C12,15 12.001,15 12.001,15C14.495,15.003 16.972,14.604 19.339,13.819C19.497,13.765 19.639,13.684 19.761,13.581C20.074,13.308 20.253,12.911 20.25,12.495L20.25,8.706C20.25,7.997 19.753,7.378 19.052,7.273C19.052,7.273 19.052,7.273 19.052,7.273C17.937,7.105 16.816,6.978 15.692,6.892ZM15,5.341L15,5.25C15,4.427 14.323,3.75 13.5,3.75C13.5,3.75 10.5,3.75 10.5,3.75C9.677,3.75 9,4.427 9,5.25L9,5.341C10.998,5.219 13.002,5.219 15,5.341Z"/>
    <g transform="matrix(1,0,0,1,-0.00699796,-0.0452976)">
        <circle cx="12.015" cy="12.805" r="0.746"/>
    </g>
</svg>
