<?xml version="1.0" encoding="UTF-8" standalone="no"?>
<!DOCTYPE svg PUBLIC "-//W3C//DTD SVG 1.1//EN" "http://www.w3.org/Graphics/SVG/1.1/DTD/svg11.dtd">
<svg width="100%" height="100%" viewBox="0 0 24 24" version="1.1" xmlns="http://www.w3.org/2000/svg" xmlns:xlink="http://www.w3.org/1999/xlink" xml:space="preserve" xmlns:serif="http://www.serif.com/" style="fill-rule:evenodd;clip-rule:evenodd;stroke-linejoin:round;stroke-miterlimit:2;">
    <path d="M15.497,3.916C14.652,2.874 13.371,2.248 12,2.248C10.63,2.248 9.349,2.874 8.504,3.916C8.444,3.861 8.384,3.806 8.326,3.749C8.407,3.347 8.552,2.97 8.751,2.627C8.958,2.269 8.836,1.809 8.478,1.602C8.12,1.395 7.66,1.517 7.453,1.875C7.098,2.488 6.864,3.18 6.783,3.915C6.759,4.127 6.827,4.339 6.969,4.498C7.211,4.769 7.475,5.02 7.757,5.248C7.518,5.92 7.443,6.641 7.54,7.353C7.639,8.084 8.229,8.635 8.956,8.754C8.957,8.754 8.957,8.754 8.957,8.754C9.14,8.784 9.324,8.811 9.508,8.836C9.355,9.063 9.233,9.311 9.146,9.576C7.831,9.416 6.551,9.145 5.313,8.774C5.378,7.89 5.493,7.011 5.658,6.14C5.735,5.733 5.467,5.34 5.061,5.263C4.654,5.186 4.261,5.454 4.184,5.86C3.97,6.989 3.835,8.131 3.78,9.278C3.764,9.615 3.975,9.922 4.296,10.027C5.822,10.527 7.414,10.882 9.056,11.076C9.131,11.456 9.279,11.811 9.484,12.126L9.378,12.138C7.348,12.351 5.39,12.81 3.536,13.485C3.224,13.599 3.024,13.903 3.043,14.234C3.172,16.404 3.58,18.5 4.233,20.484C4.362,20.878 4.786,21.092 5.179,20.962C5.573,20.833 5.787,20.409 5.657,20.016C5.101,18.324 4.734,16.546 4.581,14.708C5.082,14.54 5.59,14.388 6.106,14.253C6.037,14.49 6,14.74 6,15C6,19.187 8.742,22.5 11.999,22.5C15.256,22.5 17.999,19.187 17.999,15C17.999,14.74 17.962,14.49 17.893,14.253C18.409,14.388 18.917,14.54 19.418,14.708C19.269,16.513 18.908,18.294 18.342,20.016C18.213,20.409 18.428,20.833 18.821,20.963C19.214,21.092 19.638,20.877 19.768,20.484C20.432,18.461 20.831,16.36 20.956,14.234C20.975,13.903 20.775,13.599 20.464,13.485C18.702,12.844 16.848,12.397 14.925,12.171L14.844,12.162L14.796,12.156L14.749,12.151L14.7,12.146L14.629,12.138L14.516,12.126C14.721,11.812 14.869,11.457 14.944,11.077C16.561,10.885 18.156,10.534 19.705,10.027C20.026,9.922 20.238,9.615 20.221,9.277C20.164,8.115 20.028,6.974 19.817,5.86C19.74,5.453 19.347,5.186 18.94,5.263C18.533,5.34 18.266,5.733 18.343,6.14C18.507,7.001 18.622,7.881 18.688,8.774C17.435,9.149 16.152,9.418 14.854,9.576C14.767,9.312 14.645,9.063 14.492,8.836C14.677,8.811 14.86,8.784 15.043,8.754C15.772,8.635 16.361,8.084 16.46,7.353C16.46,7.352 16.46,7.351 16.461,7.351C16.555,6.64 16.478,5.921 16.242,5.251C16.525,5.023 16.789,4.772 17.031,4.502C17.174,4.343 17.242,4.131 17.219,3.919C17.139,3.198 16.911,2.501 16.547,1.873C16.34,1.515 15.88,1.393 15.522,1.6C15.164,1.807 15.042,2.267 15.249,2.625C15.452,2.975 15.595,3.355 15.675,3.749C15.617,3.806 15.558,3.862 15.497,3.916ZM11.769,13.501L11.717,13.502L11.54,13.505L11.472,13.506L11.313,13.51L11.236,13.512L11.087,13.518L11.004,13.521L10.865,13.527L10.774,13.532L10.664,13.538L10.561,13.544L10.389,13.555L10.353,13.558L10.178,13.571L10.141,13.573L9.96,13.588L9.936,13.591C9.53,13.626 9.125,13.673 8.721,13.73C8.721,13.73 8.721,13.73 8.721,13.73C8.056,13.823 7.5,14.329 7.5,15C7.5,18.27 9.456,21 11.999,21C14.542,21 16.499,18.27 16.499,15C16.499,14.328 15.944,13.823 15.278,13.73C15.278,13.73 15.278,13.73 15.277,13.73C15.105,13.705 14.933,13.683 14.759,13.662L14.657,13.65L14.583,13.642L14.421,13.625L14.369,13.619L14.183,13.601L14.146,13.598L13.937,13.58L13.92,13.578L13.687,13.56C13.608,13.555 13.528,13.55 13.448,13.544L13.208,13.531L12.984,13.521L12.937,13.519L12.759,13.512L12.694,13.51L12.531,13.506L12.459,13.505L12.295,13.502L12.228,13.501L12,13.5L11.769,13.501ZM12,9L12,9C11.203,9 10.538,9.635 10.501,10.431C10.5,10.454 10.5,10.477 10.5,10.5C10.5,11.323 11.177,12 12,12L12,12C12.823,12 13.5,11.323 13.5,10.5C13.5,10.477 13.5,10.454 13.499,10.431C13.462,9.635 12.797,9 12,9ZM14.645,5.332C14.124,4.359 13.105,3.748 12,3.748C10.889,3.748 9.865,4.366 9.347,5.349L9.339,5.363C9.052,5.912 8.942,6.537 9.026,7.151C9.026,7.151 9.026,7.151 9.026,7.151C9.037,7.229 9.122,7.261 9.199,7.274C10.112,7.423 11.046,7.5 12,7.5L12.179,7.499C13.07,7.49 13.946,7.414 14.801,7.274C14.801,7.274 14.801,7.274 14.801,7.274C14.878,7.261 14.963,7.229 14.974,7.151C15.055,6.532 14.944,5.903 14.654,5.35L14.645,5.332Z"/>
</svg>
