<?xml version="1.0" encoding="UTF-8" standalone="no"?>
<!DOCTYPE svg PUBLIC "-//W3C//DTD SVG 1.1//EN" "http://www.w3.org/Graphics/SVG/1.1/DTD/svg11.dtd">
<svg width="100%" height="100%" viewBox="0 0 24 24" version="1.1" xmlns="http://www.w3.org/2000/svg" xmlns:xlink="http://www.w3.org/1999/xlink" xml:space="preserve" xmlns:serif="http://www.serif.com/" style="fill-rule:evenodd;clip-rule:evenodd;stroke-linejoin:round;stroke-miterlimit:2;">
    <path d="M21,20.25L21,8.25C21.414,8.25 21.75,7.914 21.75,7.5C21.75,7.086 21.414,6.75 21,6.75L15,6.75L15,3.75C15.414,3.75 15.75,3.414 15.75,3C15.75,2.586 15.414,2.25 15,2.25L3,2.25C2.586,2.25 2.25,2.586 2.25,3C2.25,3.414 2.586,3.75 3,3.75C3,3.75 3,20.25 3,20.25L2.25,20.25C1.836,20.25 1.5,20.586 1.5,21C1.5,21.414 1.836,21.75 2.25,21.75L21.75,21.75C22.164,21.75 22.5,21.414 22.5,21C22.5,20.586 22.164,20.25 21.75,20.25L21,20.25ZM12,20.25L13.5,20.25L13.5,3.75L4.5,3.75L4.5,20.25L6,20.25L6,17.625C6,16.59 6.84,15.75 7.875,15.75C7.875,15.75 10.125,15.75 10.125,15.75C11.16,15.75 12,16.59 12,17.625L12,20.25ZM10.5,20.25L10.5,17.625C10.5,17.418 10.332,17.25 10.125,17.25L7.875,17.25C7.668,17.25 7.5,17.418 7.5,17.625L7.5,20.25L10.5,20.25ZM15,8.25L15,20.25L19.5,20.25L19.5,8.25L15,8.25ZM6.75,13.5L7.5,13.5C7.914,13.5 8.25,13.164 8.25,12.75C8.25,12.336 7.914,12 7.5,12L6.75,12C6.336,12 6,12.336 6,12.75C6,13.164 6.336,13.5 6.75,13.5ZM10.5,13.5L11.25,13.5C11.664,13.5 12,13.164 12,12.75C12,12.336 11.664,12 11.25,12L10.5,12C10.086,12 9.75,12.336 9.75,12.75C9.75,13.164 10.086,13.5 10.5,13.5ZM6.75,10.5L7.5,10.5C7.914,10.5 8.25,10.164 8.25,9.75C8.25,9.336 7.914,9 7.5,9L6.75,9C6.336,9 6,9.336 6,9.75C6,10.164 6.336,10.5 6.75,10.5ZM10.5,10.5L11.25,10.5C11.664,10.5 12,10.164 12,9.75C12,9.336 11.664,9 11.25,9L10.5,9C10.086,9 9.75,9.336 9.75,9.75C9.75,10.164 10.086,10.5 10.5,10.5ZM6.75,7.5L7.5,7.5C7.914,7.5 8.25,7.164 8.25,6.75C8.25,6.336 7.914,6 7.5,6L6.75,6C6.336,6 6,6.336 6,6.75C6,7.164 6.336,7.5 6.75,7.5ZM10.5,7.5L11.25,7.5C11.664,7.5 12,7.164 12,6.75C12,6.336 11.664,6 11.25,6L10.5,6C10.086,6 9.75,6.336 9.75,6.75C9.75,7.164 10.086,7.5 10.5,7.5Z"/>
    <circle cx="17.265" cy="11.27" r="0.787"/>
    <g transform="matrix(1,0,0,1,0,2.95921)">
        <circle cx="17.265" cy="11.27" r="0.787"/>
    </g>
    <g transform="matrix(1,0,0,1,0,2.95921)">
        <circle cx="17.265" cy="11.27" r="0.787"/>
    </g>
    <g transform="matrix(1,0,0,1,0,5.99169)">
        <circle cx="17.265" cy="11.27" r="0.787"/>
    </g>
</svg>
