<?xml version="1.0" encoding="UTF-8" standalone="no"?>
<!DOCTYPE svg PUBLIC "-//W3C//DTD SVG 1.1//EN" "http://www.w3.org/Graphics/SVG/1.1/DTD/svg11.dtd">
<svg width="100%" height="100%" viewBox="0 0 24 24" version="1.1" xmlns="http://www.w3.org/2000/svg" xmlns:xlink="http://www.w3.org/1999/xlink" xml:space="preserve" xmlns:serif="http://www.serif.com/" style="fill-rule:evenodd;clip-rule:evenodd;stroke-linejoin:round;stroke-miterlimit:2;">
    <path d="M2.36,21.75L21.64,21.75C22.054,21.75 22.39,21.414 22.39,21C22.39,20.586 22.054,20.25 21.64,20.25L21,20.25L21,9.75C21.937,9.048 22.5,7.938 22.5,6.751C22.5,5.756 22.105,4.802 21.401,4.099L20.211,2.909C19.79,2.488 19.218,2.251 18.622,2.25L5.377,2.25C4.781,2.251 4.209,2.488 3.787,2.91L2.598,4.098C1.897,4.802 1.502,5.756 1.502,6.749C1.502,7.935 2.065,9.045 3,9.749L3,20.25L2.36,20.25C1.946,20.25 1.61,20.586 1.61,21C1.61,21.414 1.946,21.75 2.36,21.75ZM19.5,10.423C18.459,10.633 17.361,10.392 16.501,9.749C15.874,10.221 15.095,10.5 14.25,10.5C13.432,10.501 12.643,10.233 12,9.75C11.373,10.221 10.595,10.5 9.751,10.5C8.932,10.501 8.143,10.234 7.5,9.751C6.64,10.394 5.541,10.635 4.5,10.424L4.5,20.25L12.75,20.25L12.75,13.5C12.75,12.677 13.427,12 14.25,12L17.25,12C18.073,12 18.75,12.677 18.75,13.5L18.75,20.25L19.5,20.25L19.5,10.423ZM17.25,13.5C17.25,13.5 14.25,13.5 14.25,13.5L14.25,20.25L17.25,20.25L17.25,13.5ZM6.751,18.749L10.5,18.749C11.323,18.749 12,18.072 12,17.249L12,13.5C12,12.677 11.323,12 10.5,12L6.75,12C5.927,12 5.25,12.677 5.25,13.5L5.25,17.25C5.25,18.08 5.922,18.75 6.75,18.75L6.751,18.749ZM6.75,18.749L6.75,13.5L10.5,13.5C10.5,13.5 10.5,17.249 10.5,17.249L6.75,17.249L6.75,18.749ZM19.893,8.689C20.578,8.285 21,7.547 21,6.751C21,6.154 20.763,5.581 20.341,5.159L19.15,3.97C19.01,3.829 18.819,3.75 18.62,3.75C18.62,3.75 5.379,3.75 5.379,3.75C5.18,3.75 4.989,3.829 4.849,3.97L3.66,5.158C3.239,5.58 3.002,6.153 3.002,6.749C3.002,7.552 3.431,8.296 4.126,8.699L4.156,8.717C5.075,9.229 6.239,9.031 6.937,8.239C7.08,8.077 7.285,7.985 7.5,7.985C7.716,7.985 7.921,8.078 8.063,8.239C8.489,8.723 9.104,9.001 9.749,9C9.749,9 9.75,9 9.75,9C10.422,9 11.025,8.705 11.438,8.238C11.58,8.076 11.785,7.984 12.001,7.984C12.216,7.984 12.421,8.077 12.563,8.239C12.989,8.723 13.604,9.001 14.249,9C14.25,9 14.25,9 14.25,9C14.922,9 15.525,8.705 15.938,8.238C16.08,8.076 16.285,7.984 16.5,7.984C16.715,7.984 16.92,8.076 17.062,8.238C17.768,9.038 18.951,9.232 19.875,8.698L19.893,8.689Z"/>
</svg>
