<?xml version="1.0" encoding="UTF-8" standalone="no"?>
<!DOCTYPE svg PUBLIC "-//W3C//DTD SVG 1.1//EN" "http://www.w3.org/Graphics/SVG/1.1/DTD/svg11.dtd">
<svg width="100%" height="100%" viewBox="0 0 24 24" version="1.1" xmlns="http://www.w3.org/2000/svg" xmlns:xlink="http://www.w3.org/1999/xlink" xml:space="preserve" xmlns:serif="http://www.serif.com/" style="fill-rule:evenodd;clip-rule:evenodd;stroke-linejoin:round;stroke-miterlimit:2;">
    <path d="M20.25,20.25L20.25,10.332C20.25,9.963 19.981,9.648 19.616,9.591C17.096,9.197 14.55,8.999 12,9C9.41,9 6.866,9.203 4.384,9.591C4.019,9.648 3.75,9.963 3.75,10.332L3.75,20.25L3,20.25C2.586,20.25 2.25,20.586 2.25,21C2.25,21.414 2.586,21.75 3,21.75L21,21.75C21.414,21.75 21.75,21.414 21.75,21C21.75,20.586 21.414,20.25 21,20.25L20.25,20.25ZM18.75,20.25L18.75,10.978C16.515,10.659 14.259,10.499 12,10.5C12,10.5 12,10.5 12,10.5C9.709,10.5 7.455,10.664 5.25,10.978L5.25,20.25L7.5,20.25L7.5,12.75C7.5,12.336 7.836,12 8.25,12C8.664,12 9,12.336 9,12.75L9,20.25L11.25,20.25L11.25,12.75C11.25,12.336 11.586,12 12,12C12.414,12 12.75,12.336 12.75,12.75L12.75,20.25L15,20.25L15,12.75C15,12.336 15.336,12 15.75,12C16.164,12 16.5,12.336 16.5,12.75L16.5,20.25L18.75,20.25ZM3.416,9.624L12,3.901C12,3.901 20.584,9.624 20.584,9.624C20.928,9.854 21.394,9.76 21.624,9.416C21.854,9.072 21.76,8.606 21.416,8.376L12.416,2.376C12.164,2.208 11.836,2.208 11.584,2.376L2.584,8.376C2.24,8.606 2.146,9.072 2.376,9.416C2.606,9.76 3.072,9.854 3.416,9.624Z"/>
    <g transform="matrix(1,0,0,1,-0.00326564,-0.0460115)">
        <circle cx="12.011" cy="6.782" r="0.75"/>
    </g>
</svg>
