<?xml version="1.0" encoding="UTF-8" standalone="no"?>
<!DOCTYPE svg PUBLIC "-//W3C//DTD SVG 1.1//EN" "http://www.w3.org/Graphics/SVG/1.1/DTD/svg11.dtd">
<svg width="100%" height="100%" viewBox="0 0 24 24" version="1.1" xmlns="http://www.w3.org/2000/svg" xmlns:xlink="http://www.w3.org/1999/xlink" xml:space="preserve" xmlns:serif="http://www.serif.com/" style="fill-rule:evenodd;clip-rule:evenodd;stroke-linejoin:round;stroke-miterlimit:2;">
    <path d="M19.5,20.25L19.5,3.75C19.914,3.75 20.25,3.414 20.25,3C20.25,2.586 19.914,2.25 19.5,2.25L4.5,2.25C4.086,2.25 3.75,2.586 3.75,3C3.75,3.414 4.086,3.75 4.5,3.75C4.5,3.75 4.5,20.25 4.5,20.25L3.75,20.25C3.336,20.25 3,20.586 3,21C3,21.414 3.336,21.75 3.75,21.75L20.25,21.75C20.664,21.75 21,21.414 21,21C21,20.586 20.664,20.25 20.25,20.25L19.5,20.25ZM15.75,20.25L18,20.25L18,3.75L6,3.75L6,20.25L8.25,20.25L8.25,17.625C8.25,16.59 9.09,15.75 10.125,15.75C10.125,15.75 13.875,15.75 13.875,15.75C14.91,15.75 15.75,16.59 15.75,17.625L15.75,20.25ZM14.25,20.25L14.25,17.625C14.25,17.418 14.082,17.25 13.875,17.25L10.125,17.25C9.918,17.25 9.75,17.418 9.75,17.625L9.75,20.25L14.25,20.25ZM9,13.5L10.5,13.5C10.914,13.5 11.25,13.164 11.25,12.75C11.25,12.336 10.914,12 10.5,12L9,12C8.586,12 8.25,12.336 8.25,12.75C8.25,13.164 8.586,13.5 9,13.5ZM13.5,13.5L15,13.5C15.414,13.5 15.75,13.164 15.75,12.75C15.75,12.336 15.414,12 15,12L13.5,12C13.086,12 12.75,12.336 12.75,12.75C12.75,13.164 13.086,13.5 13.5,13.5ZM9,10.5L10.5,10.5C10.914,10.5 11.25,10.164 11.25,9.75C11.25,9.336 10.914,9 10.5,9L9,9C8.586,9 8.25,9.336 8.25,9.75C8.25,10.164 8.586,10.5 9,10.5ZM13.5,10.5L15,10.5C15.414,10.5 15.75,10.164 15.75,9.75C15.75,9.336 15.414,9 15,9L13.5,9C13.086,9 12.75,9.336 12.75,9.75C12.75,10.164 13.086,10.5 13.5,10.5ZM9,7.5L10.5,7.5C10.914,7.5 11.25,7.164 11.25,6.75C11.25,6.336 10.914,6 10.5,6L9,6C8.586,6 8.25,6.336 8.25,6.75C8.25,7.164 8.586,7.5 9,7.5ZM13.5,7.5L15,7.5C15.414,7.5 15.75,7.164 15.75,6.75C15.75,6.336 15.414,6 15,6L13.5,6C13.086,6 12.75,6.336 12.75,6.75C12.75,7.164 13.086,7.5 13.5,7.5Z"/>
</svg>
