<?xml version="1.0" encoding="UTF-8" standalone="no"?>
<!DOCTYPE svg PUBLIC "-//W3C//DTD SVG 1.1//EN" "http://www.w3.org/Graphics/SVG/1.1/DTD/svg11.dtd">
<svg width="100%" height="100%" viewBox="0 0 24 24" version="1.1" xmlns="http://www.w3.org/2000/svg" xmlns:xlink="http://www.w3.org/1999/xlink" xml:space="preserve" xmlns:serif="http://www.serif.com/" style="fill-rule:evenodd;clip-rule:evenodd;stroke-linejoin:round;stroke-miterlimit:2;">
    <path d="M11.25,7.506C10.748,7.513 10.248,7.528 9.75,7.551L9.75,6.751C9.75,6.337 9.414,6.001 9,6.001C8.586,6.001 8.25,6.337 8.25,6.751L8.25,7.642C8.138,7.65 8.026,7.659 7.914,7.669C7.914,7.669 7.914,7.669 7.914,7.669C6.394,7.795 5.25,9.082 5.25,10.608L5.25,12.463C5.075,12.488 4.9,12.513 4.726,12.539C3.289,12.754 2.25,14.004 2.25,15.455L2.25,20.626C2.251,21.654 3.097,22.499 4.125,22.499C4.125,22.499 19.875,22.499 19.875,22.499C20.91,22.499 21.75,21.659 21.75,20.625L21.75,15.455C21.75,14.002 20.712,12.753 19.274,12.538C19.1,12.512 18.925,12.487 18.75,12.463L18.75,10.608C18.75,9.082 17.606,7.795 16.086,7.669C16.086,7.669 16.086,7.669 16.086,7.669C15.974,7.659 15.862,7.65 15.75,7.642L15.75,6.751C15.75,6.337 15.414,6.001 15,6.001C14.586,6.001 14.25,6.337 14.25,6.751L14.25,7.551C13.752,7.529 13.252,7.514 12.75,7.507L12.75,6.75C12.75,6.336 12.414,6 12,6C11.586,6 11.25,6.336 11.25,6.75L11.25,7.506ZM20.25,17.715L19.835,17.922C18.681,18.499 17.319,18.499 16.165,17.922C15.432,17.556 14.568,17.556 13.835,17.922C12.681,18.499 11.319,18.499 10.165,17.922C9.432,17.556 8.568,17.556 7.835,17.922C6.681,18.499 5.319,18.499 4.165,17.922L3.75,17.714L3.75,20.624C3.75,20.83 3.919,20.999 4.125,20.999L19.875,20.999C20.082,20.999 20.25,20.831 20.25,20.625L20.25,17.715ZM17.874,13.86C15.925,13.619 13.964,13.499 12,13.5C12,13.5 12,13.5 12,13.5C10.011,13.5 8.051,13.622 6.126,13.86C6.106,13.864 6.087,13.866 6.066,13.868L4.948,14.023C4.247,14.128 3.75,14.746 3.75,15.455L3.75,16.037L4.835,16.58C5.568,16.946 6.432,16.946 7.165,16.58C8.319,16.003 9.681,16.003 10.835,16.58C11.568,16.946 12.432,16.946 13.165,16.58C14.319,16.003 15.681,16.003 16.835,16.58C17.568,16.946 18.432,16.946 19.165,16.58L20.25,16.037L20.25,15.455C20.25,14.746 19.754,14.127 19.052,14.022L17.934,13.868C17.914,13.866 17.894,13.864 17.874,13.86ZM11.964,9C10.642,9.001 9.333,9.056 8.038,9.163C7.296,9.225 6.75,9.864 6.75,10.608L6.75,12.278C8.475,12.094 10.226,12 12,12C13.754,11.999 15.506,12.092 17.25,12.279L17.25,10.608C17.25,9.864 16.704,9.225 15.962,9.163C14.655,9.055 13.334,9.001 12,9.001L11.964,9Z"/>
    <path d="M8.993,4.5C8.46,4.491 7.918,4.109 7.872,3.433C7.86,3.245 7.906,3.072 7.957,2.945C8.061,2.688 8.223,2.558 8.275,2.504C8.317,2.461 8.365,2.417 8.402,2.376C8.683,2.068 9,2.096 9,2.096C9,2.096 9.323,2.068 9.593,2.376C9.629,2.418 9.679,2.461 9.72,2.504C9.772,2.558 9.934,2.688 10.038,2.945C10.089,3.072 10.135,3.245 10.123,3.433C10.077,4.112 9.536,4.494 9,4.5L8.993,4.5C8.996,4.5 8.998,4.5 9,4.5C9.513,4.506 8.494,4.506 8.993,4.5ZM8.622,3.376C8.622,3.376 8.624,3.019 9.002,3C9.002,3 9.331,2.983 9.381,3.378L8.622,3.376Z"/>
    <g transform="matrix(1,0,0,1,3.00366,0)">
        <path d="M8.993,4.5C8.46,4.491 7.918,4.109 7.872,3.433C7.86,3.245 7.906,3.072 7.957,2.945C8.061,2.688 8.223,2.558 8.275,2.504C8.317,2.461 8.365,2.417 8.402,2.376C8.683,2.068 9,2.096 9,2.096C9,2.096 9.323,2.068 9.593,2.376C9.629,2.418 9.679,2.461 9.72,2.504C9.772,2.558 9.934,2.688 10.038,2.945C10.089,3.072 10.135,3.245 10.123,3.433C10.077,4.112 9.536,4.494 9,4.5L8.993,4.5C8.996,4.5 8.998,4.5 9,4.5C9.513,4.506 8.494,4.506 8.993,4.5ZM8.622,3.376C8.622,3.376 8.624,3.019 9.002,3C9.002,3 9.331,2.983 9.381,3.378L8.622,3.376Z"/>
    </g>
    <g transform="matrix(1,0,0,1,5.96626,0)">
        <path d="M8.993,4.5C8.46,4.491 7.918,4.109 7.872,3.433C7.86,3.245 7.906,3.072 7.957,2.945C8.061,2.688 8.223,2.558 8.275,2.504C8.317,2.461 8.365,2.417 8.402,2.376C8.683,2.068 9,2.096 9,2.096C9,2.096 9.323,2.068 9.593,2.376C9.629,2.418 9.679,2.461 9.72,2.504C9.772,2.558 9.934,2.688 10.038,2.945C10.089,3.072 10.135,3.245 10.123,3.433C10.077,4.112 9.536,4.494 9,4.5L8.993,4.5C8.996,4.5 8.998,4.5 9,4.5C9.513,4.506 8.494,4.506 8.993,4.5ZM8.622,3.376C8.622,3.376 8.624,3.019 9.002,3C9.002,3 9.331,2.983 9.381,3.378L8.622,3.376Z"/>
    </g>
</svg>
