<?xml version="1.0" encoding="UTF-8" standalone="no"?>
<!DOCTYPE svg PUBLIC "-//W3C//DTD SVG 1.1//EN" "http://www.w3.org/Graphics/SVG/1.1/DTD/svg11.dtd">
<svg width="100%" height="100%" viewBox="0 0 24 24" version="1.1" xmlns="http://www.w3.org/2000/svg" xmlns:xlink="http://www.w3.org/1999/xlink" xml:space="preserve" xmlns:serif="http://www.serif.com/" style="fill-rule:evenodd;clip-rule:evenodd;stroke-linejoin:round;stroke-miterlimit:2;">
    <path d="M12,1.5C10.079,1.5 8.184,1.612 6.321,1.827C6.321,1.827 6.321,1.827 6.32,1.827C4.842,1.999 3.75,3.269 3.75,4.757C3.75,4.757 3.75,19.5 3.75,19.5C3.75,21.146 5.104,22.5 6.75,22.5L17.25,22.5C18.896,22.5 20.25,21.146 20.25,19.5L20.25,4.757C20.25,3.268 19.159,1.999 17.68,1.827C17.679,1.827 17.679,1.827 17.679,1.827C15.794,1.609 13.898,1.499 12,1.5L12,1.5ZM12,3C12,3 12,3 12,3C13.84,3 15.679,3.105 17.506,3.317C18.229,3.401 18.75,4.03 18.75,4.757C18.75,4.757 18.75,19.5 18.75,19.5C18.75,20.323 18.073,21 17.25,21C17.25,21 6.75,21 6.75,21C5.927,21 5.25,20.323 5.25,19.5L5.25,4.757C5.25,4.031 5.772,3.401 6.494,3.317C8.3,3.108 10.137,3 12,3ZM15,15.75L15,18C15,18.414 15.336,18.75 15.75,18.75C16.164,18.75 16.5,18.414 16.5,18L16.5,15.75C16.5,15.336 16.164,15 15.75,15C15.336,15 15,15.336 15,15.75ZM8.25,5.25C7.836,5.25 7.5,5.586 7.5,6L7.5,8.25C7.5,8.664 7.836,9 8.25,9L15.75,9C16.164,9 16.5,8.664 16.5,8.25L16.5,6C16.5,5.586 16.164,5.25 15.75,5.25L8.25,5.25ZM9,6.75L15,6.75C15,6.75 15,7.5 15,7.5C15,7.5 9,7.5 9,7.5L9,6.75Z"/>
    <g transform="matrix(1,0,0,1,-0.013011,0.00478805)">
        <circle cx="8.268" cy="11.261" r="0.732"/>
    </g>
    <g transform="matrix(1,0,0,1,2.48521,0.00478805)">
        <circle cx="8.268" cy="11.261" r="0.732"/>
    </g>
    <g transform="matrix(1,0,0,1,5.00257,0.00478805)">
        <circle cx="8.268" cy="11.261" r="0.732"/>
    </g>
    <g transform="matrix(1,0,0,1,-0.013011,2.256)">
        <circle cx="8.268" cy="11.261" r="0.732"/>
    </g>
    <g transform="matrix(1,0,0,1,2.48521,2.256)">
        <circle cx="8.268" cy="11.261" r="0.732"/>
    </g>
    <g transform="matrix(1,0,0,1,5.00257,2.256)">
        <circle cx="8.268" cy="11.261" r="0.732"/>
    </g>
    <g transform="matrix(1,0,0,1,-0.013011,4.4812)">
        <circle cx="8.268" cy="11.261" r="0.732"/>
    </g>
    <g transform="matrix(1,0,0,1,2.48521,4.4812)">
        <circle cx="8.268" cy="11.261" r="0.732"/>
    </g>
    <g transform="matrix(1,0,0,1,5.00257,4.4812)">
        <circle cx="8.268" cy="11.261" r="0.732"/>
    </g>
    <g transform="matrix(1,0,0,1,-0.013011,6.74917)">
        <circle cx="8.268" cy="11.261" r="0.732"/>
    </g>
    <g transform="matrix(1,0,0,1,2.48521,6.74917)">
        <circle cx="8.268" cy="11.261" r="0.732"/>
    </g>
    <g transform="matrix(1,0,0,1,5.00257,6.74917)">
        <circle cx="8.268" cy="11.261" r="0.732"/>
    </g>
    <g transform="matrix(1,0,0,1,7.50495,0.00478805)">
        <circle cx="8.268" cy="11.261" r="0.732"/>
    </g>
    <g transform="matrix(1,0,0,1,7.50495,2.24976)">
        <circle cx="8.268" cy="11.261" r="0.732"/>
    </g>
</svg>
