<?xml version="1.0" encoding="UTF-8" standalone="no"?>
<!DOCTYPE svg PUBLIC "-//W3C//DTD SVG 1.1//EN" "http://www.w3.org/Graphics/SVG/1.1/DTD/svg11.dtd">
<svg width="100%" height="100%" viewBox="0 0 24 24" version="1.1" xmlns="http://www.w3.org/2000/svg" xmlns:xlink="http://www.w3.org/1999/xlink" xml:space="preserve" xmlns:serif="http://www.serif.com/" style="fill-rule:evenodd;clip-rule:evenodd;stroke-linejoin:round;stroke-miterlimit:2;">
    <path d="M2.25,7.5L2.25,18.75C2.25,20.396 3.604,21.75 5.25,21.75L18.75,21.75C20.396,21.75 21.75,20.396 21.75,18.75L21.75,7.5C21.75,5.854 20.396,4.5 18.75,4.5L18,4.5L18,3C18,2.586 17.664,2.25 17.25,2.25C16.836,2.25 16.5,2.586 16.5,3L16.5,4.5L7.5,4.5L7.5,3C7.5,2.586 7.164,2.25 6.75,2.25C6.336,2.25 6,2.586 6,3L6,4.5L5.25,4.5C3.604,4.5 2.25,5.854 2.25,7.5ZM20.25,11.25C20.25,10.427 19.573,9.75 18.75,9.75L5.25,9.75C4.427,9.75 3.75,10.427 3.75,11.25L3.75,18.75C3.75,19.573 4.427,20.25 5.25,20.25C5.25,20.25 18.75,20.25 18.75,20.25C19.573,20.25 20.25,19.573 20.25,18.75L20.25,11.25ZM20.25,8.657L20.25,7.5C20.25,6.677 19.573,6 18.75,6L5.25,6C4.427,6 3.75,6.677 3.75,7.5L3.75,8.657C4.192,8.398 4.705,8.25 5.25,8.25C5.25,8.25 18.75,8.25 18.75,8.25C19.295,8.25 19.808,8.398 20.25,8.657Z"/>
</svg>
