<?xml version="1.0" encoding="UTF-8" standalone="no"?>
<!DOCTYPE svg PUBLIC "-//W3C//DTD SVG 1.1//EN" "http://www.w3.org/Graphics/SVG/1.1/DTD/svg11.dtd">
<svg width="100%" height="100%" viewBox="0 0 24 24" version="1.1" xmlns="http://www.w3.org/2000/svg" xmlns:xlink="http://www.w3.org/1999/xlink" xml:space="preserve" xmlns:serif="http://www.serif.com/" style="fill-rule:evenodd;clip-rule:evenodd;stroke-linejoin:round;stroke-miterlimit:2;">
    <path d="M6.192,5.775C5.947,6.164 5.541,6.425 5.085,6.487L3.929,6.665C2.514,6.9 1.5,8.14 1.5,9.574C1.5,9.574 1.5,18 1.5,18C1.5,19.645 2.855,21 4.5,21C4.5,21 19.5,21 19.5,21C21.145,21 22.5,19.645 22.5,18L22.5,9.574C22.5,8.14 21.485,6.9 20.071,6.665C19.688,6.601 19.305,6.542 18.92,6.487C18.918,6.487 18.917,6.487 18.915,6.487C18.46,6.425 18.054,6.164 17.808,5.775C17.808,5.775 16.988,4.462 16.988,4.462C16.489,3.65 15.618,3.129 14.661,3.071C14.66,3.071 14.658,3.071 14.656,3.071C12.886,2.976 11.114,2.976 9.344,3.071C9.342,3.071 9.34,3.071 9.339,3.071C8.382,3.129 7.511,3.65 7.009,4.466C7.012,4.462 6.192,5.775 6.192,5.775L6.192,5.775ZM7.461,6.576L8.287,5.252C8.533,4.852 8.959,4.597 9.428,4.569C11.142,4.476 12.858,4.476 14.572,4.569C15.041,4.597 15.467,4.852 15.713,5.252L16.54,6.576C17.022,7.339 17.818,7.851 18.713,7.973L19.825,8.145C20.515,8.26 21,8.874 21,9.574C21,9.574 21,18 21,18C21,18.823 20.323,19.5 19.5,19.5L4.5,19.5C3.677,19.5 3,18.823 3,18L3,9.574C3,8.874 3.484,8.26 4.175,8.145L5.292,7.973C6.183,7.851 6.979,7.339 7.461,6.576Z"/>
    <g transform="matrix(1,0,0,1,0,-0.0341707)">
        <circle cx="18.752" cy="10.546" r="0.75"/>
    </g>
    <path d="M17.25,12.75C17.25,9.87 14.88,7.5 12,7.5C9.12,7.5 6.75,9.87 6.75,12.75C6.75,15.63 9.12,18 12,18C14.88,18 17.25,15.63 17.25,12.75ZM15.75,12.75C15.75,14.807 14.057,16.5 12,16.5C9.943,16.5 8.25,14.807 8.25,12.75C8.25,10.693 9.943,9 12,9C14.057,9 15.75,10.693 15.75,12.75Z"/>
</svg>
