<?xml version="1.0" encoding="UTF-8" standalone="no"?>
<!DOCTYPE svg PUBLIC "-//W3C//DTD SVG 1.1//EN" "http://www.w3.org/Graphics/SVG/1.1/DTD/svg11.dtd">
<svg width="100%" height="100%" viewBox="0 0 24 24" version="1.1" xmlns="http://www.w3.org/2000/svg" xmlns:xlink="http://www.w3.org/1999/xlink" xml:space="preserve" xmlns:serif="http://www.serif.com/" style="fill-rule:evenodd;clip-rule:evenodd;stroke-linejoin:round;stroke-miterlimit:2;">
    <path d="M6,21L18,21C19.646,21 21,19.646 21,18C21,18 21,6 21,6C21,4.354 19.646,3 18,3L6,3C4.354,3 3,4.354 3,6L3,18C3,19.646 4.354,21 6,21ZM6,19.5C5.177,19.5 4.5,18.823 4.5,18C4.5,18 4.5,6 4.5,6C4.5,5.177 5.177,4.5 6,4.5C6,4.5 18,4.5 18,4.5C18.823,4.5 19.5,5.177 19.5,6L19.5,18C19.5,18.823 18.823,19.5 18,19.5L6,19.5ZM6.75,14.25L6.75,16.5C6.75,16.914 7.086,17.25 7.5,17.25C7.914,17.25 8.25,16.914 8.25,16.5L8.25,14.25C8.25,13.836 7.914,13.5 7.5,13.5C7.086,13.5 6.75,13.836 6.75,14.25ZM9.75,12L9.75,16.5C9.75,16.914 10.086,17.25 10.5,17.25C10.914,17.25 11.25,16.914 11.25,16.5L11.25,12C11.25,11.586 10.914,11.25 10.5,11.25C10.086,11.25 9.75,11.586 9.75,12ZM12.75,9.75L12.75,16.5C12.75,16.914 13.086,17.25 13.5,17.25C13.914,17.25 14.25,16.914 14.25,16.5L14.25,9.75C14.25,9.336 13.914,9 13.5,9C13.086,9 12.75,9.336 12.75,9.75ZM15.75,7.5L15.75,16.5C15.75,16.914 16.086,17.25 16.5,17.25C16.914,17.25 17.25,16.914 17.25,16.5L17.25,7.5C17.25,7.086 16.914,6.75 16.5,6.75C16.086,6.75 15.75,7.086 15.75,7.5Z"/>
</svg>
