<?xml version="1.0" encoding="UTF-8" standalone="no"?>
<!DOCTYPE svg PUBLIC "-//W3C//DTD SVG 1.1//EN" "http://www.w3.org/Graphics/SVG/1.1/DTD/svg11.dtd">
<svg width="100%" height="100%" viewBox="0 0 24 24" version="1.1" xmlns="http://www.w3.org/2000/svg" xmlns:xlink="http://www.w3.org/1999/xlink" xml:space="preserve" xmlns:serif="http://www.serif.com/" style="fill-rule:evenodd;clip-rule:evenodd;stroke-linejoin:round;stroke-miterlimit:2;">
    <path d="M11.25,6C11.25,5.586 10.914,5.25 10.5,5.25C5.974,5.25 2.25,8.974 2.25,13.5C2.25,18.026 5.974,21.75 10.5,21.75C15.026,21.75 18.75,18.026 18.75,13.5C18.75,13.086 18.414,12.75 18,12.75L11.25,12.75C11.25,12.75 11.25,6 11.25,6ZM9.75,6.792L9.75,13.5C9.75,13.914 10.086,14.25 10.5,14.25L17.208,14.25C16.83,17.606 13.95,20.25 10.5,20.25C6.797,20.25 3.75,17.203 3.75,13.5C3.75,10.05 6.394,7.17 9.75,6.792L9.75,6.792Z"/>
    <path d="M12.75,10.5C12.75,10.914 13.086,11.25 13.5,11.25L21,11.25C21.414,11.25 21.75,10.914 21.75,10.5C21.75,5.974 18.026,2.25 13.5,2.25C13.086,2.25 12.75,2.586 12.75,3L12.75,10.5ZM14.25,9.75L14.25,3.792C17.359,4.142 19.858,6.641 20.208,9.75L14.25,9.75Z"/>
</svg>
