<?xml version="1.0" encoding="UTF-8" standalone="no"?>
<!DOCTYPE svg PUBLIC "-//W3C//DTD SVG 1.1//EN" "http://www.w3.org/Graphics/SVG/1.1/DTD/svg11.dtd">
<svg width="100%" height="100%" viewBox="0 0 24 24" version="1.1" xmlns="http://www.w3.org/2000/svg" xmlns:xlink="http://www.w3.org/1999/xlink" xml:space="preserve" xmlns:serif="http://www.serif.com/" style="fill-rule:evenodd;clip-rule:evenodd;stroke-linejoin:round;stroke-miterlimit:2;">
    <path d="M2.25,13.125L2.25,19.875C2.25,20.904 3.096,21.75 4.125,21.75L6.375,21.75C7.41,21.75 8.25,20.91 8.25,19.875C8.25,19.875 8.25,13.125 8.25,13.125C8.25,12.09 7.41,11.25 6.375,11.25L4.125,11.25C3.09,11.25 2.25,12.09 2.25,13.125ZM9,8.625L9,19.875C9,20.904 9.846,21.75 10.875,21.75L13.125,21.75C14.16,21.75 15,20.91 15,19.875C15,19.875 15,8.625 15,8.625C15,7.59 14.16,6.75 13.125,6.75L10.875,6.75C9.84,6.75 9,7.59 9,8.625ZM15.75,4.125L15.75,19.875C15.75,20.904 16.596,21.75 17.625,21.75L19.875,21.75C20.91,21.75 21.75,20.91 21.75,19.875L21.75,4.125C21.75,3.09 20.91,2.25 19.875,2.25L17.625,2.25C16.59,2.25 15.75,3.09 15.75,4.125ZM3.75,13.125C3.75,12.918 3.918,12.75 4.125,12.75C4.125,12.75 6.375,12.75 6.375,12.75C6.582,12.75 6.75,12.918 6.75,13.125L6.75,19.875C6.75,20.082 6.582,20.25 6.375,20.25C6.375,20.25 4.125,20.25 4.125,20.25C3.919,20.25 3.75,20.081 3.75,19.875C3.75,19.875 3.75,13.125 3.75,13.125ZM10.5,8.625C10.5,8.418 10.668,8.25 10.875,8.25C10.875,8.25 13.125,8.25 13.125,8.25C13.332,8.25 13.5,8.418 13.5,8.625L13.5,19.875C13.5,20.082 13.332,20.25 13.125,20.25C13.125,20.25 10.875,20.25 10.875,20.25C10.669,20.25 10.5,20.081 10.5,19.875L10.5,8.625ZM17.25,4.125C17.25,3.918 17.418,3.75 17.625,3.75C17.625,3.75 19.875,3.75 19.875,3.75C20.082,3.75 20.25,3.918 20.25,4.125C20.25,4.125 20.25,19.875 20.25,19.875C20.25,20.082 20.082,20.25 19.875,20.25C19.875,20.25 17.625,20.25 17.625,20.25C17.419,20.25 17.25,20.081 17.25,19.875L17.25,4.125Z"/>
</svg>
