<?xml version="1.0" encoding="UTF-8" standalone="no"?>
<!DOCTYPE svg PUBLIC "-//W3C//DTD SVG 1.1//EN" "http://www.w3.org/Graphics/SVG/1.1/DTD/svg11.dtd">
<svg width="100%" height="100%" viewBox="0 0 24 24" version="1.1" xmlns="http://www.w3.org/2000/svg" xmlns:xlink="http://www.w3.org/1999/xlink" xml:space="preserve" xmlns:serif="http://www.serif.com/" style="fill-rule:evenodd;clip-rule:evenodd;stroke-linejoin:round;stroke-miterlimit:2;">
    <path d="M12,21C17.401,21 21.75,16.951 21.75,12C21.75,7.049 17.401,3 12,3C6.599,3 2.25,7.049 2.25,12C2.25,14.304 3.186,16.407 4.735,18.002C4.985,18.262 5.222,18.585 5.132,18.935C4.992,19.482 4.729,19.99 4.364,20.421C4.19,20.626 4.139,20.907 4.23,21.16C4.321,21.412 4.539,21.597 4.803,21.644C5.199,21.715 5.599,21.751 6.001,21.75C7.317,21.75 8.545,21.373 9.583,20.721C10.355,20.904 11.166,21 12,21ZM6.247,20.244C6.389,19.944 6.503,19.631 6.585,19.307C6.585,19.307 6.586,19.307 6.586,19.307C6.804,18.454 6.425,17.593 5.812,16.959C5.812,16.958 5.812,16.958 5.811,16.958C4.532,15.639 3.75,13.904 3.75,12C3.75,7.839 7.461,4.5 12,4.5C16.539,4.5 20.25,7.839 20.25,12C20.25,16.161 16.539,19.5 12,19.5C11.181,19.5 10.389,19.392 9.642,19.189C9.426,19.131 9.196,19.171 9.014,19.299C8.224,19.854 7.274,20.197 6.247,20.244Z"/>
</svg>
