<?xml version="1.0" encoding="UTF-8" standalone="no"?>
<!DOCTYPE svg PUBLIC "-//W3C//DTD SVG 1.1//EN" "http://www.w3.org/Graphics/SVG/1.1/DTD/svg11.dtd">
<svg width="100%" height="100%" viewBox="0 0 24 24" version="1.1" xmlns="http://www.w3.org/2000/svg" xmlns:xlink="http://www.w3.org/1999/xlink" xml:space="preserve" xmlns:serif="http://www.serif.com/" style="fill-rule:evenodd;clip-rule:evenodd;stroke-linejoin:round;stroke-miterlimit:2;">
    <path d="M1.5,12.759L1.5,12.76L1.5,12.76C1.5,14.732 2.895,16.442 4.848,16.729C5.725,16.858 6.609,16.964 7.5,17.045C7.5,17.045 7.5,21 7.5,21C7.5,21.303 7.683,21.577 7.963,21.693C8.243,21.809 8.566,21.745 8.78,21.53L12.963,17.348C13.034,17.278 13.13,17.237 13.229,17.235C13.23,17.235 13.23,17.235 13.23,17.235C15.212,17.186 17.19,17.017 19.151,16.729C19.151,16.729 19.151,16.729 19.151,16.729C21.105,16.442 22.5,14.734 22.5,12.759L22.5,6.741C22.5,4.766 21.105,3.058 19.152,2.771C19.152,2.771 19.152,2.771 19.152,2.771C16.784,2.423 14.393,2.249 12,2.25C9.571,2.25 7.182,2.428 4.848,2.771C4.848,2.771 4.848,2.771 4.848,2.771C2.895,3.058 1.5,4.767 1.5,6.741C1.5,6.741 1.5,12.759 1.5,12.759ZM3,12.769L3,12.759L3,6.741C3,5.513 3.851,4.434 5.066,4.255C7.33,3.922 9.645,3.75 12,3.75C12,3.75 12,3.75 12,3.75C14.321,3.749 16.638,3.918 18.934,4.255C20.149,4.434 21,5.512 21,6.741C21,6.741 21,12.759 21,12.759C21,13.988 20.149,15.066 18.933,15.245C17.031,15.524 15.115,15.688 13.194,15.735C12.71,15.746 12.248,15.944 11.905,16.286L9,19.19C9,19.19 9,16.356 9,16.356C9,15.964 8.699,15.639 8.308,15.608C7.217,15.524 6.136,15.403 5.066,15.245C5.066,15.245 5.066,15.245 5.066,15.245C3.854,15.067 3.004,13.993 3,12.769L3,12.769ZM1.5,12.76C1.5,12.76 1.5,12.586 1.5,12.759L1.5,12.76ZM9.375,9.75C9.375,9.133 8.867,8.625 8.25,8.625C7.633,8.625 7.125,9.133 7.125,9.75C7.125,10.367 7.633,10.875 8.25,10.875C8.867,10.875 9.375,10.367 9.375,9.75ZM13.125,9.75C13.125,9.133 12.617,8.625 12,8.625C11.383,8.625 10.875,9.133 10.875,9.75C10.875,10.367 11.383,10.875 12,10.875C12.617,10.875 13.125,10.367 13.125,9.75ZM16.875,9.75C16.875,9.133 16.367,8.625 15.75,8.625C15.133,8.625 14.625,9.133 14.625,9.75C14.625,10.367 15.133,10.875 15.75,10.875C16.367,10.875 16.875,10.367 16.875,9.75Z"/>
</svg>
