<?xml version="1.0" encoding="UTF-8" standalone="no"?>
<!DOCTYPE svg PUBLIC "-//W3C//DTD SVG 1.1//EN" "http://www.w3.org/Graphics/SVG/1.1/DTD/svg11.dtd">
<svg width="100%" height="100%" viewBox="0 0 24 24" version="1.1" xmlns="http://www.w3.org/2000/svg" xmlns:xlink="http://www.w3.org/1999/xlink" xml:space="preserve" xmlns:serif="http://www.serif.com/" style="fill-rule:evenodd;clip-rule:evenodd;stroke-linejoin:round;stroke-miterlimit:2;">
    <path d="M1.5,12.759L1.5,12.76L1.5,12.76C1.5,14.732 2.895,16.442 4.848,16.729C4.848,16.729 4.848,16.729 4.848,16.729C5.933,16.888 7.03,17.012 8.137,17.099C8.373,17.117 8.592,17.239 8.724,17.438C8.724,17.438 11.376,21.416 11.376,21.416C11.515,21.625 11.749,21.75 12,21.75C12.251,21.75 12.485,21.625 12.624,21.416L15.276,17.438C15.408,17.24 15.626,17.118 15.863,17.1C15.863,17.1 15.864,17.1 15.864,17.1C16.971,17.012 18.068,16.888 19.152,16.729C19.152,16.729 19.152,16.729 19.152,16.729C21.105,16.442 22.5,14.734 22.5,12.759L22.5,6.741C22.5,4.766 21.105,3.058 19.152,2.771C19.152,2.771 19.152,2.771 19.152,2.771C16.784,2.423 14.393,2.249 12,2.25C9.571,2.25 7.182,2.428 4.848,2.771C4.848,2.771 4.848,2.771 4.848,2.771C2.895,3.058 1.5,4.767 1.5,6.741C1.5,6.741 1.5,12.759 1.5,12.759ZM3,12.769L3,12.759L3,6.741C3,5.513 3.851,4.434 5.066,4.255C7.33,3.922 9.645,3.75 12,3.75C12,3.75 12,3.75 12,3.75C14.321,3.749 16.638,3.918 18.934,4.255C20.149,4.434 21,5.512 21,6.741C21,6.741 21,12.759 21,12.759C21,13.988 20.149,15.066 18.934,15.245C17.882,15.4 16.819,15.52 15.746,15.604C15.052,15.658 14.416,16.024 14.028,16.606C14.028,16.606 12,19.648 12,19.648C12,19.648 9.972,16.606 9.972,16.606C9.584,16.025 8.949,15.659 8.254,15.603C8.254,15.603 8.254,15.603 8.253,15.603C7.18,15.52 6.117,15.4 5.066,15.245C3.854,15.067 3.004,13.993 3,12.769L3,12.769ZM1.5,12.76C1.5,12.76 1.5,12.586 1.5,12.759L1.5,12.76Z"/>
</svg>
