<?xml version="1.0" encoding="UTF-8" standalone="no"?>
<!DOCTYPE svg PUBLIC "-//W3C//DTD SVG 1.1//EN" "http://www.w3.org/Graphics/SVG/1.1/DTD/svg11.dtd">
<svg width="100%" height="100%" viewBox="0 0 24 24" version="1.1" xmlns="http://www.w3.org/2000/svg" xmlns:xlink="http://www.w3.org/1999/xlink" xml:space="preserve" xmlns:serif="http://www.serif.com/" style="fill-rule:evenodd;clip-rule:evenodd;stroke-linejoin:round;stroke-miterlimit:2;">
    <path d="M21.75,12C21.75,7.049 17.401,3 12,3C6.599,3 2.25,7.049 2.25,12C2.25,14.396 3.263,16.576 4.924,18.192C5.077,18.34 5.219,18.526 5.178,18.735C5.054,19.356 4.774,19.936 4.364,20.42C4.19,20.624 4.139,20.906 4.23,21.159C4.321,21.412 4.54,21.596 4.804,21.643C4.981,21.675 5.158,21.699 5.336,21.716C6.826,21.866 8.321,21.514 9.584,20.721C10.375,20.907 11.186,21.001 12.001,21C17.402,21 21.75,16.951 21.75,12ZM6.247,20.244C6.43,19.858 6.566,19.449 6.65,19.026C6.65,19.026 6.65,19.025 6.65,19.025C6.789,18.319 6.486,17.618 5.97,17.116C5.97,17.116 5.97,17.116 5.97,17.116C4.597,15.78 3.75,13.982 3.75,12C3.75,7.839 7.461,4.5 12,4.5C16.539,4.5 20.25,7.839 20.25,12C20.25,16.161 16.539,19.5 12,19.5C12,19.5 11.999,19.5 11.999,19.5C11.203,19.501 10.409,19.396 9.64,19.189C9.425,19.131 9.196,19.171 9.014,19.3C8.196,19.874 7.235,20.2 6.247,20.244ZM9.375,12C9.375,11.383 8.867,10.875 8.25,10.875C7.633,10.875 7.125,11.383 7.125,12C7.125,12.617 7.633,13.125 8.25,13.125C8.867,13.125 9.375,12.617 9.375,12ZM13.125,12C13.125,11.383 12.617,10.875 12,10.875C11.383,10.875 10.875,11.383 10.875,12C10.875,12.617 11.383,13.125 12,13.125C12.617,13.125 13.125,12.617 13.125,12ZM16.875,12C16.875,11.383 16.367,10.875 15.75,10.875C15.133,10.875 14.625,11.383 14.625,12C14.625,12.617 15.133,13.125 15.75,13.125C16.367,13.125 16.875,12.617 16.875,12Z"/>
</svg>
