<?xml version="1.0" encoding="UTF-8" standalone="no"?>
<!DOCTYPE svg PUBLIC "-//W3C//DTD SVG 1.1//EN" "http://www.w3.org/Graphics/SVG/1.1/DTD/svg11.dtd">
<svg width="100%" height="100%" viewBox="0 0 24 24" version="1.1" xmlns="http://www.w3.org/2000/svg" xmlns:xlink="http://www.w3.org/1999/xlink" xml:space="preserve" xmlns:serif="http://www.serif.com/" style="fill-rule:evenodd;clip-rule:evenodd;stroke-linejoin:round;stroke-miterlimit:2;">
    <path d="M1.5,12.759L1.5,12.76L1.5,12.76C1.5,14.732 2.895,16.442 4.848,16.729C4.848,16.729 4.848,16.729 4.848,16.729C5.994,16.898 7.153,17.027 8.324,17.114C8.324,17.114 8.324,17.114 8.324,17.114C8.444,17.123 8.555,17.185 8.622,17.284C8.622,17.284 11.376,21.416 11.376,21.416C11.515,21.625 11.749,21.75 12,21.75C12.251,21.75 12.485,21.625 12.624,21.416L15.378,17.285C15.445,17.186 15.554,17.123 15.673,17.114C15.674,17.114 15.675,17.114 15.676,17.114C16.839,17.027 17.998,16.899 19.152,16.729C19.152,16.729 19.152,16.729 19.152,16.729C21.105,16.442 22.5,14.734 22.5,12.759L22.5,6.741C22.5,4.766 21.105,3.058 19.152,2.771C19.152,2.771 19.152,2.771 19.152,2.771C16.784,2.423 14.393,2.249 12,2.25C9.571,2.25 7.182,2.428 4.848,2.771C4.848,2.771 4.848,2.771 4.848,2.771C2.895,3.058 1.5,4.767 1.5,6.741C1.5,6.741 1.5,12.759 1.5,12.759ZM3,12.769L3,12.759L3,6.741C3,5.513 3.851,4.434 5.066,4.255C7.33,3.922 9.645,3.75 12,3.75C12,3.75 12,3.75 12,3.75C14.321,3.749 16.638,3.918 18.934,4.255C20.149,4.434 21,5.512 21,6.741C21,6.741 21,12.759 21,12.759C21,13.988 20.149,15.066 18.934,15.245C17.815,15.409 16.691,15.534 15.564,15.618C14.987,15.659 14.457,15.966 14.133,16.449L12,19.648L9.868,16.449C9.545,15.967 9.015,15.661 8.436,15.618C7.301,15.533 6.178,15.408 5.066,15.245C3.854,15.067 3.004,13.993 3,12.769L3,12.769ZM1.5,12.76C1.5,12.76 1.5,12.586 1.5,12.759L1.5,12.76ZM7.5,12L12,12C12.414,12 12.75,11.664 12.75,11.25C12.75,10.836 12.414,10.5 12,10.5L7.5,10.5C7.086,10.5 6.75,10.836 6.75,11.25C6.75,11.664 7.086,12 7.5,12ZM7.5,9L16.5,9C16.914,9 17.25,8.664 17.25,8.25C17.25,7.836 16.914,7.5 16.5,7.5L7.5,7.5C7.086,7.5 6.75,7.836 6.75,8.25C6.75,8.664 7.086,9 7.5,9Z"/>
</svg>
