<?xml version="1.0" encoding="UTF-8" standalone="no"?>
<!DOCTYPE svg PUBLIC "-//W3C//DTD SVG 1.1//EN" "http://www.w3.org/Graphics/SVG/1.1/DTD/svg11.dtd">
<svg width="100%" height="100%" viewBox="0 0 24 24" version="1.1" xmlns="http://www.w3.org/2000/svg" xmlns:xlink="http://www.w3.org/1999/xlink" xml:space="preserve" xmlns:serif="http://www.serif.com/" style="fill-rule:evenodd;clip-rule:evenodd;stroke-linejoin:round;stroke-miterlimit:2;">
    <path d="M1.5,12.759L1.5,12.76L1.5,12.76C1.5,14.732 2.895,16.442 4.848,16.729C5.725,16.858 6.609,16.964 7.5,17.045C7.5,17.045 7.5,21 7.5,21C7.5,21.303 7.683,21.577 7.963,21.693C8.243,21.809 8.566,21.745 8.78,21.53L12.855,17.456C12.995,17.316 13.184,17.236 13.382,17.231C13.383,17.231 13.383,17.231 13.384,17.231C15.315,17.177 17.241,17.01 19.152,16.729C19.152,16.729 19.152,16.729 19.152,16.729C21.105,16.442 22.5,14.734 22.5,12.759L22.5,6.741C22.5,4.766 21.105,3.058 19.152,2.771C19.152,2.771 19.152,2.771 19.152,2.771C16.784,2.423 14.393,2.249 12,2.25C9.571,2.25 7.182,2.428 4.848,2.771C4.848,2.771 4.848,2.771 4.848,2.771C2.895,3.058 1.5,4.767 1.5,6.741C1.5,6.741 1.5,12.759 1.5,12.759ZM3,12.769L3,12.759L3,6.741C3,5.513 3.851,4.434 5.066,4.255C7.33,3.922 9.645,3.75 12,3.75C12,3.75 12,3.75 12,3.75C14.321,3.749 16.638,3.918 18.934,4.255C20.149,4.434 21,5.512 21,6.741C21,6.741 21,12.759 21,12.759C21,13.988 20.149,15.066 18.934,15.245C17.081,15.517 15.214,15.679 13.342,15.731C12.763,15.746 12.21,15.982 11.797,16.392L9,19.189C9,19.189 9,16.356 9,16.356C9,15.964 8.699,15.639 8.308,15.608C7.217,15.524 6.136,15.403 5.066,15.245C5.066,15.245 5.066,15.245 5.066,15.245C3.854,15.067 3.004,13.993 3,12.769L3,12.769ZM1.5,12.76C1.5,12.76 1.5,12.586 1.5,12.759L1.5,12.76Z"/>
</svg>
