<?xml version="1.0" encoding="UTF-8" standalone="no"?>
<!DOCTYPE svg PUBLIC "-//W3C//DTD SVG 1.1//EN" "http://www.w3.org/Graphics/SVG/1.1/DTD/svg11.dtd">
<svg width="100%" height="100%" viewBox="0 0 24 24" version="1.1" xmlns="http://www.w3.org/2000/svg" xmlns:xlink="http://www.w3.org/1999/xlink" xml:space="preserve" xmlns:serif="http://www.serif.com/" style="fill-rule:evenodd;clip-rule:evenodd;stroke-linejoin:round;stroke-miterlimit:2;">
    <path d="M11.085,17.725C11.275,17.782 11.471,17.819 11.67,17.835C12.914,17.936 14.17,17.991 15.439,17.999C15.438,17.999 18.22,20.78 18.22,20.78C18.434,20.995 18.757,21.059 19.037,20.943C19.317,20.827 19.5,20.553 19.5,20.25L19.5,17.86L19.831,17.834C21.354,17.709 22.5,16.421 22.5,14.894L22.5,10.608C22.5,9.507 21.903,8.529 21,8.024L21,6.637C21,4.639 19.569,2.916 17.587,2.658C17.587,2.658 17.586,2.658 17.586,2.658C15.485,2.386 13.369,2.25 11.25,2.25C9.102,2.25 6.987,2.389 4.913,2.658C4.913,2.658 4.913,2.658 4.913,2.658C2.931,2.916 1.5,4.639 1.5,6.637C1.5,6.637 1.5,12.863 1.5,12.863C1.5,14.861 2.931,16.584 4.913,16.842C5.274,16.889 5.637,16.932 6,16.971C6,16.971 6,21 6,21C6,21.303 6.183,21.577 6.463,21.693C6.743,21.809 7.066,21.745 7.28,21.53L11.085,17.725ZM19.5,7.642L19.5,6.637C19.5,5.393 18.627,4.306 17.393,4.146C15.356,3.882 13.304,3.75 11.25,3.75C11.25,3.75 11.25,3.75 11.25,3.75C9.168,3.75 7.117,3.885 5.107,4.146C3.873,4.306 3,5.393 3,6.637L3,12.863C3,14.107 3.873,15.194 5.107,15.354C5.107,15.354 5.107,15.354 5.107,15.354C5.675,15.428 6.245,15.492 6.819,15.545C7.205,15.581 7.5,15.905 7.5,16.292C7.5,16.292 7.5,19.189 7.5,19.189L9.781,16.908C9.294,16.378 9,15.666 9,14.894C9,14.894 9,10.608 9,10.608C9,9.082 10.144,7.795 11.664,7.669C11.664,7.669 11.664,7.669 11.664,7.669C14.271,7.452 16.891,7.443 19.5,7.642ZM20.02,9.225C19.92,9.193 19.817,9.172 19.712,9.163C19.712,9.163 19.712,9.163 19.712,9.163C17.075,8.945 14.425,8.945 11.788,9.163C11.046,9.225 10.5,9.864 10.5,10.608L10.5,14.894C10.5,15.444 10.797,15.935 11.253,16.181L11.259,16.184C11.424,16.271 11.604,16.324 11.79,16.339C11.791,16.339 11.791,16.339 11.791,16.339C13.097,16.446 14.417,16.5 15.75,16.5C15.949,16.5 16.14,16.579 16.28,16.72C16.28,16.72 18,18.439 18,18.439L18,17.159C18,16.762 18.31,16.434 18.706,16.41C19.04,16.391 19.375,16.366 19.709,16.339C20.452,16.278 21,15.639 21,14.894C21,14.894 21,10.608 21,10.608C21,9.972 20.602,9.413 20.022,9.226L20.02,9.225Z"/>
</svg>
