<?xml version="1.0" encoding="UTF-8" standalone="no"?>
<!DOCTYPE svg PUBLIC "-//W3C//DTD SVG 1.1//EN" "http://www.w3.org/Graphics/SVG/1.1/DTD/svg11.dtd">
<svg width="100%" height="100%" viewBox="0 0 24 24" version="1.1" xmlns="http://www.w3.org/2000/svg" xmlns:xlink="http://www.w3.org/1999/xlink" xml:space="preserve" xmlns:serif="http://www.serif.com/" style="fill-rule:evenodd;clip-rule:evenodd;stroke-linejoin:round;stroke-miterlimit:2;">
    <path d="M21.75,12C21.75,6.651 17.349,2.25 12,2.25C6.651,2.25 2.25,6.651 2.25,12C2.25,17.349 6.651,21.75 12,21.75C17.349,21.75 21.75,17.349 21.75,12ZM20.25,12C20.25,16.526 16.526,20.25 12,20.25C7.474,20.25 3.75,16.526 3.75,12C3.75,7.474 7.474,3.75 12,3.75C16.526,3.75 20.25,7.474 20.25,12ZM8.47,13.28L10.72,15.53C10.876,15.686 11.092,15.766 11.312,15.747C11.532,15.729 11.732,15.615 11.86,15.436L15.61,10.186C15.851,9.849 15.773,9.38 15.436,9.14C15.099,8.899 14.63,8.977 14.39,9.314L11.154,13.844C11.154,13.844 9.53,12.22 9.53,12.22C9.238,11.927 8.762,11.927 8.47,12.22C8.177,12.512 8.177,12.988 8.47,13.28Z"/>
</svg>
