<?xml version="1.0" encoding="UTF-8" standalone="no"?>
<!DOCTYPE svg PUBLIC "-//W3C//DTD SVG 1.1//EN" "http://www.w3.org/Graphics/SVG/1.1/DTD/svg11.dtd">
<svg width="100%" height="100%" viewBox="0 0 24 24" version="1.1" xmlns="http://www.w3.org/2000/svg" xmlns:xlink="http://www.w3.org/1999/xlink" xml:space="preserve" xmlns:serif="http://www.serif.com/" style="fill-rule:evenodd;clip-rule:evenodd;stroke-linejoin:round;stroke-miterlimit:2;">
    <path d="M13.28,18.97L6.311,12C6.311,12 13.28,5.03 13.28,5.03C13.573,4.738 13.573,4.262 13.28,3.97C12.988,3.677 12.512,3.677 12.22,3.97L4.72,11.47C4.427,11.763 4.427,12.237 4.72,12.53L12.22,20.03C12.512,20.323 12.988,20.323 13.28,20.03C13.573,19.738 13.573,19.262 13.28,18.97ZM19.28,18.97L12.311,12C12.311,12 19.28,5.03 19.28,5.03C19.573,4.738 19.573,4.262 19.28,3.97C18.988,3.677 18.512,3.677 18.22,3.97L10.72,11.47C10.427,11.763 10.427,12.237 10.72,12.53L18.22,20.03C18.512,20.323 18.988,20.323 19.28,20.03C19.573,19.738 19.573,19.262 19.28,18.97Z"/>
</svg>
