<?xml version="1.0" encoding="UTF-8" standalone="no"?>
<!DOCTYPE svg PUBLIC "-//W3C//DTD SVG 1.1//EN" "http://www.w3.org/Graphics/SVG/1.1/DTD/svg11.dtd">
<svg width="100%" height="100%" viewBox="0 0 24 24" version="1.1" xmlns="http://www.w3.org/2000/svg" xmlns:xlink="http://www.w3.org/1999/xlink" xml:space="preserve" xmlns:serif="http://www.serif.com/" style="fill-rule:evenodd;clip-rule:evenodd;stroke-linejoin:round;stroke-miterlimit:2;">
    <path d="M10.72,5.03L17.689,12C17.689,12 10.72,18.97 10.72,18.97C10.427,19.262 10.427,19.738 10.72,20.03C11.012,20.323 11.488,20.323 11.78,20.03L19.28,12.53C19.573,12.237 19.573,11.763 19.28,11.47L11.78,3.97C11.488,3.677 11.012,3.677 10.72,3.97C10.427,4.262 10.427,4.738 10.72,5.03ZM4.72,5.03L11.689,12C11.689,12 4.72,18.97 4.72,18.97C4.427,19.262 4.427,19.738 4.72,20.03C5.012,20.323 5.488,20.323 5.78,20.03L13.28,12.53C13.573,12.237 13.573,11.763 13.28,11.47L5.78,3.97C5.488,3.677 5.012,3.677 4.72,3.97C4.427,4.262 4.427,4.738 4.72,5.03Z"/>
</svg>
