<?xml version="1.0" encoding="UTF-8" standalone="no"?>
<!DOCTYPE svg PUBLIC "-//W3C//DTD SVG 1.1//EN" "http://www.w3.org/Graphics/SVG/1.1/DTD/svg11.dtd">
<svg width="100%" height="100%" viewBox="0 0 24 24" version="1.1" xmlns="http://www.w3.org/2000/svg" xmlns:xlink="http://www.w3.org/1999/xlink" xml:space="preserve" xmlns:serif="http://www.serif.com/" style="fill-rule:evenodd;clip-rule:evenodd;stroke-linejoin:round;stroke-miterlimit:2;">
    <path d="M5.03,19.28L12,12.311C12,12.311 18.97,19.28 18.97,19.28C19.262,19.573 19.738,19.573 20.03,19.28C20.323,18.988 20.323,18.512 20.03,18.22L12.53,10.72C12.237,10.427 11.763,10.427 11.47,10.72L3.97,18.22C3.677,18.512 3.677,18.988 3.97,19.28C4.262,19.573 4.738,19.573 5.03,19.28ZM5.03,13.28L12,6.311C12,6.311 18.97,13.28 18.97,13.28C19.262,13.573 19.738,13.573 20.03,13.28C20.323,12.988 20.323,12.512 20.03,12.22L12.53,4.72C12.237,4.427 11.763,4.427 11.47,4.72L3.97,12.22C3.677,12.512 3.677,12.988 3.97,13.28C4.262,13.573 4.738,13.573 5.03,13.28Z"/>
</svg>
