<?xml version="1.0" encoding="UTF-8" standalone="no"?>
<!DOCTYPE svg PUBLIC "-//W3C//DTD SVG 1.1//EN" "http://www.w3.org/Graphics/SVG/1.1/DTD/svg11.dtd">
<svg width="100%" height="100%" viewBox="0 0 24 24" version="1.1" xmlns="http://www.w3.org/2000/svg" xmlns:xlink="http://www.w3.org/1999/xlink" xml:space="preserve" xmlns:serif="http://www.serif.com/" style="fill-rule:evenodd;clip-rule:evenodd;stroke-linejoin:round;stroke-miterlimit:2;">
    <path d="M18.97,10.72L12,17.689C12,17.689 5.03,10.72 5.03,10.72C4.738,10.427 4.262,10.427 3.97,10.72C3.677,11.012 3.677,11.488 3.97,11.78L11.47,19.28C11.763,19.573 12.237,19.573 12.53,19.28L20.03,11.78C20.323,11.488 20.323,11.012 20.03,10.72C19.738,10.427 19.262,10.427 18.97,10.72ZM18.97,4.72L12,11.689C12,11.689 5.03,4.72 5.03,4.72C4.738,4.427 4.262,4.427 3.97,4.72C3.677,5.012 3.677,5.488 3.97,5.78L11.47,13.28C11.763,13.573 12.237,13.573 12.53,13.28L20.03,5.78C20.323,5.488 20.323,5.012 20.03,4.72C19.738,4.427 19.262,4.427 18.97,4.72Z"/>
</svg>
