<?xml version="1.0" encoding="UTF-8" standalone="no"?>
<!DOCTYPE svg PUBLIC "-//W3C//DTD SVG 1.1//EN" "http://www.w3.org/Graphics/SVG/1.1/DTD/svg11.dtd">
<svg width="100%" height="100%" viewBox="0 0 24 24" version="1.1" xmlns="http://www.w3.org/2000/svg" xmlns:xlink="http://www.w3.org/1999/xlink" xml:space="preserve" xmlns:serif="http://www.serif.com/" style="fill-rule:evenodd;clip-rule:evenodd;stroke-linejoin:round;stroke-miterlimit:2;">
    <path d="M7.72,15.53L11.47,19.28C11.763,19.573 12.237,19.573 12.53,19.28L16.28,15.53C16.573,15.238 16.573,14.762 16.28,14.47C15.988,14.177 15.512,14.177 15.22,14.47L12,17.689C12,17.689 8.78,14.47 8.78,14.47C8.488,14.177 8.012,14.177 7.72,14.47C7.427,14.762 7.427,15.238 7.72,15.53ZM8.78,9.53L12,6.311C12,6.311 15.22,9.53 15.22,9.53C15.512,9.823 15.988,9.823 16.28,9.53C16.573,9.238 16.573,8.762 16.28,8.47L12.53,4.72C12.237,4.427 11.763,4.427 11.47,4.72L7.72,8.47C7.427,8.762 7.427,9.238 7.72,9.53C8.012,9.823 8.488,9.823 8.78,9.53Z"/>
</svg>
