<?xml version="1.0" encoding="UTF-8" standalone="no"?>
<!DOCTYPE svg PUBLIC "-//W3C//DTD SVG 1.1//EN" "http://www.w3.org/Graphics/SVG/1.1/DTD/svg11.dtd">
<svg width="100%" height="100%" viewBox="0 0 24 24" version="1.1" xmlns="http://www.w3.org/2000/svg" xmlns:xlink="http://www.w3.org/1999/xlink" xml:space="preserve" xmlns:serif="http://www.serif.com/" style="fill-rule:evenodd;clip-rule:evenodd;stroke-linejoin:round;stroke-miterlimit:2;">
    <path d="M3.002,6.269L3,6.375L3,17.625C3,18.755 3.678,19.834 4.919,20.681C6.517,21.771 9.091,22.5 12,22.5C14.909,22.5 17.483,21.771 19.081,20.681C20.322,19.834 21,18.755 21,17.625C21,17.625 21,6.375 21,6.375C21,5.245 20.322,4.166 19.081,3.319C17.483,2.229 14.909,1.5 12,1.5C9.091,1.5 6.517,2.229 4.919,3.319C3.717,4.139 3.043,5.178 3.002,6.269ZM19.5,16.618C19.368,16.726 19.229,16.83 19.081,16.931C17.483,18.021 14.909,18.75 12,18.75C9.091,18.75 6.517,18.021 4.919,16.931C4.771,16.83 4.632,16.726 4.5,16.618L4.5,17.625C4.5,18.318 5.003,18.922 5.764,19.442C7.169,20.4 9.442,21 12,21C14.558,21 16.831,20.4 18.236,19.442C18.997,18.922 19.5,18.318 19.5,17.625L19.5,16.618ZM19.5,12.868C19.368,12.976 19.229,13.08 19.081,13.181C17.483,14.271 14.909,15 12,15C9.091,15 6.517,14.271 4.919,13.181C4.771,13.08 4.632,12.976 4.5,12.868L4.5,13.875C4.5,14.568 5.003,15.172 5.764,15.692C7.169,16.65 9.442,17.25 12,17.25C14.558,17.25 16.831,16.65 18.236,15.692C18.997,15.172 19.5,14.568 19.5,13.875L19.5,12.868ZM19.5,9.118C19.368,9.226 19.229,9.33 19.081,9.431C17.483,10.521 14.909,11.25 12,11.25C9.091,11.25 6.517,10.521 4.919,9.431C4.771,9.33 4.632,9.226 4.5,9.118L4.5,10.125C4.5,10.818 5.003,11.422 5.764,11.942C7.169,12.9 9.442,13.5 12,13.5C14.558,13.5 16.831,12.9 18.236,11.942C18.997,11.422 19.5,10.818 19.5,10.125L19.5,9.118ZM19.5,6.375C19.5,5.682 18.997,5.078 18.236,4.558C16.831,3.6 14.558,3 12,3C9.442,3 7.169,3.6 5.764,4.558C5.003,5.078 4.5,5.682 4.5,6.375C4.5,7.068 5.003,7.672 5.764,8.192C7.169,9.15 9.442,9.75 12,9.75C14.558,9.75 16.831,9.15 18.236,8.192C18.997,7.672 19.5,7.068 19.5,6.375Z"/>
</svg>
