<?xml version="1.0" encoding="UTF-8" standalone="no"?>
<!DOCTYPE svg PUBLIC "-//W3C//DTD SVG 1.1//EN" "http://www.w3.org/Graphics/SVG/1.1/DTD/svg11.dtd">
<svg width="100%" height="100%" viewBox="0 0 24 24" version="1.1" xmlns="http://www.w3.org/2000/svg" xmlns:xlink="http://www.w3.org/1999/xlink" xml:space="preserve" xmlns:serif="http://www.serif.com/" style="fill-rule:evenodd;clip-rule:evenodd;stroke-linejoin:round;stroke-miterlimit:2;">
    <path d="M7.806,3.178C7.31,3.22 6.815,3.27 6.321,3.327C6.321,3.327 6.321,3.327 6.32,3.327C4.841,3.499 3.75,4.768 3.75,6.257C3.75,6.257 3.75,19.5 3.75,19.5C3.75,21.146 5.104,22.5 6.75,22.5L17.25,22.5C18.896,22.5 20.25,21.146 20.25,19.5L20.25,6.257C20.25,4.768 19.158,3.499 17.68,3.327C17.68,3.327 17.679,3.327 17.679,3.327C17.186,3.27 16.691,3.22 16.194,3.178C15.696,2.167 14.655,1.5 13.5,1.5C13.5,1.5 10.5,1.5 10.5,1.5C9.318,1.5 8.295,2.184 7.806,3.178ZM7.515,4.71C7.174,4.742 6.834,4.778 6.494,4.817C5.771,4.901 5.25,5.53 5.25,6.257L5.25,19.5C5.25,20.323 5.927,21 6.75,21C6.75,21 17.25,21 17.25,21C18.073,21 18.75,20.323 18.75,19.5C18.75,19.5 18.75,6.257 18.75,6.257C18.75,5.53 18.228,4.901 17.506,4.817C17.167,4.778 16.826,4.742 16.485,4.71C16.382,5.435 15.752,6 15,6L9,6C8.248,6 7.618,5.435 7.515,4.71ZM14.943,4.089C14.76,3.446 14.169,3 13.5,3L10.5,3C9.814,3 9.235,3.46 9.057,4.089L9.055,4.094C9.02,4.223 9,4.359 9,4.5L15,4.5L14.999,4.447C14.995,4.326 14.977,4.207 14.945,4.095L14.943,4.089Z"/>
</svg>
