<?xml version="1.0" encoding="UTF-8" standalone="no"?>
<!DOCTYPE svg PUBLIC "-//W3C//DTD SVG 1.1//EN" "http://www.w3.org/Graphics/SVG/1.1/DTD/svg11.dtd">
<svg width="100%" height="100%" viewBox="0 0 24 24" version="1.1" xmlns="http://www.w3.org/2000/svg" xmlns:xlink="http://www.w3.org/1999/xlink" xml:space="preserve" xmlns:serif="http://www.serif.com/" style="fill-rule:evenodd;clip-rule:evenodd;stroke-linejoin:round;stroke-miterlimit:2;">
    <path d="M10.836,3.121L10.164,3.169C8.644,3.295 7.5,4.582 7.5,6.108L7.5,7.5L4.875,7.5C3.84,7.5 3,8.34 3,9.375L3,20.625C3,21.66 3.84,22.5 4.875,22.5L14.625,22.5C15.66,22.5 16.5,21.66 16.5,20.625L16.5,19.5L18,19.5C19.646,19.5 21,18.146 21,16.5C21,16.5 21,6.108 21,6.108C21,4.582 19.856,3.295 18.336,3.169L17.664,3.121C17.165,2.158 16.16,1.5 15,1.5L13.5,1.5C12.368,1.5 11.345,2.14 10.836,3.121ZM15,9.375C15,9.168 14.832,9 14.625,9L4.875,9C4.668,9 4.5,9.168 4.5,9.375C4.5,9.375 4.5,20.625 4.5,20.625C4.5,20.832 4.668,21 4.875,21C4.875,21 14.625,21 14.625,21C14.832,21 15,20.832 15,20.625L15,9.375ZM17.993,4.646C17.918,5.402 17.274,6 16.5,6L12,6C11.221,6 10.581,5.406 10.507,4.646L10.288,4.663C9.546,4.725 9,5.364 9,6.108L9,7.5L14.625,7.5C15.66,7.5 16.5,8.34 16.5,9.375L16.5,18L18,18C18.823,18 19.5,17.323 19.5,16.5L19.5,6.108C19.5,5.364 18.954,4.725 18.212,4.663L17.993,4.646ZM6.97,16.28L8.47,17.78C8.621,17.931 8.828,18.011 9.041,17.999C9.254,17.987 9.452,17.885 9.586,17.719L12.586,13.969C12.844,13.645 12.792,13.173 12.469,12.914C12.145,12.656 11.673,12.708 11.414,13.031L8.938,16.127C8.938,16.127 8.03,15.22 8.03,15.22C7.738,14.927 7.262,14.927 6.97,15.22C6.677,15.512 6.677,15.988 6.97,16.28ZM16.433,4.057L16.433,4.057C16.245,3.445 15.675,3 15,3C15,3 13.5,3 13.5,3C12.844,3 12.26,3.431 12.067,4.058L12.066,4.058C12.023,4.198 12,4.346 12,4.5L16.5,4.5L16.5,4.5C16.5,4.35 16.478,4.2 16.433,4.057Z"/>
</svg>
