<?xml version="1.0" encoding="UTF-8" standalone="no"?>
<!DOCTYPE svg PUBLIC "-//W3C//DTD SVG 1.1//EN" "http://www.w3.org/Graphics/SVG/1.1/DTD/svg11.dtd">
<svg width="100%" height="100%" viewBox="0 0 24 24" version="1.1" xmlns="http://www.w3.org/2000/svg" xmlns:xlink="http://www.w3.org/1999/xlink" xml:space="preserve" xmlns:serif="http://www.serif.com/" style="fill-rule:evenodd;clip-rule:evenodd;stroke-linejoin:round;stroke-miterlimit:2;">
    <path d="M10.836,3.121L10.164,3.169C8.644,3.295 7.5,4.582 7.5,6.108L7.5,7.5L4.875,7.5C3.84,7.5 3,8.34 3,9.375L3,20.625C3,21.66 3.84,22.5 4.875,22.5L14.625,22.5C15.66,22.5 16.5,21.66 16.5,20.625L16.5,19.5L18,19.5C19.646,19.5 21,18.146 21,16.5C21,16.5 21,6.108 21,6.108C21,4.582 19.856,3.295 18.336,3.169L17.664,3.121C17.165,2.158 16.16,1.5 15,1.5L13.5,1.5C12.368,1.5 11.345,2.14 10.836,3.121ZM4.875,9L14.625,9C14.832,9 15,9.168 15,9.375C15,9.375 15,20.625 15,20.625C15,20.832 14.832,21 14.625,21C14.625,21 4.875,21 4.875,21C4.668,21 4.5,20.832 4.5,20.625C4.5,20.625 4.5,9.375 4.5,9.375C4.5,9.168 4.668,9 4.875,9ZM6.743,18.749L6.75,18.758L6.758,18.758L6.79,18.733C6.934,18.619 7.508,18.156 7.508,18C7.508,17.866 7.479,17.814 7.432,17.816C7.27,17.802 6.865,18.535 6.77,18.712C6.835,18.468 7.116,17.332 6.785,17.262C6.775,17.254 6.763,17.25 6.75,17.25C5.982,17.25 6.438,18.203 6.655,18.59C6.686,18.648 6.713,18.694 6.73,18.723L6.746,18.743L6.749,18.749L6.744,18.748L6.73,18.723C6.605,18.569 6.104,17.96 6.02,17.978C6.007,17.976 6,17.983 6,18C6,18.642 6.665,18.74 6.743,18.749ZM9,18.75L12.75,18.75C13.164,18.75 13.5,18.414 13.5,18C13.5,17.586 13.164,17.25 12.75,17.25L9,17.25C8.586,17.25 8.25,17.586 8.25,18C8.25,18.414 8.586,18.75 9,18.75ZM6.743,18.749L6.745,18.749L6.744,18.748L6.742,18.748L6.743,18.749ZM17.993,4.646C17.919,5.401 17.274,6 16.5,6L12,6C11.221,6 10.581,5.406 10.507,4.646L10.288,4.663C9.546,4.725 9,5.364 9,6.108L9,7.5L14.625,7.5C15.66,7.5 16.5,8.34 16.5,9.375L16.5,18L18,18C18.823,18 19.5,17.323 19.5,16.5L19.5,6.108C19.5,5.364 18.954,4.725 18.212,4.663L17.993,4.646ZM6.743,15.749L6.75,15.758L6.758,15.758L6.79,15.733C6.934,15.619 7.508,15.156 7.508,15C7.508,14.866 7.479,14.814 7.432,14.816C7.314,14.806 7.068,15.192 6.906,15.471C7.098,15.062 7.352,14.352 6.862,14.267C6.831,14.256 6.794,14.25 6.753,14.25C5.986,14.25 6.654,15.567 6.741,15.733L6.744,15.741L6.747,15.745L6.749,15.749L6.747,15.749L6.744,15.741C6.65,15.624 6.108,14.959 6.02,14.978C6.007,14.976 6,14.983 6,15C6,15.642 6.665,15.74 6.743,15.749ZM9,15.75L12.75,15.75C13.164,15.75 13.5,15.414 13.5,15C13.5,14.586 13.164,14.25 12.75,14.25L9,14.25C8.586,14.25 8.25,14.586 8.25,15C8.25,15.414 8.586,15.75 9,15.75ZM6.743,15.749L6.747,15.75L6.747,15.749L6.742,15.748L6.743,15.749ZM6.743,12.749L6.75,12.758L6.758,12.758L6.79,12.733C6.934,12.619 7.508,12.156 7.508,12C7.508,11.866 7.479,11.814 7.432,11.816C7.314,11.806 7.068,12.192 6.906,12.471C7.017,12.234 7.15,11.895 7.145,11.635C7.144,11.415 7.046,11.25 6.756,11.25C6.563,11.25 6.502,11.427 6.505,11.659C6.507,12.061 6.706,12.635 6.744,12.741L6.749,12.747L6.75,12.749L6.747,12.749L6.744,12.741C6.65,12.624 6.108,11.959 6.02,11.978C6.007,11.976 6,11.983 6,12C6,12.642 6.665,12.74 6.743,12.749ZM9,12.75L12.75,12.75C13.164,12.75 13.5,12.414 13.5,12C13.5,11.586 13.164,11.25 12.75,11.25L9,11.25C8.586,11.25 8.25,11.586 8.25,12C8.25,12.414 8.586,12.75 9,12.75ZM6.743,12.749L6.747,12.75L6.747,12.749L6.742,12.748L6.743,12.749ZM16.433,4.057L16.433,4.057C16.245,3.445 15.675,3 15,3C15,3 13.5,3 13.5,3C12.844,3 12.26,3.431 12.067,4.058L12.066,4.058C12.023,4.198 12,4.346 12,4.5L16.5,4.5L16.5,4.5C16.5,4.35 16.478,4.2 16.433,4.057Z"/>
    <g transform="matrix(1.06878,0,0,1.06878,-0.482498,-0.852051)">
        <circle cx="6.765" cy="12.047" r="0.727"/>
    </g>
    <g transform="matrix(1.06878,0,0,1.06878,-0.482498,2.12628)">
        <circle cx="6.765" cy="12.047" r="0.727"/>
    </g>
    <g transform="matrix(1.06878,0,0,1.06878,-0.482498,5.07506)">
        <circle cx="6.765" cy="12.047" r="0.727"/>
    </g>
</svg>
