<?xml version="1.0" encoding="UTF-8" standalone="no"?>
<!DOCTYPE svg PUBLIC "-//W3C//DTD SVG 1.1//EN" "http://www.w3.org/Graphics/SVG/1.1/DTD/svg11.dtd">
<svg width="100%" height="100%" viewBox="0 0 24 24" version="1.1" xmlns="http://www.w3.org/2000/svg" xmlns:xlink="http://www.w3.org/1999/xlink" xml:space="preserve" xmlns:serif="http://www.serif.com/" style="fill-rule:evenodd;clip-rule:evenodd;stroke-linejoin:round;stroke-miterlimit:2;">
    <path d="M10.836,3.121L10.164,3.169C8.644,3.295 7.5,4.582 7.5,6.108L7.5,6.779C7.253,6.76 7.002,6.75 6.75,6.75L4.875,6.75C3.84,6.75 3,7.59 3,8.625L3,20.625C3,21.66 3.84,22.5 4.875,22.5L14.625,22.5C15.66,22.5 16.5,21.66 16.5,20.625L16.5,18.75L18,18.75C19.646,18.75 21,17.396 21,15.75C21,15.75 21,6.108 21,6.108C21,4.582 19.856,3.295 18.336,3.169L17.664,3.121C17.155,2.14 16.132,1.5 15,1.5L13.5,1.5C12.368,1.5 11.345,2.14 10.836,3.121ZM4.875,8.25C4.668,8.25 4.5,8.418 4.5,8.625C4.5,8.625 4.5,20.625 4.5,20.625C4.5,20.832 4.668,21 4.875,21C4.875,21 14.625,21 14.625,21C14.832,21 15,20.832 15,20.625L15,16.875C15,15.435 13.815,14.25 12.375,14.25L10.875,14.25C9.846,14.25 9,13.404 9,12.375C9,12.375 9,10.875 9,10.875C9,9.435 7.815,8.25 6.375,8.25L4.875,8.25ZM18,4.646L18,5.25C18,5.664 17.664,6 17.25,6L11.25,6C10.836,6 10.5,5.664 10.5,5.25L10.5,4.647L10.288,4.663C9.546,4.725 9,5.364 9,6.108L9,7.016C13.28,8.043 16.5,11.925 16.5,16.5L16.5,17.25L18,17.25C18.823,17.25 19.5,16.573 19.5,15.75L19.5,6.108C19.5,5.364 18.954,4.725 18.212,4.663L18,4.646ZM10.005,8.927C10.321,9.509 10.5,10.173 10.5,10.875L10.5,12.375C10.5,12.581 10.669,12.75 10.875,12.75C10.875,12.75 12.375,12.75 12.375,12.75C13.077,12.75 13.741,12.929 14.323,13.245C13.485,11.319 11.931,9.765 10.005,8.927ZM16.434,4.058L16.433,4.058C16.24,3.431 15.656,3 15,3C15,3 13.5,3 13.5,3C12.844,3 12.26,3.431 12.067,4.058L12.066,4.058C12.023,4.198 12,4.346 12,4.5L16.5,4.5C16.5,4.346 16.477,4.198 16.434,4.058Z"/>
</svg>
