<?xml version="1.0" encoding="UTF-8" standalone="no"?>
<!DOCTYPE svg PUBLIC "-//W3C//DTD SVG 1.1//EN" "http://www.w3.org/Graphics/SVG/1.1/DTD/svg11.dtd">
<svg width="100%" height="100%" viewBox="0 0 24 24" version="1.1" xmlns="http://www.w3.org/2000/svg" xmlns:xlink="http://www.w3.org/1999/xlink" xml:space="preserve" xmlns:serif="http://www.serif.com/" style="fill-rule:evenodd;clip-rule:evenodd;stroke-linejoin:round;stroke-miterlimit:2;">
    <path d="M6.75,20.25L18.002,20.25C20.468,20.245 22.494,18.214 22.494,15.748C22.494,14.112 21.602,12.617 20.205,11.828C20.236,11.637 20.251,11.443 20.251,11.248C20.251,9.191 18.558,7.498 16.501,7.498C16.359,7.498 16.217,7.506 16.076,7.522C15.183,5.257 12.973,3.719 10.493,3.719C7.201,3.719 4.493,6.428 4.493,9.719C4.493,9.896 4.501,10.072 4.516,10.247C2.694,11.102 1.495,12.952 1.495,15C1.495,17.88 3.865,20.25 6.745,20.25L6.75,20.25ZM6.75,18.75L6.745,18.75C4.688,18.75 2.995,17.057 2.995,15C2.995,13.384 4.039,11.942 5.574,11.438C5.933,11.319 6.149,10.952 6.076,10.581C6.021,10.297 5.993,10.009 5.993,9.719C5.993,7.251 8.024,5.219 10.493,5.219C12.534,5.219 14.332,6.609 14.847,8.584C14.899,8.784 15.032,8.954 15.213,9.053C15.394,9.152 15.608,9.172 15.805,9.108C16.03,9.035 16.265,8.998 16.501,8.998C17.735,8.998 18.751,10.014 18.751,11.248C18.751,11.502 18.708,11.754 18.623,11.994C18.489,12.378 18.684,12.799 19.063,12.944C20.224,13.387 20.994,14.506 20.994,15.748C20.994,17.392 19.643,18.746 17.999,18.75C17.999,18.75 6.75,18.75 6.75,18.75ZM11.25,14.689L9.53,12.97C9.238,12.677 8.762,12.677 8.47,12.97C8.177,13.262 8.177,13.738 8.47,14.03L11.47,17.03L11.498,17.057L11.527,17.082L11.557,17.105C11.574,17.118 11.592,17.129 11.61,17.14L11.619,17.146L11.651,17.164L11.684,17.18L11.698,17.186L11.708,17.191L11.718,17.195L11.728,17.199L11.742,17.204L11.752,17.208L11.76,17.21L11.777,17.216L11.813,17.226L11.823,17.229C11.88,17.243 11.939,17.25 12,17.25C12.061,17.25 12.12,17.243 12.177,17.229L12.187,17.226L12.223,17.216L12.258,17.204L12.272,17.199L12.282,17.195L12.292,17.191L12.302,17.186L12.316,17.18L12.325,17.176L12.334,17.172L12.349,17.164L12.381,17.146L12.413,17.126L12.443,17.105L12.473,17.082L12.502,17.057L12.53,17.03C12.53,17.03 15.53,14.03 15.53,14.03C15.823,13.738 15.823,13.262 15.53,12.97C15.238,12.677 14.762,12.677 14.47,12.97L12.75,14.689L12.75,9.75C12.75,9.336 12.414,9 12,9C11.586,9 11.25,9.336 11.25,9.75L11.25,14.689Z"/>
</svg>
