<?xml version="1.0" encoding="UTF-8" standalone="no"?>
<!DOCTYPE svg PUBLIC "-//W3C//DTD SVG 1.1//EN" "http://www.w3.org/Graphics/SVG/1.1/DTD/svg11.dtd">
<svg width="100%" height="100%" viewBox="0 0 24 24" version="1.1" xmlns="http://www.w3.org/2000/svg" xmlns:xlink="http://www.w3.org/1999/xlink" xml:space="preserve" xmlns:serif="http://www.serif.com/" style="fill-rule:evenodd;clip-rule:evenodd;stroke-linejoin:round;stroke-miterlimit:2;">
    <path d="M6.75,20.25L18.002,20.25C20.468,20.245 22.494,18.214 22.494,15.748C22.494,14.112 21.602,12.617 20.205,11.828C20.236,11.637 20.251,11.443 20.251,11.248C20.251,9.191 18.558,7.498 16.501,7.498C16.359,7.498 16.217,7.506 16.076,7.522C15.183,5.257 12.973,3.719 10.493,3.719C7.201,3.719 4.493,6.428 4.493,9.719C4.493,9.896 4.501,10.072 4.516,10.247C2.694,11.102 1.495,12.952 1.495,15C1.495,17.88 3.865,20.25 6.745,20.25L6.75,20.25ZM6.75,18.75L6.745,18.75C4.688,18.75 2.995,17.057 2.995,15C2.995,13.384 4.039,11.942 5.574,11.438C5.933,11.319 6.149,10.952 6.076,10.581C6.021,10.297 5.993,10.009 5.993,9.719C5.993,7.251 8.024,5.219 10.493,5.219C12.534,5.219 14.332,6.609 14.847,8.584C14.899,8.784 15.032,8.954 15.213,9.053C15.394,9.152 15.608,9.172 15.805,9.108C16.03,9.035 16.265,8.998 16.501,8.998C17.735,8.998 18.751,10.014 18.751,11.248C18.751,11.502 18.708,11.754 18.623,11.994C18.489,12.378 18.684,12.799 19.063,12.944C20.224,13.387 20.994,14.506 20.994,15.748C20.994,17.392 19.643,18.746 17.999,18.75C17.999,18.75 6.75,18.75 6.75,18.75ZM11.823,9.021L11.813,9.024L11.777,9.034L11.742,9.046L11.728,9.051L11.718,9.055L11.708,9.059L11.698,9.064L11.684,9.07L11.675,9.074L11.668,9.078L11.651,9.086L11.619,9.104L11.587,9.124L11.557,9.145L11.527,9.168L11.498,9.193L11.47,9.22L8.47,12.22C8.177,12.512 8.177,12.988 8.47,13.28C8.762,13.573 9.238,13.573 9.53,13.28L11.25,11.561L11.25,16.5C11.25,16.914 11.586,17.25 12,17.25C12.414,17.25 12.75,16.914 12.75,16.5L12.75,11.561L14.47,13.28C14.762,13.573 15.238,13.573 15.53,13.28C15.823,12.988 15.823,12.512 15.53,12.22L12.53,9.22L12.502,9.193L12.473,9.168L12.443,9.145L12.413,9.124L12.381,9.104L12.349,9.086L12.316,9.07L12.302,9.064L12.292,9.059L12.282,9.055L12.272,9.051L12.258,9.046L12.248,9.042C12.248,9.042 12.24,9.04 12.24,9.04L12.223,9.034L12.187,9.024L12.177,9.021C12.12,9.007 12.061,9 12,9C11.939,9 11.88,9.007 11.823,9.021Z"/>
</svg>
