<?xml version="1.0" encoding="UTF-8" standalone="no"?>
<!DOCTYPE svg PUBLIC "-//W3C//DTD SVG 1.1//EN" "http://www.w3.org/Graphics/SVG/1.1/DTD/svg11.dtd">
<svg width="100%" height="100%" viewBox="0 0 24 24" version="1.1" xmlns="http://www.w3.org/2000/svg" xmlns:xlink="http://www.w3.org/1999/xlink" xml:space="preserve" xmlns:serif="http://www.serif.com/" style="fill-rule:evenodd;clip-rule:evenodd;stroke-linejoin:round;stroke-miterlimit:2;">
    <path d="M1.5,15C1.5,15 1.5,15 1.5,15C1.5,17.88 3.87,20.25 6.75,20.25L18.004,20.25C20.473,20.25 22.504,18.219 22.504,15.75C22.504,14.11 21.608,12.614 20.207,11.826C20.237,11.635 20.252,11.442 20.252,11.248C20.252,9.191 18.559,7.498 16.502,7.498C16.36,7.498 16.218,7.506 16.077,7.522C15.184,5.257 12.974,3.719 10.494,3.719C7.202,3.719 4.494,6.428 4.494,9.719C4.494,9.896 4.502,10.072 4.517,10.248C2.697,11.104 1.5,12.953 1.5,15ZM3,15C3,13.385 4.043,11.943 5.576,11.437C5.935,11.319 6.149,10.952 6.077,10.581C6.022,10.297 5.994,10.009 5.994,9.719C5.994,7.251 8.025,5.219 10.494,5.219C12.535,5.219 14.333,6.609 14.848,8.584C14.9,8.784 15.033,8.954 15.214,9.053C15.395,9.152 15.609,9.172 15.806,9.108C16.031,9.035 16.266,8.998 16.502,8.998C17.736,8.998 18.752,10.014 18.752,11.248C18.752,11.502 18.709,11.754 18.624,11.994C18.489,12.378 18.686,12.8 19.066,12.944C20.23,13.385 21.004,14.506 21.004,15.75C21.004,17.396 19.65,18.75 18.004,18.75L6.75,18.75C4.693,18.75 3,17.057 3,15L3,15Z"/>
</svg>
