<?xml version="1.0" encoding="UTF-8" standalone="no"?>
<!DOCTYPE svg PUBLIC "-//W3C//DTD SVG 1.1//EN" "http://www.w3.org/Graphics/SVG/1.1/DTD/svg11.dtd">
<svg width="100%" height="100%" viewBox="0 0 24 24" version="1.1" xmlns="http://www.w3.org/2000/svg" xmlns:xlink="http://www.w3.org/1999/xlink" xml:space="preserve" xmlns:serif="http://www.serif.com/" style="fill-rule:evenodd;clip-rule:evenodd;stroke-linejoin:round;stroke-miterlimit:2;">
    <path d="M6,21L18,21C19.646,21 21,19.646 21,18C21,18 21,6 21,6C21,4.354 19.646,3 18,3L6,3C4.354,3 3,4.354 3,6L3,18C3,19.646 4.354,21 6,21ZM6,19.5C5.177,19.5 4.5,18.823 4.5,18C4.5,18 4.5,6 4.5,6C4.5,5.177 5.177,4.5 6,4.5C6,4.5 18,4.5 18,4.5C18.823,4.5 19.5,5.177 19.5,6L19.5,18C19.5,18.823 18.823,19.5 18,19.5L6,19.5ZM13.72,10.28L15.439,12C15.439,12 13.72,13.72 13.72,13.72C13.427,14.012 13.427,14.488 13.72,14.78C14.012,15.073 14.488,15.073 14.78,14.78L17.03,12.53C17.323,12.237 17.323,11.763 17.03,11.47L14.78,9.22C14.488,8.927 14.012,8.927 13.72,9.22C13.427,9.512 13.427,9.988 13.72,10.28ZM10.28,13.72L8.561,12C8.561,12 10.28,10.28 10.28,10.28C10.573,9.988 10.573,9.512 10.28,9.22C9.988,8.927 9.512,8.927 9.22,9.22L6.97,11.47C6.677,11.763 6.677,12.237 6.97,12.53L9.22,14.78C9.512,15.073 9.988,15.073 10.28,14.78C10.573,14.488 10.573,14.012 10.28,13.72Z"/>
</svg>
