<?xml version="1.0" encoding="UTF-8" standalone="no"?>
<!DOCTYPE svg PUBLIC "-//W3C//DTD SVG 1.1//EN" "http://www.w3.org/Graphics/SVG/1.1/DTD/svg11.dtd">
<svg width="100%" height="100%" viewBox="0 0 24 24" version="1.1" xmlns="http://www.w3.org/2000/svg" xmlns:xlink="http://www.w3.org/1999/xlink" xml:space="preserve" xmlns:serif="http://www.serif.com/" style="fill-rule:evenodd;clip-rule:evenodd;stroke-linejoin:round;stroke-miterlimit:2;">
    <path d="M13.526,3.553L9.026,20.053C8.918,20.452 9.153,20.865 9.553,20.974C9.952,21.082 10.365,20.847 10.474,20.447L14.974,3.947C15.082,3.548 14.847,3.135 14.447,3.026C14.048,2.918 13.635,3.153 13.526,3.553ZM16.72,7.28L21.439,12C21.439,12 16.72,16.72 16.72,16.72C16.427,17.012 16.427,17.488 16.72,17.78C17.012,18.073 17.488,18.073 17.78,17.78L23.03,12.53C23.323,12.237 23.323,11.763 23.03,11.47L17.78,6.22C17.488,5.927 17.012,5.927 16.72,6.22C16.427,6.512 16.427,6.988 16.72,7.28ZM7.28,16.72L2.561,12C2.561,12 7.28,7.28 7.28,7.28C7.573,6.988 7.573,6.512 7.28,6.22C6.988,5.927 6.512,5.927 6.22,6.22L0.97,11.47C0.677,11.763 0.677,12.237 0.97,12.53L6.22,17.78C6.512,18.073 6.988,18.073 7.28,17.78C7.573,17.488 7.573,17.012 7.28,16.72Z"/>
</svg>
