<?xml version="1.0" encoding="UTF-8" standalone="no"?>
<!DOCTYPE svg PUBLIC "-//W3C//DTD SVG 1.1//EN" "http://www.w3.org/Graphics/SVG/1.1/DTD/svg11.dtd">
<svg width="100%" height="100%" viewBox="0 0 24 24" version="1.1" xmlns="http://www.w3.org/2000/svg" xmlns:xlink="http://www.w3.org/1999/xlink" xml:space="preserve" xmlns:serif="http://www.serif.com/" style="fill-rule:evenodd;clip-rule:evenodd;stroke-linejoin:round;stroke-miterlimit:2;">
    <path d="M9.603,3.816L9.453,4.712C9.425,4.882 9.284,5.004 9.125,5.07C8.967,5.136 8.784,5.145 8.645,5.046L7.908,4.519C7.165,3.988 6.137,4.073 5.491,4.719C5.492,4.719 4.719,5.492 4.719,5.492C4.073,6.137 3.988,7.165 4.519,7.908L5.046,8.646C5.145,8.785 5.136,8.968 5.07,9.126C5.004,9.286 4.881,9.426 4.711,9.454L3.816,9.603C2.913,9.753 2.249,10.536 2.249,11.453L2.249,12.547C2.249,13.462 2.913,14.246 3.816,14.396C3.815,14.396 4.709,14.546 4.709,14.546C4.71,14.546 4.71,14.546 4.711,14.546C4.881,14.574 5.004,14.715 5.07,14.874C5.136,15.032 5.144,15.215 5.045,15.354L4.518,16.091C3.987,16.834 4.072,17.862 4.718,18.508L5.491,19.282C6.141,19.93 7.163,20.014 7.908,19.481L8.645,18.954C8.784,18.855 8.967,18.864 9.125,18.929C9.285,18.996 9.426,19.119 9.454,19.29L9.602,20.184C9.754,21.087 10.536,21.75 11.452,21.75L12.546,21.75C13.463,21.75 14.246,21.086 14.396,20.183C14.396,20.183 14.545,19.29 14.545,19.29C14.573,19.119 14.714,18.996 14.874,18.93C15.032,18.864 15.214,18.855 15.353,18.954L16.091,19.481C16.834,20.012 17.861,19.926 18.506,19.281L19.281,18.508C19.929,17.858 20.013,16.836 19.48,16.091L18.953,15.354C18.854,15.215 18.863,15.032 18.929,14.874C18.995,14.715 19.118,14.574 19.288,14.546L20.182,14.397C21.087,14.247 21.749,13.464 21.749,12.547C21.749,12.547 21.749,11.453 21.749,11.453C21.749,10.538 21.087,9.754 20.182,9.604C20.183,9.604 19.29,9.454 19.29,9.454C19.289,9.454 19.289,9.454 19.288,9.454C19.118,9.426 18.995,9.285 18.929,9.126C18.863,8.968 18.854,8.785 18.953,8.646L19.48,7.909C20.014,7.162 19.93,6.14 19.28,5.492C19.281,5.493 18.508,4.719 18.508,4.719C18.508,4.719 18.508,4.719 18.508,4.719C17.862,4.073 16.834,3.988 16.091,4.519L15.354,5.046C15.215,5.145 15.032,5.136 14.873,5.071C14.714,5.004 14.573,4.882 14.545,4.712L14.396,3.817C14.246,2.914 13.463,2.25 12.546,2.25L11.453,2.25C10.536,2.25 9.753,2.914 9.603,3.817L9.603,3.816ZM11.083,4.064C11.083,4.064 11.083,4.063 11.083,4.063C11.113,3.882 11.27,3.75 11.453,3.75C11.453,3.75 12.546,3.75 12.546,3.75C12.729,3.75 12.886,3.882 12.916,4.063L13.065,4.957C13.177,5.634 13.662,6.19 14.295,6.456C14.296,6.456 14.298,6.457 14.299,6.457C14.936,6.72 15.666,6.666 16.226,6.266L16.963,5.739C17.112,5.633 17.317,5.65 17.446,5.779L18.22,6.554C18.35,6.684 18.366,6.888 18.26,7.037L17.733,7.774C17.332,8.335 17.279,9.064 17.543,9.701C17.543,9.701 17.543,9.702 17.543,9.702C17.807,10.337 18.364,10.822 19.044,10.934C19.042,10.934 19.935,11.084 19.935,11.084C19.935,11.084 19.936,11.084 19.936,11.084C20.117,11.114 20.249,11.27 20.249,11.453L20.249,12.547C20.249,12.73 20.117,12.887 19.936,12.917L19.043,13.066C18.364,13.178 17.807,13.663 17.543,14.298C17.543,14.298 17.543,14.299 17.543,14.299C17.279,14.936 17.332,15.665 17.733,16.226L18.26,16.965C18.367,17.114 18.349,17.318 18.219,17.448L17.446,18.221C17.317,18.35 17.111,18.367 16.963,18.261C16.963,18.261 16.225,17.734 16.225,17.734C15.664,17.333 14.935,17.28 14.298,17.544C13.664,17.808 13.179,18.364 13.065,19.042L12.916,19.937C12.886,20.118 12.729,20.25 12.546,20.25C12.546,20.25 11.452,20.25 11.452,20.25C11.268,20.25 11.112,20.117 11.082,19.936L10.934,19.042C10.82,18.365 10.336,17.809 9.702,17.544C9.701,17.544 9.7,17.543 9.699,17.543C9.062,17.28 8.333,17.333 7.773,17.734L7.034,18.261C6.885,18.368 6.681,18.35 6.551,18.22L5.778,17.446C5.649,17.317 5.632,17.112 5.738,16.963L6.265,16.226C6.666,15.665 6.72,14.936 6.456,14.299C6.456,14.299 6.456,14.298 6.456,14.298C6.192,13.663 5.635,13.178 4.955,13.066C4.957,13.066 4.063,12.916 4.063,12.916C4.063,12.916 4.062,12.916 4.062,12.916C3.881,12.886 3.749,12.73 3.749,12.547C3.749,12.547 3.749,11.453 3.749,11.453C3.749,11.27 3.881,11.113 4.062,11.083L4.956,10.934C5.633,10.822 6.192,10.337 6.456,9.702C6.456,9.702 6.456,9.701 6.456,9.701C6.72,9.064 6.667,8.335 6.266,7.774L5.739,7.036C5.633,6.887 5.65,6.682 5.779,6.553L6.553,5.779C6.682,5.65 6.887,5.633 7.036,5.739L7.773,6.266C8.334,6.667 9.065,6.72 9.701,6.456C10.336,6.192 10.821,5.635 10.933,4.956C10.933,4.958 11.083,4.064 11.083,4.064Z"/>
    <path d="M15.75,12C15.75,9.943 14.057,8.25 12,8.25C9.943,8.25 8.25,9.943 8.25,12C8.25,14.057 9.943,15.75 12,15.75C14.057,15.75 15.75,14.057 15.75,12ZM14.25,12C14.25,13.234 13.234,14.25 12,14.25C10.766,14.25 9.75,13.234 9.75,12C9.75,10.766 10.766,9.75 12,9.75C13.234,9.75 14.25,10.766 14.25,12Z"/>
</svg>
