<?xml version="1.0" encoding="UTF-8" standalone="no"?>
<!DOCTYPE svg PUBLIC "-//W3C//DTD SVG 1.1//EN" "http://www.w3.org/Graphics/SVG/1.1/DTD/svg11.dtd">
<svg width="100%" height="100%" viewBox="0 0 24 24" version="1.1" xmlns="http://www.w3.org/2000/svg" xmlns:xlink="http://www.w3.org/1999/xlink" xml:space="preserve" xmlns:serif="http://www.serif.com/" style="fill-rule:evenodd;clip-rule:evenodd;stroke-linejoin:round;stroke-miterlimit:2;">
    <path d="M8.854,3.816L8.64,5.098C8.616,5.246 8.505,5.361 8.374,5.433L8.129,5.576C7.999,5.654 7.844,5.692 7.703,5.639C7.702,5.639 6.487,5.184 6.487,5.184C5.632,4.863 4.661,5.211 4.204,6.002L2.907,8.25C2.452,9.04 2.636,10.054 3.34,10.633L4.345,11.461C4.46,11.556 4.504,11.709 4.501,11.858L4.501,12.141C4.504,12.291 4.46,12.445 4.345,12.54L3.34,13.367C2.636,13.946 2.451,14.961 2.907,15.752L4.205,18C4.662,18.789 5.632,19.137 6.486,18.816C6.486,18.816 7.702,18.361 7.702,18.361C7.844,18.308 7.999,18.346 8.129,18.424C8.209,18.473 8.291,18.52 8.374,18.566C8.504,18.638 8.615,18.753 8.64,18.902L8.853,20.183C9.003,21.086 9.786,21.75 10.703,21.75L13.297,21.75C14.214,21.75 14.997,21.087 15.147,20.182C15.147,20.182 15.36,18.904 15.36,18.904C15.385,18.755 15.495,18.639 15.627,18.566L15.87,18.425C16,18.347 16.156,18.307 16.297,18.36L17.514,18.816C18.369,19.137 19.339,18.788 19.796,17.998L21.094,15.75C21.55,14.957 21.368,13.951 20.661,13.368L19.655,12.539C19.54,12.444 19.496,12.291 19.499,12.142C19.501,12.048 19.501,11.953 19.499,11.859C19.496,11.709 19.539,11.556 19.655,11.461L20.66,10.633C21.364,10.054 21.549,9.039 21.093,8.248L19.796,6.001C19.339,5.21 18.368,4.863 17.513,5.184C17.514,5.184 16.297,5.64 16.297,5.64C16.156,5.692 16.001,5.654 15.873,5.576L15.628,5.435C15.496,5.361 15.385,5.246 15.36,5.097C15.36,5.096 15.147,3.817 15.147,3.817C14.997,2.914 14.214,2.25 13.297,2.25L10.704,2.25C9.787,2.25 9.004,2.914 8.854,3.817L8.854,3.816ZM10.334,4.064C10.334,4.063 10.334,4.063 10.334,4.063C10.364,3.882 10.521,3.75 10.704,3.75C10.704,3.75 13.297,3.75 13.297,3.75C13.48,3.75 13.637,3.882 13.667,4.063L13.88,5.346C13.981,5.944 14.37,6.452 14.901,6.747L15.098,6.86C15.617,7.174 16.254,7.258 16.823,7.044L18.041,6.588C18.212,6.524 18.406,6.593 18.498,6.751C18.498,6.751 19.793,8.998 19.793,8.998C19.885,9.156 19.848,9.359 19.707,9.475L18.703,10.302C18.234,10.686 17.988,11.279 17.999,11.887L17.999,12.114C17.988,12.721 18.234,13.312 18.703,13.697C18.702,13.697 19.707,14.524 19.707,14.524C19.848,14.641 19.885,14.843 19.794,15.002L18.496,17.248C18.405,17.406 18.211,17.476 18.04,17.412L16.823,16.956C16.254,16.743 15.62,16.825 15.098,17.139L14.899,17.255C14.371,17.547 13.981,18.055 13.88,18.654L13.667,19.936C13.637,20.117 13.48,20.25 13.297,20.25C13.297,20.25 10.703,20.25 10.703,20.25C10.52,20.25 10.363,20.118 10.333,19.937L10.12,18.656C10.021,18.057 9.632,17.548 9.1,17.253L8.903,17.14C8.383,16.826 7.748,16.742 7.178,16.955L5.96,17.412C5.789,17.476 5.595,17.406 5.503,17.249C5.503,17.248 4.207,15.002 4.207,15.002C4.115,14.844 4.152,14.641 4.293,14.525L5.298,13.698C5.766,13.313 6.012,12.721 6.001,12.113C5.999,12.037 5.999,11.962 6.001,11.886C6.012,11.279 5.766,10.688 5.297,10.303L4.294,9.475C4.153,9.359 4.116,9.156 4.207,8.998L5.504,6.752C5.595,6.594 5.789,6.524 5.96,6.588L7.178,7.045C7.748,7.258 8.383,7.174 8.903,6.86L9.099,6.746C9.631,6.453 10.02,5.944 10.12,5.344C10.12,5.345 10.334,4.064 10.334,4.064Z"/>
    <path d="M15.75,12C15.75,9.943 14.057,8.25 12,8.25C9.943,8.25 8.25,9.943 8.25,12C8.25,14.057 9.943,15.75 12,15.75C14.057,15.75 15.75,14.057 15.75,12ZM14.25,12C14.25,13.234 13.234,14.25 12,14.25C10.766,14.25 9.75,13.234 9.75,12C9.75,10.766 10.766,9.75 12,9.75C13.234,9.75 14.25,10.766 14.25,12Z"/>
</svg>
