<?xml version="1.0" encoding="UTF-8" standalone="no"?>
<!DOCTYPE svg PUBLIC "-//W3C//DTD SVG 1.1//EN" "http://www.w3.org/Graphics/SVG/1.1/DTD/svg11.dtd">
<svg width="100%" height="100%" viewBox="0 0 24 24" version="1.1" xmlns="http://www.w3.org/2000/svg" xmlns:xlink="http://www.w3.org/1999/xlink" xml:space="preserve" xmlns:serif="http://www.serif.com/" style="fill-rule:evenodd;clip-rule:evenodd;stroke-linejoin:round;stroke-miterlimit:2;">
    <path d="M12.688,3.779C12.461,3.76 12.232,3.75 12,3.75C11.769,3.75 11.54,3.76 11.313,3.779L11.177,3.007C11.105,2.599 10.716,2.327 10.308,2.398C9.9,2.47 9.628,2.859 9.699,3.267L9.836,4.042C9.39,4.164 8.959,4.324 8.546,4.517L8.15,3.83C7.943,3.472 7.484,3.349 7.125,3.555C6.767,3.762 6.644,4.221 6.85,4.58L7.25,5.272C6.877,5.537 6.526,5.832 6.202,6.154L5.588,5.639C5.271,5.373 4.797,5.415 4.531,5.732C4.265,6.049 4.307,6.523 4.624,6.789L5.236,7.301C4.974,7.676 4.742,8.072 4.544,8.487L3.801,8.216C3.412,8.075 2.981,8.275 2.839,8.664C2.698,9.053 2.898,9.484 3.287,9.626L4.026,9.895C3.909,10.333 3.827,10.786 3.784,11.25L3,11.25C2.586,11.25 2.25,11.586 2.25,12C2.25,12.414 2.586,12.75 3,12.75L3.784,12.75C3.827,13.213 3.908,13.665 4.025,14.103L3.287,14.372C2.898,14.514 2.697,14.944 2.838,15.333C2.98,15.722 3.41,15.923 3.799,15.782L4.544,15.511C4.741,15.926 4.973,16.323 5.235,16.698L4.624,17.21C4.307,17.476 4.265,17.95 4.531,18.267C4.797,18.584 5.271,18.626 5.588,18.36L6.201,17.845C6.526,18.167 6.877,18.463 7.25,18.729L6.851,19.42C6.645,19.779 6.768,20.238 7.126,20.445C7.485,20.651 7.944,20.528 8.151,20.17L8.547,19.483C8.96,19.676 9.39,19.836 9.836,19.958L9.699,20.733C9.628,21.141 9.9,21.53 10.308,21.602C10.716,21.673 11.105,21.401 11.177,20.993L11.313,20.221C11.54,20.24 11.769,20.25 12,20.25C12.232,20.25 12.461,20.24 12.688,20.221L12.824,20.993C12.896,21.401 13.285,21.673 13.693,21.602C14.101,21.53 14.373,21.141 14.302,20.733L14.165,19.958C14.611,19.835 15.042,19.676 15.454,19.483L15.85,20.169C16.057,20.527 16.517,20.65 16.875,20.444C17.233,20.237 17.356,19.777 17.15,19.419L16.75,18.728C17.124,18.463 17.474,18.167 17.799,17.845L18.412,18.36C18.729,18.626 19.203,18.584 19.469,18.267C19.735,17.95 19.693,17.476 19.376,17.21L18.765,16.698C19.027,16.323 19.258,15.927 19.456,15.512L20.202,15.783C20.591,15.924 21.021,15.723 21.163,15.334C21.304,14.945 21.103,14.515 20.714,14.373L19.974,14.104C20.092,13.666 20.173,13.213 20.216,12.75L21,12.75C21.414,12.75 21.75,12.414 21.75,12C21.75,11.586 21.414,11.25 21,11.25L20.216,11.25C20.173,10.787 20.092,10.334 19.974,9.895L20.714,9.626C21.103,9.484 21.304,9.054 21.163,8.665C21.021,8.276 20.591,8.075 20.202,8.216L19.456,8.488C19.258,8.073 19.027,7.677 18.765,7.303L19.377,6.79C19.694,6.524 19.736,6.05 19.47,5.733C19.204,5.416 18.73,5.374 18.413,5.64L17.799,6.155C17.475,5.833 17.124,5.538 16.751,5.272L17.151,4.58C17.357,4.221 17.234,3.762 16.876,3.555C16.517,3.349 16.058,3.472 15.851,3.83L15.455,4.517C15.042,4.324 14.611,4.165 14.165,4.042L14.302,3.267C14.373,2.859 14.101,2.47 13.693,2.398C13.285,2.327 12.896,2.599 12.824,3.007L12.688,3.779ZM18.707,12.75L12.435,12.75L9.3,18.18C10.129,18.546 11.042,18.75 12,18.75C15.45,18.75 18.33,16.106 18.707,12.75ZM8.003,6.576C6.337,7.81 5.25,9.788 5.25,12C5.25,14.213 6.338,16.191 8.004,17.425L11.135,12.002L8.003,6.576ZM18.707,11.25C18.33,7.894 15.45,5.25 12,5.25C11.042,5.25 10.127,5.454 9.299,5.821L12.433,11.25L18.707,11.25Z"/>
</svg>
