<?xml version="1.0" encoding="UTF-8" standalone="no"?>
<!DOCTYPE svg PUBLIC "-//W3C//DTD SVG 1.1//EN" "http://www.w3.org/Graphics/SVG/1.1/DTD/svg11.dtd">
<svg width="100%" height="100%" viewBox="0 0 24 24" version="1.1" xmlns="http://www.w3.org/2000/svg" xmlns:xlink="http://www.w3.org/1999/xlink" xml:space="preserve" xmlns:serif="http://www.serif.com/" style="fill-rule:evenodd;clip-rule:evenodd;stroke-linejoin:round;stroke-miterlimit:2;">
    <path d="M5.25,21L18.75,21C20.396,21 21.75,19.646 21.75,18L21.75,6C21.75,4.354 20.396,3 18.75,3L5.25,3C3.604,3 2.25,4.354 2.25,6L2.25,18C2.25,19.646 3.604,21 5.25,21ZM5.25,19.5C4.427,19.5 3.75,18.823 3.75,18C3.75,18 3.75,6 3.75,6C3.75,5.177 4.427,4.5 5.25,4.5C5.25,4.5 18.75,4.5 18.75,4.5C19.573,4.5 20.25,5.177 20.25,6C20.25,6 20.25,18 20.25,18C20.25,18.823 19.573,19.5 18.75,19.5L5.25,19.5ZM11.25,12.75L14.25,12.75C14.664,12.75 15,12.414 15,12C15,11.586 14.664,11.25 14.25,11.25L11.25,11.25C10.836,11.25 10.5,11.586 10.5,12C10.5,12.414 10.836,12.75 11.25,12.75ZM6.3,8.1L8.5,9.75C8.5,9.75 6.3,11.4 6.3,11.4C5.969,11.648 5.902,12.119 6.15,12.45C6.398,12.781 6.869,12.848 7.2,12.6L10.2,10.35C10.389,10.208 10.5,9.986 10.5,9.75C10.5,9.514 10.389,9.292 10.2,9.15L7.2,6.9C6.869,6.652 6.398,6.719 6.15,7.05C5.902,7.381 5.969,7.852 6.3,8.1Z"/>
</svg>
