<?xml version="1.0" encoding="UTF-8" standalone="no"?>
<!DOCTYPE svg PUBLIC "-//W3C//DTD SVG 1.1//EN" "http://www.w3.org/Graphics/SVG/1.1/DTD/svg11.dtd">
<svg width="100%" height="100%" viewBox="0 0 24 24" version="1.1" xmlns="http://www.w3.org/2000/svg" xmlns:xlink="http://www.w3.org/1999/xlink" xml:space="preserve" xmlns:serif="http://www.serif.com/" style="fill-rule:evenodd;clip-rule:evenodd;stroke-linejoin:round;stroke-miterlimit:2;">
    <path d="M2.25,5.25L2.25,15C2.25,16.646 3.604,18 5.25,18L8.25,18L8.25,18.257C8.25,18.854 8.013,19.427 7.591,19.849L6.97,20.47C6.755,20.684 6.691,21.007 6.807,21.287C6.923,21.567 7.197,21.75 7.5,21.75L16.5,21.75C16.803,21.75 17.077,21.567 17.193,21.287C17.309,21.007 17.245,20.684 17.03,20.47L16.409,19.849C15.987,19.427 15.75,18.854 15.75,18.257L15.75,18L18.75,18C20.396,18 21.75,16.646 21.75,15L21.75,5.25C21.75,3.604 20.396,2.25 18.75,2.25L5.25,2.25C3.604,2.25 2.25,3.604 2.25,5.25ZM14.25,18L9.75,18L9.75,18.257C9.75,18.967 9.548,19.657 9.177,20.25L14.823,20.25C14.452,19.657 14.25,18.967 14.25,18.257L14.25,18ZM20.25,14.593C19.808,14.852 19.295,15 18.75,15C18.75,15 5.25,15 5.25,15C4.705,15 4.192,14.852 3.75,14.593L3.75,15C3.75,15.823 4.427,16.5 5.25,16.5C5.25,16.5 18.75,16.5 18.75,16.5C19.573,16.5 20.25,15.823 20.25,15L20.25,14.593ZM20.25,5.25C20.25,4.427 19.573,3.75 18.75,3.75C18.75,3.75 5.25,3.75 5.25,3.75C4.453,3.75 3.793,4.385 3.752,5.173L3.75,5.25C3.75,5.25 3.75,12 3.75,12C3.75,12.823 4.427,13.5 5.25,13.5L18.75,13.5C19.573,13.5 20.25,12.823 20.25,12L20.25,5.25Z"/>
</svg>
