<?xml version="1.0" encoding="UTF-8" standalone="no"?>
<!DOCTYPE svg PUBLIC "-//W3C//DTD SVG 1.1//EN" "http://www.w3.org/Graphics/SVG/1.1/DTD/svg11.dtd">
<svg width="100%" height="100%" viewBox="0 0 24 24" version="1.1" xmlns="http://www.w3.org/2000/svg" xmlns:xlink="http://www.w3.org/1999/xlink" xml:space="preserve" xmlns:serif="http://www.serif.com/" style="fill-rule:evenodd;clip-rule:evenodd;stroke-linejoin:round;stroke-miterlimit:2;">
    <path d="M15,3.75L12.75,3.75L12.75,3C12.75,2.586 12.414,2.25 12,2.25C11.586,2.25 11.25,2.586 11.25,3L11.25,3.75L9,3.75L9,3C9,2.586 8.664,2.25 8.25,2.25C7.836,2.25 7.5,2.586 7.5,3L7.5,3.75L6.75,3.75C5.104,3.75 3.75,5.104 3.75,6.75L3.75,7.5L3,7.5C2.586,7.5 2.25,7.836 2.25,8.25C2.25,8.664 2.586,9 3,9L3.75,9L3.75,11.25L3,11.25C2.586,11.25 2.25,11.586 2.25,12C2.25,12.414 2.586,12.75 3,12.75L3.75,12.75L3.75,15L3,15C2.586,15 2.25,15.336 2.25,15.75C2.25,16.164 2.586,16.5 3,16.5L3.75,16.5L3.75,17.25C3.75,18.896 5.104,20.25 6.75,20.25L7.5,20.25L7.5,21C7.5,21.414 7.836,21.75 8.25,21.75C8.664,21.75 9,21.414 9,21L9,20.25L11.25,20.25L11.25,21C11.25,21.414 11.586,21.75 12,21.75C12.414,21.75 12.75,21.414 12.75,21L12.75,20.25L15,20.25L15,21C15,21.414 15.336,21.75 15.75,21.75C16.164,21.75 16.5,21.414 16.5,21L16.5,20.25L17.25,20.25C18.896,20.25 20.25,18.896 20.25,17.25L20.25,16.5L21,16.5C21.414,16.5 21.75,16.164 21.75,15.75C21.75,15.336 21.414,15 21,15L20.25,15L20.25,12.75L21,12.75C21.414,12.75 21.75,12.414 21.75,12C21.75,11.586 21.414,11.25 21,11.25L20.25,11.25L20.25,9L21,9C21.414,9 21.75,8.664 21.75,8.25C21.75,7.836 21.414,7.5 21,7.5L20.25,7.5L20.25,6.75C20.25,5.104 18.896,3.75 17.25,3.75L16.5,3.75L16.5,3C16.5,2.586 16.164,2.25 15.75,2.25C15.336,2.25 15,2.586 15,3L15,3.75ZM6.75,18.75C5.927,18.75 5.25,18.073 5.25,17.25L5.25,6.75C5.25,5.927 5.927,5.25 6.75,5.25L17.25,5.25C18.073,5.25 18.75,5.927 18.75,6.75C18.75,6.75 18.75,17.25 18.75,17.25C18.75,18.073 18.073,18.75 17.25,18.75C17.25,18.75 6.75,18.75 6.75,18.75ZM7.5,6.75C7.086,6.75 6.75,7.086 6.75,7.5L6.75,16.5C6.75,16.914 7.086,17.25 7.5,17.25L16.5,17.25C16.914,17.25 17.25,16.914 17.25,16.5L17.25,7.5C17.25,7.086 16.914,6.75 16.5,6.75L7.5,6.75ZM8.25,8.25L15.75,8.25C15.75,8.25 15.75,15.75 15.75,15.75C15.75,15.75 8.25,15.75 8.25,15.75L8.25,8.25Z"/>
</svg>
