<?xml version="1.0" encoding="UTF-8" standalone="no"?>
<!DOCTYPE svg PUBLIC "-//W3C//DTD SVG 1.1//EN" "http://www.w3.org/Graphics/SVG/1.1/DTD/svg11.dtd">
<svg width="100%" height="100%" viewBox="0 0 24 24" version="1.1" xmlns="http://www.w3.org/2000/svg" xmlns:xlink="http://www.w3.org/1999/xlink" xml:space="preserve" xmlns:serif="http://www.serif.com/" style="fill-rule:evenodd;clip-rule:evenodd;stroke-linejoin:round;stroke-miterlimit:2;">
    <path d="M4.5,20.25L19.5,20.25C21.146,20.25 22.5,18.896 22.5,17.25L22.5,6.75C22.5,5.104 21.146,3.75 19.5,3.75C19.5,3.75 4.5,3.75 4.5,3.75C2.854,3.75 1.5,5.104 1.5,6.75C1.5,6.75 1.5,17.25 1.5,17.25C1.5,18.896 2.854,20.25 4.5,20.25ZM21,9.75L21,17.25C21,18.073 20.323,18.75 19.5,18.75C19.5,18.75 4.5,18.75 4.5,18.75C3.677,18.75 3,18.073 3,17.25L3,9.75L21,9.75ZM5.25,17.25L8.25,17.25C8.664,17.25 9,16.914 9,16.5C9,16.086 8.664,15.75 8.25,15.75L5.25,15.75C4.836,15.75 4.5,16.086 4.5,16.5C4.5,16.914 4.836,17.25 5.25,17.25ZM5.25,15L11.25,15C11.664,15 12,14.664 12,14.25C12,13.836 11.664,13.5 11.25,13.5L5.25,13.5C4.836,13.5 4.5,13.836 4.5,14.25C4.5,14.664 4.836,15 5.25,15ZM21,7.5L3,7.5L3,6.75C3,5.927 3.677,5.25 4.5,5.25L19.5,5.25C20.323,5.25 21,5.927 21,6.75L21,7.5Z"/>
</svg>
