<?xml version="1.0" encoding="UTF-8" standalone="no"?>
<!DOCTYPE svg PUBLIC "-//W3C//DTD SVG 1.1//EN" "http://www.w3.org/Graphics/SVG/1.1/DTD/svg11.dtd">
<svg width="100%" height="100%" viewBox="0 0 24 24" version="1.1" xmlns="http://www.w3.org/2000/svg" xmlns:xlink="http://www.w3.org/1999/xlink" xml:space="preserve" xmlns:serif="http://www.serif.com/" style="fill-rule:evenodd;clip-rule:evenodd;stroke-linejoin:round;stroke-miterlimit:2;">
    <path d="M11.25,20.444L10.128,19.789C9.77,19.581 9.311,19.701 9.102,20.059C8.894,20.417 9.014,20.876 9.372,21.085L11.622,22.398L11.631,22.403L11.643,22.409L11.656,22.416L11.663,22.42L11.675,22.426L11.69,22.433L11.697,22.436L11.708,22.441L11.718,22.445L11.725,22.448L11.732,22.45L11.742,22.454L11.752,22.458L11.76,22.461L11.777,22.466L11.787,22.469L11.796,22.472L11.813,22.476L11.822,22.478L11.832,22.481L11.849,22.485L11.857,22.486L11.868,22.488L11.878,22.49L11.886,22.491L11.893,22.492L11.904,22.494L11.916,22.495L11.923,22.496L11.94,22.498L11.961,22.499L11.976,22.5L12,22.5L12.024,22.5L12.039,22.499L12.06,22.498L12.077,22.496L12.085,22.495L12.096,22.494L12.107,22.492L12.114,22.491L12.122,22.49L12.132,22.488L12.143,22.486L12.151,22.485L12.168,22.481L12.178,22.478L12.187,22.476L12.204,22.472L12.213,22.469L12.223,22.466L12.24,22.461L12.248,22.458L12.258,22.454L12.268,22.45L12.275,22.448L12.282,22.445L12.292,22.441L12.303,22.436L12.31,22.433L12.325,22.426L12.337,22.42L12.344,22.416L12.357,22.409L12.369,22.403L12.378,22.398L14.628,21.085C14.986,20.876 15.106,20.417 14.898,20.059C14.689,19.701 14.23,19.581 13.872,19.789L12.75,20.444L12.75,19.5C12.75,19.086 12.414,18.75 12,18.75C11.586,18.75 11.25,19.086 11.25,19.5L11.25,20.444ZM20.25,14.25L20.25,16.069C20.25,16.069 18.372,17.165 18.372,17.165C18.014,17.374 17.894,17.833 18.102,18.191C18.311,18.549 18.77,18.669 19.128,18.461L21.378,17.148C21.608,17.013 21.75,16.767 21.75,16.5L21.75,14.25C21.75,13.836 21.414,13.5 21,13.5C20.586,13.5 20.25,13.836 20.25,14.25ZM5.628,17.165L3.75,16.069C3.75,16.069 3.75,14.25 3.75,14.25C3.75,13.836 3.414,13.5 3,13.5C2.586,13.5 2.25,13.836 2.25,14.25L2.25,16.5C2.25,16.767 2.392,17.013 2.622,17.148L4.872,18.461C5.23,18.669 5.689,18.549 5.898,18.191C6.106,17.833 5.986,17.374 5.628,17.165ZM11.25,13.181L11.25,15C11.25,15.414 11.586,15.75 12,15.75C12.414,15.75 12.75,15.414 12.75,15L12.75,13.181L14.628,12.085C14.986,11.876 15.106,11.417 14.898,11.059C14.689,10.701 14.23,10.581 13.872,10.789L12,11.882L10.128,10.789C9.77,10.581 9.311,10.701 9.102,11.059C8.894,11.417 9.014,11.876 9.372,12.085L11.25,13.181ZM19.512,7.5L18.372,8.165C18.014,8.374 17.894,8.833 18.102,9.191C18.311,9.549 18.77,9.669 19.128,9.461L20.25,8.806L20.25,9.75C20.25,10.164 20.586,10.5 21,10.5C21.414,10.5 21.75,10.164 21.75,9.75L21.75,7.5L21.75,7.476L21.749,7.461L21.748,7.44L21.746,7.423L21.745,7.415L21.744,7.404L21.742,7.393L21.741,7.386L21.74,7.378L21.738,7.368L21.736,7.357L21.735,7.349L21.731,7.332L21.728,7.322L21.726,7.313L21.722,7.296L21.719,7.287L21.716,7.277L21.711,7.26L21.708,7.252L21.704,7.242L21.7,7.232L21.698,7.225L21.695,7.218L21.691,7.208L21.686,7.197L21.683,7.19L21.676,7.175L21.67,7.163L21.666,7.156L21.659,7.143L21.653,7.131L21.648,7.122L21.641,7.111L21.621,7.08L21.6,7.05L21.578,7.021L21.554,6.994L21.542,6.982L21.533,6.972L21.528,6.967L21.518,6.958L21.506,6.946L21.501,6.942L21.492,6.934L21.479,6.922L21.45,6.9L21.442,6.894L21.435,6.889L21.42,6.879L21.411,6.873L21.403,6.868L21.389,6.859L21.378,6.852L19.128,5.539C18.77,5.331 18.311,5.451 18.102,5.809C17.894,6.167 18.014,6.626 18.372,6.835L19.512,7.5ZM2.622,6.852L2.611,6.859L2.58,6.879L2.55,6.9L2.521,6.922L2.494,6.946L2.482,6.958L2.472,6.967L2.467,6.972L2.458,6.982L2.446,6.994L2.442,6.999L2.434,7.008L2.422,7.021L2.4,7.05L2.394,7.058L2.389,7.065L2.379,7.08L2.373,7.089L2.368,7.097L2.359,7.111L2.352,7.122L2.347,7.131L2.341,7.143L2.334,7.156L2.33,7.163L2.324,7.175L2.317,7.19L2.314,7.197L2.309,7.208L2.305,7.218L2.302,7.225L2.3,7.232L2.296,7.242L2.292,7.252L2.289,7.26L2.284,7.277L2.281,7.287L2.278,7.296L2.274,7.313L2.272,7.322L2.269,7.332L2.265,7.349L2.264,7.357L2.262,7.368L2.26,7.378L2.259,7.386L2.258,7.393L2.256,7.404L2.255,7.416L2.254,7.423L2.252,7.44L2.251,7.461L2.25,7.476L2.25,7.5L2.25,9.75C2.25,10.164 2.586,10.5 3,10.5C3.414,10.5 3.75,10.164 3.75,9.75L3.75,8.806L4.872,9.461C5.23,9.669 5.689,9.549 5.898,9.191C6.106,8.833 5.986,8.374 5.628,8.165L4.488,7.5L5.628,6.835C5.986,6.626 6.106,6.167 5.898,5.809C5.689,5.451 5.23,5.331 4.872,5.539L2.622,6.852ZM10.128,4.21L12,3.118C12,3.118 13.872,4.211 13.872,4.211C14.23,4.419 14.689,4.299 14.898,3.941C15.106,3.583 14.986,3.124 14.628,2.915L12.378,1.602C12.145,1.466 11.856,1.466 11.622,1.602L9.372,2.914C9.015,3.123 8.894,3.582 9.102,3.94C9.311,4.297 9.77,4.418 10.128,4.21Z"/>
</svg>
