<?xml version="1.0" encoding="UTF-8" standalone="no"?>
<!DOCTYPE svg PUBLIC "-//W3C//DTD SVG 1.1//EN" "http://www.w3.org/Graphics/SVG/1.1/DTD/svg11.dtd">
<svg width="100%" height="100%" viewBox="0 0 24 24" version="1.1" xmlns="http://www.w3.org/2000/svg" xmlns:xlink="http://www.w3.org/1999/xlink" xml:space="preserve" xmlns:serif="http://www.serif.com/" style="fill-rule:evenodd;clip-rule:evenodd;stroke-linejoin:round;stroke-miterlimit:2;">
    <path d="M21.75,12C21.75,6.651 17.349,2.25 12,2.25C6.651,2.25 2.25,6.651 2.25,12C2.25,17.349 6.651,21.75 12,21.75C17.349,21.75 21.75,17.349 21.75,12ZM20.25,12C20.25,16.526 16.526,20.25 12,20.25C7.474,20.25 3.75,16.526 3.75,12C3.75,7.474 7.474,3.75 12,3.75C16.526,3.75 20.25,7.474 20.25,12ZM8.017,9.75L7.5,9.75C7.086,9.75 6.75,10.086 6.75,10.5C6.75,10.914 7.086,11.25 7.5,11.25L7.558,11.25C7.522,11.495 7.504,11.746 7.504,12C7.504,12.254 7.522,12.505 7.558,12.75L7.5,12.75C7.086,12.75 6.75,13.086 6.75,13.5C6.75,13.914 7.086,14.25 7.5,14.25L8.017,14.25C8.865,16.018 10.677,17.25 12.754,17.25C13.348,17.25 13.939,17.149 14.499,16.951C14.89,16.814 15.095,16.385 14.957,15.995C14.82,15.604 14.391,15.399 14.001,15.537C13.6,15.678 13.179,15.75 12.754,15.75C11.538,15.75 10.449,15.159 9.762,14.25L12.75,14.25C13.164,14.25 13.5,13.914 13.5,13.5C13.5,13.086 13.164,12.75 12.75,12.75L9.08,12.75C9.03,12.507 9.004,12.257 9.004,12C9.004,11.743 9.03,11.493 9.08,11.25L12.75,11.25C13.164,11.25 13.5,10.914 13.5,10.5C13.5,10.086 13.164,9.75 12.75,9.75L9.762,9.75C10.449,8.841 11.538,8.25 12.754,8.25C13.179,8.25 13.6,8.322 14.001,8.463C14.391,8.601 14.82,8.396 14.957,8.005C15.095,7.615 14.89,7.186 14.499,7.049C13.939,6.851 13.348,6.75 12.754,6.75C10.677,6.75 8.865,7.982 8.017,9.75Z"/>
</svg>
