<?xml version="1.0" encoding="UTF-8" standalone="no"?>
<!DOCTYPE svg PUBLIC "-//W3C//DTD SVG 1.1//EN" "http://www.w3.org/Graphics/SVG/1.1/DTD/svg11.dtd">
<svg width="100%" height="100%" viewBox="0 0 24 24" version="1.1" xmlns="http://www.w3.org/2000/svg" xmlns:xlink="http://www.w3.org/1999/xlink" xml:space="preserve" xmlns:serif="http://www.serif.com/" style="fill-rule:evenodd;clip-rule:evenodd;stroke-linejoin:round;stroke-miterlimit:2;">
    <path d="M21.75,12C21.75,6.651 17.349,2.25 12,2.25C6.651,2.25 2.25,6.651 2.25,12C2.25,17.349 6.651,21.75 12,21.75C17.349,21.75 21.75,17.349 21.75,12ZM20.25,12C20.25,16.526 16.526,20.25 12,20.25C7.474,20.25 3.75,16.526 3.75,12C3.75,7.474 7.474,3.75 12,3.75C16.526,3.75 20.25,7.474 20.25,12ZM9,9L10.5,9C11.472,9 12.308,9.63 12.62,10.5L9,10.5C8.586,10.5 8.25,10.836 8.25,11.25C8.25,11.664 8.586,12 9,12L12.62,12C12.308,12.87 11.472,13.5 10.5,13.5L9,13.5C8.697,13.5 8.423,13.683 8.307,13.963C8.191,14.243 8.255,14.566 8.47,14.78L11.47,17.78C11.762,18.073 12.238,18.073 12.53,17.78C12.823,17.488 12.823,17.012 12.53,16.72L10.799,14.988C12.467,14.854 13.842,13.608 14.174,12L15,12C15.414,12 15.75,11.664 15.75,11.25C15.75,10.836 15.414,10.5 15,10.5L14.174,10.5C14.059,9.947 13.822,9.437 13.491,9L15,9C15.414,9 15.75,8.664 15.75,8.25C15.75,7.836 15.414,7.5 15,7.5L9,7.5C8.586,7.5 8.25,7.836 8.25,8.25C8.25,8.664 8.586,9 9,9Z"/>
</svg>
