<?xml version="1.0" encoding="UTF-8" standalone="no"?>
<!DOCTYPE svg PUBLIC "-//W3C//DTD SVG 1.1//EN" "http://www.w3.org/Graphics/SVG/1.1/DTD/svg11.dtd">
<svg width="100%" height="100%" viewBox="0 0 24 24" version="1.1" xmlns="http://www.w3.org/2000/svg" xmlns:xlink="http://www.w3.org/1999/xlink" xml:space="preserve" xmlns:serif="http://www.serif.com/" style="fill-rule:evenodd;clip-rule:evenodd;stroke-linejoin:round;stroke-miterlimit:2;">
    <path d="M21.75,12C21.75,6.651 17.349,2.25 12,2.25C6.651,2.25 2.25,6.651 2.25,12C2.25,17.349 6.651,21.75 12,21.75C17.349,21.75 21.75,17.349 21.75,12ZM20.25,12C20.25,16.526 16.526,20.25 12,20.25C7.474,20.25 3.75,16.526 3.75,12C3.75,7.474 7.474,3.75 12,3.75C16.526,3.75 20.25,7.474 20.25,12ZM11.25,6.823C10.62,6.933 10.02,7.182 9.53,7.572C8.776,8.171 8.418,8.965 8.418,9.75C8.418,10.535 8.776,11.329 9.53,11.928C9.53,11.928 9.531,11.928 9.531,11.928C10.021,12.318 10.62,12.572 11.25,12.684L11.25,15.669C10.913,15.585 10.597,15.442 10.329,15.241L9.45,14.582C9.119,14.334 8.648,14.401 8.4,14.732C8.152,15.063 8.219,15.534 8.55,15.782L9.429,16.441C9.947,16.83 10.583,17.077 11.25,17.182L11.25,18C11.25,18.414 11.586,18.75 12,18.75C12.414,18.75 12.75,18.414 12.75,18L12.75,17.181C13.417,17.077 14.053,16.83 14.571,16.441C15.373,15.839 15.75,15.038 15.75,14.25C15.75,13.462 15.373,12.661 14.572,12.059C14.053,11.67 13.418,11.418 12.75,11.31L12.75,8.347C13.037,8.43 13.306,8.563 13.536,8.746C13.536,8.746 13.951,9.076 13.951,9.076C14.275,9.334 14.747,9.28 15.005,8.956C15.263,8.632 15.209,8.16 14.885,7.902L14.47,7.572C13.98,7.182 13.38,6.933 12.75,6.823L12.75,6C12.75,5.586 12.414,5.25 12,5.25C11.586,5.25 11.25,5.586 11.25,6L11.25,6.823ZM12.75,12.838L12.75,15.669C13.087,15.585 13.403,15.442 13.671,15.241C14.041,14.963 14.25,14.614 14.25,14.25C14.25,13.886 14.041,13.537 13.671,13.259C13.671,13.259 13.67,13.259 13.67,13.258C13.403,13.058 13.087,12.919 12.75,12.838ZM11.25,8.347C10.963,8.43 10.694,8.563 10.464,8.746C10.111,9.026 9.918,9.383 9.918,9.75C9.918,10.117 10.111,10.474 10.463,10.754C10.693,10.936 10.963,11.067 11.25,11.148L11.25,8.347Z"/>
</svg>
