<?xml version="1.0" encoding="UTF-8" standalone="no"?>
<!DOCTYPE svg PUBLIC "-//W3C//DTD SVG 1.1//EN" "http://www.w3.org/Graphics/SVG/1.1/DTD/svg11.dtd">
<svg width="100%" height="100%" viewBox="0 0 24 24" version="1.1" xmlns="http://www.w3.org/2000/svg" xmlns:xlink="http://www.w3.org/1999/xlink" xml:space="preserve" xmlns:serif="http://www.serif.com/" style="fill-rule:evenodd;clip-rule:evenodd;stroke-linejoin:round;stroke-miterlimit:2;">
    <path d="M21.75,12C21.75,6.651 17.349,2.25 12,2.25C6.651,2.25 2.25,6.651 2.25,12C2.25,17.349 6.651,21.75 12,21.75C17.349,21.75 21.75,17.349 21.75,12ZM20.25,12C20.25,16.526 16.526,20.25 12,20.25C7.474,20.25 3.75,16.526 3.75,12C3.75,7.474 7.474,3.75 12,3.75C16.526,3.75 20.25,7.474 20.25,12ZM10.599,11.25L9,11.25C8.586,11.25 8.25,11.586 8.25,12C8.25,12.414 8.586,12.75 9,12.75L11.25,12.75L11.25,14.25L9,14.25C8.586,14.25 8.25,14.586 8.25,15C8.25,15.414 8.586,15.75 9,15.75L11.25,15.75L11.25,17.25C11.25,17.664 11.586,18 12,18C12.414,18 12.75,17.664 12.75,17.25L12.75,15.75L15,15.75C15.414,15.75 15.75,15.414 15.75,15C15.75,14.586 15.414,14.25 15,14.25L12.75,14.25L12.75,12.75L15,12.75C15.414,12.75 15.75,12.414 15.75,12C15.75,11.586 15.414,11.25 15,11.25L13.401,11.25L15.624,7.916C15.854,7.572 15.76,7.106 15.416,6.876C15.072,6.646 14.606,6.74 14.376,7.084L12,10.648L9.624,7.084C9.394,6.74 8.928,6.646 8.584,6.876C8.24,7.106 8.146,7.572 8.376,7.916L10.599,11.25Z"/>
</svg>
