<?xml version="1.0" encoding="UTF-8" standalone="no"?>
<!DOCTYPE svg PUBLIC "-//W3C//DTD SVG 1.1//EN" "http://www.w3.org/Graphics/SVG/1.1/DTD/svg11.dtd">
<svg width="100%" height="100%" viewBox="0 0 24 24" version="1.1" xmlns="http://www.w3.org/2000/svg" xmlns:xlink="http://www.w3.org/1999/xlink" xml:space="preserve" xmlns:serif="http://www.serif.com/" style="fill-rule:evenodd;clip-rule:evenodd;stroke-linejoin:round;stroke-miterlimit:2;">
    <path d="M21.75,12C21.75,6.651 17.349,2.25 12,2.25C6.651,2.25 2.25,6.651 2.25,12C2.25,17.349 6.651,21.75 12,21.75C17.349,21.75 21.75,17.349 21.75,12ZM20.25,12C20.25,16.526 16.526,20.25 12,20.25C7.474,20.25 3.75,16.526 3.75,12C3.75,7.474 7.474,3.75 12,3.75C16.526,3.75 20.25,7.474 20.25,12ZM8.331,16.16L9,17.25C9,17.25 9.15,17.263 9.32,17.184L10.776,16.699C11.084,16.596 11.416,16.596 11.724,16.699L12.379,16.917C13.133,17.168 13.958,17.11 14.669,16.754C14.669,16.754 15.335,16.421 15.335,16.421C15.706,16.236 15.856,15.785 15.671,15.415C15.486,15.044 15.035,14.894 14.665,15.079L13.999,15.412C13.643,15.59 13.231,15.619 12.853,15.494L12.198,15.275C11.583,15.071 10.917,15.071 10.302,15.275L10.24,15.296C10.36,14.709 10.379,14.101 10.293,13.501L10.186,12.75L12,12.75C12.414,12.75 12.75,12.414 12.75,12C12.75,11.586 12.414,11.25 12,11.25L9.972,11.25L9.788,9.96C9.766,9.811 9.746,9.661 9.763,9.511C9.763,9.511 9.763,9.51 9.763,9.51C9.885,8.373 10.856,7.5 12,7.5C12.596,7.5 13.169,7.738 13.591,8.159C13.883,8.452 14.359,8.452 14.651,8.159C14.944,7.867 14.944,7.391 14.651,7.099C13.948,6.396 12.994,6 12,6C10.093,6 8.475,7.454 8.271,9.35C8.242,9.623 8.264,9.899 8.302,10.172L8.457,11.25L8.25,11.25C7.836,11.25 7.5,11.586 7.5,12C7.5,12.414 7.836,12.75 8.25,12.75L8.671,12.75L8.809,13.713C8.917,14.468 8.792,15.239 8.45,15.922L8.903,16.655L8.904,16.661L8.446,15.929L8.331,16.16Z"/>
</svg>
