<?xml version="1.0" encoding="UTF-8" standalone="no"?>
<!DOCTYPE svg PUBLIC "-//W3C//DTD SVG 1.1//EN" "http://www.w3.org/Graphics/SVG/1.1/DTD/svg11.dtd">
<svg width="100%" height="100%" viewBox="0 0 24 24" version="1.1" xmlns="http://www.w3.org/2000/svg" xmlns:xlink="http://www.w3.org/1999/xlink" xml:space="preserve" xmlns:serif="http://www.serif.com/" style="fill-rule:evenodd;clip-rule:evenodd;stroke-linejoin:round;stroke-miterlimit:2;">
    <path d="M21.75,12C21.75,6.651 17.349,2.25 12,2.25C6.651,2.25 2.25,6.651 2.25,12C2.25,17.349 6.651,21.75 12,21.75C17.349,21.75 21.75,17.349 21.75,12ZM20.25,12C20.25,16.526 16.526,20.25 12,20.25C7.474,20.25 3.75,16.526 3.75,12C3.75,7.474 7.474,3.75 12,3.75C16.526,3.75 20.25,7.474 20.25,12ZM8.319,6.628L8.319,6.628L7.925,6.824L7.968,7.016C7.924,7.126 7.906,7.248 7.919,7.371C7.671,6.949 7.5,7.205 7.5,7.5C7.5,7.914 7.836,8.25 8.25,8.25C8.25,8.25 8.39,8.268 8.594,8.166C8.649,8.139 8.988,7.97 8.988,7.97L8.986,7.97L9,7.964C8.951,7.989 8.974,7.99 9,7.984L9,9.75L8.25,9.75C7.836,9.75 7.5,10.086 7.5,10.5C7.5,10.914 7.836,11.25 8.25,11.25L9,11.25L9,15.938C9,16.568 9.312,17.164 9.867,17.463C9.868,17.463 9.868,17.463 9.868,17.464C10.523,17.816 11.256,18.001 12,18.001C14.131,18.001 15.984,16.488 16.41,14.4C16.41,14.4 16.41,14.399 16.41,14.399C16.588,13.521 15.89,12.75 14.995,12.75C14.995,12.75 14.25,12.75 14.25,12.75C13.836,12.75 13.5,13.086 13.5,13.5C13.5,13.914 13.836,14.25 14.25,14.25L14.906,14.25C14.567,15.563 13.37,16.501 12,16.501C11.504,16.501 11.015,16.378 10.579,16.143C10.509,16.105 10.5,16.017 10.5,15.938L10.5,11.25L15.75,11.25C16.164,11.25 16.5,10.914 16.5,10.5C16.5,10.086 16.164,9.75 15.75,9.75L10.5,9.75L10.5,7.962C10.499,7.14 9.822,6.464 9,6.464C8.767,6.464 8.538,6.518 8.33,6.622L8.319,6.628ZM8.108,7.795C8.154,7.923 8.201,8.074 8.25,8.25L8.158,7.845C8.14,7.829 8.124,7.812 8.108,7.795Z"/>
</svg>
