<?xml version="1.0" encoding="UTF-8" standalone="no"?>
<!DOCTYPE svg PUBLIC "-//W3C//DTD SVG 1.1//EN" "http://www.w3.org/Graphics/SVG/1.1/DTD/svg11.dtd">
<svg width="100%" height="100%" viewBox="0 0 24 24" version="1.1" xmlns="http://www.w3.org/2000/svg" xmlns:xlink="http://www.w3.org/1999/xlink" xml:space="preserve" xmlns:serif="http://www.serif.com/" style="fill-rule:evenodd;clip-rule:evenodd;stroke-linejoin:round;stroke-miterlimit:2;">
    <path d="M6.75,22.5L17.25,22.5C18.896,22.5 20.25,21.146 20.25,19.5L20.25,4.5C20.25,2.854 18.896,1.5 17.25,1.5C17.25,1.5 6.75,1.5 6.75,1.5C5.104,1.5 3.75,2.854 3.75,4.5C3.75,4.5 3.75,19.5 3.75,19.5C3.75,21.146 5.104,22.5 6.75,22.5ZM6.75,21C5.927,21 5.25,20.323 5.25,19.5L5.25,4.5C5.25,3.677 5.927,3 6.75,3L17.25,3C18.073,3 18.75,3.677 18.75,4.5C18.75,4.5 18.75,19.5 18.75,19.5C18.75,20.323 18.073,21 17.25,21L6.75,21ZM10.5,20.25L13.5,20.25C13.914,20.25 14.25,19.914 14.25,19.5C14.25,19.086 13.914,18.75 13.5,18.75L10.5,18.75C10.086,18.75 9.75,19.086 9.75,19.5C9.75,19.914 10.086,20.25 10.5,20.25Z"/>
</svg>
