<?xml version="1.0" encoding="UTF-8" standalone="no"?>
<!DOCTYPE svg PUBLIC "-//W3C//DTD SVG 1.1//EN" "http://www.w3.org/Graphics/SVG/1.1/DTD/svg11.dtd">
<svg width="100%" height="100%" viewBox="0 0 24 24" version="1.1" xmlns="http://www.w3.org/2000/svg" xmlns:xlink="http://www.w3.org/1999/xlink" xml:space="preserve" xmlns:serif="http://www.serif.com/" style="fill-rule:evenodd;clip-rule:evenodd;stroke-linejoin:round;stroke-miterlimit:2;">
    <path d="M15.75,0.75L8.25,0.75C6.604,0.75 5.25,2.104 5.25,3.75L5.25,20.25C5.25,21.896 6.604,23.25 8.25,23.25L15.75,23.25C17.396,23.25 18.75,21.896 18.75,20.25L18.75,3.75C18.75,2.104 17.396,0.75 15.75,0.75ZM14.25,2.25L14.25,3C14.25,3.414 13.914,3.75 13.5,3.75L10.5,3.75C10.086,3.75 9.75,3.414 9.75,3L9.75,2.25L8.25,2.25C7.427,2.25 6.75,2.927 6.75,3.75C6.75,3.75 6.75,20.25 6.75,20.25C6.75,21.073 7.427,21.75 8.25,21.75C8.25,21.75 15.75,21.75 15.75,21.75C16.573,21.75 17.25,21.073 17.25,20.25C17.25,20.25 17.25,3.75 17.25,3.75C17.25,2.927 16.573,2.25 15.75,2.25L14.25,2.25ZM10.5,21L13.5,21C13.914,21 14.25,20.664 14.25,20.25C14.25,19.836 13.914,19.5 13.5,19.5L10.5,19.5C10.086,19.5 9.75,19.836 9.75,20.25C9.75,20.664 10.086,21 10.5,21ZM12.75,2.25C12.75,2.25 11.25,2.25 11.25,2.25C11.25,2.25 12.75,2.25 12.75,2.25Z"/>
</svg>
