<?xml version="1.0" encoding="UTF-8" standalone="no"?>
<!DOCTYPE svg PUBLIC "-//W3C//DTD SVG 1.1//EN" "http://www.w3.org/Graphics/SVG/1.1/DTD/svg11.dtd">
<svg width="100%" height="100%" viewBox="0 0 24 24" version="1.1" xmlns="http://www.w3.org/2000/svg" xmlns:xlink="http://www.w3.org/1999/xlink" xml:space="preserve" xmlns:serif="http://www.serif.com/" style="fill-rule:evenodd;clip-rule:evenodd;stroke-linejoin:round;stroke-miterlimit:2;">
    <path d="M10.5,1.5L5.625,1.5C4.59,1.5 3.75,2.34 3.75,3.375C3.75,3.375 3.75,19.875 3.75,19.875C3.75,20.91 4.59,21.75 5.625,21.75L18.375,21.75C19.41,21.75 20.25,20.91 20.25,19.875L20.25,11.25C20.25,5.901 15.849,1.5 10.5,1.5ZM10.125,3L5.625,3C5.418,3 5.25,3.168 5.25,3.375L5.25,19.875C5.25,20.082 5.418,20.25 5.625,20.25C5.625,20.25 18.375,20.25 18.375,20.25C18.582,20.25 18.75,20.082 18.75,19.875L18.75,11.625C18.75,10.185 17.565,9 16.125,9L14.625,9C13.596,9 12.75,8.154 12.75,7.125C12.75,7.125 12.75,5.625 12.75,5.625C12.75,4.185 11.565,3 10.125,3ZM13.418,16.728L14.47,17.78C14.762,18.073 15.238,18.073 15.53,17.78C15.823,17.488 15.823,17.012 15.53,16.72L14.478,15.668C14.808,15.147 15,14.532 15,13.875C15,12.024 13.476,10.5 11.625,10.5C9.774,10.5 8.25,12.024 8.25,13.875C8.25,15.726 9.774,17.25 11.625,17.25C12.282,17.25 12.897,17.058 13.418,16.728ZM13.5,13.875C13.5,14.904 12.654,15.75 11.625,15.75C10.596,15.75 9.75,14.904 9.75,13.875C9.75,12.846 10.596,12 11.625,12C12.654,12 13.5,12.846 13.5,13.875ZM13.755,3.677C14.071,4.259 14.25,4.923 14.25,5.625L14.25,7.125C14.25,7.331 14.419,7.5 14.625,7.5C14.625,7.5 16.125,7.5 16.125,7.5C16.827,7.5 17.491,7.679 18.073,7.995C17.235,6.069 15.681,4.515 13.755,3.677Z"/>
</svg>
