<?xml version="1.0" encoding="UTF-8" standalone="no"?>
<!DOCTYPE svg PUBLIC "-//W3C//DTD SVG 1.1//EN" "http://www.w3.org/Graphics/SVG/1.1/DTD/svg11.dtd">
<svg width="100%" height="100%" viewBox="0 0 24 24" version="1.1" xmlns="http://www.w3.org/2000/svg" xmlns:xlink="http://www.w3.org/1999/xlink" xml:space="preserve" xmlns:serif="http://www.serif.com/" style="fill-rule:evenodd;clip-rule:evenodd;stroke-linejoin:round;stroke-miterlimit:2;">
    <path d="M11.249,1.5L9.375,1.5C8.34,1.5 7.5,2.34 7.5,3.375L7.5,6.029C7.25,6.009 7,6 6.749,6C6.75,6 4.875,6 4.875,6C3.84,6 3,6.84 3,7.875L3,20.625C3,21.654 3.846,22.5 4.875,22.5L14.625,22.5C15.66,22.5 16.5,21.66 16.5,20.625L16.5,18L19.125,18C20.16,18 21,17.16 21,16.125C21,16.125 21,11.25 21,11.25C21,6.418 17.486,2.409 12.874,1.634C12.874,1.634 12.874,1.634 12.874,1.634C12.337,1.545 11.794,1.5 11.249,1.5ZM7.5,7.534C7.251,7.511 7.001,7.5 6.751,7.5L4.875,7.5C4.668,7.5 4.5,7.668 4.5,7.875C4.5,7.875 4.5,20.625 4.5,20.625C4.5,20.831 4.669,21 4.875,21C4.875,21 14.625,21 14.625,21C14.832,21 15,20.832 15,20.625L15,18L9.375,18C8.346,18 7.5,17.154 7.5,16.125L7.5,7.534ZM19.125,16.5C19.332,16.5 19.5,16.332 19.5,16.125L19.5,11.625C19.5,10.185 18.315,9 16.875,9L15.375,9C14.346,9 13.5,8.154 13.5,7.125L13.5,5.625C13.5,4.185 12.315,3 10.875,3L9.375,3C9.168,3 9,3.168 9,3.375L9,16.125C9,16.331 9.169,16.5 9.375,16.5L19.125,16.5ZM14.498,3.664C14.818,4.249 15,4.917 15,5.625C15,5.625 15,7.125 15,7.125C15,7.331 15.169,7.5 15.375,7.5C15.375,7.5 16.875,7.5 16.875,7.5C17.583,7.5 18.251,7.682 18.836,8.002C18.003,6.057 16.443,4.497 14.498,3.664Z"/>
</svg>
