<?xml version="1.0" encoding="UTF-8" standalone="no"?>
<!DOCTYPE svg PUBLIC "-//W3C//DTD SVG 1.1//EN" "http://www.w3.org/Graphics/SVG/1.1/DTD/svg11.dtd">
<svg width="100%" height="100%" viewBox="0 0 24 24" version="1.1" xmlns="http://www.w3.org/2000/svg" xmlns:xlink="http://www.w3.org/1999/xlink" xml:space="preserve" xmlns:serif="http://www.serif.com/" style="fill-rule:evenodd;clip-rule:evenodd;stroke-linejoin:round;stroke-miterlimit:2;">
    <path d="M10.5,1.5L5.625,1.5C4.59,1.5 3.75,2.34 3.75,3.375C3.75,3.375 3.75,20.625 3.75,20.625C3.75,21.66 4.59,22.5 5.625,22.5L18.375,22.5C19.41,22.5 20.25,21.66 20.25,20.625L20.25,11.25C20.25,5.901 15.849,1.5 10.5,1.5ZM10.125,3L5.625,3C5.418,3 5.25,3.168 5.25,3.375L5.25,20.625C5.25,20.832 5.418,21 5.625,21C5.625,21 18.375,21 18.375,21C18.582,21 18.75,20.832 18.75,20.625L18.75,11.625C18.75,10.185 17.565,9 16.125,9L14.625,9C13.596,9 12.75,8.154 12.75,7.125C12.75,7.125 12.75,5.625 12.75,5.625C12.75,4.185 11.565,3 10.125,3ZM8.25,16.5L8.25,17.25C8.25,17.664 8.586,18 9,18C9.414,18 9.75,17.664 9.75,17.25L9.75,16.5C9.75,16.086 9.414,15.75 9,15.75C8.586,15.75 8.25,16.086 8.25,16.5ZM11.25,14.25L11.25,17.25C11.25,17.664 11.586,18 12,18C12.414,18 12.75,17.664 12.75,17.25L12.75,14.25C12.75,13.836 12.414,13.5 12,13.5C11.586,13.5 11.25,13.836 11.25,14.25ZM14.25,12L14.25,17.25C14.25,17.664 14.586,18 15,18C15.414,18 15.75,17.664 15.75,17.25L15.75,12C15.75,11.586 15.414,11.25 15,11.25C14.586,11.25 14.25,11.586 14.25,12ZM13.755,3.677C14.071,4.259 14.25,4.923 14.25,5.625L14.25,7.125C14.25,7.331 14.419,7.5 14.625,7.5C14.625,7.5 16.125,7.5 16.125,7.5C16.827,7.5 17.491,7.679 18.073,7.995C17.235,6.069 15.681,4.515 13.755,3.677Z"/>
</svg>
