<?xml version="1.0" encoding="UTF-8" standalone="no"?>
<!DOCTYPE svg PUBLIC "-//W3C//DTD SVG 1.1//EN" "http://www.w3.org/Graphics/SVG/1.1/DTD/svg11.dtd">
<svg width="100%" height="100%" viewBox="0 0 24 24" version="1.1" xmlns="http://www.w3.org/2000/svg" xmlns:xlink="http://www.w3.org/1999/xlink" xml:space="preserve" xmlns:serif="http://www.serif.com/" style="fill-rule:evenodd;clip-rule:evenodd;stroke-linejoin:round;stroke-miterlimit:2;">
    <path d="M10.5,1.5L5.625,1.5C4.59,1.5 3.75,2.34 3.75,3.375C3.75,3.375 3.75,20.625 3.75,20.625C3.75,21.66 4.59,22.5 5.625,22.5L18.375,22.5C19.41,22.5 20.25,21.66 20.25,20.625L20.25,11.25C20.25,5.901 15.849,1.5 10.5,1.5ZM10.125,3L5.625,3C5.418,3 5.25,3.168 5.25,3.375L5.25,20.625C5.25,20.832 5.418,21 5.625,21C5.625,21 18.375,21 18.375,21C18.582,21 18.75,20.832 18.75,20.625L18.75,11.625C18.75,10.185 17.565,9 16.125,9L14.625,9C13.596,9 12.75,8.154 12.75,7.125C12.75,7.125 12.75,5.625 12.75,5.625C12.75,4.185 11.565,3 10.125,3ZM11.25,15.439L9.53,13.72C9.238,13.427 8.762,13.427 8.47,13.72C8.177,14.012 8.177,14.488 8.47,14.78L11.47,17.78C11.513,17.823 11.56,17.86 11.61,17.89L11.619,17.896L11.651,17.914L11.684,17.93L11.698,17.936L11.708,17.941L11.718,17.945L11.728,17.949L11.742,17.954L11.752,17.958L11.76,17.96L11.777,17.966L11.813,17.976L11.823,17.979C11.88,17.993 11.939,18 12,18C12.061,18 12.12,17.993 12.177,17.979L12.187,17.976L12.223,17.966L12.258,17.954L12.282,17.945L12.292,17.941L12.316,17.93L12.325,17.926L12.349,17.914L12.381,17.896L12.413,17.876L12.443,17.855L12.473,17.832L12.502,17.807L12.53,17.78C12.53,17.78 15.53,14.78 15.53,14.78C15.823,14.488 15.823,14.012 15.53,13.72C15.238,13.427 14.762,13.427 14.47,13.72L12.75,15.439L12.75,11.25C12.75,10.836 12.414,10.5 12,10.5C11.586,10.5 11.25,10.836 11.25,11.25L11.25,15.439ZM13.755,3.677C14.071,4.259 14.25,4.923 14.25,5.625L14.25,7.125C14.25,7.331 14.419,7.5 14.625,7.5C14.625,7.5 16.125,7.5 16.125,7.5C16.827,7.5 17.491,7.679 18.073,7.995C17.235,6.069 15.681,4.515 13.755,3.677Z"/>
</svg>
