<?xml version="1.0" encoding="UTF-8" standalone="no"?>
<!DOCTYPE svg PUBLIC "-//W3C//DTD SVG 1.1//EN" "http://www.w3.org/Graphics/SVG/1.1/DTD/svg11.dtd">
<svg width="100%" height="100%" viewBox="0 0 24 24" version="1.1" xmlns="http://www.w3.org/2000/svg" xmlns:xlink="http://www.w3.org/1999/xlink" xml:space="preserve" xmlns:serif="http://www.serif.com/" style="fill-rule:evenodd;clip-rule:evenodd;stroke-linejoin:round;stroke-miterlimit:2;">
    <path d="M10.5,1.5L5.625,1.5C4.59,1.5 3.75,2.34 3.75,3.375C3.75,3.375 3.75,20.625 3.75,20.625C3.75,21.66 4.59,22.5 5.625,22.5L18.375,22.5C19.41,22.5 20.25,21.66 20.25,20.625L20.25,11.25C20.25,5.901 15.849,1.5 10.5,1.5ZM10.125,3L5.625,3C5.418,3 5.25,3.168 5.25,3.375L5.25,20.625C5.25,20.832 5.418,21 5.625,21C5.625,21 18.375,21 18.375,21C18.582,21 18.75,20.832 18.75,20.625L18.75,11.625C18.75,10.185 17.565,9 16.125,9L14.625,9C13.596,9 12.75,8.154 12.75,7.125C12.75,7.125 12.75,5.625 12.75,5.625C12.75,4.185 11.565,3 10.125,3ZM11.823,10.521L11.813,10.524L11.777,10.534L11.742,10.546L11.728,10.551L11.718,10.555L11.708,10.559L11.698,10.564L11.684,10.57L11.675,10.574L11.651,10.586L11.619,10.604L11.587,10.624L11.557,10.645L11.527,10.668L11.498,10.693L11.47,10.72C11.47,10.72 8.47,13.72 8.47,13.72C8.177,14.012 8.177,14.488 8.47,14.78C8.762,15.073 9.238,15.073 9.53,14.78L11.25,13.061L11.25,17.25C11.25,17.664 11.586,18 12,18C12.414,18 12.75,17.664 12.75,17.25L12.75,13.061L14.47,14.78C14.762,15.073 15.238,15.073 15.53,14.78C15.823,14.488 15.823,14.012 15.53,13.72L12.53,10.72L12.502,10.693L12.473,10.668C12.447,10.647 12.419,10.627 12.39,10.61L12.381,10.604L12.349,10.586L12.316,10.57L12.302,10.564L12.292,10.559L12.282,10.555L12.272,10.551L12.258,10.546L12.248,10.542L12.24,10.54L12.223,10.534L12.187,10.524L12.177,10.521C12.12,10.507 12.061,10.5 12,10.5C11.939,10.5 11.88,10.507 11.823,10.521ZM13.755,3.677C14.071,4.259 14.25,4.923 14.25,5.625L14.25,7.125C14.25,7.331 14.419,7.5 14.625,7.5C14.625,7.5 16.125,7.5 16.125,7.5C16.827,7.5 17.491,7.679 18.073,7.995C17.235,6.069 15.681,4.515 13.755,3.677Z"/>
</svg>
