<?xml version="1.0" encoding="UTF-8" standalone="no"?>
<!DOCTYPE svg PUBLIC "-//W3C//DTD SVG 1.1//EN" "http://www.w3.org/Graphics/SVG/1.1/DTD/svg11.dtd">
<svg width="100%" height="100%" viewBox="0 0 24 24" version="1.1" xmlns="http://www.w3.org/2000/svg" xmlns:xlink="http://www.w3.org/1999/xlink" xml:space="preserve" xmlns:serif="http://www.serif.com/" style="fill-rule:evenodd;clip-rule:evenodd;stroke-linejoin:round;stroke-miterlimit:2;">
    <path d="M7.5,12C7.5,11.177 6.823,10.5 6,10.5C5.177,10.5 4.5,11.177 4.5,12C4.5,12.823 5.177,13.5 6,13.5C6.823,13.5 7.5,12.823 7.5,12ZM13.5,12C13.5,11.177 12.823,10.5 12,10.5C11.177,10.5 10.5,11.177 10.5,12C10.5,12.823 11.177,13.5 12,13.5C12.823,13.5 13.5,12.823 13.5,12ZM19.5,12C19.5,11.177 18.823,10.5 18,10.5C17.177,10.5 16.5,11.177 16.5,12C16.5,12.823 17.177,13.5 18,13.5C18.823,13.5 19.5,12.823 19.5,12Z"/>
</svg>
