<?xml version="1.0" encoding="UTF-8" standalone="no"?>
<!DOCTYPE svg PUBLIC "-//W3C//DTD SVG 1.1//EN" "http://www.w3.org/Graphics/SVG/1.1/DTD/svg11.dtd">
<svg width="100%" height="100%" viewBox="0 0 24 24" version="1.1" xmlns="http://www.w3.org/2000/svg" xmlns:xlink="http://www.w3.org/1999/xlink" xml:space="preserve" xmlns:serif="http://www.serif.com/" style="fill-rule:evenodd;clip-rule:evenodd;stroke-linejoin:round;stroke-miterlimit:2;">
    <path d="M21.75,12C21.75,6.651 17.349,2.25 12,2.25C6.651,2.25 2.25,6.651 2.25,12C2.25,17.349 6.651,21.75 12,21.75C17.349,21.75 21.75,17.349 21.75,12ZM20.25,12C20.25,16.526 16.526,20.25 12,20.25C7.474,20.25 3.75,16.526 3.75,12C3.75,7.474 7.474,3.75 12,3.75C16.526,3.75 20.25,7.474 20.25,12ZM9.375,12C9.375,11.383 8.867,10.875 8.25,10.875C7.633,10.875 7.125,11.383 7.125,12C7.125,12.617 7.633,13.125 8.25,13.125C8.867,13.125 9.375,12.617 9.375,12ZM13.125,12C13.125,11.383 12.617,10.875 12,10.875C11.383,10.875 10.875,11.383 10.875,12C10.875,12.617 11.383,13.125 12,13.125C12.617,13.125 13.125,12.617 13.125,12ZM16.875,12C16.875,11.383 16.367,10.875 15.75,10.875C15.133,10.875 14.625,11.383 14.625,12C14.625,12.617 15.133,13.125 15.75,13.125C16.367,13.125 16.875,12.617 16.875,12Z"/>
</svg>
