<?xml version="1.0" encoding="UTF-8" standalone="no"?>
<!DOCTYPE svg PUBLIC "-//W3C//DTD SVG 1.1//EN" "http://www.w3.org/Graphics/SVG/1.1/DTD/svg11.dtd">
<svg width="100%" height="100%" viewBox="0 0 24 24" version="1.1" xmlns="http://www.w3.org/2000/svg" xmlns:xlink="http://www.w3.org/1999/xlink" xml:space="preserve" xmlns:serif="http://www.serif.com/" style="fill-rule:evenodd;clip-rule:evenodd;stroke-linejoin:round;stroke-miterlimit:2;">
    <path d="M1.5,8.844L1.5,19.5C1.5,21.146 2.854,22.5 4.5,22.5L19.5,22.5C21.146,22.5 22.5,21.146 22.5,19.5L22.5,9.906C22.5,9.906 22.5,9 22.5,9L22.5,8.844C22.5,7.742 21.892,6.726 20.923,6.204L13.423,2.164C12.535,1.686 11.465,1.686 10.577,2.164L3.077,6.204C2.108,6.726 1.5,7.742 1.5,8.844ZM20.923,12.547L15.671,15.375L19.106,17.225C19.47,17.421 19.607,17.876 19.41,18.241C19.214,18.605 18.759,18.742 18.394,18.545L13.75,16.044L13.74,16.039L13.715,16.025L12.711,15.485C12.268,15.246 11.732,15.246 11.289,15.485L10.267,16.035L5.606,18.545C5.241,18.742 4.786,18.605 4.59,18.241C4.393,17.876 4.53,17.421 4.894,17.225L8.329,15.375L3.077,12.547L3,12.504L3,19.5C3,20.323 3.677,21 4.5,21C4.5,21 19.5,21 19.5,21C20.323,21 21,20.323 21,19.5L21,12.504L20.923,12.547ZM21,9.906L21,8.844C21,8.294 20.696,7.785 20.211,7.524L12.711,3.484C12.268,3.245 11.732,3.245 11.289,3.484L3.789,7.524C3.304,7.785 3,8.294 3,8.844L3,9.906C3,10.457 3.304,10.965 3.789,11.227L9.911,14.523L10.577,14.165C11.465,13.687 12.535,13.687 13.422,14.164L14.089,14.523L20.211,11.227C20.696,10.965 21,10.457 21,9.906Z"/>
</svg>
