<?xml version="1.0" encoding="UTF-8" standalone="no"?>
<!DOCTYPE svg PUBLIC "-//W3C//DTD SVG 1.1//EN" "http://www.w3.org/Graphics/SVG/1.1/DTD/svg11.dtd">
<svg width="100%" height="100%" viewBox="0 0 24 24" version="1.1" xmlns="http://www.w3.org/2000/svg" xmlns:xlink="http://www.w3.org/1999/xlink" xml:space="preserve" xmlns:serif="http://www.serif.com/" style="fill-rule:evenodd;clip-rule:evenodd;stroke-linejoin:round;stroke-miterlimit:2;">
    <path d="M2.047,15.751C0.893,17.751 2.337,20.25 4.645,20.25L19.355,20.25C21.662,20.25 23.106,17.751 21.953,15.751L14.599,3.003C13.444,1.003 10.556,1.003 9.401,3.003L2.047,15.751ZM3.347,16.501L10.701,3.753C11.278,2.753 12.722,2.753 13.299,3.753C13.299,3.753 20.653,16.501 20.653,16.501C21.23,17.501 20.508,18.75 19.355,18.75C19.355,18.75 4.645,18.75 4.645,18.75C3.491,18.75 2.769,17.501 3.347,16.501ZM11.25,9L11.25,12.75C11.25,13.164 11.586,13.5 12,13.5C12.414,13.5 12.75,13.164 12.75,12.75L12.75,9C12.75,8.586 12.414,8.25 12,8.25C11.586,8.25 11.25,8.586 11.25,9Z"/>
    <g transform="matrix(1,0,0,1,0.00779878,-0.0202506)">
        <circle cx="11.986" cy="15.788" r="0.762"/>
    </g>
</svg>
