<?xml version="1.0" encoding="UTF-8" standalone="no"?>
<!DOCTYPE svg PUBLIC "-//W3C//DTD SVG 1.1//EN" "http://www.w3.org/Graphics/SVG/1.1/DTD/svg11.dtd">
<svg width="100%" height="100%" viewBox="0 0 24 24" version="1.1" xmlns="http://www.w3.org/2000/svg" xmlns:xlink="http://www.w3.org/1999/xlink" xml:space="preserve" xmlns:serif="http://www.serif.com/" style="fill-rule:evenodd;clip-rule:evenodd;stroke-linejoin:round;stroke-miterlimit:2;">
    <path d="M11.689,9L3.75,16.94C3.269,17.421 3,18.071 3,18.75C3,19.031 2.889,19.301 2.69,19.5C2.69,19.5 1.72,20.47 1.72,20.47C1.427,20.763 1.427,21.237 1.72,21.53L2.47,22.28C2.763,22.573 3.237,22.573 3.53,22.28L4.5,21.31C4.699,21.111 4.969,21 5.25,21C5.929,21 6.579,20.731 7.06,20.25L15,12.311L15.97,13.28C16.263,13.573 16.737,13.573 17.03,13.28L17.78,12.53C17.921,12.39 18,12.199 18,12L18,9.333L19.72,8.872C21.354,8.434 22.498,6.942 22.498,5.251C22.498,3.193 20.806,1.501 18.748,1.501C17.057,1.501 15.565,2.645 15.127,4.279L14.665,6C14.665,6 12,6 12,6C11.801,6 11.61,6.079 11.47,6.22L10.72,6.97C10.427,7.263 10.427,7.737 10.72,8.03L11.689,9ZM12.75,10.061L4.81,18C4.611,18.199 4.5,18.469 4.5,18.75C4.5,19.068 4.441,19.38 4.329,19.671C4.62,19.559 4.932,19.5 5.25,19.5C5.531,19.5 5.801,19.389 6,19.19L13.939,11.25L12.75,10.061ZM15.53,10.72C15.53,10.72 16.5,11.689 16.5,11.689L16.5,8.758C16.5,8.419 16.728,8.121 17.056,8.034C17.056,8.034 19.332,7.424 19.332,7.424C20.312,7.161 20.998,6.265 20.998,5.251C20.998,4.016 19.983,3.001 18.748,3.001C17.734,3.001 16.838,3.687 16.575,4.667L15.965,6.944C15.878,7.272 15.58,7.5 15.241,7.5L12.311,7.5L12.311,7.5L15.53,10.72Z"/>
</svg>
