<?xml version="1.0" encoding="UTF-8" standalone="no"?>
<!DOCTYPE svg PUBLIC "-//W3C//DTD SVG 1.1//EN" "http://www.w3.org/Graphics/SVG/1.1/DTD/svg11.dtd">
<svg width="100%" height="100%" viewBox="0 0 24 24" version="1.1" xmlns="http://www.w3.org/2000/svg" xmlns:xlink="http://www.w3.org/1999/xlink" xml:space="preserve" xmlns:serif="http://www.serif.com/" style="fill-rule:evenodd;clip-rule:evenodd;stroke-linejoin:round;stroke-miterlimit:2;">
    <path d="M2.47,3.53L20.47,21.53C20.762,21.823 21.238,21.823 21.53,21.53C21.823,21.238 21.823,20.762 21.53,20.47L18.926,17.865C20.76,16.431 22.113,14.458 22.784,12.213C22.825,12.073 22.825,11.924 22.784,11.784C21.4,7.138 17.096,3.75 12.001,3.75C10.007,3.747 8.053,4.276 6.338,5.277L3.53,2.47C3.238,2.177 2.762,2.177 2.47,2.47C2.177,2.762 2.177,3.238 2.47,3.53ZM3.408,7.738C2.405,8.921 1.659,10.3 1.215,11.786C1.174,11.925 1.174,12.074 1.215,12.214C2.599,16.862 6.904,20.25 12,20.25C13.064,20.25 14.092,20.102 15.067,19.827C15.465,19.714 15.697,19.3 15.585,18.901C15.472,18.503 15.058,18.271 14.659,18.383C13.814,18.622 12.922,18.75 12,18.75C7.663,18.75 3.986,15.918 2.72,12.001C3.11,10.794 3.732,9.676 4.552,8.708C4.82,8.392 4.781,7.918 4.465,7.651C4.149,7.383 3.675,7.422 3.408,7.738ZM17.856,16.796C19.461,15.589 20.658,13.914 21.279,11.997C20.013,8.082 16.337,5.25 12,5.25C12,5.25 11.999,5.25 11.999,5.25C10.405,5.248 8.84,5.638 7.441,6.38L9.933,8.872C10.541,8.47 11.26,8.25 12,8.25C14.058,8.25 15.751,9.943 15.751,12C15.751,12.741 15.531,13.46 15.129,14.068L17.856,16.796ZM14.031,12.97C14.174,12.67 14.251,12.339 14.251,12C14.251,10.766 13.235,9.75 12,9.75C11.662,9.75 11.331,9.827 11.031,9.97L14.031,12.97Z"/>
</svg>
