<?xml version="1.0" encoding="UTF-8" standalone="no"?>
<!DOCTYPE svg PUBLIC "-//W3C//DTD SVG 1.1//EN" "http://www.w3.org/Graphics/SVG/1.1/DTD/svg11.dtd">
<svg width="100%" height="100%" viewBox="0 0 24 24" version="1.1" xmlns="http://www.w3.org/2000/svg" xmlns:xlink="http://www.w3.org/1999/xlink" xml:space="preserve" xmlns:serif="http://www.serif.com/" style="fill-rule:evenodd;clip-rule:evenodd;stroke-linejoin:round;stroke-miterlimit:2;">
    <path d="M1.339,12.599C2.84,17.047 7.046,20.25 12,20.25C16.971,20.25 21.188,17.026 22.674,12.556C22.796,12.192 22.796,11.8 22.674,11.438C21.183,6.971 16.968,3.75 12,3.75C7.029,3.75 2.81,6.975 1.324,11.446C1.204,11.807 1.204,12.198 1.324,12.559C1.329,12.573 1.334,12.586 1.339,12.599ZM2.749,12.085L2.748,12.085C2.73,12.032 2.73,11.973 2.748,11.92C2.748,11.92 2.748,11.92 2.748,11.92C4.036,8.045 7.692,5.25 12,5.25C16.307,5.25 19.961,8.042 21.251,11.915C21.252,11.916 21.252,11.917 21.253,11.918C21.27,11.97 21.27,12.026 21.252,12.078C21.252,12.079 21.252,12.08 21.251,12.081C19.964,15.955 16.308,18.75 12,18.75C7.693,18.75 4.039,15.958 2.749,12.085Z"/>
    <path d="M15.75,12C15.75,9.943 14.057,8.25 12,8.25C9.943,8.25 8.25,9.943 8.25,12C8.25,14.057 9.943,15.75 12,15.75C14.057,15.75 15.75,14.057 15.75,12ZM14.25,12C14.25,13.234 13.234,14.25 12,14.25C10.766,14.25 9.75,13.234 9.75,12C9.75,10.766 10.766,9.75 12,9.75C13.234,9.75 14.25,10.766 14.25,12Z"/>
</svg>
