<?xml version="1.0" encoding="UTF-8" standalone="no"?>
<!DOCTYPE svg PUBLIC "-//W3C//DTD SVG 1.1//EN" "http://www.w3.org/Graphics/SVG/1.1/DTD/svg11.dtd">
<svg width="100%" height="100%" viewBox="0 0 24 24" version="1.1" xmlns="http://www.w3.org/2000/svg" xmlns:xlink="http://www.w3.org/1999/xlink" xml:space="preserve" xmlns:serif="http://www.serif.com/" style="fill-rule:evenodd;clip-rule:evenodd;stroke-linejoin:round;stroke-miterlimit:2;">
    <path d="M21.75,12C21.75,6.651 17.349,2.25 12,2.25C6.651,2.25 2.25,6.651 2.25,12C2.25,17.349 6.651,21.75 12,21.75C17.349,21.75 21.75,17.349 21.75,12ZM20.25,12C20.25,16.526 16.526,20.25 12,20.25C7.474,20.25 3.75,16.526 3.75,12C3.75,7.474 7.474,3.75 12,3.75C16.526,3.75 20.25,7.474 20.25,12ZM14.652,14.652C13.949,15.355 12.994,15.75 12,15.75C11.006,15.75 10.051,15.355 9.348,14.652C9.056,14.359 8.58,14.359 8.288,14.652C7.995,14.944 7.995,15.42 8.288,15.712C9.272,16.697 10.608,17.25 12,17.25C13.392,17.25 14.728,16.697 15.712,15.712C16.005,15.42 16.005,14.944 15.712,14.652C15.42,14.359 14.944,14.359 14.652,14.652ZM10.5,9.75C10.5,9.227 10.304,8.788 10.087,8.563C9.878,8.346 9.627,8.25 9.375,8.25C9.123,8.25 8.872,8.346 8.663,8.563C8.446,8.788 8.25,9.227 8.25,9.75C8.25,10.273 8.446,10.712 8.663,10.937C8.872,11.154 9.123,11.25 9.375,11.25C9.627,11.25 9.878,11.154 10.087,10.937C10.304,10.712 10.5,10.273 10.5,9.75ZM15.75,9.75C15.75,9.227 15.554,8.788 15.337,8.563C15.128,8.346 14.877,8.25 14.625,8.25C14.373,8.25 14.122,8.346 13.913,8.563C13.696,8.788 13.5,9.227 13.5,9.75C13.5,10.273 13.696,10.712 13.913,10.937C14.122,11.154 14.373,11.25 14.625,11.25C14.877,11.25 15.128,11.154 15.337,10.937C15.554,10.712 15.75,10.273 15.75,9.75ZM13.895,9.728C13.882,9.726 13.875,9.733 13.875,9.75C13.875,10.378 14.51,10.485 14.611,10.498L14.61,10.497C14.485,10.479 13.883,10.361 13.883,9.75C13.883,9.737 13.887,9.73 13.895,9.728ZM8.645,9.728C8.632,9.726 8.625,9.733 8.625,9.75C8.625,10.378 9.26,10.485 9.361,10.498L9.36,10.497C9.235,10.479 8.633,10.361 8.633,9.75C8.633,9.737 8.637,9.73 8.645,9.728ZM14.619,10.497C14.524,10.379 13.982,9.709 13.895,9.728C14.003,9.745 14.518,10.381 14.61,10.497L14.619,10.498L14.619,10.497ZM9.369,10.497C9.274,10.379 8.732,9.709 8.645,9.728C8.753,9.745 9.268,10.381 9.36,10.497L9.369,10.498L9.369,10.497Z"/>
</svg>
