<?xml version="1.0" encoding="UTF-8" standalone="no"?>
<!DOCTYPE svg PUBLIC "-//W3C//DTD SVG 1.1//EN" "http://www.w3.org/Graphics/SVG/1.1/DTD/svg11.dtd">
<svg width="100%" height="100%" viewBox="0 0 24 24" version="1.1" xmlns="http://www.w3.org/2000/svg" xmlns:xlink="http://www.w3.org/1999/xlink" xml:space="preserve" xmlns:serif="http://www.serif.com/" style="fill-rule:evenodd;clip-rule:evenodd;stroke-linejoin:round;stroke-miterlimit:2;">
    <path d="M14.312,15.448C13.792,17.269 12.987,18.995 11.927,20.564C11.695,20.907 11.785,21.374 12.128,21.605C12.471,21.837 12.938,21.747 13.169,21.404C14.318,19.704 15.191,17.833 15.754,15.86C15.868,15.462 15.637,15.046 15.239,14.933C14.841,14.819 14.425,15.05 14.312,15.448ZM11.25,10.501C11.255,13.897 10.042,17.184 7.831,19.762C7.561,20.076 7.598,20.55 7.912,20.819C8.226,21.089 8.7,21.052 8.969,20.738C11.414,17.888 12.756,14.254 12.75,10.499C12.749,10.085 12.413,9.749 11.999,9.75C11.585,9.751 11.249,10.087 11.25,10.501ZM8.278,4.869C9.382,4.139 10.676,3.749 12,3.749C15.703,3.749 18.75,6.797 18.75,10.499L18.75,10.5C18.75,13.323 18.213,16.019 17.235,18.492C17.082,18.877 17.271,19.313 17.656,19.465C18.041,19.618 18.477,19.429 18.629,19.044C19.675,16.399 20.25,13.517 20.25,10.5C20.25,10.5 20.25,10.499 20.25,10.499C20.25,5.974 16.526,2.249 12,2.249C10.382,2.249 8.8,2.725 7.45,3.617C7.105,3.846 7.01,4.311 7.238,4.657C7.467,5.002 7.932,5.097 8.278,4.869ZM5.894,18.556C7.896,16.352 9.004,13.477 9,10.499C9,8.854 10.354,7.5 12,7.5C13.646,7.5 15,8.854 15,10.5C15,11.006 14.98,11.507 14.939,12.003C14.904,12.415 15.211,12.778 15.624,12.812C16.036,12.847 16.399,12.54 16.433,12.127C16.478,11.591 16.5,11.048 16.5,10.5C16.5,8.031 14.469,6 12,6C9.531,6 7.5,8.031 7.5,10.5C7.5,10.5 7.5,10.501 7.5,10.501C7.504,13.106 6.535,15.62 4.784,17.548C4.505,17.854 4.528,18.329 4.835,18.607C5.141,18.886 5.616,18.863 5.894,18.556ZM5.117,5.95C4.223,7.299 3.747,8.883 3.75,10.501C3.752,11.772 3.393,13.018 2.716,14.093C2.495,14.443 2.6,14.907 2.95,15.127C3.3,15.348 3.764,15.243 3.984,14.893C4.814,13.578 5.253,12.054 5.25,10.499C5.25,10.499 5.25,10.499 5.25,10.499C5.248,9.176 5.636,7.881 6.367,6.778C6.596,6.433 6.501,5.967 6.156,5.739C5.811,5.51 5.345,5.605 5.117,5.95Z"/>
</svg>
