<?xml version="1.0" encoding="UTF-8" standalone="no"?>
<!DOCTYPE svg PUBLIC "-//W3C//DTD SVG 1.1//EN" "http://www.w3.org/Graphics/SVG/1.1/DTD/svg11.dtd">
<svg width="100%" height="100%" viewBox="0 0 24 24" version="1.1" xmlns="http://www.w3.org/2000/svg" xmlns:xlink="http://www.w3.org/1999/xlink" xml:space="preserve" xmlns:serif="http://www.serif.com/" style="fill-rule:evenodd;clip-rule:evenodd;stroke-linejoin:round;stroke-miterlimit:2;">
    <path d="M15.695,4.542L15.688,4.538C14.612,4.016 13.677,3.243 12.962,2.285C12.841,2.122 12.658,2.015 12.456,1.989C12.254,1.963 12.05,2.021 11.892,2.148C9.964,3.695 8.708,5.909 8.352,8.325C7.698,7.851 7.122,7.273 6.648,6.611C6.518,6.43 6.314,6.316 6.091,6.3C5.868,6.284 5.65,6.368 5.496,6.53C3.895,8.204 3,10.433 3,12.75C3,17.687 7.063,21.75 12,21.75C12,21.75 12,21.75 12,21.75C16.937,21.747 20.997,17.684 20.997,12.748C20.997,9.214 18.916,5.993 15.695,4.542ZM15.359,5.963L15.362,5.964C15.257,5.964 15.152,5.942 15.056,5.899C17.753,7.104 19.497,9.794 19.497,12.748C19.497,16.862 16.114,20.248 12,20.25C7.886,20.25 4.5,16.864 4.5,12.75C4.5,11.109 5.039,9.521 6.019,8.225C6.763,9.062 7.657,9.755 8.658,10.268C8.889,10.386 9.164,10.376 9.386,10.243C9.608,10.109 9.746,9.871 9.75,9.612C9.784,7.41 10.7,5.322 12.273,3.808C13.048,4.672 13.985,5.379 15.034,5.888C15.135,5.937 15.247,5.963 15.359,5.963ZM15.938,4.734C16.082,4.906 16.145,5.139 16.096,5.37C16.022,5.717 15.716,5.964 15.362,5.964L15.363,5.963C15.712,5.962 16.014,5.721 16.092,5.381C16.146,5.147 16.084,4.909 15.938,4.734ZM15.919,4.712L15.935,4.731L15.925,4.719L15.919,4.712ZM15.899,4.69L15.912,4.704L15.904,4.695L15.899,4.69ZM15.878,4.67L15.888,4.679L15.878,4.67Z"/>
    <path d="M11.999,18.75L12,18.75C14.468,18.749 16.499,16.718 16.499,14.25C16.499,12.005 14.819,10.087 12.594,9.79C12.377,9.761 12.158,9.828 11.995,9.974C11.051,10.819 10.369,11.908 10.018,13.114C9.615,12.95 9.234,12.736 8.883,12.476C8.689,12.333 8.439,12.291 8.21,12.364C7.98,12.437 7.8,12.616 7.725,12.845C7.575,13.298 7.499,13.773 7.499,14.25C7.499,16.719 9.531,18.75 11.999,18.75ZM9,14.299C9.443,14.519 9.909,14.69 10.392,14.808C10.596,14.857 10.812,14.819 10.986,14.703C11.161,14.586 11.279,14.402 11.311,14.194C11.478,13.116 11.978,12.12 12.734,11.342C14.046,11.675 14.999,12.87 14.999,14.25C14.999,15.895 13.645,17.249 12,17.25L11.999,17.25C10.37,17.25 9.026,15.922 9,14.299Z"/>
</svg>
