<?xml version="1.0" encoding="UTF-8" standalone="no"?>
<!DOCTYPE svg PUBLIC "-//W3C//DTD SVG 1.1//EN" "http://www.w3.org/Graphics/SVG/1.1/DTD/svg11.dtd">
<svg width="100%" height="100%" viewBox="0 0 24 24" version="1.1" xmlns="http://www.w3.org/2000/svg" xmlns:xlink="http://www.w3.org/1999/xlink" xml:space="preserve" xmlns:serif="http://www.serif.com/" style="fill-rule:evenodd;clip-rule:evenodd;stroke-linejoin:round;stroke-miterlimit:2;">
    <path d="M2.25,3L2.25,21C2.25,21.414 2.586,21.75 3,21.75C3.414,21.75 3.75,21.414 3.75,21L3.75,15.585L5.952,15.035C7.862,14.557 9.882,14.779 11.643,15.66C11.643,15.66 11.646,15.661 11.646,15.661C11.646,15.661 11.855,15.766 11.751,15.714C13.79,16.733 16.124,17.006 18.344,16.483C18.344,16.483 21.458,15.751 21.458,15.751C21.826,15.664 22.073,15.316 22.032,14.94C21.656,11.504 21.654,8.038 22.027,4.603C22.053,4.361 21.96,4.121 21.778,3.96C21.595,3.799 21.346,3.736 21.109,3.792L17.999,4.524C16.121,4.966 14.147,4.735 12.421,3.872C12.432,3.878 12.443,3.883 12.453,3.889L12.419,3.871C12.405,3.864 12.332,3.828 12.316,3.82L12.313,3.818L12.313,3.818C10.232,2.777 7.846,2.515 5.588,3.079L3.75,3.539L3.75,3C3.75,2.586 3.414,2.25 3,2.25C2.586,2.25 2.25,2.586 2.25,3ZM12.453,14.389C12.443,14.383 12.432,14.378 12.421,14.372C14.147,15.235 16.122,15.465 18,15.023L20.473,14.442C20.188,11.466 20.175,8.47 20.433,5.492L18.343,5.984C16.123,6.506 13.79,6.233 11.751,5.214C11.855,5.266 11.646,5.161 11.646,5.161L11.643,5.16C9.882,4.279 7.862,4.057 5.952,4.535L3.75,5.085L3.75,14.039L5.588,13.579C7.846,13.015 10.232,13.277 12.313,14.318L12.313,14.318L12.316,14.32C12.332,14.328 12.405,14.364 12.419,14.371L12.453,14.389ZM12.471,14.4L12.48,14.405L12.471,14.4ZM12.471,3.9L12.48,3.905L12.471,3.9Z"/>
</svg>
