<?xml version="1.0" encoding="UTF-8" standalone="no"?>
<!DOCTYPE svg PUBLIC "-//W3C//DTD SVG 1.1//EN" "http://www.w3.org/Graphics/SVG/1.1/DTD/svg11.dtd">
<svg width="100%" height="100%" viewBox="0 0 24 24" version="1.1" xmlns="http://www.w3.org/2000/svg" xmlns:xlink="http://www.w3.org/1999/xlink" xml:space="preserve" xmlns:serif="http://www.serif.com/" style="fill-rule:evenodd;clip-rule:evenodd;stroke-linejoin:round;stroke-miterlimit:2;">
    <path d="M13.417,6.201L13.419,6.194L13.59,5.78L11.47,3.66C11.049,3.238 10.476,3 9.879,3L4.5,3C2.854,3 1.5,4.354 1.5,6C1.5,6 1.5,18 1.5,18C1.5,19.646 2.854,21 4.5,21C4.5,21 19.5,21 19.5,21C21.146,21 22.5,19.646 22.5,18L22.5,9C22.5,7.354 21.146,6 19.5,6C19.5,6 14.122,6 14.122,6C13.923,6 13.732,5.921 13.592,5.78L13.417,6.201ZM12.559,6.868C12.978,7.273 13.538,7.499 14.12,7.5L19.5,7.5C20.323,7.5 21,8.177 21,9C21,9 21,18 21,18C21,18.823 20.323,19.5 19.5,19.5L4.5,19.5C3.677,19.5 3,18.823 3,18L3,6C3,5.177 3.677,4.5 4.5,4.5C4.5,4.5 9.879,4.5 9.879,4.5C10.078,4.5 10.269,4.579 10.409,4.72L12.53,6.84C12.539,6.85 12.549,6.859 12.559,6.868ZM15,12.75L9,12.75C8.586,12.75 8.25,13.086 8.25,13.5C8.25,13.914 8.586,14.25 9,14.25L15,14.25C15.414,14.25 15.75,13.914 15.75,13.5C15.75,13.086 15.414,12.75 15,12.75Z"/>
</svg>
