<?xml version="1.0" encoding="UTF-8" standalone="no"?>
<!DOCTYPE svg PUBLIC "-//W3C//DTD SVG 1.1//EN" "http://www.w3.org/Graphics/SVG/1.1/DTD/svg11.dtd">
<svg width="100%" height="100%" viewBox="0 0 24 24" version="1.1" xmlns="http://www.w3.org/2000/svg" xmlns:xlink="http://www.w3.org/1999/xlink" xml:space="preserve" xmlns:serif="http://www.serif.com/" style="fill-rule:evenodd;clip-rule:evenodd;stroke-linejoin:round;stroke-miterlimit:2;">
    <path d="M13.063,7.053L13.59,5.78L11.47,3.66C11.049,3.238 10.476,3 9.879,3L4.5,3C2.854,3 1.5,4.354 1.5,6C1.5,6 1.5,18 1.5,18C1.5,19.646 2.854,21 4.5,21C4.5,21 19.5,21 19.5,21C21.146,21 22.5,19.646 22.5,18L22.5,9C22.5,7.354 21.146,6 19.5,6C19.5,6 14.122,6 14.122,6C13.923,6 13.732,5.921 13.592,5.78L13.061,7.06L13.063,7.053ZM12.559,6.868C12.978,7.273 13.538,7.499 14.12,7.5L19.5,7.5C20.323,7.5 21,8.177 21,9C21,9 21,18 21,18C21,18.823 20.323,19.5 19.5,19.5L4.5,19.5C3.677,19.5 3,18.823 3,18L3,6C3,5.177 3.677,4.5 4.5,4.5C4.5,4.5 9.879,4.5 9.879,4.5C10.078,4.5 10.269,4.579 10.409,4.72L12.53,6.84C12.539,6.85 12.549,6.859 12.559,6.868ZM11.25,14.689L9.53,12.97C9.238,12.677 8.762,12.677 8.47,12.97C8.177,13.262 8.177,13.738 8.47,14.03L11.47,17.03L11.498,17.057L11.527,17.082L11.557,17.105C11.574,17.118 11.592,17.129 11.61,17.14L11.619,17.146L11.651,17.164L11.684,17.18L11.698,17.186L11.708,17.191L11.718,17.195L11.728,17.199L11.742,17.204L11.752,17.208L11.76,17.21L11.777,17.216L11.813,17.226L11.823,17.229C11.88,17.243 11.939,17.25 12,17.25C12.061,17.25 12.12,17.243 12.177,17.229L12.187,17.226L12.223,17.216L12.258,17.204L12.272,17.199L12.282,17.195L12.292,17.191L12.302,17.186L12.316,17.18L12.325,17.176L12.334,17.172L12.349,17.164L12.381,17.146L12.413,17.126L12.443,17.105L12.473,17.082L12.502,17.057L12.53,17.03C12.53,17.03 15.53,14.03 15.53,14.03C15.823,13.738 15.823,13.262 15.53,12.97C15.238,12.677 14.762,12.677 14.47,12.97L12.75,14.689L12.75,10.5C12.75,10.086 12.414,9.75 12,9.75C11.586,9.75 11.25,10.086 11.25,10.5L11.25,14.689Z"/>
</svg>
