<?xml version="1.0" encoding="UTF-8" standalone="no"?>
<!DOCTYPE svg PUBLIC "-//W3C//DTD SVG 1.1//EN" "http://www.w3.org/Graphics/SVG/1.1/DTD/svg11.dtd">
<svg width="100%" height="100%" viewBox="0 0 24 24" version="1.1" xmlns="http://www.w3.org/2000/svg" xmlns:xlink="http://www.w3.org/1999/xlink" xml:space="preserve" xmlns:serif="http://www.serif.com/" style="fill-rule:evenodd;clip-rule:evenodd;stroke-linejoin:round;stroke-miterlimit:2;">
    <path d="M3.001,9.207C1.738,9.704 0.925,11.03 1.125,12.424C1.125,12.424 1.982,18.424 1.982,18.424C2.192,19.895 3.465,21 4.951,21L19.05,21C20.536,21 21.809,19.895 22.019,18.424C22.019,18.424 22.876,12.424 22.876,12.424C23.076,11.03 22.263,9.704 21,9.207L21,9C21,7.354 19.646,6 18,6C18,6 14.122,6 14.122,6C13.923,6 13.732,5.921 13.592,5.78L11.469,3.659C11.048,3.238 10.476,3.001 9.88,3L6,3C4.354,3.001 3.001,4.355 3.001,6L3.001,9.207ZM20.135,10.517C20.06,10.506 19.984,10.5 19.906,10.5L4.094,10.5C4.018,10.5 3.943,10.506 3.869,10.517L3.86,10.518C3.056,10.645 2.494,11.405 2.609,12.212L3.466,18.212C3.571,18.948 4.208,19.5 4.951,19.5C4.951,19.5 19.05,19.5 19.05,19.5C19.793,19.5 20.43,18.948 20.535,18.212L21.392,12.212C21.507,11.405 20.945,10.645 20.141,10.518L20.135,10.517ZM19.5,9C19.5,8.177 18.823,7.5 18,7.5L14.12,7.5C13.524,7.499 12.952,7.262 12.531,6.841L10.408,4.72C10.268,4.579 10.077,4.5 9.878,4.5C9.878,4.5 6,4.5 6,4.5C5.178,4.5 4.501,5.177 4.501,6L4.501,9L19.5,9Z"/>
</svg>
