<?xml version="1.0" encoding="UTF-8" standalone="no"?>
<!DOCTYPE svg PUBLIC "-//W3C//DTD SVG 1.1//EN" "http://www.w3.org/Graphics/SVG/1.1/DTD/svg11.dtd">
<svg width="100%" height="100%" viewBox="0 0 24 24" version="1.1" xmlns="http://www.w3.org/2000/svg" xmlns:xlink="http://www.w3.org/1999/xlink" xml:space="preserve" xmlns:serif="http://www.serif.com/" style="fill-rule:evenodd;clip-rule:evenodd;stroke-linejoin:round;stroke-miterlimit:2;">
    <path d="M12,11.029L5.055,7.06C3.805,6.346 2.25,7.248 2.25,8.688L2.25,16.811C2.25,17.84 3.096,18.686 4.125,18.686C4.451,18.686 4.772,18.601 5.055,18.439L12,14.47L12,16.811C12,17.84 12.846,18.686 13.875,18.686C14.201,18.686 14.522,18.601 14.805,18.439L21.913,14.377C22.496,14.043 22.857,13.421 22.857,12.75C22.857,12.078 22.496,11.456 21.913,11.122L14.805,7.06C13.555,6.346 12,7.248 12,8.688L12,11.029ZM3.75,8.688C3.75,8.4 4.061,8.22 4.311,8.362C4.311,8.362 11.419,12.424 11.419,12.424C11.535,12.491 11.607,12.615 11.607,12.75C11.607,12.884 11.535,13.008 11.419,13.075C11.419,13.075 4.311,17.137 4.311,17.137C4.254,17.169 4.19,17.186 4.125,17.186C3.919,17.186 3.75,17.017 3.75,16.811L3.75,8.688ZM13.5,8.688C13.5,8.4 13.811,8.22 14.061,8.362C14.061,8.362 21.169,12.424 21.169,12.424C21.285,12.491 21.357,12.615 21.357,12.75C21.357,12.884 21.285,13.008 21.169,13.075C21.169,13.075 14.061,17.137 14.061,17.137C14.004,17.169 13.94,17.186 13.875,17.186C13.669,17.186 13.5,17.017 13.5,16.811L13.5,8.688Z"/>
</svg>
