<?xml version="1.0" encoding="UTF-8" standalone="no"?>
<!DOCTYPE svg PUBLIC "-//W3C//DTD SVG 1.1//EN" "http://www.w3.org/Graphics/SVG/1.1/DTD/svg11.dtd">
<svg width="100%" height="100%" viewBox="0 0 24 24" version="1.1" xmlns="http://www.w3.org/2000/svg" xmlns:xlink="http://www.w3.org/1999/xlink" xml:space="preserve" xmlns:serif="http://www.serif.com/" style="fill-rule:evenodd;clip-rule:evenodd;stroke-linejoin:round;stroke-miterlimit:2;">
    <path d="M12,2.25C9.25,2.249 6.504,2.479 3.792,2.938C2.898,3.089 2.25,3.868 2.25,4.774L2.25,5.818C2.25,6.613 2.566,7.377 3.129,7.939L8.561,13.371C8.842,13.653 9,14.034 9,14.432L9,21C9,21.26 9.135,21.501 9.356,21.638C9.577,21.775 9.853,21.787 10.085,21.671L13.341,20.043C14.356,19.535 15,18.494 15,17.359L15,14.432C15,14.034 15.158,13.653 15.439,13.371L20.871,7.939C21.434,7.377 21.75,6.613 21.75,5.818C21.75,5.818 21.75,4.774 21.75,4.774C21.75,3.868 21.102,3.09 20.208,2.938C17.539,2.486 14.798,2.25 12,2.25L12,2.25ZM12,3.75C12,3.75 12,3.75 12,3.75C14.712,3.75 17.37,3.978 19.958,4.417C19.958,4.417 19.958,4.417 19.958,4.418C20.13,4.447 20.25,4.6 20.25,4.774L20.25,5.818C20.25,6.216 20.092,6.597 19.811,6.879L14.379,12.311C13.816,12.873 13.5,13.637 13.5,14.432L13.5,17.359C13.5,17.927 13.178,18.447 12.671,18.701L10.5,19.786C10.5,19.786 10.5,14.432 10.5,14.432C10.5,13.637 10.184,12.873 9.621,12.311L4.189,6.879C3.908,6.597 3.75,6.216 3.75,5.818L3.75,4.774C3.75,4.6 3.87,4.447 4.042,4.418C4.042,4.418 4.042,4.417 4.042,4.417C6.671,3.972 9.333,3.749 12,3.75Z"/>
</svg>
