<?xml version="1.0" encoding="UTF-8" standalone="no"?>
<!DOCTYPE svg PUBLIC "-//W3C//DTD SVG 1.1//EN" "http://www.w3.org/Graphics/SVG/1.1/DTD/svg11.dtd">
<svg width="100%" height="100%" viewBox="0 0 24 24" version="1.1" xmlns="http://www.w3.org/2000/svg" xmlns:xlink="http://www.w3.org/1999/xlink" xml:space="preserve" xmlns:serif="http://www.serif.com/" style="fill-rule:evenodd;clip-rule:evenodd;stroke-linejoin:round;stroke-miterlimit:2;">
    <path d="M4.5,20.25L19.5,20.25C21.146,20.25 22.5,18.896 22.5,17.25L22.5,6.75C22.5,5.104 21.146,3.75 19.5,3.75C19.5,3.75 4.5,3.75 4.5,3.75C2.854,3.75 1.5,5.104 1.5,6.75C1.5,6.75 1.5,17.25 1.5,17.25C1.5,18.896 2.854,20.25 4.5,20.25ZM4.5,18.75C3.677,18.75 3,18.073 3,17.25L3,6.75C3,5.927 3.677,5.25 4.5,5.25L19.5,5.25C20.323,5.25 21,5.927 21,6.75C21,6.75 21,17.25 21,17.25C21,18.073 20.323,18.75 19.5,18.75C19.5,18.75 4.5,18.75 4.5,18.75ZM12,8.25L12,15.75C12,16.164 12.336,16.5 12.75,16.5C13.164,16.5 13.5,16.164 13.5,15.75L13.5,8.25C13.5,7.836 13.164,7.5 12.75,7.5C12.336,7.5 12,7.836 12,8.25ZM15,8.25L15,15.75C15,16.164 15.336,16.5 15.75,16.5C16.164,16.5 16.5,16.164 16.5,15.75L16.5,12.75L18,12.75C18.414,12.75 18.75,12.414 18.75,12C18.75,11.586 18.414,11.25 18,11.25L16.5,11.25L16.5,9C16.5,9 18.75,9 18.75,9C19.164,9 19.5,8.664 19.5,8.25C19.5,7.836 19.164,7.5 18.75,7.5L15.75,7.5C15.336,7.5 15,7.836 15,8.25ZM10.363,8.916C9.684,7.951 8.776,7.5 7.886,7.5C6.996,7.5 6.088,7.951 5.409,8.916C5.409,8.917 5.409,8.917 5.408,8.917C4.211,10.62 4.211,13.381 5.409,15.084C6.088,16.049 6.996,16.5 7.886,16.5C8.776,16.5 9.685,16.049 10.364,15.083C10.452,14.957 10.5,14.806 10.5,14.652L10.5,12C10.5,11.586 10.164,11.25 9.75,11.25L8.25,11.25C7.836,11.25 7.5,11.586 7.5,12C7.5,12.414 7.836,12.75 8.25,12.75L9,12.75C9,12.75 9,14.398 9,14.398C8.674,14.786 8.288,15 7.886,15C7.427,15 6.986,14.719 6.635,14.22C5.773,12.995 5.773,11.006 6.635,9.779C6.986,9.281 7.427,9 7.886,9C8.345,9 8.786,9.281 9.137,9.78C9.375,10.118 9.843,10.2 10.182,9.961C10.52,9.723 10.602,9.255 10.363,8.916Z"/>
</svg>
