<?xml version="1.0" encoding="UTF-8" standalone="no"?>
<!DOCTYPE svg PUBLIC "-//W3C//DTD SVG 1.1//EN" "http://www.w3.org/Graphics/SVG/1.1/DTD/svg11.dtd">
<svg width="100%" height="100%" viewBox="0 0 24 24" version="1.1" xmlns="http://www.w3.org/2000/svg" xmlns:xlink="http://www.w3.org/1999/xlink" xml:space="preserve" xmlns:serif="http://www.serif.com/" style="fill-rule:evenodd;clip-rule:evenodd;stroke-linejoin:round;stroke-miterlimit:2;">
    <path d="M3,11.962L3,19.5C3,20.734 4.016,21.75 5.25,21.75L19.5,21.75C20.734,21.75 21.75,20.734 21.75,19.5L21.75,11.962C22.606,11.789 23.25,11.032 23.25,10.125L23.25,8.625C23.25,7.59 22.41,6.75 21.375,6.75L3.375,6.75C2.34,6.75 1.5,7.59 1.5,8.625C1.5,8.625 1.5,10.125 1.5,10.125C1.5,11.032 2.144,11.789 3,11.962ZM20.25,12L20.25,19.5C20.25,19.911 19.911,20.25 19.5,20.25C19.5,20.25 5.25,20.25 5.25,20.25C4.839,20.25 4.5,19.911 4.5,19.5L4.5,12L20.25,12ZM3.375,10.5C3.168,10.5 3,10.332 3,10.125L3,8.625C3,8.418 3.168,8.25 3.375,8.25C3.375,8.25 21.375,8.25 21.375,8.25C21.582,8.25 21.75,8.418 21.75,8.625C21.75,8.625 21.75,10.125 21.75,10.125C21.75,10.332 21.582,10.5 21.375,10.5L3.375,10.5Z"/>
    <g transform="matrix(1,0,0,1,-0.0256391,0.0115691)">
        <path d="M12,2.764C11.379,1.995 10.431,1.5 9.375,1.5C7.524,1.5 6,3.024 6,4.875C6,6.726 7.524,8.25 9.375,8.25L11.25,8.25L11.25,21C11.25,21.414 11.586,21.75 12,21.75C12.414,21.75 12.75,21.414 12.75,21L12.75,8.25L14.625,8.25C16.476,8.25 18,6.726 18,4.875C18,3.024 16.476,1.5 14.625,1.5C13.569,1.5 12.621,1.995 12,2.764ZM11.25,4.875C11.25,3.846 10.404,3 9.375,3C8.346,3 7.5,3.846 7.5,4.875C7.5,5.904 8.346,6.75 9.375,6.75L11.25,6.75L11.25,4.875ZM12.75,6.75L14.625,6.75C15.654,6.75 16.5,5.904 16.5,4.875C16.5,3.846 15.654,3 14.625,3C13.596,3 12.75,3.846 12.75,4.875L12.75,6.75Z"/>
    </g>
</svg>
