<?xml version="1.0" encoding="UTF-8" standalone="no"?>
<!DOCTYPE svg PUBLIC "-//W3C//DTD SVG 1.1//EN" "http://www.w3.org/Graphics/SVG/1.1/DTD/svg11.dtd">
<svg width="100%" height="100%" viewBox="0 0 24 24" version="1.1" xmlns="http://www.w3.org/2000/svg" xmlns:xlink="http://www.w3.org/1999/xlink" xml:space="preserve" xmlns:serif="http://www.serif.com/" style="fill-rule:evenodd;clip-rule:evenodd;stroke-linejoin:round;stroke-miterlimit:2;">
    <g transform="matrix(1,0,0,1,-0.0162199,0.00913354)">
        <path d="M3.75,21L20.25,21C21.484,21 22.5,19.984 22.5,18.75C22.5,18.75 22.5,5.25 22.5,5.25C22.5,4.016 21.484,3 20.25,3L3.75,3C2.516,3 1.5,4.016 1.5,5.25L1.5,18.75C1.5,19.984 2.516,21 3.75,21ZM21,12.75L21,18.75C21,19.161 20.661,19.5 20.25,19.5L12.75,19.5L12.75,12.75L21,12.75ZM11.25,19.5L3.75,19.5C3.339,19.5 3,19.161 3,18.75L3,12.75L11.25,12.75L11.25,19.5ZM11.25,4.5L11.25,11.25L3,11.25L3,5.25C3,4.839 3.339,4.5 3.75,4.5L11.25,4.5ZM12.75,4.5L20.25,4.5C20.661,4.5 21,4.839 21,5.25L21,11.25L12.75,11.25L12.75,4.5Z"/>
    </g>
    <g transform="matrix(1,0,0,1,-0.0162199,-0.10086)">
        <path d="M10.491,12.642C10.352,14.782 8.548,16.5 6.375,16.5C5.961,16.5 5.625,16.836 5.625,17.25C5.625,17.664 5.961,18 6.375,18C9.382,18 11.871,15.588 11.995,12.609L12.005,12.611C12.13,15.589 14.618,18 17.625,18C18.039,18 18.375,17.664 18.375,17.25C18.375,16.836 18.039,16.5 17.625,16.5C15.451,16.5 13.647,14.781 13.509,12.639C13.789,12.621 14.093,12.587 14.404,12.53C15.281,12.371 16.201,12.023 16.871,11.37C16.881,11.361 16.891,11.351 16.901,11.341C17.464,10.779 17.78,10.015 17.78,9.22C17.78,7.574 16.426,6.22 14.78,6.22C13.985,6.22 13.221,6.536 12.659,7.099C12.382,7.376 12.159,7.697 11.981,8.042C11.812,7.714 11.601,7.408 11.343,7.141C11.331,7.126 11.318,7.112 11.304,7.099C10.742,6.536 9.978,6.22 9.183,6.22C8.138,6.22 7.21,6.764 6.672,7.584C6.363,8.056 6.183,8.619 6.183,9.22C6.183,10.015 6.499,10.779 7.062,11.341C7.733,12.013 8.668,12.369 9.559,12.531C9.883,12.59 10.2,12.624 10.491,12.642ZM11.302,12.656L11.224,12.658L11.25,12.75C11.25,12.75 11.269,12.714 11.302,12.656ZM12.723,12.657L12.75,12.75C12.75,12.75 12.769,12.715 12.801,12.658L12.756,12.658L12.723,12.657ZM15.841,10.281C15.841,10.281 15.697,10.423 15.84,10.28C15.385,10.735 14.738,10.945 14.135,11.055C13.652,11.143 13.19,11.163 12.84,11.16C12.837,10.81 12.857,10.348 12.945,9.865C13.055,9.262 13.264,8.614 13.719,8.159C14.001,7.878 14.382,7.72 14.78,7.72C15.603,7.72 16.28,8.397 16.28,9.22C16.28,9.618 16.122,9.999 15.841,10.281ZM10.244,8.159C10.384,8.3 10.383,8.301 10.243,8.16C10.698,8.615 10.907,9.263 11.017,9.866C11.105,10.349 11.125,10.811 11.122,11.16C10.772,11.163 10.31,11.143 9.828,11.055C9.225,10.945 8.577,10.736 8.123,10.281C8.122,10.281 8.122,10.281 8.122,10.281C7.841,9.999 7.683,9.618 7.683,9.22C7.683,8.921 7.773,8.641 7.927,8.406C8.196,7.996 8.66,7.72 9.183,7.72C9.581,7.72 9.962,7.878 10.244,8.159Z"/>
    </g>
</svg>
