<?xml version="1.0" encoding="UTF-8" standalone="no"?>
<!DOCTYPE svg PUBLIC "-//W3C//DTD SVG 1.1//EN" "http://www.w3.org/Graphics/SVG/1.1/DTD/svg11.dtd">
<svg width="100%" height="100%" viewBox="0 0 24 24" version="1.1" xmlns="http://www.w3.org/2000/svg" xmlns:xlink="http://www.w3.org/1999/xlink" xml:space="preserve" xmlns:serif="http://www.serif.com/" style="fill-rule:evenodd;clip-rule:evenodd;stroke-linejoin:round;stroke-miterlimit:2;">
    <path d="M3.209,16.222L3.212,16.228L3.215,16.234C5.21,20.376 9.879,22.572 14.343,21.466L14.344,21.466C16.668,20.889 18.701,19.477 20.052,17.5L20.06,17.489C21.162,15.871 21.752,13.958 21.752,12C21.752,6.97 17.86,2.726 12.853,2.287L12.827,2.284C12.814,2.283 12.801,2.282 12.789,2.281L12.77,2.281C12.513,2.26 12.255,2.249 11.997,2.249C6.649,2.249 2.247,6.651 2.247,11.999C2.247,13.461 2.576,14.904 3.209,16.222ZM13.679,3.923L14.704,4.776C15.44,5.391 15.595,6.458 15.064,7.257L14.553,8.024C14.183,8.579 13.638,8.995 13.005,9.206L12.768,9.244C12.768,9.244 13.003,9.206 13.003,9.206L12.625,9.292L12.863,9.253C12.718,9.302 12.619,9.439 12.619,9.592C12.619,9.662 12.64,9.731 12.679,9.79C12.679,9.79 12.679,9.79 12.68,9.791C13.298,10.721 12.963,11.982 11.963,12.482C11.963,12.482 9.952,13.487 9.952,13.487L10.12,13.907C10.2,14.108 10.24,14.321 10.24,14.536C10.24,15.472 9.47,16.242 8.534,16.242C7.999,16.242 7.494,15.991 7.172,15.564L6.492,14.656C6.421,14.562 6.31,14.506 6.192,14.506C6.05,14.506 5.92,14.587 5.857,14.713L5.171,16.085C5.123,16.181 5.056,16.264 4.975,16.33C6.692,19.113 9.93,20.631 13.168,20.168C12.964,19.763 12.546,19.5 12.083,19.5C11.237,19.5 10.514,18.889 10.373,18.054C10.381,18.1 10.393,18.145 10.409,18.188C10.393,18.144 10.38,18.095 10.372,18.042C10.362,17.984 10.302,17.627 10.302,17.627L11.04,18.241L10.3,17.614C10.144,16.672 10.717,15.764 11.634,15.503L12.623,15.221C12.848,15.157 13.035,15.001 13.14,14.793L13.174,14.723L13.848,15.803L13.177,14.718C13.55,13.972 14.314,13.5 15.148,13.5C15.732,13.5 16.294,13.732 16.707,14.146L16.707,14.146L16.715,14.155L16.811,14.25L17.128,14.25C18.076,14.25 18.95,14.699 19.508,15.424C19.996,14.354 20.252,13.186 20.252,12C20.252,8.07 17.444,4.707 13.679,3.923ZM18.607,16.942L18.552,16.775C18.348,16.164 17.772,15.75 17.128,15.75L16.5,15.75C16.5,15.75 16.229,15.789 15.962,15.523C15.919,15.48 15.655,15.215 15.655,15.215L16.176,15.426L15.645,15.206C15.513,15.074 15.334,15 15.148,15C14.882,15 14.639,15.15 14.52,15.387L13.812,15.876L14.483,15.461C14.191,16.046 13.666,16.483 13.037,16.663L12.046,16.945C11.863,16.997 11.749,17.178 11.779,17.361L11.851,17.796L11.856,17.827L11.853,17.804C11.872,17.917 11.969,18 12.083,18C13.237,18 14.265,18.73 14.645,19.816C16.223,19.281 17.606,18.28 18.607,16.942ZM10.575,18.452C10.712,18.593 10.904,18.679 11.113,18.679C11.113,18.679 10.798,18.672 10.575,18.452ZM11.843,18.098C11.725,18.572 11.113,18.679 11.113,18.679C11.334,18.679 11.543,18.582 11.686,18.413C11.764,18.321 11.817,18.213 11.843,18.098ZM11.847,18.083L11.844,18.098L11.846,18.088L11.847,18.083ZM11.856,17.83C11.861,17.865 11.863,17.898 11.863,17.93C11.863,17.897 11.861,17.863 11.856,17.83ZM17.027,14.466C17.653,15.099 16.5,15.75 16.5,15.75C16.914,15.75 17.25,15.414 17.25,15C17.25,14.791 17.165,14.602 17.027,14.466ZM12.006,3.75L11.997,3.749C7.472,3.749 3.747,7.474 3.747,11.999C3.747,12.914 3.9,13.821 4.196,14.681L4.515,14.043C4.832,13.408 5.483,13.006 6.192,13.006C6.782,13.006 7.338,13.284 7.692,13.756L8.37,14.661C8.409,14.712 8.47,14.742 8.534,14.742C8.647,14.742 8.74,14.649 8.74,14.536C8.74,14.51 8.735,14.485 8.726,14.461L8.304,13.403C8.159,13.041 8.316,12.629 8.665,12.454C8.665,12.454 11.293,11.14 11.293,11.14C11.485,11.044 11.55,10.801 11.431,10.622C11.228,10.317 11.119,9.958 11.119,9.592C11.119,8.795 11.632,8.083 12.387,7.831L12.625,9.292L12.39,7.83C12.39,7.83 12.525,7.784 12.525,7.784L12.768,9.244L12.531,7.782C12.848,7.677 13.12,7.469 13.305,7.192C13.305,7.192 13.814,6.427 13.814,6.427C13.921,6.266 13.89,6.051 13.742,5.928C13.742,5.928 12.675,5.038 12.675,5.038C12.286,4.714 12.047,4.25 12.006,3.75ZM15,9C15,9.672 14.705,10.275 14.238,10.688C13.927,10.962 13.898,11.436 14.172,11.746C14.446,12.057 14.92,12.086 15.23,11.812C16.009,11.125 16.5,10.12 16.5,9C16.5,8.586 16.164,8.25 15.75,8.25C15.336,8.25 15,8.586 15,9Z"/>
</svg>
