<?xml version="1.0" encoding="UTF-8" standalone="no"?>
<!DOCTYPE svg PUBLIC "-//W3C//DTD SVG 1.1//EN" "http://www.w3.org/Graphics/SVG/1.1/DTD/svg11.dtd">
<svg width="100%" height="100%" viewBox="0 0 24 24" version="1.1" xmlns="http://www.w3.org/2000/svg" xmlns:xlink="http://www.w3.org/1999/xlink" xml:space="preserve" xmlns:serif="http://www.serif.com/" style="fill-rule:evenodd;clip-rule:evenodd;stroke-linejoin:round;stroke-miterlimit:2;">
    <path d="M8.749,2.806L8.73,2.812C8.719,2.816 8.708,2.82 8.696,2.824L8.674,2.833C4.829,4.229 2.252,7.904 2.252,11.997C2.252,17.346 6.653,21.747 12.002,21.747C16.782,21.747 20.893,18.232 21.634,13.509C21.712,13.009 21.752,12.504 21.752,11.997C21.752,6.648 17.351,2.247 12.002,2.247C10.893,2.247 9.793,2.436 8.749,2.806ZM7.202,5.289C5.077,6.813 3.752,9.298 3.752,11.997C3.752,16.523 7.476,20.247 12.002,20.247C15.921,20.247 19.308,17.455 20.085,13.646L19.227,12.788C18.999,12.56 18.81,12.296 18.666,12.008L17.765,10.205C17.406,10.401 16.979,10.453 16.576,10.337C16.576,10.337 15.306,9.975 15.306,9.975C15.294,9.972 15.281,9.97 15.268,9.97C15.191,9.97 15.128,10.033 15.128,10.11C15.128,10.156 15.151,10.2 15.19,10.226L15.775,10.615C16.758,11.273 16.897,12.664 16.06,13.5L16.054,13.506L16.055,13.506C16.055,13.506 15.891,13.669 15.865,13.696L15.847,13.713L15.86,13.7C15.79,13.771 15.75,13.867 15.75,13.966L15.75,13.966L15.75,13.977L15.75,14.367L15.75,14.376L15.75,14.376C15.75,14.922 15.603,15.455 15.323,15.92C15.323,15.92 14.008,18.111 14.008,18.111C13.492,18.972 12.559,19.5 11.555,19.5C10.565,19.5 9.75,18.685 9.75,17.695C9.75,17.695 9.75,16.523 9.75,16.523C9.75,15.91 9.377,15.358 8.807,15.13L8.152,14.869C6.848,14.347 6.077,12.975 6.308,11.589L6.315,11.547C6.377,11.176 6.508,10.821 6.702,10.498L6.792,10.348C7.443,9.264 8.712,8.703 9.952,8.951L11.13,9.186C11.32,9.224 11.51,9.108 11.564,8.921L11.772,8.191C11.821,8.018 11.74,7.833 11.579,7.753L11.37,7.648C10.853,8.037 10.221,8.25 9.568,8.25L9.388,8.25C9.338,8.25 9.29,8.271 9.259,8.302C8.943,8.62 8.513,8.8 8.065,8.8C7.143,8.8 6.384,8.041 6.384,7.119C6.384,6.812 6.468,6.511 6.625,6.251L7.202,5.289ZM20.246,11.683C20.079,7.301 16.423,3.747 12.002,3.747C11.182,3.747 10.367,3.869 9.584,4.11C9.517,4.305 9.429,4.492 9.322,4.67L7.91,7.025C7.893,7.053 7.884,7.086 7.884,7.119C7.884,7.218 7.965,7.3 8.065,7.3C8.113,7.3 8.159,7.28 8.193,7.246C8.195,7.245 8.196,7.243 8.197,7.242C8.512,6.929 8.94,6.75 9.388,6.75L9.388,6.75L9.391,6.75L9.529,6.75L9.568,6.751L9.568,6.75C9.966,6.75 10.347,6.592 10.629,6.311L10.717,6.222L11.585,6.079L12.251,6.411C13.054,6.814 13.461,7.739 13.214,8.603C13.214,8.603 13.006,9.333 13.006,9.333C12.74,10.267 11.789,10.848 10.836,10.658L9.658,10.421C9.038,10.298 8.403,10.578 8.078,11.12L7.974,11.294C7.885,11.449 7.824,11.618 7.795,11.795L7.788,11.837C7.672,12.53 8.057,13.216 8.71,13.477L9.365,13.738C10.503,14.194 11.25,15.296 11.25,16.523L11.25,17.695C11.25,17.862 11.388,18 11.555,18C11.555,18 11.555,18 11.555,18C12.033,18 12.476,17.749 12.722,17.339L14.037,15.147C14.177,14.915 14.25,14.648 14.25,14.376L14.25,13.966C14.25,13.469 14.446,12.993 14.8,12.64C14.585,12.854 14.804,12.635 14.804,12.635L15,12.44C15.167,12.272 15.138,11.993 14.941,11.861L14.352,11.47C13.9,11.166 13.628,10.655 13.628,10.11C13.628,9.21 14.368,8.47 15.268,8.47C15.418,8.47 15.568,8.49 15.712,8.531L16.988,8.895C17.015,8.903 17.044,8.895 17.063,8.876C17.282,8.657 17.578,8.535 17.887,8.535C18.327,8.535 18.73,8.784 18.927,9.177L20.008,11.338C20.071,11.464 20.151,11.58 20.246,11.683ZM15.839,13.721L15.825,13.733L15.833,13.726L15.839,13.721Z"/>
</svg>
