<?xml version="1.0" encoding="UTF-8" standalone="no"?>
<!DOCTYPE svg PUBLIC "-//W3C//DTD SVG 1.1//EN" "http://www.w3.org/Graphics/SVG/1.1/DTD/svg11.dtd">
<svg width="100%" height="100%" viewBox="0 0 24 24" version="1.1" xmlns="http://www.w3.org/2000/svg" xmlns:xlink="http://www.w3.org/1999/xlink" xml:space="preserve" xmlns:serif="http://www.serif.com/" style="fill-rule:evenodd;clip-rule:evenodd;stroke-linejoin:round;stroke-miterlimit:2;">
    <path d="M5.626,4.621L5.624,4.623C3.482,6.475 2.25,9.169 2.25,12C2.25,17.348 6.651,21.75 12,21.75C17.348,21.75 21.75,17.348 21.75,12C21.75,8.83 20.204,5.852 17.613,4.027L17.611,4.026C16.026,2.908 14.09,2.25 12.001,2.25C9.66,2.247 7.395,3.089 5.626,4.621ZM17.414,5.775C17.026,6.374 16.519,6.889 15.922,7.287L15.193,7.773C15.232,7.909 15.251,8.05 15.251,8.192C15.251,9.047 14.547,9.751 13.692,9.751C13.449,9.751 13.21,9.694 12.993,9.586L12.39,9.283C12.246,9.211 12.071,9.239 11.957,9.353L11.814,9.498C11.751,9.567 11.716,9.657 11.716,9.751C11.716,9.85 11.756,9.945 11.826,10.016L12.115,10.304L12.131,10.321L12.121,10.311C12.207,10.396 12.329,10.435 12.448,10.415C12.448,10.415 13.618,10.22 13.617,10.22C14.156,10.13 14.708,10.279 15.126,10.629L16.456,11.737C16.997,12.188 17.233,12.912 17.062,13.594C16.646,15.256 15.787,16.773 14.576,17.984L13.853,18.707C13.283,19.278 12.411,19.419 11.701,19.063L11.543,18.985L11.872,19.061L11.537,18.982C10.9,18.663 10.5,18.015 10.5,17.305C10.5,17.305 10.5,16.216 10.5,16.216C10.5,16.117 10.461,16.021 10.391,15.951C10.391,15.951 9.043,14.603 9.043,14.603C8.472,14.033 8.331,13.161 8.692,12.44C8.692,12.44 8.838,12.148 8.838,12.148C8.838,12.148 7.58,10.89 7.58,10.89C6.585,9.896 5.925,8.614 5.694,7.226L5.618,6.771C4.42,8.235 3.75,10.08 3.75,12C3.75,16.525 7.474,20.25 12,20.25C16.525,20.25 20.25,16.525 20.25,12C20.25,9.601 19.204,7.332 17.414,5.775ZM16.195,4.896C14.967,4.168 13.532,3.75 12,3.75C12,3.75 11.999,3.75 11.999,3.75C10.157,3.747 8.371,4.364 6.926,5.494L7.174,6.98C7.354,8.059 7.866,9.056 8.64,9.83L10.28,11.47C10.508,11.698 10.565,12.046 10.421,12.335L10.034,13.111C9.961,13.255 9.99,13.429 10.103,13.543C10.103,13.543 11.451,14.891 11.451,14.891C11.801,15.241 12,15.719 12,16.216L12,17.305C12,17.445 12.078,17.573 12.201,17.637L12.375,17.723C12.516,17.787 12.683,17.757 12.793,17.647C12.793,17.647 13.516,16.924 13.516,16.924C14.534,15.905 15.257,14.628 15.606,13.23C15.606,13.23 15.606,13.23 15.607,13.23C15.638,13.104 15.595,12.972 15.496,12.889L14.165,11.78C14.082,11.711 13.972,11.682 13.865,11.7L12.694,11.895C12.098,11.994 11.489,11.799 11.061,11.371C11.074,11.385 11.088,11.398 11.102,11.41C11.086,11.396 11.07,11.381 11.054,11.365C11.015,11.325 10.774,11.085 10.774,11.085L10.775,11.085L10.766,11.076C10.414,10.725 10.216,10.248 10.216,9.751C10.216,9.254 10.414,8.777 10.765,8.426L10.888,8.3L10.896,8.293C11.466,7.723 12.342,7.581 13.062,7.942L13.666,8.245C13.674,8.249 13.683,8.251 13.692,8.251C13.724,8.251 13.751,8.224 13.751,8.192C13.751,8.183 13.749,8.174 13.745,8.166L13.755,8.184L13.741,8.158C13.719,8.114 13.584,7.845 13.584,7.845L13.584,7.846C13.563,7.805 13.546,7.762 13.532,7.717C13.436,7.401 13.559,7.059 13.834,6.876C13.834,6.876 15.09,6.039 15.09,6.039C15.537,5.741 15.914,5.35 16.195,4.896ZM11.116,11.421L11.122,11.426L11.106,11.413L11.116,11.421ZM12.192,10.393L12.209,10.417L12.195,10.396L12.176,10.372L12.192,10.393ZM12.148,10.34L12.168,10.362L12.16,10.352L12.148,10.34ZM13.798,8.255L13.799,8.256L13.798,8.255ZM13.77,8.212L13.778,8.224L13.765,8.203L13.77,8.212Z"/>
</svg>
