<?xml version="1.0" encoding="UTF-8" standalone="no"?>
<!DOCTYPE svg PUBLIC "-//W3C//DTD SVG 1.1//EN" "http://www.w3.org/Graphics/SVG/1.1/DTD/svg11.dtd">
<svg width="100%" height="100%" viewBox="0 0 24 24" version="1.1" xmlns="http://www.w3.org/2000/svg" xmlns:xlink="http://www.w3.org/1999/xlink" xml:space="preserve" xmlns:serif="http://www.serif.com/" style="fill-rule:evenodd;clip-rule:evenodd;stroke-linejoin:round;stroke-miterlimit:2;">
    <path d="M16.613,14.449C16.659,15.129 17.2,15.75 17.947,15.75C17.947,15.75 19,15.75 19,15.75C20.141,15.75 21.197,15.109 21.616,14.049C21.617,14.048 21.617,14.048 21.617,14.048C22.186,12.601 22.5,11.025 22.5,9.375C22.5,8.079 22.307,6.829 21.946,5.649C21.591,4.483 20.477,3.75 19.257,3.75C19.257,3.75 18.349,3.75 18.349,3.75C17.812,3.75 17.376,4.067 17.16,4.5L16.48,4.5C16.077,4.5 15.676,4.436 15.294,4.308L12.18,3.268C11.644,3.09 11.084,3 10.52,3C10.52,3 6.504,3 6.504,3C5.659,3 4.846,3.35 4.315,4.008C2.49,6.271 1.496,9.093 1.5,12C1.5,12.461 1.524,12.917 1.572,13.365C1.572,13.365 1.572,13.365 1.572,13.365C1.722,14.768 2.962,15.75 4.372,15.75C4.372,15.75 7.498,15.75 7.498,15.75C7.519,15.75 7.525,15.775 7.534,15.792C7.561,15.841 7.572,15.904 7.546,15.959C7.546,15.96 7.546,15.96 7.546,15.96C7.02,17.066 6.748,18.276 6.75,19.5C6.75,21.146 8.104,22.5 9.75,22.5C10.573,22.5 11.25,21.823 11.25,21L11.25,20.367C11.25,19.889 11.342,19.417 11.519,18.973C11.757,18.378 12.261,17.944 12.828,17.642C12.828,17.642 12.828,17.642 12.828,17.642C14.03,17 15.085,16.115 15.925,15.043C16.115,14.801 16.349,14.592 16.613,14.449ZM17.28,6L16.48,6C15.916,6 15.356,5.91 14.82,5.732L11.706,4.692C11.324,4.564 10.923,4.5 10.52,4.5L6.504,4.5C6.113,4.5 5.729,4.644 5.483,4.949C5.483,4.949 5.483,4.95 5.483,4.95C3.873,6.946 2.996,9.435 3,11.999C3,11.999 3,12 3,12C3,12.407 3.022,12.81 3.064,13.205C3.132,13.844 3.73,14.25 4.372,14.25L9.75,14.25C10.164,14.25 10.5,14.586 10.5,15C10.5,15.414 10.164,15.75 9.75,15.75L9.048,15.75C9.075,16.034 9.031,16.329 8.9,16.604C8.471,17.508 8.248,18.497 8.25,19.499C8.25,19.499 8.25,19.5 8.25,19.5C8.25,20.323 8.927,21 9.75,21L9.75,20.367C9.75,19.699 9.878,19.038 10.125,18.417C10.125,18.417 10.126,18.417 10.126,18.416C10.495,17.492 11.243,16.786 12.122,16.318C13.14,15.775 14.033,15.026 14.745,14.117C14.745,14.117 14.745,14.117 14.745,14.117C15.367,13.325 16.278,12.781 17.279,12.751C17.755,11.692 18.002,10.541 18,9.376C18,9.376 18,9.375 18,9.375C18,8.172 17.742,7.028 17.28,6ZM18.587,5.25C19.172,6.503 19.5,7.901 19.5,9.374C19.502,10.929 19.131,12.463 18.417,13.844C18.411,13.857 18.404,13.869 18.397,13.881L18.338,13.992C18.312,14.041 18.285,14.089 18.258,14.138L18.194,14.25L19,14.25C19.525,14.25 20.029,13.985 20.221,13.498C20.724,12.221 21,10.831 21,9.375C21,8.231 20.83,7.128 20.512,6.087C20.512,6.087 20.512,6.087 20.512,6.087C20.349,5.553 19.816,5.25 19.257,5.25L18.587,5.25Z"/>
</svg>
