<?xml version="1.0" encoding="UTF-8" standalone="no"?>
<!DOCTYPE svg PUBLIC "-//W3C//DTD SVG 1.1//EN" "http://www.w3.org/Graphics/SVG/1.1/DTD/svg11.dtd">
<svg width="100%" height="100%" viewBox="0 0 24 24" version="1.1" xmlns="http://www.w3.org/2000/svg" xmlns:xlink="http://www.w3.org/1999/xlink" xml:space="preserve" xmlns:serif="http://www.serif.com/" style="fill-rule:evenodd;clip-rule:evenodd;stroke-linejoin:round;stroke-miterlimit:2;">
    <path d="M9.389,2.44C9.108,2.318 8.799,2.25 8.475,2.25C7.2,2.25 6.15,3.3 6.15,4.575L6.9,5.325C6.9,5.325 6.15,4.575 6.15,4.575L6.15,5.403C5.893,5.304 5.615,5.25 5.325,5.25C4.05,5.25 3,6.3 3,7.575L3,15.75C3,19.864 6.386,23.25 10.5,23.25L12.518,23.25C14.109,23.25 15.636,22.617 16.76,21.492C16.76,21.492 18.492,19.76 18.492,19.76C19.617,18.636 20.25,17.109 20.25,15.518L20.253,13.531C20.675,13.098 20.912,12.515 20.912,11.909C20.912,10.633 19.863,9.584 18.587,9.584C18.042,9.584 17.516,9.775 17.1,10.121L17.1,4.575C17.1,3.3 16.05,2.25 14.775,2.25C14.451,2.25 14.142,2.318 13.861,2.44C13.581,1.469 12.681,0.75 11.625,0.75C10.569,0.75 9.669,1.469 9.389,2.44ZM6.15,7.575C6.15,7.122 5.778,6.75 5.325,6.75C4.872,6.75 4.5,7.122 4.5,7.575C4.5,7.575 4.5,15.75 4.5,15.75C4.5,19.042 7.208,21.75 10.5,21.75C10.5,21.75 12.518,21.75 12.518,21.75C13.711,21.75 14.856,21.275 15.7,20.432L17.432,18.7C18.275,17.856 18.75,16.711 18.75,15.518L18.753,13.49C18.755,13.114 18.906,12.754 19.171,12.493C19.325,12.338 19.412,12.128 19.412,11.909C19.412,11.456 19.04,11.084 18.587,11.084C18.368,11.084 18.158,11.171 18.003,11.325C18.003,11.325 18.003,11.326 18.003,11.326C17.43,11.898 17.106,12.675 17.103,13.485C17.103,13.506 17.102,13.526 17.1,13.547L17.1,15L17.099,15.039L17.096,15.077L17.091,15.115L17.085,15.151L17.076,15.188L17.066,15.223L17.054,15.258L17.041,15.292L17.026,15.325L17.009,15.358L16.991,15.389L16.972,15.42L16.951,15.449L16.928,15.477L16.905,15.504L16.88,15.53L16.854,15.555L16.827,15.579L16.798,15.601L16.769,15.622L16.738,15.642L16.707,15.66L16.675,15.676L16.641,15.691L16.607,15.705L16.573,15.716L16.537,15.726L16.501,15.735L16.464,15.741L16.426,15.746L16.388,15.749L16.352,15.75L16.352,15.75L16.35,15.75C15.356,15.75 14.403,16.145 13.701,16.848C13.408,17.141 12.933,17.141 12.64,16.849C12.347,16.556 12.347,16.081 12.639,15.788C13.444,14.982 14.485,14.465 15.6,14.304L15.6,4.575C15.6,4.122 15.228,3.75 14.775,3.75C14.322,3.75 13.95,4.122 13.95,4.575L13.95,11.25C13.95,11.664 13.614,12 13.2,12C12.786,12 12.45,11.664 12.45,11.25L12.45,3.075C12.45,2.622 12.078,2.25 11.625,2.25C11.172,2.25 10.8,2.622 10.8,3.075L10.8,4.57L10.875,10.491C10.88,10.904 10.548,11.245 10.134,11.25C9.721,11.255 9.38,10.923 9.375,10.509L9.3,4.584L9.3,4.575C9.3,4.122 8.928,3.75 8.475,3.75C8.022,3.75 7.65,4.122 7.65,4.575L7.65,12C7.65,12.414 7.314,12.75 6.9,12.75C6.486,12.75 6.15,12.414 6.15,12L6.15,7.575Z"/>
</svg>
