<?xml version="1.0" encoding="UTF-8" standalone="no"?>
<!DOCTYPE svg PUBLIC "-//W3C//DTD SVG 1.1//EN" "http://www.w3.org/Graphics/SVG/1.1/DTD/svg11.dtd">
<svg width="100%" height="100%" viewBox="0 0 24 24" version="1.1" xmlns="http://www.w3.org/2000/svg" xmlns:xlink="http://www.w3.org/1999/xlink" xml:space="preserve" xmlns:serif="http://www.serif.com/" style="fill-rule:evenodd;clip-rule:evenodd;stroke-linejoin:round;stroke-miterlimit:2;">
    <g transform="matrix(1,0,0,1,-0.0126814,0.0058745)">
        <path d="M14.25,3.633L14.25,3C15.073,3 15.75,3.677 15.75,4.5C15.75,5.537 15.516,6.519 15.1,7.396C14.968,7.671 14.925,7.966 14.952,8.25L14.25,8.25C13.836,8.25 13.5,8.586 13.5,9C13.5,9.414 13.836,9.75 14.25,9.75L19.628,9.75C20.27,9.75 20.868,10.156 20.936,10.795C20.978,11.19 21,11.592 21,12C21,12 21,12.001 21,12.001C21.004,14.565 20.127,17.054 18.517,19.05C18.517,19.05 18.517,19.051 18.517,19.051C18.271,19.356 17.887,19.5 17.496,19.5L13.48,19.5C13.077,19.5 12.676,19.435 12.293,19.308L9.18,18.268C8.644,18.09 8.084,18 7.52,18C7.52,18 5.904,18 5.904,18C5.49,18 5.154,18.336 5.154,18.75C5.154,19.164 5.49,19.5 5.904,19.5L7.52,19.5C7.923,19.5 8.324,19.564 8.706,19.692L11.821,20.732C12.356,20.909 12.917,21 13.48,21C13.48,21 17.496,21 17.496,21C18.341,21 19.154,20.65 19.685,19.992C21.51,17.729 22.504,14.907 22.5,12C22.5,11.538 22.476,11.083 22.428,10.635C22.428,10.635 22.428,10.635 22.428,10.635C22.278,9.232 21.038,8.25 19.628,8.25L16.502,8.25C16.481,8.25 16.475,8.225 16.466,8.208C16.439,8.159 16.428,8.096 16.454,8.041C16.454,8.04 16.454,8.04 16.454,8.04C16.964,6.967 17.25,5.767 17.25,4.5C17.25,2.854 15.896,1.5 14.25,1.5C13.427,1.5 12.75,2.177 12.75,3L12.75,3.633C12.75,4.11 12.659,4.583 12.482,5.026C12.482,5.027 12.482,5.027 12.481,5.027C12.244,5.622 11.74,6.057 11.173,6.358C11.173,6.358 11.172,6.358 11.172,6.358C9.97,7 8.914,7.885 8.074,8.957C7.718,9.41 7.209,9.75 6.633,9.75C6.219,9.75 5.883,10.086 5.883,10.5C5.883,10.914 6.219,11.25 6.633,11.25C7.669,11.25 8.614,10.698 9.254,9.883C9.254,9.883 9.254,9.883 9.254,9.883C9.966,8.974 10.86,8.225 11.878,7.682C12.756,7.215 13.506,6.507 13.874,5.583C14.123,4.963 14.25,4.301 14.25,3.633Z"/>
    </g>
    <g transform="matrix(1,0,0,1,-0.00396904,0.0267749)">
        <path d="M6.612,18.5C6.53,18.226 6.001,16.407 6.001,15.375C6.001,15.375 6.001,15.374 6.001,15.374C5.999,13.867 6.411,12.388 7.194,11.099C7.194,11.099 7.194,11.099 7.194,11.099C7.735,10.207 7.095,9 6.053,9L5,9C3.859,9 2.803,9.641 2.384,10.701C2.383,10.702 2.383,10.702 2.383,10.702C1.814,12.149 1.5,13.725 1.5,15.375C1.499,16.637 1.686,17.893 2.054,19.101C2.054,19.101 2.054,19.101 2.054,19.101C2.409,20.267 3.523,21 4.743,21L5.651,21C6.641,21 7.285,19.911 6.847,19.021L6.612,18.5ZM5.807,10.5C4.952,11.972 4.498,13.658 4.501,15.375C4.501,16.645 5.186,18.965 5.186,18.965C5.192,18.988 5.2,19.01 5.209,19.031C5.273,19.19 5.341,19.346 5.413,19.5L4.743,19.5C4.184,19.5 3.651,19.197 3.488,18.663C3.164,17.598 2.999,16.49 3,15.376C3,15.375 3,15.375 3,15.375C3,13.919 3.276,12.529 3.779,11.252C3.971,10.765 4.475,10.5 5,10.5L5.807,10.5Z"/>
    </g>
</svg>
