<?xml version="1.0" encoding="UTF-8" standalone="no"?>
<!DOCTYPE svg PUBLIC "-//W3C//DTD SVG 1.1//EN" "http://www.w3.org/Graphics/SVG/1.1/DTD/svg11.dtd">
<svg width="100%" height="100%" viewBox="0 0 24 24" version="1.1" xmlns="http://www.w3.org/2000/svg" xmlns:xlink="http://www.w3.org/1999/xlink" xml:space="preserve" xmlns:serif="http://www.serif.com/" style="fill-rule:evenodd;clip-rule:evenodd;stroke-linejoin:round;stroke-miterlimit:2;">
    <path d="M9.135,7.5L5.25,7.5C4.836,7.5 4.5,7.836 4.5,8.25C4.5,8.664 4.836,9 5.25,9L8.835,9L7.635,15L3.75,15C3.336,15 3,15.336 3,15.75C3,16.164 3.336,16.5 3.75,16.5L7.335,16.5L6.315,21.603C6.233,22.009 6.497,22.404 6.903,22.485C7.309,22.567 7.704,22.303 7.785,21.897L8.865,16.5L13.335,16.5L12.315,21.603C12.233,22.009 12.497,22.404 12.903,22.485C13.309,22.567 13.704,22.303 13.785,21.897L14.865,16.5L18.75,16.5C19.164,16.5 19.5,16.164 19.5,15.75C19.5,15.336 19.164,15 18.75,15L15.165,15L16.365,9L20.25,9C20.664,9 21,8.664 21,8.25C21,7.836 20.664,7.5 20.25,7.5L16.665,7.5L17.685,2.397C17.767,1.991 17.503,1.596 17.097,1.515C16.691,1.433 16.296,1.697 16.215,2.103L15.135,7.5L10.665,7.5L11.685,2.397C11.767,1.991 11.503,1.596 11.097,1.515C10.691,1.433 10.296,1.697 10.215,2.103L9.135,7.5ZM10.365,9L9.165,15L13.635,15L14.835,9L10.365,9Z"/>
</svg>
