<?xml version="1.0" encoding="UTF-8" standalone="no"?>
<!DOCTYPE svg PUBLIC "-//W3C//DTD SVG 1.1//EN" "http://www.w3.org/Graphics/SVG/1.1/DTD/svg11.dtd">
<svg width="100%" height="100%" viewBox="0 0 24 24" version="1.1" xmlns="http://www.w3.org/2000/svg" xmlns:xlink="http://www.w3.org/1999/xlink" xml:space="preserve" xmlns:serif="http://www.serif.com/" style="fill-rule:evenodd;clip-rule:evenodd;stroke-linejoin:round;stroke-miterlimit:2;">
    <path d="M21.75,8.25C21.75,5.359 19.324,3 16.312,3C14.554,3 12.993,3.806 12,5.052C11.007,3.806 9.446,3 7.687,3C4.678,3 2.25,5.359 2.25,8.25C2.25,11.329 3.763,14.002 5.606,16.089C8.291,19.131 11.648,20.912 11.648,20.912C11.868,21.029 12.132,21.029 12.352,20.912C12.352,20.912 15.709,19.131 18.394,16.089C20.237,14.002 21.75,11.329 21.75,8.25ZM20.25,8.25C20.25,10.947 18.883,13.269 17.27,15.097C15.276,17.355 12.886,18.868 12,19.388C11.114,18.868 8.724,17.355 6.73,15.097C5.117,13.269 3.75,10.947 3.75,8.25C3.75,6.171 5.522,4.5 7.687,4.5C9.313,4.5 10.714,5.438 11.315,6.788C11.435,7.059 11.704,7.233 12,7.233C12.296,7.233 12.565,7.059 12.685,6.788C13.286,5.438 14.687,4.5 16.312,4.5C18.479,4.5 20.25,6.171 20.25,8.25Z"/>
</svg>
