<?xml version="1.0" encoding="UTF-8" standalone="no"?>
<!DOCTYPE svg PUBLIC "-//W3C//DTD SVG 1.1//EN" "http://www.w3.org/Graphics/SVG/1.1/DTD/svg11.dtd">
<svg width="100%" height="100%" viewBox="0 0 24 24" version="1.1" xmlns="http://www.w3.org/2000/svg" xmlns:xlink="http://www.w3.org/1999/xlink" xml:space="preserve" xmlns:serif="http://www.serif.com/" style="fill-rule:evenodd;clip-rule:evenodd;stroke-linejoin:round;stroke-miterlimit:2;">
    <path d="M5.625,21.75L18.375,21.75C19.41,21.75 20.25,20.91 20.25,19.875L20.25,11.561L21.22,12.53C21.512,12.823 21.988,12.823 22.28,12.53C22.573,12.238 22.573,11.762 22.28,11.47L13.325,2.515C12.594,1.783 11.407,1.783 10.674,2.514L1.72,11.47C1.427,11.762 1.427,12.238 1.72,12.53C2.012,12.823 2.488,12.823 2.78,12.53L3.75,11.561L3.75,19.875C3.75,20.91 4.59,21.75 5.625,21.75ZM18.75,10.061L12.265,3.575C12.118,3.429 11.881,3.429 11.734,3.576L5.25,10.06L5.25,19.875C5.25,20.082 5.418,20.25 5.625,20.25L9,20.25L9,16.125C9,15.09 9.84,14.25 10.875,14.25L13.125,14.25C14.16,14.25 15,15.09 15,16.125C15,16.125 15,20.25 15,20.25C15,20.25 18.375,20.25 18.375,20.25C18.582,20.25 18.75,20.082 18.75,19.875L18.75,10.061ZM13.5,20.25L13.5,16.125C13.5,15.918 13.332,15.75 13.125,15.75C13.125,15.75 10.875,15.75 10.875,15.75C10.668,15.75 10.5,15.918 10.5,16.125L10.5,20.25L13.5,20.25Z"/>
</svg>
