<?xml version="1.0" encoding="UTF-8" standalone="no"?>
<!DOCTYPE svg PUBLIC "-//W3C//DTD SVG 1.1//EN" "http://www.w3.org/Graphics/SVG/1.1/DTD/svg11.dtd">
<svg width="100%" height="100%" viewBox="0 0 24 24" version="1.1" xmlns="http://www.w3.org/2000/svg" xmlns:xlink="http://www.w3.org/1999/xlink" xml:space="preserve" xmlns:serif="http://www.serif.com/" style="fill-rule:evenodd;clip-rule:evenodd;stroke-linejoin:round;stroke-miterlimit:2;">
    <path d="M2.25,21.75L21.75,21.75C22.164,21.75 22.5,21.414 22.5,21C22.5,20.586 22.164,20.25 21.75,20.25L21,20.25L21,11.791L21.513,11.962C21.906,12.092 22.331,11.88 22.462,11.487C22.592,11.094 22.38,10.669 21.987,10.538L18,9.209L18,4.07L19.006,3.705C19.395,3.564 19.596,3.133 19.455,2.744C19.314,2.355 18.883,2.154 18.494,2.295L16.998,2.839L16.988,2.842L7.5,6.293L7.5,3C7.5,2.586 7.164,2.25 6.75,2.25L3.75,2.25C3.336,2.25 3,2.586 3,3L3,7.929L1.994,8.295C1.605,8.437 1.404,8.867 1.545,9.256C1.687,9.645 2.117,9.846 2.506,9.705L3,9.525L3,20.25L2.25,20.25C1.836,20.25 1.5,20.586 1.5,21C1.5,21.414 1.836,21.75 2.25,21.75ZM16.5,4.616L7.012,8.067L7.002,8.07L4.5,8.98L4.5,20.25L7.5,20.25L7.5,16.125C7.5,15.09 8.34,14.25 9.375,14.25L11.625,14.25C12.66,14.25 13.5,15.09 13.5,16.125L13.5,20.25L16.5,20.25L16.5,4.616ZM12,20.25L12,16.125C12,15.918 11.832,15.75 11.625,15.75C11.625,15.75 9.375,15.75 9.375,15.75C9.168,15.75 9,15.918 9,16.125L9,20.25L12,20.25ZM18,20.25L19.5,20.25L19.5,11.291L18,10.791L18,20.25ZM4.5,7.384L6,6.839L6,3.75C6,3.75 4.5,3.75 4.5,3.75L4.5,7.384Z"/>
</svg>
