<?xml version="1.0" encoding="UTF-8" standalone="no"?>
<!DOCTYPE svg PUBLIC "-//W3C//DTD SVG 1.1//EN" "http://www.w3.org/Graphics/SVG/1.1/DTD/svg11.dtd">
<svg width="100%" height="100%" viewBox="0 0 24 24" version="1.1" xmlns="http://www.w3.org/2000/svg" xmlns:xlink="http://www.w3.org/1999/xlink" xml:space="preserve" xmlns:serif="http://www.serif.com/" style="fill-rule:evenodd;clip-rule:evenodd;stroke-linejoin:round;stroke-miterlimit:2;">
    <path d="M4.5,20.25L19.5,20.25C21.146,20.25 22.5,18.896 22.5,17.25L22.5,6.75C22.5,5.104 21.146,3.75 19.5,3.75C19.5,3.75 4.5,3.75 4.5,3.75C2.854,3.75 1.5,5.104 1.5,6.75C1.5,6.75 1.5,17.25 1.5,17.25C1.5,18.896 2.854,20.25 4.5,20.25ZM4.5,18.75C3.677,18.75 3,18.073 3,17.25L3,6.75C3,5.927 3.677,5.25 4.5,5.25L19.5,5.25C20.323,5.25 21,5.927 21,6.75C21,6.75 21,17.25 21,17.25C21,18.073 20.323,18.75 19.5,18.75C19.5,18.75 4.5,18.75 4.5,18.75ZM12.147,16.373C12.477,16.197 12.627,15.804 12.498,15.452C11.903,13.832 10.351,12.749 8.625,12.749C6.899,12.749 5.347,13.832 4.752,15.452C4.623,15.804 4.773,16.197 5.103,16.373C6.187,16.95 7.396,17.251 8.624,17.25C9.852,17.252 11.062,16.95 12.147,16.373ZM10.767,15.356C10.085,15.617 9.359,15.751 8.625,15.75C8.624,15.75 8.624,15.75 8.623,15.75C7.89,15.751 7.164,15.617 6.483,15.356C6.968,14.674 7.762,14.249 8.625,14.249C9.488,14.249 10.282,14.674 10.767,15.356ZM15,15.75L18.75,15.75C19.164,15.75 19.5,15.414 19.5,15C19.5,14.586 19.164,14.25 18.75,14.25L15,14.25C14.586,14.25 14.25,14.586 14.25,15C14.25,15.414 14.586,15.75 15,15.75ZM15,12.75L18.75,12.75C19.164,12.75 19.5,12.414 19.5,12C19.5,11.586 19.164,11.25 18.75,11.25L15,11.25C14.586,11.25 14.25,11.586 14.25,12C14.25,12.414 14.586,12.75 15,12.75ZM11.25,9.375C11.25,7.935 10.065,6.75 8.625,6.75C7.185,6.75 6,7.935 6,9.375C6,10.815 7.185,12 8.625,12C10.065,12 11.25,10.815 11.25,9.375ZM9.75,9.375C9.75,9.992 9.242,10.5 8.625,10.5C8.008,10.5 7.5,9.992 7.5,9.375C7.5,8.758 8.008,8.25 8.625,8.25C9.242,8.25 9.75,8.758 9.75,9.375ZM15,9.75L18.75,9.75C19.164,9.75 19.5,9.414 19.5,9C19.5,8.586 19.164,8.25 18.75,8.25L15,8.25C14.586,8.25 14.25,8.586 14.25,9C14.25,9.414 14.586,9.75 15,9.75Z"/>
</svg>
