<?xml version="1.0" encoding="UTF-8" standalone="no"?>
<!DOCTYPE svg PUBLIC "-//W3C//DTD SVG 1.1//EN" "http://www.w3.org/Graphics/SVG/1.1/DTD/svg11.dtd">
<svg width="100%" height="100%" viewBox="0 0 24 24" version="1.1" xmlns="http://www.w3.org/2000/svg" xmlns:xlink="http://www.w3.org/1999/xlink" xml:space="preserve" xmlns:serif="http://www.serif.com/" style="fill-rule:evenodd;clip-rule:evenodd;stroke-linejoin:round;stroke-miterlimit:2;">
    <path d="M1.72,8.705L1.713,8.723L1.705,8.744C1.57,9.091 1.5,9.459 1.5,9.832L1.5,12C1.5,12.726 1.763,13.395 2.199,13.916C1.773,14.259 1.5,14.785 1.5,15.375C1.5,15.375 1.5,18 1.5,18C1.5,19.646 2.854,21 4.5,21L19.5,21C21.146,21 22.5,19.646 22.5,18L22.5,15.375C22.5,14.785 22.227,14.259 21.801,13.916C22.237,13.395 22.5,12.726 22.5,12L22.5,9.832C22.5,9.457 22.43,9.087 22.295,8.744L22.286,8.72L22.28,8.705C22.159,8.408 21.99,8.128 21.777,7.88L18.493,4.048C17.923,3.383 17.091,3 16.215,3L7.785,3C6.91,3 6.077,3.383 5.507,4.048L2.223,7.88C2.012,8.126 1.842,8.405 1.72,8.705ZM16.541,15L15.547,16.589C14.999,17.467 14.038,18 13.003,18L10.997,18C9.964,18 9,17.466 8.453,16.59L7.459,15L3.375,15C3.168,15 3,15.168 3,15.375L3,18C3,18.823 3.677,19.5 4.5,19.5L19.5,19.5C20.323,19.5 21,18.823 21,18C21,18 21,15.375 21,15.375C21,15.168 20.832,15 20.625,15L16.541,15ZM14.772,15L9.228,15L9.725,15.795C9.999,16.233 10.48,16.5 10.997,16.5C10.997,16.5 13.003,16.5 13.003,16.5C13.52,16.5 14.001,16.233 14.275,15.795L14.772,15ZM3.003,9.75C3.001,9.777 3,9.805 3,9.832L3,12C3,12.823 3.677,13.5 4.5,13.5L19.5,13.5C20.323,13.5 21,12.823 21,12C21,12 21,9.832 21,9.832C21,9.805 20.999,9.777 20.998,9.75L16.954,9.75C16.453,9.75 15.984,10.001 15.706,10.418L15.701,10.425L15.701,10.425C15.701,10.425 15.568,10.626 15.546,10.658L15.532,10.679L15.542,10.664C14.986,11.498 14.048,12 13.046,12L10.954,12C9.952,12 9.014,11.498 8.458,10.664L8.458,10.664L8.454,10.658C8.432,10.626 8.299,10.425 8.299,10.425L8.918,10.752L8.294,10.418C8.016,10.001 7.547,9.75 7.046,9.75L3.003,9.75ZM20.119,8.25L17.355,5.024C17.069,4.691 16.653,4.5 16.215,4.5C16.215,4.5 7.785,4.5 7.785,4.5C7.348,4.5 6.931,4.692 6.647,5.024L3.881,8.25L7.046,8.25C8.048,8.25 8.986,8.752 9.542,9.586L9.542,9.586L9.547,9.593L9.722,9.855C10.001,10.258 10.462,10.5 10.954,10.5C10.954,10.5 13.046,10.5 13.046,10.5C13.547,10.5 14.016,10.249 14.294,9.832C14.141,10.062 14.126,10.358 14.257,10.602C14.387,10.846 14.641,10.998 14.918,10.998L14.745,10.672C14.61,10.604 14.495,10.495 14.421,10.356C14.345,10.215 14.318,10.057 14.339,9.904L14.298,9.826L14.453,9.593L14.454,9.593L14.458,9.586C15.014,8.752 15.952,8.25 16.954,8.25L20.119,8.25ZM15.519,10.696L15.508,10.711L15.515,10.702L15.519,10.696Z"/>
</svg>
