<?xml version="1.0" encoding="UTF-8" standalone="no"?>
<!DOCTYPE svg PUBLIC "-//W3C//DTD SVG 1.1//EN" "http://www.w3.org/Graphics/SVG/1.1/DTD/svg11.dtd">
<svg width="100%" height="100%" viewBox="0 0 24 24" version="1.1" xmlns="http://www.w3.org/2000/svg" xmlns:xlink="http://www.w3.org/1999/xlink" xml:space="preserve" xmlns:serif="http://www.serif.com/" style="fill-rule:evenodd;clip-rule:evenodd;stroke-linejoin:round;stroke-miterlimit:2;">
    <path d="M20.734,12.75L17.891,12.75C16.756,12.75 15.715,13.394 15.207,14.409L14.951,14.921C14.697,15.428 14.177,15.75 13.609,15.75L10.391,15.75C9.823,15.75 9.303,15.428 9.049,14.921L8.793,14.409C8.286,13.394 7.245,12.75 6.11,12.75L3.266,12.75L5.479,5.559C5.672,4.931 6.256,4.5 6.912,4.5C6.912,4.5 9,4.5 9,4.5C9.414,4.5 9.75,4.164 9.75,3.75C9.75,3.336 9.414,3 9,3L6.912,3C5.599,3 4.432,3.862 4.045,5.117L1.633,12.956C1.611,13.028 1.592,13.1 1.575,13.173C1.527,13.271 1.5,13.383 1.5,13.5C1.5,13.539 1.503,13.577 1.509,13.614C1.503,13.688 1.5,13.763 1.5,13.837L1.5,18C1.5,19.646 2.854,21 4.5,21C4.5,21 19.5,21 19.5,21C21.146,21 22.5,19.646 22.5,18L22.5,13.838C22.5,13.763 22.497,13.688 22.491,13.613C22.497,13.576 22.5,13.538 22.5,13.5C22.5,13.383 22.473,13.271 22.425,13.173C22.408,13.1 22.389,13.027 22.367,12.956L19.957,5.117C19.57,3.862 18.403,3 17.09,3L15,3C14.586,3 14.25,3.336 14.25,3.75C14.25,4.164 14.586,4.5 15,4.5L17.09,4.5C17.746,4.5 18.33,4.931 18.523,5.559L20.734,12.75ZM3,14.25L3,18C3,18.823 3.677,19.5 4.5,19.5L19.5,19.5C20.323,19.5 21,18.823 21,18L21,14.25L17.891,14.25C17.323,14.25 16.803,14.572 16.549,15.079L16.293,15.591C15.785,16.606 14.744,17.25 13.609,17.25C13.609,17.25 10.391,17.25 10.391,17.25C9.256,17.25 8.215,16.606 7.707,15.591L7.451,15.079C7.198,14.572 6.677,14.25 6.11,14.25L3,14.25ZM11.25,9.439L9.53,7.72C9.238,7.427 8.762,7.427 8.47,7.72C8.177,8.012 8.177,8.488 8.47,8.78L11.47,11.78L11.498,11.807L11.527,11.832C11.553,11.853 11.581,11.873 11.61,11.89L11.619,11.896L11.651,11.914L11.684,11.93L11.698,11.936L11.708,11.941L11.718,11.945L11.728,11.949L11.742,11.954L11.752,11.958L11.76,11.96L11.777,11.966L11.813,11.976L11.823,11.979C11.88,11.993 11.939,12 12,12C12.061,12 12.12,11.993 12.177,11.979L12.187,11.976L12.223,11.966L12.258,11.954L12.272,11.949L12.282,11.945L12.292,11.941L12.302,11.936L12.316,11.93L12.325,11.926L12.349,11.914L12.381,11.896L12.413,11.876L12.443,11.855L12.473,11.832L12.502,11.807L12.53,11.78C12.53,11.78 15.53,8.78 15.53,8.78C15.823,8.488 15.823,8.012 15.53,7.72C15.238,7.427 14.762,7.427 14.47,7.72L12.75,9.439L12.75,3C12.75,2.586 12.414,2.25 12,2.25C11.586,2.25 11.25,2.586 11.25,3L11.25,9.439Z"/>
</svg>
