<?xml version="1.0" encoding="UTF-8" standalone="no"?>
<!DOCTYPE svg PUBLIC "-//W3C//DTD SVG 1.1//EN" "http://www.w3.org/Graphics/SVG/1.1/DTD/svg11.dtd">
<svg width="100%" height="100%" viewBox="0 0 24 24" version="1.1" xmlns="http://www.w3.org/2000/svg" xmlns:xlink="http://www.w3.org/1999/xlink" xml:space="preserve" xmlns:serif="http://www.serif.com/" style="fill-rule:evenodd;clip-rule:evenodd;stroke-linejoin:round;stroke-miterlimit:2;">
    <path d="M1.575,13.173C1.527,13.271 1.5,13.383 1.5,13.5C1.5,13.539 1.503,13.577 1.509,13.614C1.503,13.688 1.5,13.763 1.5,13.837L1.5,18C1.5,19.646 2.854,21 4.5,21C4.5,21 19.5,21 19.5,21C21.146,21 22.5,19.646 22.5,18L22.5,13.838C22.5,13.763 22.497,13.688 22.491,13.613C22.497,13.576 22.5,13.538 22.5,13.5C22.5,13.383 22.473,13.271 22.425,13.173C22.408,13.1 22.389,13.027 22.367,12.956L19.957,5.117C19.57,3.862 18.403,3 17.09,3L6.911,3C5.598,3 4.431,3.862 4.044,5.117L1.633,12.957C1.611,13.028 1.592,13.1 1.575,13.173ZM3,14.25L3,18C3,18.823 3.677,19.5 4.5,19.5L19.5,19.5C20.323,19.5 21,18.823 21,18L21,14.25L17.891,14.25C17.323,14.25 16.803,14.572 16.549,15.079L16.293,15.591C15.785,16.606 14.744,17.25 13.609,17.25C13.609,17.25 10.391,17.25 10.391,17.25C9.256,17.25 8.215,16.606 7.707,15.591L7.451,15.079C7.198,14.572 6.677,14.25 6.11,14.25L3,14.25ZM20.734,12.75L18.523,5.559C18.33,4.931 17.746,4.5 17.09,4.5C17.09,4.5 6.911,4.5 6.911,4.5C6.255,4.5 5.671,4.931 5.478,5.559L3.266,12.75L6.11,12.75C7.245,12.75 8.286,13.394 8.793,14.409L9.049,14.921C9.303,15.428 9.823,15.75 10.391,15.75L13.609,15.75C14.177,15.75 14.697,15.428 14.951,14.921L15.207,14.409C15.715,13.394 16.756,12.75 17.891,12.75L20.734,12.75Z"/>
</svg>
