<?xml version="1.0" encoding="UTF-8" standalone="no"?>
<!DOCTYPE svg PUBLIC "-//W3C//DTD SVG 1.1//EN" "http://www.w3.org/Graphics/SVG/1.1/DTD/svg11.dtd">
<svg width="100%" height="100%" viewBox="0 0 24 24" version="1.1" xmlns="http://www.w3.org/2000/svg" xmlns:xlink="http://www.w3.org/1999/xlink" xml:space="preserve" xmlns:serif="http://www.serif.com/" style="fill-rule:evenodd;clip-rule:evenodd;stroke-linejoin:round;stroke-miterlimit:2;">
    <path d="M21.75,12C21.75,6.651 17.349,2.25 12,2.25C6.651,2.25 2.25,6.651 2.25,12C2.25,17.349 6.651,21.75 12,21.75C17.349,21.75 21.75,17.349 21.75,12ZM20.25,12C20.25,16.526 16.526,20.25 12,20.25C7.474,20.25 3.75,16.526 3.75,12C3.75,7.474 7.474,3.75 12,3.75C16.526,3.75 20.25,7.474 20.25,12Z"/>
    <circle cx="12.01" cy="8.267" r="0.784"/>
    <path d="M11.624,11.913C11.624,11.913 10.735,12.307 10.507,11.34C10.507,11.34 10.363,10.459 11.638,10.403C11.638,10.403 12.632,10.377 13.028,11.36C13.205,11.798 13.088,12.241 13.088,12.241L12.382,15.097C12.382,15.097 12.829,14.836 13.235,15.179C13.641,15.521 13.596,16.201 13.014,16.463C12.432,16.724 11.633,16.607 11.189,16.017C10.744,15.427 10.893,14.893 10.904,14.821C10.915,14.749 11.624,11.913 11.624,11.913Z"/>
</svg>
