<?xml version="1.0" encoding="UTF-8" standalone="no"?>
<!DOCTYPE svg PUBLIC "-//W3C//DTD SVG 1.1//EN" "http://www.w3.org/Graphics/SVG/1.1/DTD/svg11.dtd">
<svg width="100%" height="100%" viewBox="0 0 24 24" version="1.1" xmlns="http://www.w3.org/2000/svg" xmlns:xlink="http://www.w3.org/1999/xlink" xml:space="preserve" xmlns:serif="http://www.serif.com/" style="fill-rule:evenodd;clip-rule:evenodd;stroke-linejoin:round;stroke-miterlimit:2;">
    <path d="M22.5,8.251L22.5,8.249C22.497,4.549 19.451,1.505 15.75,1.505C12.047,1.505 9,4.552 9,8.255C9,8.641 9.033,9.027 9.099,9.407C9.155,9.73 9.11,10.079 8.878,10.312C8.878,10.312 2.379,16.811 2.379,16.811C1.816,17.372 1.5,18.136 1.5,18.932C1.5,18.932 1.5,21.75 1.5,21.75C1.5,22.164 1.836,22.5 2.25,22.5L6,22.5C6.414,22.5 6.75,22.164 6.75,21.75L6.75,20.25C6.75,20.25 8.25,20.25 8.25,20.25C8.664,20.25 9,19.914 9,19.5L9,18C9,18 10.5,18 10.5,18C10.699,18 10.89,17.921 11.03,17.78L13.688,15.122C13.921,14.89 14.27,14.845 14.594,14.901C14.975,14.967 15.362,15.001 15.75,15.001C19.453,15.001 22.5,11.954 22.5,8.251ZM21,8.251L21,8.251C21,11.131 18.63,13.501 15.75,13.501C15.448,13.501 15.147,13.475 14.85,13.423C14.849,13.423 14.849,13.423 14.848,13.423C14.046,13.285 13.204,13.486 12.628,14.062C12.628,14.062 10.189,16.5 10.189,16.5C10.189,16.5 8.25,16.5 8.25,16.5C7.836,16.5 7.5,16.836 7.5,17.25L7.5,18.75C7.5,18.75 6,18.75 6,18.75C5.586,18.75 5.25,19.086 5.25,19.5L5.25,21C5.25,21 3,21 3,21C3,21 3,18.932 3,18.932C3,18.534 3.158,18.152 3.439,17.872L9.938,11.372C10.514,10.796 10.715,9.954 10.577,9.152C10.577,9.151 10.577,9.151 10.577,9.151C10.526,8.855 10.5,8.555 10.5,8.255C10.5,5.375 12.87,3.005 15.75,3.005C18.628,3.005 20.997,5.372 21,8.251L21,8.251ZM15.75,6C16.984,6 18,7.016 18,8.25C18,8.664 18.336,9 18.75,9C19.164,9 19.5,8.664 19.5,8.25C19.5,6.193 17.807,4.5 15.75,4.5C15.336,4.5 15,4.836 15,5.25C15,5.664 15.336,6 15.75,6Z"/>
</svg>
