<?xml version="1.0" encoding="UTF-8" standalone="no"?>
<!DOCTYPE svg PUBLIC "-//W3C//DTD SVG 1.1//EN" "http://www.w3.org/Graphics/SVG/1.1/DTD/svg11.dtd">
<svg width="100%" height="100%" viewBox="0 0 24 24" version="1.1" xmlns="http://www.w3.org/2000/svg" xmlns:xlink="http://www.w3.org/1999/xlink" xml:space="preserve" xmlns:serif="http://www.serif.com/" style="fill-rule:evenodd;clip-rule:evenodd;stroke-linejoin:round;stroke-miterlimit:2;">
    <path d="M12.378,18.75L19.122,18.75L20.32,21.317C20.495,21.692 20.942,21.855 21.317,21.68C21.692,21.505 21.855,21.058 21.68,20.683L16.43,9.433C16.306,9.169 16.041,9 15.75,9C15.459,9 15.194,9.169 15.07,9.433L9.82,20.683C9.645,21.058 9.808,21.505 10.183,21.68C10.558,21.855 11.005,21.692 11.18,21.317L12.378,18.75ZM8.25,4.506C6.464,4.532 4.68,4.656 2.907,4.877C2.497,4.928 2.205,5.303 2.256,5.714C2.307,6.124 2.682,6.416 3.093,6.365C5.052,6.121 7.025,5.999 9,6L9,6C9.801,6 10.599,6.02 11.391,6.06C10.881,7.927 10.065,9.668 9,11.224C8.317,10.225 7.739,9.155 7.278,8.03C7.121,7.647 6.683,7.463 6.3,7.62C5.917,7.777 5.733,8.215 5.89,8.598C6.455,9.978 7.182,11.282 8.052,12.483C6.572,14.274 4.738,15.76 2.656,16.836C2.288,17.026 2.144,17.478 2.334,17.846C2.524,18.214 2.976,18.358 3.344,18.168C5.51,17.05 7.429,15.522 9,13.686C9.28,14.015 9.573,14.333 9.876,14.642C10.167,14.937 10.642,14.941 10.937,14.651C11.232,14.36 11.236,13.885 10.946,13.59C10.597,13.235 10.264,12.866 9.948,12.483C11.306,10.607 12.325,8.469 12.915,6.16C13.584,6.214 14.248,6.283 14.907,6.365C15.318,6.417 15.693,6.125 15.744,5.714C15.796,5.303 15.504,4.928 15.093,4.877C14.198,4.765 13.296,4.678 12.386,4.616L12.377,4.615C11.508,4.555 10.631,4.519 9.75,4.506L9.75,3C9.75,2.586 9.414,2.25 9,2.25C8.586,2.25 8.25,2.586 8.25,3L8.25,4.506ZM13.078,17.25L18.422,17.25L15.75,11.524L13.078,17.25Z"/>
</svg>
