<?xml version="1.0" encoding="UTF-8" standalone="no"?>
<!DOCTYPE svg PUBLIC "-//W3C//DTD SVG 1.1//EN" "http://www.w3.org/Graphics/SVG/1.1/DTD/svg11.dtd">
<svg width="100%" height="100%" viewBox="0 0 24 24" version="1.1" xmlns="http://www.w3.org/2000/svg" xmlns:xlink="http://www.w3.org/1999/xlink" xml:space="preserve" xmlns:serif="http://www.serif.com/" style="fill-rule:evenodd;clip-rule:evenodd;stroke-linejoin:round;stroke-miterlimit:2;">
    <path d="M6.905,3.685L6.895,3.691C6.245,4.091 5.645,4.566 5.106,5.106C4.566,5.645 4.091,6.245 3.691,6.895L3.685,6.905C1.775,10.028 1.775,13.972 3.685,17.095L3.691,17.105C4.091,17.755 4.566,18.355 5.106,18.894C5.645,19.434 6.245,19.909 6.895,20.309L6.905,20.315C10.028,22.225 13.972,22.225 17.095,20.315L17.105,20.309C17.742,19.917 18.342,19.447 18.894,18.894C19.434,18.355 19.909,17.755 20.309,17.105L20.315,17.095C22.225,13.972 22.225,10.028 20.315,6.905L20.309,6.895C19.917,6.258 19.447,5.658 18.894,5.106C18.355,4.566 17.755,4.091 17.105,3.691L17.095,3.685C13.972,1.775 10.028,1.775 6.905,3.685ZM10.999,16.388L8.449,19.448C10.692,20.514 13.308,20.514 15.551,19.448L13.001,16.388C12.342,16.538 11.658,16.538 10.999,16.388ZM15.778,14.445C15.609,14.706 15.411,14.953 15.183,15.182C14.958,15.407 14.711,15.607 14.446,15.778L16.856,18.671C17.198,18.422 17.524,18.143 17.834,17.834C17.834,17.834 17.834,17.834 17.834,17.833C18.138,17.53 18.418,17.203 18.671,16.856L15.778,14.445ZM8.222,14.446L5.329,16.856C5.582,17.203 5.862,17.53 6.166,17.833C6.166,17.834 6.166,17.834 6.167,17.834C6.47,18.138 6.797,18.418 7.144,18.671L9.554,15.778C9.289,15.607 9.042,15.407 8.818,15.182C8.593,14.958 8.393,14.711 8.222,14.446ZM19.448,8.449L16.388,10.999C16.538,11.658 16.538,12.342 16.388,13.001L19.448,15.551C20.514,13.308 20.514,10.692 19.448,8.449ZM4.552,8.449C3.486,10.692 3.486,13.308 4.552,15.551L7.612,13.001C7.462,12.342 7.462,11.658 7.612,10.999L4.552,8.449ZM13.008,9.173C12.356,8.942 11.644,8.942 10.992,9.173L10.985,9.175C10.569,9.325 10.191,9.564 9.879,9.878C9.879,9.878 9.879,9.878 9.879,9.878C9.556,10.202 9.32,10.582 9.175,10.985L9.173,10.992C8.942,11.644 8.942,12.356 9.173,13.008L9.175,13.015C9.325,13.431 9.565,13.809 9.878,14.121C9.878,14.121 9.879,14.122 9.879,14.122C10.191,14.436 10.569,14.675 10.985,14.825L10.992,14.827C11.644,15.058 12.356,15.058 13.008,14.827L13.015,14.825C13.431,14.675 13.809,14.436 14.121,14.122C14.121,14.122 14.121,14.122 14.121,14.122C14.444,13.798 14.68,13.418 14.825,13.015L14.827,13.008C15.058,12.356 15.058,11.644 14.827,10.992L14.825,10.985C14.675,10.569 14.436,10.191 14.122,9.879C14.122,9.879 14.121,9.878 14.121,9.878C13.809,9.565 13.431,9.325 13.015,9.175L13.008,9.173ZM7.144,5.329C6.797,5.582 6.47,5.862 6.167,6.166C6.166,6.166 6.166,6.166 6.166,6.167C5.862,6.47 5.582,6.797 5.329,7.144L8.222,9.555C8.391,9.294 8.589,9.047 8.817,8.818C9.042,8.593 9.289,8.393 9.554,8.222L7.144,5.329ZM16.856,5.329L14.446,8.222C14.711,8.393 14.958,8.593 15.182,8.818C15.407,9.042 15.607,9.289 15.778,9.554L18.671,7.144C18.422,6.802 18.143,6.476 17.834,6.166C17.834,6.166 17.834,6.166 17.833,6.166C17.53,5.862 17.203,5.582 16.856,5.329ZM15.551,4.552C13.308,3.486 10.692,3.486 8.449,4.552L10.999,7.612C11.658,7.462 12.342,7.462 13.001,7.612L15.551,4.552Z"/>
</svg>
