<?xml version="1.0" encoding="UTF-8" standalone="no"?>
<!DOCTYPE svg PUBLIC "-//W3C//DTD SVG 1.1//EN" "http://www.w3.org/Graphics/SVG/1.1/DTD/svg11.dtd">
<svg width="100%" height="100%" viewBox="0 0 24 24" version="1.1" xmlns="http://www.w3.org/2000/svg" xmlns:xlink="http://www.w3.org/1999/xlink" xml:space="preserve" xmlns:serif="http://www.serif.com/" style="fill-rule:evenodd;clip-rule:evenodd;stroke-linejoin:round;stroke-miterlimit:2;">
    <path d="M13.422,21.676C12.477,21.775 11.523,21.775 10.578,21.676C10.166,21.633 9.797,21.932 9.754,22.344C9.711,22.756 10.01,23.125 10.422,23.168C11.471,23.278 12.529,23.278 13.578,23.168C13.99,23.125 14.289,22.756 14.246,22.344C14.203,21.932 13.834,21.633 13.422,21.676ZM14.11,19.302C12.716,19.567 11.284,19.567 9.89,19.302C9.483,19.225 9.09,19.492 9.013,19.899C8.936,20.306 9.203,20.699 9.61,20.776C11.189,21.076 12.811,21.076 14.39,20.776C14.797,20.699 15.064,20.306 14.987,19.899C14.91,19.492 14.517,19.225 14.11,19.302ZM11.25,13.459L11.25,18C11.25,18.414 11.586,18.75 12,18.75C12.414,18.75 12.75,18.414 12.75,18L12.75,13.459C13.066,13.424 13.379,13.367 13.687,13.287C14.088,13.184 14.329,12.775 14.226,12.374C14.123,11.973 13.714,11.732 13.313,11.835C12.884,11.945 12.443,12 12.001,12L11.999,12C11.557,12 11.116,11.945 10.687,11.835C10.286,11.732 9.877,11.973 9.774,12.374C9.671,12.775 9.912,13.184 10.313,13.287C10.621,13.367 10.934,13.424 11.25,13.459ZM9.711,18.749L9.75,18.75L9.782,18.746C9.926,18.723 10.5,18.596 10.5,17.996L10.5,17.813L10.5,17.808L10.5,17.808C10.5,16.559 9.697,15.47 8.617,14.843C8.617,14.843 8.617,14.843 8.617,14.843C6.535,13.638 5.249,11.407 5.249,9.002C5.25,5.299 8.297,2.252 12,2.252C15.702,2.252 18.749,5.299 18.749,9.002C18.749,11.407 17.464,13.638 15.382,14.843C15.382,14.843 15.382,14.843 15.382,14.843C14.302,15.47 13.5,16.559 13.5,17.808L13.521,17.829L13.52,17.833L13.5,17.813L13.5,18C13.5,18.017 13.501,18.034 13.502,18.051L13.502,18.058L13.503,18.069L13.504,18.077L13.505,18.088C13.519,18.22 13.562,18.325 13.622,18.41C13.756,18.615 13.987,18.75 14.25,18.75C14.25,18.75 15,18.682 15,17.996L15,17.813L15,17.808L15,17.808C15,17.091 15.514,16.5 16.134,16.141C18.678,14.668 20.249,11.942 20.249,9.002C20.249,4.476 16.525,0.752 12,0.752C7.474,0.752 3.75,4.476 3.749,9.002C3.749,11.942 5.321,14.668 7.865,16.141C8.485,16.501 9,17.091 9,17.808L9,17.814L9,17.813L9,18C9,18.017 9.001,18.034 9.002,18.051L9.002,18.058L9.003,18.069L9.004,18.077L9.005,18.088C9.019,18.22 9.062,18.325 9.122,18.41C9.249,18.605 9.465,18.736 9.711,18.749ZM14.169,18.477L14.17,18.478L14.25,18.558L14.169,18.477Z"/>
</svg>
