<?xml version="1.0" encoding="UTF-8" standalone="no"?>
<!DOCTYPE svg PUBLIC "-//W3C//DTD SVG 1.1//EN" "http://www.w3.org/Graphics/SVG/1.1/DTD/svg11.dtd">
<svg width="100%" height="100%" viewBox="0 0 24 24" version="1.1" xmlns="http://www.w3.org/2000/svg" xmlns:xlink="http://www.w3.org/1999/xlink" xml:space="preserve" xmlns:serif="http://www.serif.com/" style="fill-rule:evenodd;clip-rule:evenodd;stroke-linejoin:round;stroke-miterlimit:2;">
    <path d="M12.867,9.365C14.169,9.986 15.001,11.306 15.001,12.749C15.001,13.744 14.605,14.698 13.902,15.401L9.402,19.902C8.699,20.605 7.744,21 6.75,21C4.693,21 3,19.307 3,17.25C3,16.256 3.395,15.301 4.098,14.598C4.098,14.598 5.855,12.841 5.855,12.841C6.148,12.549 6.148,12.073 5.855,11.781C5.563,11.488 5.087,11.488 4.795,11.781L3.038,13.538C2.053,14.522 1.5,15.858 1.5,17.25C1.5,20.13 3.87,22.5 6.75,22.5C8.142,22.5 9.478,21.947 10.462,20.962C10.462,20.962 14.962,16.462 14.962,16.462C15.947,15.478 16.501,14.141 16.501,12.749C16.501,10.729 15.336,8.881 13.513,8.011C13.14,7.833 12.692,7.991 12.513,8.365C12.335,8.738 12.493,9.186 12.867,9.365ZM19.205,12.219L20.962,10.462C21.947,9.478 22.5,8.142 22.5,6.75C22.5,3.87 20.13,1.5 17.25,1.5C15.858,1.5 14.522,2.053 13.538,3.038C13.538,3.038 9.038,7.538 9.038,7.538C8.053,8.522 7.499,9.859 7.499,11.251C7.499,13.271 8.664,15.119 10.487,15.989C10.86,16.167 11.308,16.009 11.487,15.635C11.665,15.262 11.507,14.814 11.133,14.635C9.831,14.014 8.999,12.694 8.999,11.251C8.999,10.256 9.395,9.302 10.098,8.599L14.598,4.098C15.301,3.395 16.256,3 17.25,3C19.307,3 21,4.693 21,6.75C21,7.744 20.605,8.699 19.902,9.402C19.902,9.402 18.145,11.159 18.145,11.159C17.852,11.451 17.852,11.927 18.145,12.219C18.437,12.512 18.913,12.512 19.205,12.219Z"/>
</svg>
