<?xml version="1.0" encoding="UTF-8" standalone="no"?>
<!DOCTYPE svg PUBLIC "-//W3C//DTD SVG 1.1//EN" "http://www.w3.org/Graphics/SVG/1.1/DTD/svg11.dtd">
<svg width="100%" height="100%" viewBox="0 0 24 24" version="1.1" xmlns="http://www.w3.org/2000/svg" xmlns:xlink="http://www.w3.org/1999/xlink" xml:space="preserve" xmlns:serif="http://www.serif.com/" style="fill-rule:evenodd;clip-rule:evenodd;stroke-linejoin:round;stroke-miterlimit:2;">
    <path d="M4.875,17.25C4.875,16.633 4.367,16.125 3.75,16.125C3.133,16.125 2.625,16.633 2.625,17.25C2.625,17.867 3.133,18.375 3.75,18.375C4.367,18.375 4.875,17.867 4.875,17.25ZM8.25,18L20.25,18C20.664,18 21,17.664 21,17.25C21,16.836 20.664,16.5 20.25,16.5L8.25,16.5C7.836,16.5 7.5,16.836 7.5,17.25C7.5,17.664 7.836,18 8.25,18ZM3.375,17.25C3.375,17.044 3.544,16.875 3.75,16.875C3.956,16.875 4.125,17.044 4.125,17.25C4.125,17.456 3.956,17.625 3.75,17.625C3.544,17.625 3.375,17.456 3.375,17.25ZM4.875,12C4.875,11.383 4.367,10.875 3.75,10.875C3.133,10.875 2.625,11.383 2.625,12C2.625,12.617 3.133,13.125 3.75,13.125C4.367,13.125 4.875,12.617 4.875,12ZM8.25,12.75L20.25,12.75C20.664,12.75 21,12.414 21,12C21,11.586 20.664,11.25 20.25,11.25L8.25,11.25C7.836,11.25 7.5,11.586 7.5,12C7.5,12.414 7.836,12.75 8.25,12.75ZM3.375,12C3.375,11.794 3.544,11.625 3.75,11.625C3.956,11.625 4.125,11.794 4.125,12C4.125,12.206 3.956,12.375 3.75,12.375C3.544,12.375 3.375,12.206 3.375,12ZM4.875,6.75C4.875,6.133 4.367,5.625 3.75,5.625C3.133,5.625 2.625,6.133 2.625,6.75C2.625,7.367 3.133,7.875 3.75,7.875C4.367,7.875 4.875,7.367 4.875,6.75ZM8.25,7.5L20.25,7.5C20.664,7.5 21,7.164 21,6.75C21,6.336 20.664,6 20.25,6L8.25,6C7.836,6 7.5,6.336 7.5,6.75C7.5,7.164 7.836,7.5 8.25,7.5ZM3.375,6.75C3.375,6.544 3.544,6.375 3.75,6.375C3.956,6.375 4.125,6.544 4.125,6.75C4.125,6.956 3.956,7.125 3.75,7.125C3.544,7.125 3.375,6.956 3.375,6.75Z"/>
</svg>
