<?xml version="1.0" encoding="UTF-8" standalone="no"?>
<!DOCTYPE svg PUBLIC "-//W3C//DTD SVG 1.1//EN" "http://www.w3.org/Graphics/SVG/1.1/DTD/svg11.dtd">
<svg width="100%" height="100%" viewBox="0 0 24 24" version="1.1" xmlns="http://www.w3.org/2000/svg" xmlns:xlink="http://www.w3.org/1999/xlink" xml:space="preserve" xmlns:serif="http://www.serif.com/" style="fill-rule:evenodd;clip-rule:evenodd;stroke-linejoin:round;stroke-miterlimit:2;">
    <path d="M12.75,9.75L3.75,9.75C2.104,9.75 0.75,11.104 0.75,12.75L0.75,19.5C0.75,21.146 2.104,22.5 3.75,22.5L14.25,22.5C15.896,22.5 17.25,21.146 17.25,19.5L17.25,12.75C17.25,11.104 15.896,9.75 14.25,9.75L14.25,6.75C14.25,4.693 15.943,3 18,3C20.057,3 21.75,4.693 21.75,6.75C21.75,6.75 21.75,10.5 21.75,10.5C21.75,10.914 22.086,11.25 22.5,11.25C22.914,11.25 23.25,10.914 23.25,10.5L23.25,6.75C23.25,3.87 20.88,1.5 18,1.5C15.12,1.5 12.75,3.87 12.75,6.75L12.75,9.75ZM3.75,21C2.927,21 2.25,20.323 2.25,19.5C2.25,19.5 2.25,12.75 2.25,12.75C2.25,11.927 2.927,11.25 3.75,11.25L14.25,11.25C15.073,11.25 15.75,11.927 15.75,12.75C15.75,12.75 15.75,19.5 15.75,19.5C15.75,20.323 15.073,21 14.25,21L3.75,21Z"/>
</svg>
