<?xml version="1.0" encoding="UTF-8" standalone="no"?>
<!DOCTYPE svg PUBLIC "-//W3C//DTD SVG 1.1//EN" "http://www.w3.org/Graphics/SVG/1.1/DTD/svg11.dtd">
<svg width="100%" height="100%" viewBox="0 0 24 24" version="1.1" xmlns="http://www.w3.org/2000/svg" xmlns:xlink="http://www.w3.org/1999/xlink" xml:space="preserve" xmlns:serif="http://www.serif.com/" style="fill-rule:evenodd;clip-rule:evenodd;stroke-linejoin:round;stroke-miterlimit:2;">
    <path d="M6.75,9.75C5.104,9.75 3.75,11.104 3.75,12.75C3.75,12.75 3.75,19.5 3.75,19.5C3.75,21.146 5.104,22.5 6.75,22.5L17.25,22.5C18.896,22.5 20.25,21.146 20.25,19.5L20.25,12.75C20.25,11.104 18.896,9.75 17.25,9.75L17.25,6.75C17.25,3.87 14.88,1.5 12,1.5C9.12,1.5 6.75,3.87 6.75,6.75L6.75,9.75ZM6.75,21C5.927,21 5.25,20.323 5.25,19.5L5.25,12.75C5.25,11.927 5.927,11.25 6.75,11.25L17.25,11.25C18.073,11.25 18.75,11.927 18.75,12.75C18.75,12.75 18.75,19.5 18.75,19.5C18.75,20.323 18.073,21 17.25,21L6.75,21ZM15.75,9.75L15.75,6.75C15.75,4.693 14.057,3 12,3C9.943,3 8.25,4.693 8.25,6.75L8.25,9.75L15.75,9.75Z"/>
</svg>
