<?xml version="1.0" encoding="UTF-8" standalone="no"?>
<!DOCTYPE svg PUBLIC "-//W3C//DTD SVG 1.1//EN" "http://www.w3.org/Graphics/SVG/1.1/DTD/svg11.dtd">
<svg width="100%" height="100%" viewBox="0 0 24 24" version="1.1" xmlns="http://www.w3.org/2000/svg" xmlns:xlink="http://www.w3.org/1999/xlink" xml:space="preserve" xmlns:serif="http://www.serif.com/" style="fill-rule:evenodd;clip-rule:evenodd;stroke-linejoin:round;stroke-miterlimit:2;">
    <path d="M21.75,12C21.75,6.651 17.349,2.25 12,2.25C6.651,2.25 2.25,6.651 2.25,12C2.25,17.349 6.651,21.75 12,21.75C17.349,21.75 21.75,17.349 21.75,12ZM20.25,12C20.25,16.526 16.526,20.25 12,20.25C7.474,20.25 3.75,16.526 3.75,12C3.75,7.474 7.474,3.75 12,3.75C16.526,3.75 20.25,7.474 20.25,12ZM13.213,14.274L15.22,16.28C15.512,16.573 15.988,16.573 16.28,16.28C16.573,15.988 16.573,15.512 16.28,15.22L14.273,13.212C14.743,12.529 15,11.715 15,10.874C15,8.612 13.137,6.749 10.875,6.749C9.781,6.749 8.731,7.184 7.958,7.958C7.184,8.731 6.749,9.781 6.749,10.875C6.749,13.138 8.612,15.001 10.875,15.001C11.715,15.001 12.53,14.744 13.213,14.274ZM12.731,12.731C12.731,12.731 12.705,12.758 12.705,12.758C12.215,13.234 11.559,13.501 10.875,13.501C9.435,13.501 8.249,12.315 8.249,10.875C8.249,10.179 8.526,9.511 9.018,9.018C9.51,8.526 10.179,8.249 10.875,8.249C12.315,8.249 13.5,9.434 13.5,10.874C13.5,11.57 13.223,12.239 12.731,12.731Z"/>
</svg>
