<?xml version="1.0" encoding="UTF-8" standalone="no"?>
<!DOCTYPE svg PUBLIC "-//W3C//DTD SVG 1.1//EN" "http://www.w3.org/Graphics/SVG/1.1/DTD/svg11.dtd">
<svg width="100%" height="100%" viewBox="0 0 24 24" version="1.1" xmlns="http://www.w3.org/2000/svg" xmlns:xlink="http://www.w3.org/1999/xlink" xml:space="preserve" xmlns:serif="http://www.serif.com/" style="fill-rule:evenodd;clip-rule:evenodd;stroke-linejoin:round;stroke-miterlimit:2;">
    <path d="M15.779,16.839L20.47,21.53C20.762,21.823 21.238,21.823 21.53,21.53C21.823,21.238 21.823,20.762 21.53,20.47L16.839,15.779C18.068,14.303 18.75,12.435 18.75,10.499C18.75,5.974 15.025,2.249 10.5,2.249C8.312,2.249 6.212,3.119 4.666,4.666C3.119,6.212 2.249,8.312 2.249,10.499C2.249,15.025 5.974,18.75 10.5,18.75C12.435,18.75 14.303,18.068 15.779,16.839ZM15.273,15.273C14.007,16.538 12.289,17.25 10.5,17.25C6.796,17.25 3.749,14.203 3.749,10.499C3.749,8.71 4.461,6.992 5.726,5.726C6.992,4.461 8.71,3.749 10.5,3.749C14.203,3.749 17.25,6.796 17.25,10.499C17.25,12.289 16.538,14.007 15.273,15.273L15.273,15.273Z"/>
</svg>
