<?xml version="1.0" encoding="UTF-8" standalone="no"?>
<!DOCTYPE svg PUBLIC "-//W3C//DTD SVG 1.1//EN" "http://www.w3.org/Graphics/SVG/1.1/DTD/svg11.dtd">
<svg width="100%" height="100%" viewBox="0 0 24 24" version="1.1" xmlns="http://www.w3.org/2000/svg" xmlns:xlink="http://www.w3.org/1999/xlink" xml:space="preserve" xmlns:serif="http://www.serif.com/" style="fill-rule:evenodd;clip-rule:evenodd;stroke-linejoin:round;stroke-miterlimit:2;">
    <path d="M15.75,10.5C15.75,8.443 14.057,6.75 12,6.75C9.943,6.75 8.25,8.443 8.25,10.5C8.25,12.557 9.943,14.25 12,14.25C14.057,14.25 15.75,12.557 15.75,10.5ZM14.25,10.5C14.25,11.734 13.234,12.75 12,12.75C10.766,12.75 9.75,11.734 9.75,10.5C9.75,9.266 10.766,8.25 12,8.25C13.234,8.25 14.25,9.266 14.25,10.5Z"/>
    <path d="M20.25,10.5C20.25,5.974 16.526,2.25 12,2.25C7.474,2.25 3.75,5.974 3.75,10.5C3.75,18.045 11.64,22.408 11.64,22.408C11.864,22.531 12.136,22.531 12.36,22.408C12.36,22.408 20.25,18.045 20.25,10.5ZM18.75,10.5C18.75,16.32 13.447,19.987 12,20.88C10.554,19.988 5.25,16.32 5.25,10.5C5.25,6.797 8.297,3.75 12,3.75C15.703,3.75 18.75,6.797 18.75,10.5Z"/>
</svg>
