<?xml version="1.0" encoding="UTF-8" standalone="no"?>
<!DOCTYPE svg PUBLIC "-//W3C//DTD SVG 1.1//EN" "http://www.w3.org/Graphics/SVG/1.1/DTD/svg11.dtd">
<svg width="100%" height="100%" viewBox="0 0 24 24" version="1.1" xmlns="http://www.w3.org/2000/svg" xmlns:xlink="http://www.w3.org/1999/xlink" xml:space="preserve" xmlns:serif="http://www.serif.com/" style="fill-rule:evenodd;clip-rule:evenodd;stroke-linejoin:round;stroke-miterlimit:2;">
    <path d="M15.505,21.498L15.838,21.419L20.713,18.982C21.348,18.665 21.75,18.015 21.75,17.305L21.75,4.82C21.75,3.427 20.283,2.52 19.037,3.143L15.167,5.078C15.062,5.13 14.939,5.131 14.834,5.078L9.838,2.581C9.311,2.318 8.689,2.318 8.162,2.581L3.287,5.018C2.65,5.337 2.25,5.987 2.25,6.695L2.25,19.18C2.25,20.573 3.717,21.48 4.963,20.857L8.833,18.922C8.938,18.87 9.061,18.869 9.166,18.922L14.162,21.42C14.691,21.683 15.312,21.683 15.838,21.42L15.503,21.499L15.505,21.498ZM15.503,21.498L15.168,20.078C15.062,20.131 14.937,20.131 14.832,20.078C14.832,20.078 9.838,17.581 9.838,17.581C9.313,17.317 8.69,17.316 8.161,17.582L4.293,19.515C4.043,19.64 3.75,19.459 3.75,19.18C3.75,19.18 3.75,6.695 3.75,6.695C3.75,6.553 3.83,6.423 3.957,6.36C3.957,6.36 8.832,3.923 8.832,3.923C8.938,3.87 9.062,3.87 9.168,3.923L14.162,6.419C14.687,6.683 15.31,6.684 15.839,6.418L19.707,4.485C19.957,4.36 20.25,4.541 20.25,4.82C20.25,4.82 20.25,17.305 20.25,17.305C20.25,17.447 20.17,17.577 20.043,17.64L15.168,20.077L15.503,21.498L15.503,21.498ZM15.502,21.498C15.473,21.495 14.753,21.416 14.753,20.748C14.753,20.575 15.473,21.462 15.502,21.498ZM14.25,9L14.25,17.25C14.25,17.664 14.586,18 15,18C15.414,18 15.75,17.664 15.75,17.25L15.75,9C15.75,8.586 15.414,8.25 15,8.25C14.586,8.25 14.25,8.586 14.25,9ZM8.25,6.75L8.25,15C8.25,15.414 8.586,15.75 9,15.75C9.414,15.75 9.75,15.414 9.75,15L9.75,6.75C9.75,6.336 9.414,6 9,6C8.586,6 8.25,6.336 8.25,6.75Z"/>
</svg>
