<?xml version="1.0" encoding="UTF-8" standalone="no"?>
<!DOCTYPE svg PUBLIC "-//W3C//DTD SVG 1.1//EN" "http://www.w3.org/Graphics/SVG/1.1/DTD/svg11.dtd">
<svg width="100%" height="100%" viewBox="0 0 24 24" version="1.1" xmlns="http://www.w3.org/2000/svg" xmlns:xlink="http://www.w3.org/1999/xlink" xml:space="preserve" xmlns:serif="http://www.serif.com/" style="fill-rule:evenodd;clip-rule:evenodd;stroke-linejoin:round;stroke-miterlimit:2;">
    <path d="M18.261,3.74C15.753,4.939 13.048,5.675 10.276,5.913L10.267,5.913C9.603,5.971 8.929,6 8.25,6C8.25,6 7.5,6 7.5,6C4.62,6 2.25,8.37 2.25,11.25C2.25,13.831 4.153,16.002 6.62,16.425C6.95,17.78 7.412,19.101 7.997,20.368C8.45,21.347 9.646,21.702 10.58,21.164L11.238,20.783C12.092,20.291 12.413,19.216 12.009,18.316C12.009,18.316 12.009,18.315 12.009,18.315C11.774,17.793 11.564,17.257 11.381,16.709C13.766,17.03 16.088,17.721 18.261,18.76C18.206,18.922 18.149,19.083 18.09,19.244C17.949,19.633 18.15,20.063 18.539,20.205C18.928,20.346 19.358,20.145 19.5,19.756C19.637,19.379 19.766,18.999 19.887,18.612L19.891,18.597C20.423,16.883 20.766,15.115 20.914,13.327C21.432,12.788 21.75,12.056 21.75,11.25C21.75,10.444 21.432,9.712 20.914,9.173C20.766,7.385 20.423,5.617 19.891,3.903L19.887,3.888C19.767,3.503 19.638,3.121 19.499,2.742C19.357,2.354 18.926,2.153 18.537,2.296C18.149,2.438 17.948,2.869 18.091,3.258C18.149,3.418 18.206,3.579 18.261,3.74ZM8.187,16.5C8.484,17.611 8.876,18.694 9.359,19.738C9.359,19.738 9.359,19.738 9.359,19.738C9.441,19.915 9.662,19.962 9.83,19.864L10.488,19.484C10.678,19.375 10.731,19.13 10.641,18.931C10.296,18.163 10,17.368 9.759,16.548C9.26,16.516 8.757,16.5 8.25,16.5L8.187,16.5ZM18.703,5.191C16.253,6.334 13.63,7.065 10.941,7.355C10.652,8.607 10.5,9.911 10.5,11.25C10.5,11.25 10.5,11.25 10.5,11.251C10.499,12.562 10.647,13.869 10.941,15.145C13.631,15.435 16.253,16.166 18.703,17.309C19.089,15.876 19.336,14.409 19.441,12.927L19.441,12.927C19.52,11.81 19.52,10.69 19.441,9.573L19.441,9.573C19.336,8.091 19.089,6.624 18.703,5.191ZM9.38,7.475C9.005,7.492 8.629,7.5 8.25,7.5L7.5,7.5C5.443,7.5 3.75,9.193 3.75,11.25C3.75,13.307 5.443,15 7.5,15C7.5,15 8.25,15 8.25,15C8.629,15 9.006,15.008 9.38,15.025C9.127,13.784 8.999,12.519 9,11.25C9,9.957 9.131,8.694 9.38,7.475Z"/>
</svg>
