<?xml version="1.0" encoding="UTF-8" standalone="no"?>
<!DOCTYPE svg PUBLIC "-//W3C//DTD SVG 1.1//EN" "http://www.w3.org/Graphics/SVG/1.1/DTD/svg11.dtd">
<svg width="100%" height="100%" viewBox="0 0 24 24" version="1.1" xmlns="http://www.w3.org/2000/svg" xmlns:xlink="http://www.w3.org/1999/xlink" xml:space="preserve" xmlns:serif="http://www.serif.com/" style="fill-rule:evenodd;clip-rule:evenodd;stroke-linejoin:round;stroke-miterlimit:2;">
    <path d="M12.75,21.75L12.75,19.457C16.106,19.08 18.75,16.2 18.75,12.75L18.75,11.25C18.75,10.836 18.414,10.5 18,10.5C17.586,10.5 17.25,10.836 17.25,11.25L17.25,12.75C17.25,15.585 14.953,17.926 12.135,17.998L12,18C9.12,18 6.75,15.63 6.75,12.75C6.75,12.75 6.75,11.25 6.75,11.25C6.75,10.836 6.414,10.5 6,10.5C5.586,10.5 5.25,10.836 5.25,11.25L5.25,12.75C5.25,16.2 7.894,19.08 11.25,19.457L11.25,21.75L8.25,21.75C7.836,21.75 7.5,22.086 7.5,22.5C7.5,22.914 7.836,23.25 8.25,23.25L15.75,23.25C16.164,23.25 16.5,22.914 16.5,22.5C16.5,22.086 16.164,21.75 15.75,21.75L12.75,21.75ZM12,16.5C14.057,16.5 15.75,14.807 15.75,12.75C15.75,12.75 15.75,4.5 15.75,4.5C15.75,2.443 14.057,0.75 12,0.75C9.943,0.75 8.25,2.443 8.25,4.5C8.25,4.5 8.25,12.75 8.25,12.75C8.25,14.807 9.943,16.5 12,16.5ZM12,15C10.766,15 9.75,13.984 9.75,12.75L9.75,4.5C9.75,3.266 10.766,2.25 12,2.25C13.234,2.25 14.25,3.266 14.25,4.5L14.25,12.75C14.25,13.984 13.234,15 12,15Z"/>
</svg>
