<?xml version="1.0" encoding="UTF-8" standalone="no"?>
<!DOCTYPE svg PUBLIC "-//W3C//DTD SVG 1.1//EN" "http://www.w3.org/Graphics/SVG/1.1/DTD/svg11.dtd">
<svg width="100%" height="100%" viewBox="0 0 24 24" version="1.1" xmlns="http://www.w3.org/2000/svg" xmlns:xlink="http://www.w3.org/1999/xlink" xml:space="preserve" xmlns:serif="http://www.serif.com/" style="fill-rule:evenodd;clip-rule:evenodd;stroke-linejoin:round;stroke-miterlimit:2;">
    <path d="M22.444,15.291C22.561,15.01 22.497,14.687 22.282,14.472C22.067,14.257 21.744,14.193 21.463,14.31C20.366,14.767 19.189,15.002 18.001,15C18.001,15 18,15 18,15C13.029,15 9,10.971 9,6C9,4.772 9.245,3.603 9.69,2.537C9.807,2.256 9.743,1.933 9.528,1.718C9.313,1.503 8.99,1.439 8.709,1.556C4.805,3.185 2.25,7.02 2.25,11.25C2.25,17.049 6.951,21.75 12.75,21.75C16.98,21.75 20.815,19.195 22.444,15.291ZM20.227,16.263C18.576,18.72 15.781,20.25 12.75,20.25C12.75,20.25 12.75,20.25 12.75,20.25C7.779,20.25 3.75,16.221 3.75,11.25C3.75,11.25 3.75,11.25 3.75,11.25C3.75,8.219 5.28,5.425 7.737,3.774C7.582,4.492 7.5,5.236 7.5,6C7.5,11.799 12.2,16.5 17.999,16.5C18.75,16.501 19.496,16.421 20.225,16.264L20.227,16.263Z"/>
</svg>
