<?xml version="1.0" encoding="UTF-8" standalone="no"?>
<!DOCTYPE svg PUBLIC "-//W3C//DTD SVG 1.1//EN" "http://www.w3.org/Graphics/SVG/1.1/DTD/svg11.dtd">
<svg width="100%" height="100%" viewBox="0 0 24 24" version="1.1" xmlns="http://www.w3.org/2000/svg" xmlns:xlink="http://www.w3.org/1999/xlink" xml:space="preserve" xmlns:serif="http://www.serif.com/" style="fill-rule:evenodd;clip-rule:evenodd;stroke-linejoin:round;stroke-miterlimit:2;">
    <g transform="matrix(1,0,0,1,-0.0242156,-0.00376328)">
        <path d="M9.802,9.554L18.75,6.995L18.75,12.553C18.75,12.967 19.086,13.303 19.5,13.303C19.914,13.303 20.25,12.967 20.25,12.553L20.25,2.25C20.25,2.015 20.139,1.793 19.952,1.651C19.764,1.509 19.52,1.464 19.294,1.529L8.846,4.517C8.524,4.609 8.302,4.903 8.302,5.238L8.302,15.541C8.302,15.955 8.638,16.291 9.052,16.291C9.466,16.291 9.802,15.955 9.802,15.541L9.802,9.554ZM18.75,5.434L18.75,3.245L9.802,5.804L9.802,7.994L18.75,5.434Z"/>
    </g>
    <g transform="matrix(1,0,0,1,-0.0242156,-0.00376328)">
        <path d="M20.25,12.553C20.25,12.139 19.914,11.803 19.5,11.803C19.086,11.803 18.75,12.139 18.75,12.553C18.75,13.221 18.304,13.811 17.662,13.995L15.355,14.654C14.248,14.956 13.473,15.969 13.473,17.117C13.473,18.518 14.626,19.67 16.026,19.67C16.274,19.67 16.52,19.634 16.757,19.563L18.074,19.187C19.358,18.82 20.25,17.638 20.25,16.303L20.25,12.553ZM18.75,15.15L18.75,16.303C18.75,16.971 18.304,17.561 17.662,17.745L16.331,18.125C16.232,18.155 16.13,18.17 16.026,18.17C15.449,18.17 14.973,17.695 14.973,17.117C14.973,16.642 15.294,16.224 15.753,16.1L18.074,15.437C18.314,15.369 18.54,15.272 18.75,15.15Z"/>
    </g>
    <g transform="matrix(1,0,0,1,-10.4758,2.95264)">
        <path d="M20.25,12.553C20.25,12.139 19.914,11.803 19.5,11.803C19.086,11.803 18.75,12.139 18.75,12.553C18.75,13.221 18.304,13.811 17.662,13.995L15.355,14.654C14.248,14.956 13.473,15.969 13.473,17.117C13.473,18.518 14.626,19.67 16.026,19.67C16.274,19.67 16.52,19.634 16.757,19.563L18.074,19.187C19.358,18.82 20.25,17.638 20.25,16.303L20.25,12.553ZM18.75,15.15L18.75,16.303C18.75,16.971 18.304,17.561 17.662,17.745L16.331,18.125C16.232,18.155 16.13,18.17 16.026,18.17C15.449,18.17 14.973,17.695 14.973,17.117C14.973,16.642 15.294,16.224 15.753,16.1L18.074,15.437C18.314,15.369 18.54,15.272 18.75,15.15Z"/>
    </g>
</svg>
