<?xml version="1.0" encoding="UTF-8" standalone="no"?>
<!DOCTYPE svg PUBLIC "-//W3C//DTD SVG 1.1//EN" "http://www.w3.org/Graphics/SVG/1.1/DTD/svg11.dtd">
<svg width="100%" height="100%" viewBox="0 0 24 24" version="1.1" xmlns="http://www.w3.org/2000/svg" xmlns:xlink="http://www.w3.org/1999/xlink" xml:space="preserve" xmlns:serif="http://www.serif.com/" style="fill-rule:evenodd;clip-rule:evenodd;stroke-linejoin:round;stroke-miterlimit:2;">
    <path d="M18.75,21C20.396,21 21.75,19.646 21.75,18L21.75,8.625C21.75,7.59 20.91,6.75 19.875,6.75L17.25,6.75L17.25,4.875C17.25,3.84 16.41,3 15.375,3L4.125,3C3.09,3 2.25,3.84 2.25,4.875L2.25,18C2.25,19.646 3.604,21 5.25,21L18.75,21ZM15.75,4.875C15.75,4.668 15.582,4.5 15.375,4.5C15.375,4.5 4.125,4.5 4.125,4.5C3.918,4.5 3.75,4.668 3.75,4.875C3.75,4.875 3.75,18 3.75,18C3.75,18.823 4.427,19.5 5.25,19.5L16.157,19.5C15.898,19.058 15.75,18.545 15.75,18L15.75,4.875ZM17.25,8.25L17.25,18C17.25,18.823 17.927,19.5 18.75,19.5L18.827,19.498C19.615,19.457 20.25,18.797 20.25,18C20.25,18 20.25,8.625 20.25,8.625C20.25,8.418 20.082,8.25 19.875,8.25L17.25,8.25ZM6,17.25L13.5,17.25C13.914,17.25 14.25,16.914 14.25,16.5C14.25,16.086 13.914,15.75 13.5,15.75L6,15.75C5.586,15.75 5.25,16.086 5.25,16.5C5.25,16.914 5.586,17.25 6,17.25ZM6,14.25L13.5,14.25C13.914,14.25 14.25,13.914 14.25,13.5C14.25,13.086 13.914,12.75 13.5,12.75L6,12.75C5.586,12.75 5.25,13.086 5.25,13.5C5.25,13.914 5.586,14.25 6,14.25ZM12,11.25L13.5,11.25C13.914,11.25 14.25,10.914 14.25,10.5C14.25,10.086 13.914,9.75 13.5,9.75L12,9.75C11.586,9.75 11.25,10.086 11.25,10.5C11.25,10.914 11.586,11.25 12,11.25ZM6,6.75C5.586,6.75 5.25,7.086 5.25,7.5L5.25,10.5C5.25,10.914 5.586,11.25 6,11.25L9,11.25C9.414,11.25 9.75,10.914 9.75,10.5L9.75,7.5C9.75,7.086 9.414,6.75 9,6.75L6,6.75ZM6.75,8.25L8.25,8.25C8.25,8.25 8.25,9.75 8.25,9.75C8.25,9.75 6.75,9.75 6.75,9.75L6.75,8.25ZM12,8.25L13.5,8.25C13.914,8.25 14.25,7.914 14.25,7.5C14.25,7.086 13.914,6.75 13.5,6.75L12,6.75C11.586,6.75 11.25,7.086 11.25,7.5C11.25,7.914 11.586,8.25 12,8.25Z"/>
</svg>
