<?xml version="1.0" encoding="UTF-8" standalone="no"?>
<!DOCTYPE svg PUBLIC "-//W3C//DTD SVG 1.1//EN" "http://www.w3.org/Graphics/SVG/1.1/DTD/svg11.dtd">
<svg width="100%" height="100%" viewBox="0 0 24 24" version="1.1" xmlns="http://www.w3.org/2000/svg" xmlns:xlink="http://www.w3.org/1999/xlink" xml:space="preserve" xmlns:serif="http://www.serif.com/" style="fill-rule:evenodd;clip-rule:evenodd;stroke-linejoin:round;stroke-miterlimit:2;">
    <path d="M5.106,5.106C3.278,6.933 2.25,9.415 2.25,12C2.25,17.349 6.651,21.75 12,21.75C14.585,21.75 17.067,20.722 18.894,18.894C20.722,17.067 21.75,14.585 21.75,12C21.75,6.651 17.349,2.25 12,2.25C9.415,2.25 6.933,3.278 5.106,5.106ZM5.66,6.721C4.431,8.197 3.75,10.064 3.75,12C3.75,16.526 7.474,20.25 12,20.25C13.936,20.25 15.803,19.569 17.279,18.34L5.66,6.721ZM18.34,17.279C19.569,15.803 20.25,13.936 20.25,12C20.25,7.474 16.526,3.75 12,3.75C10.064,3.75 8.197,4.431 6.721,5.66L18.34,17.279Z"/>
</svg>
