<?xml version="1.0" encoding="UTF-8" standalone="no"?>
<!DOCTYPE svg PUBLIC "-//W3C//DTD SVG 1.1//EN" "http://www.w3.org/Graphics/SVG/1.1/DTD/svg11.dtd">
<svg width="100%" height="100%" viewBox="0 0 24 24" version="1.1" xmlns="http://www.w3.org/2000/svg" xmlns:xlink="http://www.w3.org/1999/xlink" xml:space="preserve" xmlns:serif="http://www.serif.com/" style="fill-rule:evenodd;clip-rule:evenodd;stroke-linejoin:round;stroke-miterlimit:2;">
    <path d="M8.879,10.657L8.863,10.681C8.287,11.592 7.801,12.556 7.412,13.559C7.196,13.52 6.974,13.5 6.75,13.5C4.693,13.5 3,15.192 3,17.25L3,17.25C3,18.073 2.323,18.75 1.5,18.75C1.467,18.75 1.433,18.749 1.4,18.747C1.124,18.728 0.86,18.863 0.714,19.098C0.567,19.333 0.562,19.629 0.7,19.869C1.636,21.495 3.374,22.5 5.25,22.5C8.13,22.5 10.5,20.13 10.5,17.25C10.5,17.25 10.5,17.25 10.5,17.25C10.5,17.024 10.48,16.803 10.441,16.588C11.436,16.201 12.391,15.72 13.294,15.151L13.324,15.133L13.352,15.114C15.323,13.862 17.01,12.212 18.305,10.27L22.181,4.456C22.39,4.145 22.502,3.776 22.502,3.399C22.502,2.356 21.644,1.498 20.601,1.498C20.224,1.498 19.855,1.61 19.542,1.82C19.544,1.819 13.73,5.696 13.73,5.696C11.784,6.993 10.132,8.683 8.879,10.657ZM7.513,15.134C7.273,15.046 7.015,15 6.75,15C5.516,15 4.5,16.015 4.5,17.25L4.5,17.25C4.5,18.471 3.755,19.531 2.698,19.997C3.382,20.632 4.291,21 5.25,21C7.307,21 9,19.307 9,17.25C9,17.25 9,17.25 9,17.25C9,16.951 8.942,16.666 8.836,16.405C8.835,16.405 8.835,16.404 8.835,16.404C8.614,15.858 8.192,15.433 7.676,15.2C7.661,15.196 7.647,15.192 7.634,15.187C7.591,15.173 7.551,15.155 7.513,15.134ZM10.225,15.839L10.225,15.839L10.225,15.839ZM9.778,12.07C9.403,12.727 9.078,13.41 8.805,14.115C9.232,14.394 9.601,14.76 9.886,15.194C10.59,14.921 11.273,14.596 11.929,14.221C11.408,13.332 10.667,12.591 9.778,12.07ZM13.194,13.414C14.712,12.337 16.022,10.99 17.057,9.438L20.934,3.622C20.978,3.556 21.002,3.478 21.002,3.399C21.002,3.179 20.821,2.998 20.601,2.998C20.522,2.998 20.444,3.022 20.378,3.066L14.562,6.944C13.01,7.979 11.663,9.288 10.586,10.805C11.658,11.445 12.555,12.341 13.194,13.414Z"/>
</svg>
