<?xml version="1.0" encoding="UTF-8" standalone="no"?>
<!DOCTYPE svg PUBLIC "-//W3C//DTD SVG 1.1//EN" "http://www.w3.org/Graphics/SVG/1.1/DTD/svg11.dtd">
<svg width="100%" height="100%" viewBox="0 0 24 24" version="1.1" xmlns="http://www.w3.org/2000/svg" xmlns:xlink="http://www.w3.org/1999/xlink" xml:space="preserve" xmlns:serif="http://www.serif.com/" style="fill-rule:evenodd;clip-rule:evenodd;stroke-linejoin:round;stroke-miterlimit:2;">
    <path d="M5.215,11.998L2.553,20.656C2.472,20.919 2.542,21.206 2.736,21.402C2.929,21.599 3.215,21.673 3.48,21.596C10.094,19.672 16.332,16.632 21.923,12.609C22.119,12.468 22.235,12.241 22.235,12C22.235,11.759 22.119,11.532 21.923,11.391C16.331,7.368 10.093,4.329 3.478,2.406C3.214,2.329 2.928,2.403 2.735,2.6C2.541,2.796 2.471,3.083 2.552,3.347L5.215,11.998ZM6.554,11.25L13.5,11.25C13.914,11.25 14.25,11.586 14.25,12C14.25,12.414 13.914,12.75 13.5,12.75L6.553,12.75L4.401,19.749C10.019,17.969 15.34,15.357 20.185,12C15.339,8.644 10.019,6.033 4.401,4.254L6.554,11.25ZM5.999,12.75L5.999,12.75L5.997,12.75L5.999,12.75ZM5.947,12.748L5.959,12.749L5.947,12.748ZM5.911,12.745L5.918,12.745L5.909,12.744L5.901,12.743L5.911,12.745ZM5.867,12.738L5.875,12.74L5.856,12.736L5.867,12.738ZM5.824,12.729L5.839,12.732L5.816,12.727L5.824,12.729ZM5.782,12.718L5.802,12.723L5.791,12.72L5.777,12.716L5.765,12.712L5.782,12.718ZM5.274,12.191L5.282,12.217L5.284,12.223L5.296,12.258L5.304,12.278L5.309,12.292L5.315,12.306L5.324,12.325L5.328,12.334L5.341,12.358C5.352,12.379 5.365,12.399 5.378,12.419L5.39,12.436L5.399,12.449C5.435,12.497 5.477,12.54 5.523,12.578L5.523,12.579C5.55,12.601 5.579,12.621 5.608,12.639L5.628,12.651L5.643,12.659L5.654,12.665L5.675,12.676L5.708,12.691L5.735,12.702L5.742,12.704L5.76,12.711C5.616,12.663 5.488,12.571 5.396,12.446C5.339,12.368 5.298,12.281 5.274,12.191Z"/>
</svg>
