<?xml version="1.0" encoding="UTF-8" standalone="no"?>
<!DOCTYPE svg PUBLIC "-//W3C//DTD SVG 1.1//EN" "http://www.w3.org/Graphics/SVG/1.1/DTD/svg11.dtd">
<svg width="100%" height="100%" viewBox="0 0 24 24" version="1.1" xmlns="http://www.w3.org/2000/svg" xmlns:xlink="http://www.w3.org/1999/xlink" xml:space="preserve" xmlns:serif="http://www.serif.com/" style="fill-rule:evenodd;clip-rule:evenodd;stroke-linejoin:round;stroke-miterlimit:2;">
    <path d="M8.042,17.77L8.03,17.78C7.891,17.912 7.706,17.986 7.514,17.986C7.103,17.986 6.764,17.648 6.764,17.236C6.764,17.041 6.84,16.854 6.975,16.714C6.975,16.714 14.78,8.909 14.78,8.909C15.073,8.617 15.073,8.141 14.78,7.849C14.488,7.556 14.012,7.556 13.72,7.849L5.903,15.665C5.493,16.085 5.264,16.65 5.264,17.236C5.264,18.471 6.28,19.486 7.514,19.486C8.081,19.486 8.627,19.272 9.042,18.887C9.056,18.876 9.069,18.863 9.082,18.85L20.03,7.902C20.734,7.199 21.129,6.245 21.129,5.25C21.129,3.193 19.436,1.5 17.379,1.5C16.385,1.5 15.431,1.895 14.728,2.598L3.788,13.538C2.803,14.522 2.25,15.858 2.25,17.25C2.25,20.13 4.62,22.5 7.5,22.5C8.892,22.5 10.228,21.947 11.212,20.962C11.212,20.962 18.905,13.269 18.905,13.269C19.198,12.977 19.198,12.501 18.905,12.209C18.613,11.916 18.137,11.916 17.845,12.209L10.152,19.902C9.449,20.605 8.494,21 7.5,21C5.443,21 3.75,19.307 3.75,17.25C3.75,16.256 4.145,15.301 4.848,14.598C4.848,14.598 15.788,3.658 15.788,3.658C16.21,3.237 16.783,3 17.379,3C18.613,3 19.629,4.016 19.629,5.25C19.629,5.847 19.392,6.42 18.97,6.842L8.042,17.77ZM7.976,17.839L7.974,17.842L7.995,17.818L7.976,17.839ZM8.036,17.775L8.03,17.78L8.002,17.809L7.995,17.818L8.022,17.79L8.036,17.775Z"/>
</svg>
