<?xml version="1.0" encoding="UTF-8" standalone="no"?>
<!DOCTYPE svg PUBLIC "-//W3C//DTD SVG 1.1//EN" "http://www.w3.org/Graphics/SVG/1.1/DTD/svg11.dtd">
<svg width="100%" height="100%" viewBox="0 0 24 24" version="1.1" xmlns="http://www.w3.org/2000/svg" xmlns:xlink="http://www.w3.org/1999/xlink" xml:space="preserve" xmlns:serif="http://www.serif.com/" style="fill-rule:evenodd;clip-rule:evenodd;stroke-linejoin:round;stroke-miterlimit:2;">
    <path d="M15,5.25L15,18.75C15,19.164 15.336,19.5 15.75,19.5C16.164,19.5 16.5,19.164 16.5,18.75L16.5,5.25C16.5,4.836 16.164,4.5 15.75,4.5C15.336,4.5 15,4.836 15,5.25ZM7.5,5.25L7.5,18.75C7.5,19.164 7.836,19.5 8.25,19.5C8.664,19.5 9,19.164 9,18.75L9,5.25C9,4.836 8.664,4.5 8.25,4.5C7.836,4.5 7.5,4.836 7.5,5.25Z"/>
</svg>
