<?xml version="1.0" encoding="UTF-8" standalone="no"?>
<!DOCTYPE svg PUBLIC "-//W3C//DTD SVG 1.1//EN" "http://www.w3.org/Graphics/SVG/1.1/DTD/svg11.dtd">
<svg width="100%" height="100%" viewBox="0 0 24 24" version="1.1" xmlns="http://www.w3.org/2000/svg" xmlns:xlink="http://www.w3.org/1999/xlink" xml:space="preserve" xmlns:serif="http://www.serif.com/" style="fill-rule:evenodd;clip-rule:evenodd;stroke-linejoin:round;stroke-miterlimit:2;">
    <path d="M21.75,12C21.75,6.651 17.349,2.25 12,2.25C6.651,2.25 2.25,6.651 2.25,12C2.25,17.349 6.651,21.75 12,21.75C17.349,21.75 21.75,17.349 21.75,12ZM20.25,12C20.25,16.526 16.526,20.25 12,20.25C7.474,20.25 3.75,16.526 3.75,12C3.75,7.474 7.474,3.75 12,3.75C16.526,3.75 20.25,7.474 20.25,12ZM13.5,9L13.5,15C13.5,15.414 13.836,15.75 14.25,15.75C14.664,15.75 15,15.414 15,15L15,9C15,8.586 14.664,8.25 14.25,8.25C13.836,8.25 13.5,8.586 13.5,9ZM10.5,15L10.5,9C10.5,8.586 10.164,8.25 9.75,8.25C9.336,8.25 9,8.586 9,9L9,15C9,15.414 9.336,15.75 9.75,15.75C10.164,15.75 10.5,15.414 10.5,15Z"/>
</svg>
