<?xml version="1.0" encoding="UTF-8" standalone="no"?>
<!DOCTYPE svg PUBLIC "-//W3C//DTD SVG 1.1//EN" "http://www.w3.org/Graphics/SVG/1.1/DTD/svg11.dtd">
<svg width="100%" height="100%" viewBox="0 0 24 24" version="1.1" xmlns="http://www.w3.org/2000/svg" xmlns:xlink="http://www.w3.org/1999/xlink" xml:space="preserve" xmlns:serif="http://www.serif.com/" style="fill-rule:evenodd;clip-rule:evenodd;stroke-linejoin:round;stroke-miterlimit:2;">
    <path d="M17.25,14L17.25,18.75C17.25,19.573 16.573,20.25 15.75,20.25C15.75,20.25 5.25,20.25 5.25,20.25C4.427,20.25 3.75,19.573 3.75,18.75C3.75,18.75 3.75,8.25 3.75,8.25C3.75,7.427 4.427,6.75 5.25,6.75C5.25,6.75 10,6.75 10,6.75C10.414,6.75 10.75,6.414 10.75,6C10.75,5.586 10.414,5.25 10,5.25L5.25,5.25C3.604,5.25 2.25,6.604 2.25,8.25L2.25,18.75C2.25,20.396 3.604,21.75 5.25,21.75L15.75,21.75C17.396,21.75 18.75,20.396 18.75,18.75L18.75,14C18.75,13.586 18.414,13.25 18,13.25C17.586,13.25 17.25,13.586 17.25,14ZM16.332,3.957L7.4,12.888C6.783,13.505 6.33,14.265 6.081,15.101C6.081,15.101 5.281,17.786 5.281,17.786C5.203,18.05 5.275,18.336 5.47,18.53C5.664,18.725 5.95,18.797 6.214,18.719L8.899,17.919C9.735,17.67 10.495,17.217 11.112,16.6L21.731,5.981C22.223,5.489 22.5,4.821 22.5,4.125C22.5,2.685 21.315,1.5 19.875,1.5C19.179,1.5 18.511,1.777 18.019,2.269L16.332,3.957ZM16.862,5.548L18.453,7.139L10.052,15.54C9.611,15.98 9.068,16.303 8.471,16.481L7.115,16.885L7.519,15.529C7.697,14.932 8.02,14.389 8.46,13.948L16.862,5.548ZM19.514,6.078L17.923,4.487L19.079,3.329C19.29,3.118 19.577,3 19.875,3C20.492,3 21,3.508 21,4.125C21,4.423 20.882,4.71 20.671,4.921L19.514,6.078Z"/>
</svg>
