<?xml version="1.0" encoding="UTF-8" standalone="no"?>
<!DOCTYPE svg PUBLIC "-//W3C//DTD SVG 1.1//EN" "http://www.w3.org/Graphics/SVG/1.1/DTD/svg11.dtd">
<svg width="100%" height="100%" viewBox="0 0 24 24" version="1.1" xmlns="http://www.w3.org/2000/svg" xmlns:xlink="http://www.w3.org/1999/xlink" xml:space="preserve" xmlns:serif="http://www.serif.com/" style="fill-rule:evenodd;clip-rule:evenodd;stroke-linejoin:round;stroke-miterlimit:2;">
    <path d="M16.332,3.957L16.312,3.977L3.65,16.638C3.033,17.255 2.58,18.015 2.331,18.851C2.331,18.851 1.531,21.536 1.531,21.536C1.453,21.8 1.525,22.086 1.72,22.28C1.914,22.475 2.2,22.547 2.464,22.469L5.149,21.669C5.985,21.42 6.745,20.967 7.362,20.35L21.731,5.981C22.223,5.489 22.5,4.821 22.5,4.125C22.5,2.685 21.315,1.5 19.875,1.5C19.179,1.5 18.511,1.777 18.019,2.269L16.332,3.957ZM16.862,5.548L18.453,7.139L6.302,19.29C5.861,19.73 5.318,20.053 4.721,20.231L3.365,20.635L3.769,19.279C3.947,18.682 4.27,18.139 4.71,17.698L16.862,5.548ZM19.514,6.078L17.923,4.487L19.079,3.329C19.29,3.118 19.577,3 19.875,3C20.492,3 21,3.508 21,4.125C21,4.423 20.882,4.71 20.671,4.921L19.514,6.078Z"/>
</svg>
