<?xml version="1.0" encoding="UTF-8" standalone="no"?>
<!DOCTYPE svg PUBLIC "-//W3C//DTD SVG 1.1//EN" "http://www.w3.org/Graphics/SVG/1.1/DTD/svg11.dtd">
<svg width="100%" height="100%" viewBox="0 0 24 24" version="1.1" xmlns="http://www.w3.org/2000/svg" xmlns:xlink="http://www.w3.org/1999/xlink" xml:space="preserve" xmlns:serif="http://www.serif.com/" style="fill-rule:evenodd;clip-rule:evenodd;stroke-linejoin:round;stroke-miterlimit:2;">
    <path d="M17.25,22.5L19.5,22.5C21.146,22.5 22.5,21.146 22.5,19.5L22.5,18.128C22.5,17.268 21.913,16.518 21.08,16.309L16.657,15.203C15.926,15.021 15.153,15.296 14.702,15.898L13.732,17.191C13.649,17.302 13.51,17.365 13.381,17.317C10.278,16.176 7.829,13.729 6.686,10.628C6.643,10.499 6.688,10.355 6.799,10.276L8.102,9.298C8.706,8.847 8.98,8.077 8.797,7.343L7.691,2.92C7.482,2.085 6.732,1.5 5.872,1.5C5.872,1.5 4.5,1.5 4.5,1.5C2.854,1.5 1.5,2.854 1.5,4.5C1.5,4.5 1.5,6.75 1.5,6.75C1.5,15.448 8.552,22.5 17.25,22.5ZM17.25,21C9.38,21 3,14.62 3,6.75L3,4.5C3,3.677 3.677,3 4.5,3L5.872,3C6.044,3 6.194,3.117 6.235,3.284L7.341,7.707C7.378,7.853 7.324,8.007 7.203,8.097L5.912,9.066C5.271,9.535 5.009,10.374 5.271,11.125C5.272,11.129 5.274,11.133 5.275,11.137C6.568,14.655 9.345,17.432 12.863,18.725C12.863,18.725 12.863,18.725 12.863,18.725C13.616,19.001 14.451,18.732 14.932,18.091L15.902,16.798C15.993,16.677 16.147,16.622 16.293,16.659L20.716,17.765C20.883,17.806 21,17.956 21,18.128C21,18.128 21,19.5 21,19.5C21,20.323 20.323,21 19.5,21L17.25,21ZM15,7.939L15,5.25C15,4.836 14.664,4.5 14.25,4.5C13.836,4.5 13.5,4.836 13.5,5.25L13.5,9.75L13.501,9.789C13.503,9.836 13.51,9.882 13.521,9.927L13.524,9.937L13.534,9.973L13.546,10.008L13.551,10.022L13.555,10.032L13.559,10.042L13.564,10.052L13.57,10.066L13.574,10.075L13.578,10.082L13.586,10.099L13.604,10.131L13.61,10.14C13.64,10.19 13.677,10.237 13.72,10.28C13.763,10.323 13.81,10.36 13.86,10.39L13.869,10.396L13.901,10.414L13.934,10.43L13.948,10.436L13.958,10.441L13.968,10.445L13.978,10.449L13.992,10.454L14.002,10.458L14.01,10.46L14.027,10.466L14.063,10.476L14.099,10.485L14.136,10.491L14.173,10.496L14.211,10.499L14.25,10.5L18.75,10.5C19.164,10.5 19.5,10.164 19.5,9.75C19.5,9.336 19.164,9 18.75,9L16.061,9L20.78,4.28C21.073,3.988 21.073,3.512 20.78,3.22C20.488,2.927 20.012,2.927 19.72,3.22L15,7.939Z"/>
</svg>
