<?xml version="1.0" encoding="UTF-8" standalone="no"?>
<!DOCTYPE svg PUBLIC "-//W3C//DTD SVG 1.1//EN" "http://www.w3.org/Graphics/SVG/1.1/DTD/svg11.dtd">
<svg width="100%" height="100%" viewBox="0 0 24 24" version="1.1" xmlns="http://www.w3.org/2000/svg" xmlns:xlink="http://www.w3.org/1999/xlink" xml:space="preserve" xmlns:serif="http://www.serif.com/" style="fill-rule:evenodd;clip-rule:evenodd;stroke-linejoin:round;stroke-miterlimit:2;">
    <path d="M17.25,22.5L19.5,22.5C21.146,22.5 22.5,21.146 22.5,19.5L22.5,18.128C22.5,17.268 21.913,16.518 21.08,16.309L16.657,15.203C15.926,15.021 15.153,15.296 14.702,15.898L13.732,17.191C13.649,17.302 13.51,17.365 13.381,17.317C10.278,16.176 7.829,13.729 6.686,10.628C6.643,10.499 6.688,10.355 6.799,10.276L8.102,9.298C8.706,8.847 8.98,8.077 8.797,7.343L7.691,2.92C7.482,2.085 6.732,1.5 5.872,1.5C5.872,1.5 4.5,1.5 4.5,1.5C2.854,1.5 1.5,2.854 1.5,4.5C1.5,4.5 1.5,6.75 1.5,6.75C1.5,15.448 8.552,22.5 17.25,22.5ZM17.25,21C9.38,21 3,14.62 3,6.75L3,4.5C3,3.677 3.677,3 4.5,3L5.872,3C6.044,3 6.194,3.117 6.235,3.284L7.341,7.707C7.378,7.853 7.324,8.007 7.203,8.097L5.912,9.066C5.271,9.535 5.009,10.374 5.271,11.125C5.272,11.129 5.274,11.133 5.275,11.137C6.568,14.655 9.345,17.432 12.863,18.725C12.863,18.725 12.863,18.725 12.863,18.725C13.616,19.001 14.451,18.732 14.932,18.091L15.902,16.798C15.993,16.677 16.147,16.622 16.293,16.659L20.716,17.765C20.883,17.806 21,17.956 21,18.128C21,18.128 21,19.5 21,19.5C21,20.323 20.323,21 19.5,21L17.25,21ZM16.939,6L15.22,7.72C14.927,8.012 14.927,8.488 15.22,8.78C15.512,9.073 15.988,9.073 16.28,8.78L18,7.061L19.72,8.78C20.012,9.073 20.488,9.073 20.78,8.78C21.073,8.488 21.073,8.012 20.78,7.72L19.061,6L20.78,4.28C21.073,3.988 21.073,3.512 20.78,3.22C20.488,2.927 20.012,2.927 19.72,3.22L18,4.939L16.28,3.22C15.988,2.927 15.512,2.927 15.22,3.22C14.927,3.512 14.927,3.988 15.22,4.28L16.939,6Z"/>
</svg>
