<?xml version="1.0" encoding="UTF-8" standalone="no"?>
<!DOCTYPE svg PUBLIC "-//W3C//DTD SVG 1.1//EN" "http://www.w3.org/Graphics/SVG/1.1/DTD/svg11.dtd">
<svg width="100%" height="100%" viewBox="0 0 24 24" version="1.1" xmlns="http://www.w3.org/2000/svg" xmlns:xlink="http://www.w3.org/1999/xlink" xml:space="preserve" xmlns:serif="http://www.serif.com/" style="fill-rule:evenodd;clip-rule:evenodd;stroke-linejoin:round;stroke-miterlimit:2;">
    <path d="M1.5,6.75C1.5,15.448 8.552,22.5 17.25,22.5L19.5,22.5C21.146,22.5 22.5,21.146 22.5,19.5L22.5,18.128C22.5,17.268 21.915,16.518 21.08,16.309L16.657,15.203C15.923,15.02 15.153,15.295 14.702,15.899L13.732,17.191C13.649,17.302 13.51,17.365 13.381,17.317C10.276,16.175 7.825,13.724 6.683,10.619C6.635,10.49 6.698,10.351 6.809,10.268L8.102,9.298C8.706,8.847 8.98,8.075 8.797,7.343L7.691,2.92C7.483,2.088 6.729,1.5 5.872,1.5L4.5,1.5C2.854,1.5 1.5,2.854 1.5,4.5C1.5,4.5 1.5,6.75 1.5,6.75ZM3,6.75L3,4.5C3,3.677 3.677,3 4.5,3L5.872,3C6.043,3 6.194,3.118 6.235,3.284L7.341,7.707C7.378,7.853 7.324,8.007 7.203,8.097L5.909,9.068C5.268,9.549 4.999,10.384 5.275,11.137C5.275,11.137 5.275,11.137 5.275,11.137C6.568,14.655 9.345,17.432 12.863,18.725C12.863,18.725 12.863,18.725 12.863,18.725C13.616,19.001 14.451,18.732 14.932,18.091L15.902,16.797C15.993,16.677 16.147,16.622 16.293,16.659L20.716,17.765C20.883,17.806 21,17.956 21,18.128C21,18.128 21,19.5 21,19.5C21,20.323 20.323,21 19.5,21C19.5,21 17.25,21 17.25,21C9.38,21 3,14.62 3,6.75Z"/>
</svg>
