<?xml version="1.0" encoding="UTF-8" standalone="no"?>
<!DOCTYPE svg PUBLIC "-//W3C//DTD SVG 1.1//EN" "http://www.w3.org/Graphics/SVG/1.1/DTD/svg11.dtd">
<svg width="100%" height="100%" viewBox="0 0 24 24" version="1.1" xmlns="http://www.w3.org/2000/svg" xmlns:xlink="http://www.w3.org/1999/xlink" xml:space="preserve" xmlns:serif="http://www.serif.com/" style="fill-rule:evenodd;clip-rule:evenodd;stroke-linejoin:round;stroke-miterlimit:2;">
    <path d="M3.75,20.25L20.25,20.25C21.484,20.25 22.5,19.234 22.5,18L22.5,6C22.5,4.766 21.484,3.75 20.25,3.75C20.25,3.75 3.75,3.75 3.75,3.75C2.516,3.75 1.5,4.766 1.5,6C1.5,6 1.5,18 1.5,18C1.5,19.234 2.516,20.25 3.75,20.25ZM15.22,16.28L10.061,11.121C9.779,10.84 9.398,10.682 9,10.682C8.602,10.682 8.221,10.84 7.939,11.121L3,16.061L3,18C3,18.411 3.339,18.75 3.75,18.75C3.75,18.75 20.25,18.75 20.25,18.75C20.661,18.75 21,18.411 21,18L21,16.061L18.311,13.371C18.029,13.09 17.648,12.932 17.25,12.932C16.852,12.932 16.471,13.09 16.189,13.371L15.311,14.25L16.28,15.22C16.573,15.512 16.573,15.988 16.28,16.28C15.988,16.573 15.512,16.573 15.22,16.28ZM21,13.939L21,6C21,5.589 20.661,5.25 20.25,5.25L3.75,5.25C3.339,5.25 3,5.589 3,6L3,13.939L6.879,10.061C7.441,9.498 8.205,9.182 9,9.182C9.795,9.182 10.559,9.498 11.121,10.061L14.25,13.189L15.129,12.311C15.691,11.748 16.455,11.432 17.25,11.432C18.045,11.432 18.809,11.748 19.371,12.311L21,13.939ZM15.375,8.25C15.375,7.633 14.867,7.125 14.25,7.125C13.633,7.125 13.125,7.633 13.125,8.25C13.125,8.867 13.633,9.375 14.25,9.375C14.867,9.375 15.375,8.867 15.375,8.25ZM13.875,8.25C13.875,8.044 14.044,7.875 14.25,7.875C14.456,7.875 14.625,8.044 14.625,8.25C14.625,8.456 14.456,8.625 14.25,8.625C14.044,8.625 13.875,8.456 13.875,8.25Z"/>
</svg>
