<?xml version="1.0" encoding="UTF-8" standalone="no"?>
<!DOCTYPE svg PUBLIC "-//W3C//DTD SVG 1.1//EN" "http://www.w3.org/Graphics/SVG/1.1/DTD/svg11.dtd">
<svg width="100%" height="100%" viewBox="0 0 24 24" version="1.1" xmlns="http://www.w3.org/2000/svg" xmlns:xlink="http://www.w3.org/1999/xlink" xml:space="preserve" xmlns:serif="http://www.serif.com/" style="fill-rule:evenodd;clip-rule:evenodd;stroke-linejoin:round;stroke-miterlimit:2;">
    <path d="M20.25,7.5L20.25,18C20.25,18.414 20.586,18.75 21,18.75C21.414,18.75 21.75,18.414 21.75,18L21.75,7.5C21.75,7.086 21.414,6.75 21,6.75C20.586,6.75 20.25,7.086 20.25,7.5ZM14.25,7.5L14.25,18C14.25,18.414 14.586,18.75 15,18.75C15.414,18.75 15.75,18.414 15.75,18L15.75,7.5C15.75,7.086 15.414,6.75 15,6.75C14.586,6.75 14.25,7.086 14.25,7.5ZM2.25,16.81C2.25,16.811 2.25,16.812 2.25,16.812C2.25,17.841 3.096,18.687 4.125,18.687C4.451,18.687 4.772,18.602 5.055,18.44L12.163,14.379C12.747,14.046 13.108,13.423 13.108,12.751C13.108,12.079 12.747,11.456 12.163,11.123C12.163,11.123 5.055,7.062 5.055,7.062C3.805,6.347 2.25,7.25 2.25,8.69L2.25,16.81ZM3.75,16.812L3.75,8.69C3.75,8.402 4.061,8.221 4.311,8.364L11.419,12.425C11.536,12.492 11.608,12.617 11.608,12.751C11.608,12.885 11.536,13.01 11.419,13.077L4.311,17.138C4.254,17.17 4.19,17.187 4.125,17.187C3.919,17.187 3.75,17.018 3.75,16.812Z"/>
</svg>
