<?xml version="1.0" encoding="UTF-8" standalone="no"?>
<!DOCTYPE svg PUBLIC "-//W3C//DTD SVG 1.1//EN" "http://www.w3.org/Graphics/SVG/1.1/DTD/svg11.dtd">
<svg width="100%" height="100%" viewBox="0 0 24 24" version="1.1" xmlns="http://www.w3.org/2000/svg" xmlns:xlink="http://www.w3.org/1999/xlink" xml:space="preserve" xmlns:serif="http://www.serif.com/" style="fill-rule:evenodd;clip-rule:evenodd;stroke-linejoin:round;stroke-miterlimit:2;">
    <path d="M4.5,5.653L4.5,18.349C4.501,19.377 5.347,20.222 6.375,20.222C6.691,20.222 7.002,20.142 7.278,19.99L18.819,13.643C19.417,13.314 19.789,12.683 19.789,12.001C19.789,11.318 19.417,10.687 18.819,10.358L7.278,4.01C6.028,3.323 4.5,4.226 4.5,5.653ZM6,5.653C6,5.368 6.306,5.187 6.556,5.324C6.556,5.324 18.095,11.672 18.095,11.672C18.215,11.738 18.289,11.864 18.289,12.001C18.289,12.137 18.215,12.263 18.095,12.329C18.095,12.329 6.556,18.676 6.556,18.676C6.5,18.706 6.438,18.722 6.375,18.722C6.169,18.722 6,18.553 6,18.347C6,18.347 6,5.653 6,5.653Z"/>
</svg>
