<?xml version="1.0" encoding="UTF-8" standalone="no"?>
<!DOCTYPE svg PUBLIC "-//W3C//DTD SVG 1.1//EN" "http://www.w3.org/Graphics/SVG/1.1/DTD/svg11.dtd">
<svg width="100%" height="100%" viewBox="0 0 24 24" version="1.1" xmlns="http://www.w3.org/2000/svg" xmlns:xlink="http://www.w3.org/1999/xlink" xml:space="preserve" xmlns:serif="http://www.serif.com/" style="fill-rule:evenodd;clip-rule:evenodd;stroke-linejoin:round;stroke-miterlimit:2;">
    <path d="M21.75,12C21.75,6.651 17.349,2.25 12,2.25C6.651,2.25 2.25,6.651 2.25,12C2.25,17.349 6.651,21.75 12,21.75C17.349,21.75 21.75,17.349 21.75,12ZM20.25,12C20.25,16.526 16.526,20.25 12,20.25C7.474,20.25 3.75,16.526 3.75,12C3.75,7.474 7.474,3.75 12,3.75C16.526,3.75 20.25,7.474 20.25,12ZM11.25,11.25L9,11.25C8.586,11.25 8.25,11.586 8.25,12C8.25,12.414 8.586,12.75 9,12.75L11.25,12.75L11.25,15C11.25,15.414 11.586,15.75 12,15.75C12.414,15.75 12.75,15.414 12.75,15L12.75,12.75L15,12.75C15.414,12.75 15.75,12.414 15.75,12C15.75,11.586 15.414,11.25 15,11.25L12.75,11.25L12.75,9C12.75,8.586 12.414,8.25 12,8.25C11.586,8.25 11.25,8.586 11.25,9L11.25,11.25Z"/>
</svg>
