<?xml version="1.0" encoding="UTF-8" standalone="no"?>
<!DOCTYPE svg PUBLIC "-//W3C//DTD SVG 1.1//EN" "http://www.w3.org/Graphics/SVG/1.1/DTD/svg11.dtd">
<svg width="100%" height="100%" viewBox="0 0 24 24" version="1.1" xmlns="http://www.w3.org/2000/svg" xmlns:xlink="http://www.w3.org/1999/xlink" xml:space="preserve" xmlns:serif="http://www.serif.com/" style="fill-rule:evenodd;clip-rule:evenodd;stroke-linejoin:round;stroke-miterlimit:2;">
    <path d="M11.25,11.25L6,11.25C5.586,11.25 5.25,11.586 5.25,12C5.25,12.414 5.586,12.75 6,12.75L11.25,12.75L11.25,18C11.25,18.414 11.586,18.75 12,18.75C12.414,18.75 12.75,18.414 12.75,18L12.75,12.75L18,12.75C18.414,12.75 18.75,12.414 18.75,12C18.75,11.586 18.414,11.25 18,11.25L12.75,11.25L12.75,6C12.75,5.586 12.414,5.25 12,5.25C11.586,5.25 11.25,5.586 11.25,6L11.25,11.25Z"/>
</svg>
