<?xml version="1.0" encoding="UTF-8" standalone="no"?>
<!DOCTYPE svg PUBLIC "-//W3C//DTD SVG 1.1//EN" "http://www.w3.org/Graphics/SVG/1.1/DTD/svg11.dtd">
<svg width="100%" height="100%" viewBox="0 0 24 24" version="1.1" xmlns="http://www.w3.org/2000/svg" xmlns:xlink="http://www.w3.org/1999/xlink" xml:space="preserve" xmlns:serif="http://www.serif.com/" style="fill-rule:evenodd;clip-rule:evenodd;stroke-linejoin:round;stroke-miterlimit:2;">
    <path d="M5.106,5.106C3.278,6.933 2.25,9.415 2.25,12C2.25,17.349 6.651,21.75 12,21.75C17.349,21.75 21.75,17.349 21.75,12C21.75,9.415 20.722,6.933 18.894,5.106C18.602,4.813 18.126,4.813 17.834,5.106C17.541,5.398 17.541,5.874 17.834,6.166C19.38,7.713 20.25,9.813 20.25,12C20.25,16.526 16.526,20.25 12,20.25C7.474,20.25 3.75,16.526 3.75,12C3.75,9.813 4.62,7.713 6.166,6.166C6.459,5.874 6.459,5.398 6.166,5.106C5.874,4.813 5.398,4.813 5.106,5.106ZM11.25,3L11.25,12C11.25,12.414 11.586,12.75 12,12.75C12.414,12.75 12.75,12.414 12.75,12L12.75,3C12.75,2.586 12.414,2.25 12,2.25C11.586,2.25 11.25,2.586 11.25,3Z"/>
</svg>
