<?xml version="1.0" encoding="UTF-8" standalone="no"?>
<!DOCTYPE svg PUBLIC "-//W3C//DTD SVG 1.1//EN" "http://www.w3.org/Graphics/SVG/1.1/DTD/svg11.dtd">
<svg width="100%" height="100%" viewBox="0 0 24 24" version="1.1" xmlns="http://www.w3.org/2000/svg" xmlns:xlink="http://www.w3.org/1999/xlink" xml:space="preserve" xmlns:serif="http://www.serif.com/" style="fill-rule:evenodd;clip-rule:evenodd;stroke-linejoin:round;stroke-miterlimit:2;">
    <path d="M21.75,2.25L2.25,2.25C1.836,2.25 1.5,2.586 1.5,3C1.5,3.414 1.836,3.75 2.25,3.75L3,3.75L3,14.25C3,15.896 4.354,17.25 6,17.25L7.209,17.25L6.038,20.763C5.908,21.156 6.12,21.581 6.513,21.712C6.906,21.842 7.331,21.63 7.462,21.237L7.791,20.25L16.209,20.25L16.538,21.237C16.669,21.63 17.094,21.842 17.487,21.712C17.88,21.581 18.092,21.156 17.962,20.763L16.791,17.25L18,17.25C19.646,17.25 21,15.896 21,14.25L21,3.75L21.75,3.75C22.164,3.75 22.5,3.414 22.5,3C22.5,2.586 22.164,2.25 21.75,2.25ZM8.791,17.25L8.291,18.75L15.709,18.75L15.209,17.25L8.791,17.25ZM18,15.75C18.823,15.75 19.5,15.073 19.5,14.25L19.5,3.75L4.5,3.75L4.5,14.25C4.5,15.073 5.177,15.75 6,15.75L18,15.75ZM8.03,12.53L10.5,10.061C10.5,10.061 12.118,11.678 12.118,11.678C12.275,11.835 12.493,11.915 12.714,11.895C12.935,11.875 13.136,11.759 13.263,11.577C14.21,10.218 15.443,9.084 16.876,8.254C17.234,8.047 17.356,7.587 17.149,7.229C16.942,6.871 16.482,6.749 16.124,6.956C14.759,7.747 13.554,8.781 12.567,10.006C12.567,10.006 11.03,8.47 11.03,8.47C10.737,8.177 10.263,8.177 9.97,8.47L6.97,11.47C6.677,11.762 6.677,12.238 6.97,12.53C7.262,12.823 7.738,12.823 8.03,12.53Z"/>
</svg>
