<?xml version="1.0" encoding="UTF-8" standalone="no"?>
<!DOCTYPE svg PUBLIC "-//W3C//DTD SVG 1.1//EN" "http://www.w3.org/Graphics/SVG/1.1/DTD/svg11.dtd">
<svg width="100%" height="100%" viewBox="0 0 24 24" version="1.1" xmlns="http://www.w3.org/2000/svg" xmlns:xlink="http://www.w3.org/1999/xlink" xml:space="preserve" xmlns:serif="http://www.serif.com/" style="fill-rule:evenodd;clip-rule:evenodd;stroke-linejoin:round;stroke-miterlimit:2;">
    <path d="M21.75,2.25L2.25,2.25C1.836,2.25 1.5,2.586 1.5,3C1.5,3.414 1.836,3.75 2.25,3.75L3,3.75L3,14.25C3,15.896 4.354,17.25 6,17.25L7.209,17.25L6.038,20.763C5.908,21.156 6.12,21.581 6.513,21.712C6.906,21.842 7.331,21.63 7.462,21.237L7.791,20.25L16.209,20.25L16.538,21.237C16.669,21.63 17.094,21.842 17.487,21.712C17.88,21.581 18.092,21.156 17.962,20.763L16.791,17.25L18,17.25C19.646,17.25 21,15.896 21,14.25L21,3.75L21.75,3.75C22.164,3.75 22.5,3.414 22.5,3C22.5,2.586 22.164,2.25 21.75,2.25ZM8.791,17.25L8.291,18.75L15.709,18.75L15.209,17.25L8.791,17.25ZM18,15.75C18.823,15.75 19.5,15.073 19.5,14.25L19.5,3.75L4.5,3.75L4.5,14.25C4.5,15.073 5.177,15.75 6,15.75L18,15.75ZM8.25,11.25L8.25,12.75C8.25,13.164 8.586,13.5 9,13.5C9.414,13.5 9.75,13.164 9.75,12.75L9.75,11.25C9.75,10.836 9.414,10.5 9,10.5C8.586,10.5 8.25,10.836 8.25,11.25ZM11.25,9L11.25,12.75C11.25,13.164 11.586,13.5 12,13.5C12.414,13.5 12.75,13.164 12.75,12.75L12.75,9C12.75,8.586 12.414,8.25 12,8.25C11.586,8.25 11.25,8.586 11.25,9ZM14.25,6.75L14.25,12.75C14.25,13.164 14.586,13.5 15,13.5C15.414,13.5 15.75,13.164 15.75,12.75L15.75,6.75C15.75,6.336 15.414,6 15,6C14.586,6 14.25,6.336 14.25,6.75Z"/>
</svg>
