<?xml version="1.0" encoding="UTF-8" standalone="no"?>
<!DOCTYPE svg PUBLIC "-//W3C//DTD SVG 1.1//EN" "http://www.w3.org/Graphics/SVG/1.1/DTD/svg11.dtd">
<svg width="100%" height="100%" viewBox="0 0 24 24" version="1.1" xmlns="http://www.w3.org/2000/svg" xmlns:xlink="http://www.w3.org/1999/xlink" xml:space="preserve" xmlns:serif="http://www.serif.com/" style="fill-rule:evenodd;clip-rule:evenodd;stroke-linejoin:round;stroke-miterlimit:2;">
    <path d="M6,6.366C5.575,6.418 5.15,6.476 4.726,6.539C4.726,6.539 4.726,6.539 4.726,6.539C3.289,6.754 2.25,8.003 2.25,9.456L2.25,15.75C2.25,17.396 3.604,18.75 5.25,18.75L5.519,18.75L5.364,20.455C5.264,21.553 6.128,22.5 7.231,22.5L16.769,22.5C17.798,22.5 18.644,21.653 18.644,20.625C18.644,20.568 18.641,20.512 18.636,20.455L18.481,18.75L18.75,18.75C20.396,18.75 21.75,17.396 21.75,15.75L21,16.5C21,16.5 21.75,15.75 21.75,15.75L21.75,9.456C21.75,8.003 20.711,6.754 19.274,6.539C19.274,6.539 19.274,6.539 19.274,6.539C18.85,6.476 18.425,6.418 18,6.366L18,3.375C18,2.34 17.16,1.5 16.125,1.5C16.125,1.5 7.875,1.5 7.875,1.5C6.84,1.5 6,2.34 6,3.375L6,6.366ZM16.588,14.503C13.538,14.165 10.461,14.165 7.412,14.503L7.087,18.068L6.858,20.591C6.838,20.811 7.01,21 7.231,21C7.231,21 16.769,21 16.769,21C16.974,21 17.144,20.831 17.144,20.625C17.144,20.614 17.143,20.602 17.142,20.591L16.918,18.121C16.912,18.087 16.909,18.052 16.908,18.017L16.588,14.503ZM17.174,7.78L17.169,7.78C13.733,7.406 10.267,7.406 6.831,7.78L6.826,7.78C6.198,7.848 5.572,7.929 4.948,8.023C4.247,8.128 3.75,8.747 3.75,9.456C3.75,9.456 3.75,15.75 3.75,15.75C3.75,16.573 4.427,17.25 5.25,17.25L5.655,17.25L5.891,14.667C5.57,14.62 5.305,14.367 5.257,14.03C5.199,13.62 5.485,13.24 5.895,13.182C6.139,13.148 6.383,13.115 6.627,13.085L6.639,13.083C10.199,12.638 13.801,12.638 17.361,13.083L17.373,13.085C17.617,13.115 17.861,13.148 18.105,13.182C18.515,13.24 18.801,13.62 18.743,14.03C18.695,14.367 18.43,14.62 18.109,14.667L18.345,17.25L18.75,17.25C19.573,17.25 20.25,16.573 20.25,15.75C20.25,15.75 21,16.5 21,16.5L20.25,15.75C20.25,15.75 20.25,9.456 20.25,9.456C20.25,8.747 19.753,8.128 19.052,8.023C18.428,7.929 17.802,7.848 17.174,7.78ZM16.5,6.205L16.5,3.375C16.5,3.168 16.332,3 16.125,3L7.875,3C7.668,3 7.5,3.168 7.5,3.375L7.5,6.205C10.494,5.931 13.507,5.931 16.5,6.205Z"/>
    <g transform="matrix(1.03803,0,0,1.03803,-0.586262,-0.426911)">
        <circle cx="15.023" cy="10.529" r="0.735"/>
    </g>
    <g transform="matrix(1.03803,0,0,1.03803,2.41772,-0.426911)">
        <circle cx="15.023" cy="10.529" r="0.735"/>
    </g>
</svg>
