<?xml version="1.0" encoding="UTF-8" standalone="no"?>
<!DOCTYPE svg PUBLIC "-//W3C//DTD SVG 1.1//EN" "http://www.w3.org/Graphics/SVG/1.1/DTD/svg11.dtd">
<svg width="100%" height="100%" viewBox="0 0 24 24" version="1.1" xmlns="http://www.w3.org/2000/svg" xmlns:xlink="http://www.w3.org/1999/xlink" xml:space="preserve" xmlns:serif="http://www.serif.com/" style="fill-rule:evenodd;clip-rule:evenodd;stroke-linejoin:round;stroke-miterlimit:2;">
    <path d="M10.485,5.976C9.16,5.935 7.835,5.837 6.516,5.685C6.289,5.659 6.062,5.738 5.9,5.9C5.738,6.061 5.659,6.288 5.685,6.516C5.864,8.069 5.969,9.645 5.993,11.239C5.842,11.207 5.711,11.1 5.584,11.003C5.168,10.68 4.657,10.503 4.13,10.5C4.128,10.5 4.127,10.5 4.125,10.5C2.715,10.5 1.5,11.808 1.5,13.5C1.5,15.192 2.716,16.5 4.125,16.5C4.661,16.5 5.161,16.318 5.582,15.998C5.667,15.933 5.754,15.864 5.848,15.815C5.723,17.383 5.52,18.944 5.239,20.492C5.202,20.695 5.251,20.904 5.373,21.07C5.494,21.236 5.679,21.345 5.884,21.37C7.425,21.563 8.989,21.684 10.571,21.73L10.61,21.73C11.373,21.73 12,21.103 12,20.34C12,20.339 12,20.338 12,20.337C12,19.819 11.76,19.337 11.446,18.924C11.444,18.922 11.442,18.919 11.44,18.916C11.319,18.761 11.252,18.57 11.25,18.372C11.252,17.711 11.956,17.25 12.75,17.25C13.546,17.25 14.25,17.712 14.25,18.375C14.25,18.577 14.176,18.764 14.054,18.923C14.054,18.924 14.054,18.924 14.054,18.924C13.74,19.337 13.501,19.819 13.501,20.337C13.501,21.101 14.139,21.709 14.904,21.666C14.904,21.666 14.905,21.666 14.905,21.666C16.753,21.557 18.593,21.343 20.417,21.026C20.728,20.972 20.973,20.727 21.027,20.416C21.303,18.829 21.5,17.231 21.618,15.625L21.621,15.532C21.621,14.829 21.043,14.25 20.339,14.25L20.337,14.25C19.819,14.25 19.337,14.49 18.924,14.804C18.924,14.804 18.924,14.804 18.923,14.804C18.764,14.926 18.577,15 18.375,15C17.712,15 17.25,14.296 17.25,13.5C17.25,12.704 17.712,12 18.375,12C18.578,12 18.764,12.074 18.923,12.196C18.924,12.196 18.924,12.196 18.924,12.196C19.337,12.51 19.818,12.75 20.338,12.75C20.337,12.75 20.339,12.75 20.34,12.75C21.111,12.75 21.746,12.115 21.746,11.344L21.746,11.327C21.722,9.507 21.596,7.69 21.37,5.884C21.345,5.679 21.236,5.495 21.07,5.373C20.904,5.251 20.695,5.202 20.492,5.239C18.707,5.563 16.888,5.786 15.039,5.903C15.087,5.788 15.17,5.684 15.248,5.582C15.568,5.161 15.75,4.661 15.75,4.125C15.75,2.715 14.442,1.5 12.75,1.5C11.058,1.5 9.75,2.716 9.75,4.125C9.75,4.661 9.932,5.161 10.252,5.582C10.346,5.705 10.448,5.832 10.485,5.976ZM13.5,6.084L13.5,6.082C13.5,6.084 13.5,6.087 13.5,6.089L13.501,6.12C13.517,6.835 14.11,7.417 14.828,7.417L14.904,7.415C16.619,7.314 18.31,7.124 19.973,6.851C20.131,8.309 20.222,9.773 20.244,11.239C20.092,11.207 19.96,11.099 19.832,11.002C19.411,10.682 18.912,10.5 18.375,10.5C16.966,10.5 15.75,11.808 15.75,13.5C15.75,15.192 16.966,16.5 18.375,16.5C18.911,16.5 19.411,16.318 19.832,15.998C19.918,15.933 20.005,15.863 20.099,15.815C19.997,17.098 19.843,18.371 19.637,19.636C18.114,19.884 16.579,20.057 15.04,20.154C15.087,20.039 15.17,19.934 15.248,19.832C15.568,19.411 15.75,18.911 15.75,18.375C15.75,16.966 14.442,15.75 12.75,15.75C11.06,15.75 9.75,16.966 9.75,18.375C9.75,18.377 9.75,18.378 9.75,18.38C9.753,18.907 9.93,19.418 10.253,19.834C10.346,19.956 10.449,20.082 10.485,20.226C9.263,20.188 8.05,20.103 6.851,19.973C7.088,18.532 7.26,17.082 7.367,15.625C7.422,14.878 6.834,14.25 6.087,14.25C5.569,14.25 5.087,14.49 4.674,14.804C4.674,14.804 4.674,14.804 4.673,14.804C4.514,14.926 4.327,15 4.125,15C3.462,15 3,14.296 3,13.5C3,12.705 3.461,12.002 4.122,12C4.32,12.002 4.511,12.069 4.666,12.19C4.669,12.192 4.672,12.194 4.674,12.196C5.087,12.51 5.569,12.75 6.087,12.75C6.086,12.75 6.088,12.75 6.089,12.75C6.86,12.75 7.495,12.115 7.495,11.344L7.495,11.327C7.477,9.962 7.402,8.61 7.273,7.274C8.37,7.379 9.47,7.448 10.571,7.48L10.61,7.48C11.373,7.48 12,6.853 12,6.09C12,6.089 12,6.088 12,6.087C12,5.569 11.76,5.087 11.446,4.674C11.446,4.674 11.446,4.674 11.446,4.673C11.324,4.514 11.25,4.327 11.25,4.125C11.25,3.462 11.954,3 12.75,3C13.546,3 14.25,3.462 14.25,4.125C14.25,4.327 14.176,4.514 14.054,4.673C14.054,4.674 14.054,4.674 14.054,4.674C13.741,5.087 13.501,5.567 13.5,6.084ZM13.5,6.087C13.5,6.087 13.509,6.306 13.501,6.12L13.5,6.087ZM15,6.087L15,6.087L15,6.089L15,6.089L15,6.087Z"/>
</svg>
