<?xml version="1.0" encoding="UTF-8" standalone="no"?>
<!DOCTYPE svg PUBLIC "-//W3C//DTD SVG 1.1//EN" "http://www.w3.org/Graphics/SVG/1.1/DTD/svg11.dtd">
<svg width="100%" height="100%" viewBox="0 0 24 24" version="1.1" xmlns="http://www.w3.org/2000/svg" xmlns:xlink="http://www.w3.org/1999/xlink" xml:space="preserve" xmlns:serif="http://www.serif.com/" style="fill-rule:evenodd;clip-rule:evenodd;stroke-linejoin:round;stroke-miterlimit:2;">
    <path d="M3,14.625L3,19.125C3,20.154 3.846,21 4.875,21C4.875,21 9.375,21 9.375,21C10.41,21 11.25,20.16 11.25,19.125L11.25,14.625C11.25,13.59 10.41,12.75 9.375,12.75C9.375,12.75 4.875,12.75 4.875,12.75C3.84,12.75 3,13.59 3,14.625ZM4.5,14.625C4.5,14.418 4.668,14.25 4.875,14.25L9.375,14.25C9.582,14.25 9.75,14.418 9.75,14.625C9.75,14.625 9.75,19.125 9.75,19.125C9.75,19.332 9.582,19.5 9.375,19.5L4.875,19.5C4.669,19.5 4.5,19.331 4.5,19.125C4.5,19.125 4.5,14.625 4.5,14.625ZM3,4.875L3,9.375C3,10.404 3.846,11.25 4.875,11.25L9.375,11.25C10.41,11.25 11.25,10.41 11.25,9.375L11.25,4.875C11.25,3.84 10.41,3 9.375,3L4.875,3C3.84,3 3,3.84 3,4.875ZM12.75,4.875L12.75,9.375C12.75,10.404 13.596,11.25 14.625,11.25L19.125,11.25C20.16,11.25 21,10.41 21,9.375C21,9.375 21,4.875 21,4.875C21,3.84 20.16,3 19.125,3L14.625,3C13.59,3 12.75,3.84 12.75,4.875ZM4.5,4.875C4.5,4.668 4.668,4.5 4.875,4.5C4.875,4.5 9.375,4.5 9.375,4.5C9.582,4.5 9.75,4.668 9.75,4.875C9.75,4.875 9.75,9.375 9.75,9.375C9.75,9.582 9.582,9.75 9.375,9.75C9.375,9.75 4.875,9.75 4.875,9.75C4.669,9.75 4.5,9.581 4.5,9.375C4.5,9.375 4.5,4.875 4.5,4.875ZM14.25,4.875C14.25,4.668 14.418,4.5 14.625,4.5C14.625,4.5 19.125,4.5 19.125,4.5C19.332,4.5 19.5,4.668 19.5,4.875L19.5,9.375C19.5,9.582 19.332,9.75 19.125,9.75C19.125,9.75 14.625,9.75 14.625,9.75C14.419,9.75 14.25,9.581 14.25,9.375L14.25,4.875Z"/>
    <path d="M13.5,18.75C13.086,18.75 12.75,19.086 12.75,19.5L12.75,20.25C12.75,20.664 13.086,21 13.5,21L14.25,21C14.664,21 15,20.664 15,20.25L15,19.5C15,19.086 14.664,18.75 14.25,18.75L13.5,18.75ZM19.5,18.75C19.086,18.75 18.75,19.086 18.75,19.5L18.75,20.25C18.75,20.664 19.086,21 19.5,21L20.25,21C20.664,21 21,20.664 21,20.25L21,19.5C21,19.086 20.664,18.75 20.25,18.75L19.5,18.75ZM6.75,15.75C6.336,15.75 6,16.086 6,16.5L6,17.25C6,17.664 6.336,18 6.75,18L7.5,18C7.914,18 8.25,17.664 8.25,17.25L8.25,16.5C8.25,16.086 7.914,15.75 7.5,15.75L6.75,15.75ZM16.5,15.75C16.086,15.75 15.75,16.086 15.75,16.5L15.75,17.25C15.75,17.664 16.086,18 16.5,18L17.25,18C17.664,18 18,17.664 18,17.25L18,16.5C18,16.086 17.664,15.75 17.25,15.75L16.5,15.75ZM16.875,16.875C16.875,16.875 16.5,16.5 16.5,16.5L16.875,16.875ZM7.125,16.875C7.125,16.875 7.125,16.875 7.125,16.875ZM13.5,12.75C13.086,12.75 12.75,13.086 12.75,13.5L12.75,14.25C12.75,14.664 13.086,15 13.5,15L14.25,15C14.664,15 15,14.664 15,14.25L15,13.5C15,13.086 14.664,12.75 14.25,12.75L13.5,12.75ZM19.5,12.75C19.086,12.75 18.75,13.086 18.75,13.5L18.75,14.25C18.75,14.664 19.086,15 19.5,15L20.25,15C20.664,15 21,14.664 21,14.25L21,13.5C21,13.086 20.664,12.75 20.25,12.75L19.5,12.75ZM13.875,13.875C13.875,13.875 13.875,13.875 13.875,13.875ZM6.75,6C6.336,6 6,6.336 6,6.75L6,7.5C6,7.914 6.336,8.25 6.75,8.25L7.5,8.25C7.914,8.25 8.25,7.914 8.25,7.5L8.25,6.75C8.25,6.336 7.914,6 7.5,6L6.75,6ZM16.5,6C16.086,6 15.75,6.336 15.75,6.75L15.75,7.5C15.75,7.914 16.086,8.25 16.5,8.25L17.25,8.25C17.664,8.25 18,7.914 18,7.5L18,6.75C18,6.336 17.664,6 17.25,6L16.5,6ZM16.875,7.125C16.875,7.125 16.5,6.75 16.5,6.75L16.875,7.125ZM7.125,7.125C7.125,7.125 7.125,7.125 7.125,7.125Z"/>
</svg>
