<?xml version="1.0" encoding="UTF-8" standalone="no"?>
<!DOCTYPE svg PUBLIC "-//W3C//DTD SVG 1.1//EN" "http://www.w3.org/Graphics/SVG/1.1/DTD/svg11.dtd">
<svg width="100%" height="100%" viewBox="0 0 24 24" version="1.1" xmlns="http://www.w3.org/2000/svg" xmlns:xlink="http://www.w3.org/1999/xlink" xml:space="preserve" xmlns:serif="http://www.serif.com/" style="fill-rule:evenodd;clip-rule:evenodd;stroke-linejoin:round;stroke-miterlimit:2;">
    <path d="M21.75,12C21.75,6.651 17.349,2.25 12,2.25C6.651,2.25 2.25,6.651 2.25,12C2.25,17.349 6.651,21.75 12,21.75C17.349,21.75 21.75,17.349 21.75,12ZM20.25,12C20.25,16.526 16.526,20.25 12,20.25C7.474,20.25 3.75,16.526 3.75,12C3.75,7.474 7.474,3.75 12,3.75C16.526,3.75 20.25,7.474 20.25,12ZM10.373,8.083C11.271,7.297 12.729,7.297 13.627,8.083C13.627,8.083 13.627,8.083 13.627,8.084C14.443,8.797 14.443,9.953 13.627,10.666C13.626,10.667 13.626,10.668 13.625,10.668C13.473,10.802 13.304,10.911 13.125,10.998C13.124,10.998 13.124,10.998 13.124,10.998C12.126,11.482 11.251,12.391 11.251,13.5L11.251,14.25C11.251,14.664 11.587,15 12.001,15C12.415,15 12.751,14.664 12.751,14.25L12.751,13.5C12.751,12.952 13.285,12.587 13.778,12.348C14.078,12.203 14.361,12.019 14.616,11.795C16.143,10.458 16.143,8.291 14.615,6.955C13.171,5.691 10.829,5.691 9.385,6.955C9.074,7.227 9.042,7.702 9.315,8.013C9.587,8.324 10.062,8.356 10.373,8.083Z"/>
    <g transform="matrix(1.00705,0,0,1.00705,-0.0757144,-0.13595)">
        <circle cx="11.996" cy="17.275" r="0.741"/>
    </g>
</svg>
