<?xml version="1.0" encoding="UTF-8" standalone="no"?>
<!DOCTYPE svg PUBLIC "-//W3C//DTD SVG 1.1//EN" "http://www.w3.org/Graphics/SVG/1.1/DTD/svg11.dtd">
<svg width="100%" height="100%" viewBox="0 0 24 24" version="1.1" xmlns="http://www.w3.org/2000/svg" xmlns:xlink="http://www.w3.org/1999/xlink" xml:space="preserve" xmlns:serif="http://www.serif.com/" style="fill-rule:evenodd;clip-rule:evenodd;stroke-linejoin:round;stroke-miterlimit:2;">
    <path d="M3.75,20.25L20.25,20.25C20.664,20.25 21,19.914 21,19.5C21,19.086 20.664,18.75 20.25,18.75L3.75,18.75C3.336,18.75 3,19.086 3,19.5C3,19.914 3.336,20.25 3.75,20.25ZM3.75,16.5L20.25,16.5C20.664,16.5 21,16.164 21,15.75C21,15.336 20.664,15 20.25,15L3.75,15C3.336,15 3,15.336 3,15.75C3,16.164 3.336,16.5 3.75,16.5ZM3.75,12.75L20.25,12.75C20.664,12.75 21,12.414 21,12C21,11.586 20.664,11.25 20.25,11.25L3.75,11.25C3.336,11.25 3,11.586 3,12C3,12.414 3.336,12.75 3.75,12.75ZM5.625,3.75C4.185,3.75 3,4.935 3,6.375C3,7.815 4.185,9 5.625,9L18.375,9C19.815,9 21,7.815 21,6.375C21,4.935 19.815,3.75 18.375,3.75C18.375,3.75 5.625,3.75 5.625,3.75ZM5.625,5.25L18.375,5.25C18.992,5.25 19.5,5.758 19.5,6.375C19.5,6.992 18.992,7.5 18.375,7.5C18.375,7.5 5.625,7.5 5.625,7.5C5.008,7.5 4.5,6.992 4.5,6.375C4.5,5.758 5.008,5.25 5.625,5.25Z"/>
</svg>
