<?xml version="1.0" encoding="UTF-8" standalone="no"?>
<!DOCTYPE svg PUBLIC "-//W3C//DTD SVG 1.1//EN" "http://www.w3.org/Graphics/SVG/1.1/DTD/svg11.dtd">
<svg width="100%" height="100%" viewBox="0 0 24 24" version="1.1" xmlns="http://www.w3.org/2000/svg" xmlns:xlink="http://www.w3.org/1999/xlink" xml:space="preserve" xmlns:serif="http://www.serif.com/" style="fill-rule:evenodd;clip-rule:evenodd;stroke-linejoin:round;stroke-miterlimit:2;">
    <path d="M4.127,6.633L3.929,6.665C2.514,6.9 1.5,8.14 1.5,9.574C1.5,9.574 1.5,18.75 1.5,18.75C1.5,20.396 2.854,21.75 4.5,21.75L19.5,21.75C21.146,21.75 22.5,20.396 22.5,18.75L22.5,9.574C22.5,8.14 21.485,6.9 20.071,6.665C20.071,6.665 20.071,6.665 20.071,6.665C17.672,6.266 15.247,6.046 12.816,6.007L20.432,4.103C20.833,4.002 21.078,3.595 20.978,3.193C20.877,2.792 20.47,2.547 20.068,2.647L4.127,6.633ZM3.845,8.244C3.335,8.469 3,8.992 3,9.574L3,18.75C3,19.573 3.677,20.25 4.5,20.25C4.5,20.25 19.5,20.25 19.5,20.25C20.323,20.25 21,19.573 21,18.75C21,18.75 21,9.574 21,9.574C21,8.874 20.515,8.26 19.825,8.145C17.239,7.715 14.622,7.499 12,7.5C12,7.5 12,7.5 12,7.5C9.423,7.5 6.894,7.706 4.43,8.103L3.932,8.228C3.894,8.236 3.897,8.236 3.857,8.242L3.845,8.244ZM17.25,18C18.073,18 18.75,17.323 18.75,16.5C18.75,15.677 18.073,15 17.25,15C16.427,15 15.75,15.677 15.75,16.5C15.75,17.323 16.427,18 17.25,18ZM17.25,13.5C18.073,13.5 18.75,12.823 18.75,12C18.75,11.177 18.073,10.5 17.25,10.5C16.427,10.5 15.75,11.177 15.75,12C15.75,12.823 16.427,13.5 17.25,13.5Z"/>
    <circle cx="8.192" cy="13.19" r="0.761"/>
    <g transform="matrix(1,0,0,1,2.1302,0)">
        <circle cx="8.192" cy="13.19" r="0.761"/>
    </g>
    <g transform="matrix(1,0,0,1,0,2.14511)">
        <circle cx="8.192" cy="13.19" r="0.761"/>
    </g>
    <g transform="matrix(1,0,0,1,2.13273,2.14511)">
        <circle cx="8.192" cy="13.19" r="0.761"/>
    </g>
    <g transform="matrix(1,0,0,1,4.32839,2.93723)">
        <circle cx="8.192" cy="13.19" r="0.761"/>
    </g>
    <g transform="matrix(1,0,0,1,4.82459,1.06455)">
        <circle cx="8.192" cy="13.19" r="0.761"/>
    </g>
    <g transform="matrix(1,0,0,1,4.31247,-0.825378)">
        <circle cx="8.192" cy="13.19" r="0.761"/>
    </g>
    <g transform="matrix(1,0,0,1,2.93711,-2.17016)">
        <circle cx="8.192" cy="13.19" r="0.761"/>
    </g>
    <g transform="matrix(1,0,0,1,1.04107,-2.68875)">
        <circle cx="8.192" cy="13.19" r="0.761"/>
    </g>
    <g transform="matrix(1,0,0,1,-0.819304,-2.18754)">
        <circle cx="8.192" cy="13.19" r="0.761"/>
    </g>
    <g transform="matrix(1,0,0,1,-2.16931,-0.814846)">
        <circle cx="8.192" cy="13.19" r="0.761"/>
    </g>
    <g transform="matrix(1,0,0,1,-2.69894,1.08879)">
        <circle cx="8.192" cy="13.19" r="0.761"/>
    </g>
    <g transform="matrix(1,0,0,1,-2.2039,2.94553)">
        <circle cx="8.192" cy="13.19" r="0.761"/>
    </g>
    <g transform="matrix(1,0,0,1,-0.811573,4.33786)">
        <circle cx="8.192" cy="13.19" r="0.761"/>
    </g>
    <g transform="matrix(1,0,0,1,1.05325,4.83457)">
        <circle cx="8.192" cy="13.19" r="0.761"/>
    </g>
    <g transform="matrix(1,0,0,1,2.94412,4.32749)">
        <circle cx="8.192" cy="13.19" r="0.761"/>
    </g>
</svg>
