<?xml version="1.0" encoding="UTF-8" standalone="no"?>
<!DOCTYPE svg PUBLIC "-//W3C//DTD SVG 1.1//EN" "http://www.w3.org/Graphics/SVG/1.1/DTD/svg11.dtd">
<svg width="100%" height="100%" viewBox="0 0 24 24" version="1.1" xmlns="http://www.w3.org/2000/svg" xmlns:xlink="http://www.w3.org/1999/xlink" xml:space="preserve" xmlns:serif="http://www.serif.com/" style="fill-rule:evenodd;clip-rule:evenodd;stroke-linejoin:round;stroke-miterlimit:2;">
    <path d="M20.25,4.757C20.25,3.268 19.158,1.999 17.68,1.827C17.68,1.827 17.68,1.827 17.679,1.827C13.906,1.389 10.094,1.389 6.321,1.827C6.32,1.827 6.32,1.827 6.32,1.827C4.841,1.999 3.75,3.268 3.75,4.757C3.75,4.757 3.75,21.75 3.75,21.75C3.75,21.999 3.873,22.232 4.08,22.371C4.286,22.511 4.547,22.539 4.779,22.446L8.25,21.058C8.25,21.058 11.721,22.446 11.721,22.446C11.9,22.518 12.1,22.518 12.279,22.446L15.75,21.058C15.75,21.058 19.221,22.446 19.221,22.446C19.453,22.539 19.714,22.511 19.92,22.371C20.127,22.232 20.25,21.999 20.25,21.75L20.25,4.757ZM18.75,4.757L18.75,20.642C18.75,20.642 16.029,19.554 16.029,19.554C15.85,19.482 15.65,19.482 15.471,19.554L12,20.942C12,20.942 8.529,19.554 8.529,19.554C8.35,19.482 8.15,19.482 7.971,19.554L5.25,20.642C5.25,20.642 5.25,4.757 5.25,4.757C5.25,4.03 5.771,3.401 6.494,3.317C10.152,2.892 13.848,2.892 17.506,3.317C18.228,3.401 18.75,4.03 18.75,4.757ZM9.53,14.78L15.53,8.78C15.823,8.488 15.823,8.012 15.53,7.72C15.238,7.427 14.762,7.427 14.47,7.72L8.47,13.72C8.177,14.012 8.177,14.488 8.47,14.78C8.762,15.073 9.238,15.073 9.53,14.78ZM15.375,13.5C15.375,12.883 14.867,12.375 14.25,12.375C13.633,12.375 13.125,12.883 13.125,13.5C13.125,14.117 13.633,14.625 14.25,14.625C14.867,14.625 15.375,14.117 15.375,13.5ZM13.875,13.5C13.875,13.294 14.044,13.125 14.25,13.125C14.456,13.125 14.625,13.294 14.625,13.5C14.625,13.706 14.456,13.875 14.25,13.875C14.044,13.875 13.875,13.706 13.875,13.5ZM10.875,9C10.875,8.383 10.367,7.875 9.75,7.875C9.133,7.875 8.625,8.383 8.625,9C8.625,9.617 9.133,10.125 9.75,10.125C10.367,10.125 10.875,9.617 10.875,9ZM9.375,9C9.375,8.794 9.544,8.625 9.75,8.625C9.956,8.625 10.125,8.794 10.125,9C10.125,9.206 9.956,9.375 9.75,9.375C9.544,9.375 9.375,9.206 9.375,9Z"/>
</svg>
