<?xml version="1.0" encoding="UTF-8" standalone="no"?>
<!DOCTYPE svg PUBLIC "-//W3C//DTD SVG 1.1//EN" "http://www.w3.org/Graphics/SVG/1.1/DTD/svg11.dtd">
<svg width="100%" height="100%" viewBox="0 0 24 24" version="1.1" xmlns="http://www.w3.org/2000/svg" xmlns:xlink="http://www.w3.org/1999/xlink" xml:space="preserve" xmlns:serif="http://www.serif.com/" style="fill-rule:evenodd;clip-rule:evenodd;stroke-linejoin:round;stroke-miterlimit:2;">
    <path d="M20.25,4.757C20.25,3.268 19.158,1.999 17.68,1.827C17.68,1.827 17.68,1.827 17.679,1.827C13.906,1.389 10.094,1.389 6.321,1.827C6.32,1.827 6.32,1.827 6.32,1.827C4.841,1.999 3.75,3.268 3.75,4.757C3.75,4.757 3.75,21.75 3.75,21.75C3.75,21.999 3.873,22.232 4.08,22.371C4.286,22.511 4.547,22.539 4.779,22.446L8.25,21.058C8.25,21.058 11.721,22.446 11.721,22.446C11.9,22.518 12.1,22.518 12.279,22.446L15.75,21.058C15.75,21.058 19.221,22.446 19.221,22.446C19.453,22.539 19.714,22.511 19.92,22.371C20.127,22.232 20.25,21.999 20.25,21.75L20.25,4.757ZM18.75,4.757L18.75,20.642C18.75,20.642 16.029,19.554 16.029,19.554C15.85,19.482 15.65,19.482 15.471,19.554L12,20.942C12,20.942 8.529,19.554 8.529,19.554C8.35,19.482 8.15,19.482 7.971,19.554L5.25,20.642C5.25,20.642 5.25,4.757 5.25,4.757C5.25,4.03 5.771,3.401 6.494,3.317C10.152,2.892 13.848,2.892 17.506,3.317C18.228,3.401 18.75,4.03 18.75,4.757ZM10.061,10.5L13.125,10.5C14.154,10.5 15,11.346 15,12.375C15,13.404 14.154,14.25 13.125,14.25L12,14.25C11.586,14.25 11.25,14.586 11.25,15C11.25,15.414 11.586,15.75 12,15.75L13.125,15.75C14.976,15.75 16.5,14.226 16.5,12.375C16.5,10.524 14.976,9 13.125,9L10.061,9L11.03,8.03C11.323,7.738 11.323,7.262 11.03,6.97C10.738,6.677 10.262,6.677 9.97,6.97L7.72,9.22C7.677,9.263 7.64,9.31 7.61,9.36L7.604,9.369L7.586,9.401L7.57,9.434L7.564,9.448L7.559,9.458L7.555,9.468L7.551,9.478L7.546,9.492L7.542,9.502L7.54,9.51L7.534,9.527L7.524,9.563L7.521,9.573C7.507,9.63 7.5,9.689 7.5,9.75C7.5,9.811 7.507,9.87 7.521,9.927L7.524,9.937L7.534,9.973L7.546,10.008L7.551,10.022L7.555,10.032L7.559,10.042L7.564,10.052L7.57,10.066L7.574,10.075L7.586,10.099L7.604,10.131L7.624,10.163L7.645,10.193L7.668,10.223L7.693,10.252L7.72,10.28L9.97,12.53C10.262,12.823 10.738,12.823 11.03,12.53C11.323,12.238 11.323,11.762 11.03,11.47L10.061,10.5Z"/>
</svg>
