<?xml version="1.0" encoding="UTF-8" standalone="no"?>
<!DOCTYPE svg PUBLIC "-//W3C//DTD SVG 1.1//EN" "http://www.w3.org/Graphics/SVG/1.1/DTD/svg11.dtd">
<svg width="100%" height="100%" viewBox="0 0 24 24" version="1.1" xmlns="http://www.w3.org/2000/svg" xmlns:xlink="http://www.w3.org/1999/xlink" xml:space="preserve" xmlns:serif="http://www.serif.com/" style="fill-rule:evenodd;clip-rule:evenodd;stroke-linejoin:round;stroke-miterlimit:2;">
    <path d="M5.25,6.402C4.335,6.931 3.75,7.918 3.75,9L3.75,9.402C2.853,9.92 2.25,10.889 2.25,12L2.25,18C2.25,19.646 3.604,21 5.25,21C5.25,21 18.75,21 18.75,21C20.396,21 21.75,19.646 21.75,18L21.75,12C21.75,10.918 21.165,9.931 20.25,9.402L20.25,9C20.25,7.918 19.665,6.931 18.75,6.402L18.75,6C18.75,4.354 17.396,3 15.75,3L8.25,3C6.604,3 5.25,4.354 5.25,6L5.25,6.402ZM19.25,10.585C19.09,10.529 18.921,10.5 18.751,10.5L5.25,10.5C5.075,10.5 4.907,10.53 4.75,10.585C4.167,10.791 3.75,11.347 3.75,12C3.75,12 3.75,18 3.75,18C3.75,18.823 4.427,19.5 5.25,19.5L18.75,19.5C19.573,19.5 20.25,18.823 20.25,18L20.25,12C20.25,11.366 19.848,10.797 19.25,10.585ZM17.75,7.585C17.593,7.53 17.425,7.5 17.25,7.5L6.75,7.5C6.575,7.5 6.407,7.53 6.25,7.585C5.652,7.797 5.25,8.366 5.25,9L5.25,9C5.25,9 18.75,9 18.749,9L18.75,9L18.75,9C18.75,8.366 18.348,7.797 17.75,7.585ZM17.25,6C17.25,5.177 16.573,4.5 15.75,4.5C15.75,4.5 8.25,4.5 8.25,4.5C7.427,4.5 6.75,5.177 6.75,6L17.25,6Z"/>
</svg>
