<?xml version="1.0" encoding="UTF-8" standalone="no"?>
<!DOCTYPE svg PUBLIC "-//W3C//DTD SVG 1.1//EN" "http://www.w3.org/Graphics/SVG/1.1/DTD/svg11.dtd">
<svg width="100%" height="100%" viewBox="0 0 24 24" version="1.1" xmlns="http://www.w3.org/2000/svg" xmlns:xlink="http://www.w3.org/1999/xlink" xml:space="preserve" xmlns:serif="http://www.serif.com/" style="fill-rule:evenodd;clip-rule:evenodd;stroke-linejoin:round;stroke-miterlimit:2;">
    <path d="M3,16.125L3,18.375C3,19.404 3.846,20.25 4.875,20.25L10.125,20.25C11.16,20.25 12,19.41 12,18.375L12,16.125C12,15.09 11.16,14.25 10.125,14.25L4.875,14.25C3.84,14.25 3,15.09 3,16.125ZM13.5,8.625L13.5,16.875C13.5,17.904 14.346,18.75 15.375,18.75L20.625,18.75C21.66,18.75 22.5,17.91 22.5,16.875L22.5,8.625C22.5,7.59 21.66,6.75 20.625,6.75L15.375,6.75C14.34,6.75 13.5,7.59 13.5,8.625ZM4.5,16.125C4.5,15.918 4.668,15.75 4.875,15.75C4.875,15.75 10.125,15.75 10.125,15.75C10.332,15.75 10.5,15.918 10.5,16.125C10.5,16.125 10.5,18.375 10.5,18.375C10.5,18.582 10.332,18.75 10.125,18.75C10.125,18.75 4.875,18.75 4.875,18.75C4.669,18.75 4.5,18.581 4.5,18.375C4.5,18.375 4.5,16.125 4.5,16.125ZM15,8.625C15,8.418 15.168,8.25 15.375,8.25C15.375,8.25 20.625,8.25 20.625,8.25C20.832,8.25 21,8.418 21,8.625C21,8.625 21,16.875 21,16.875C21,17.082 20.832,17.25 20.625,17.25C20.625,17.25 15.375,17.25 15.375,17.25C15.169,17.25 15,17.081 15,16.875C15,16.875 15,8.625 15,8.625ZM1.5,7.125L1.5,10.875C1.5,11.904 2.346,12.75 3.375,12.75C3.375,12.75 9.375,12.75 9.375,12.75C10.41,12.75 11.25,11.91 11.25,10.875L11.25,7.125C11.25,6.09 10.41,5.25 9.375,5.25L3.375,5.25C2.34,5.25 1.5,6.09 1.5,7.125ZM3,7.125C3,6.918 3.168,6.75 3.375,6.75C3.375,6.75 9.375,6.75 9.375,6.75C9.582,6.75 9.75,6.918 9.75,7.125C9.75,7.125 9.75,10.875 9.75,10.875C9.75,11.082 9.582,11.25 9.375,11.25L3.375,11.25C3.169,11.25 3,11.081 3,10.875L3,7.125Z"/>
</svg>
