<?xml version="1.0" encoding="UTF-8" standalone="no"?>
<!DOCTYPE svg PUBLIC "-//W3C//DTD SVG 1.1//EN" "http://www.w3.org/Graphics/SVG/1.1/DTD/svg11.dtd">
<svg width="100%" height="100%" viewBox="0 0 24 24" version="1.1" xmlns="http://www.w3.org/2000/svg" xmlns:xlink="http://www.w3.org/1999/xlink" xml:space="preserve" xmlns:serif="http://www.serif.com/" style="fill-rule:evenodd;clip-rule:evenodd;stroke-linejoin:round;stroke-miterlimit:2;">
    <path d="M9.314,7.583C8.963,7.527 8.607,7.499 8.25,7.499C4.547,7.499 1.5,10.546 1.5,14.249C1.5,14.249 1.5,14.25 1.5,14.25C1.5,14.664 1.836,15 2.25,15L6.382,15L6.403,15.028C7.158,15.98 8.021,16.843 8.973,17.598L9,17.618L9,21.75C9,22.164 9.336,22.5 9.75,22.5C9.75,22.5 9.751,22.5 9.751,22.5C13.454,22.5 16.501,19.453 16.501,15.75C16.501,15.394 16.473,15.038 16.417,14.687C20.248,11.712 22.504,7.117 22.5,2.249C22.5,1.836 22.164,1.5 21.751,1.5C16.883,1.496 12.289,3.752 9.314,7.583ZM4.363,16.038C2.801,17.2 2.01,19.14 2.313,21.063C2.364,21.384 2.616,21.636 2.937,21.687C4.86,21.99 6.8,21.198 7.962,19.635C8.209,19.303 8.14,18.833 7.807,18.586C7.475,18.339 7.005,18.408 6.758,18.741C6.045,19.699 4.922,20.252 3.749,20.251C3.748,19.078 4.3,17.955 5.259,17.242C5.591,16.995 5.66,16.525 5.413,16.192C5.166,15.86 4.696,15.791 4.363,16.038ZM15,15.67C13.608,16.527 12.09,17.162 10.5,17.551L10.5,20.946C13.031,20.578 15.001,18.376 15.001,15.75L15,15.67ZM15.151,13.762C18.618,11.235 20.752,7.279 20.98,3.02C16.722,3.248 12.766,5.382 10.239,8.85L10.234,8.856C9.036,10.495 8.204,12.372 7.794,14.361C8.352,15.031 8.97,15.649 9.64,16.207C11.623,15.798 13.495,14.97 15.13,13.778L15.147,13.765L15.151,13.762ZM8.332,9L8.25,8.999C5.624,8.999 3.422,10.969 3.054,13.5L6.451,13.5C6.839,11.91 7.474,10.392 8.332,9ZM17.25,9C17.25,7.766 16.234,6.75 15,6.75C13.766,6.75 12.75,7.766 12.75,9C12.75,10.234 13.766,11.25 15,11.25C16.234,11.25 17.25,10.234 17.25,9ZM15.75,9C15.75,9.411 15.411,9.75 15,9.75C14.589,9.75 14.25,9.411 14.25,9C14.25,8.589 14.589,8.25 15,8.25C15.411,8.25 15.75,8.589 15.75,9Z"/>
</svg>
