<?xml version="1.0" encoding="UTF-8" standalone="no"?>
<!DOCTYPE svg PUBLIC "-//W3C//DTD SVG 1.1//EN" "http://www.w3.org/Graphics/SVG/1.1/DTD/svg11.dtd">
<svg width="100%" height="100%" viewBox="0 0 24 24" version="1.1" xmlns="http://www.w3.org/2000/svg" xmlns:xlink="http://www.w3.org/1999/xlink" xml:space="preserve" xmlns:serif="http://www.serif.com/" style="fill-rule:evenodd;clip-rule:evenodd;stroke-linejoin:round;stroke-miterlimit:2;">
    <path d="M13.5,19.5L13.5,18.75C13.5,14.224 9.776,10.5 5.25,10.5C5.25,10.5 4.5,10.5 4.5,10.5C4.086,10.5 3.75,10.836 3.75,11.25C3.75,11.664 4.086,12 4.5,12L5.25,12C8.953,12 12,15.047 12,18.75L12,19.5C12,19.914 12.336,20.25 12.75,20.25C13.164,20.25 13.5,19.914 13.5,19.5ZM4.5,5.25L5.25,5.25C12.706,5.25 18.75,11.294 18.75,18.75C18.75,18.75 18.75,19.5 18.75,19.5C18.75,19.914 19.086,20.25 19.5,20.25C19.914,20.25 20.25,19.914 20.25,19.5L20.25,18.75C20.25,10.466 13.534,3.75 5.25,3.75C5.25,3.75 4.5,3.75 4.5,3.75C4.086,3.75 3.75,4.086 3.75,4.5C3.75,4.914 4.086,5.25 4.5,5.25ZM6.75,18.75C6.75,17.927 6.073,17.25 5.25,17.25C4.427,17.25 3.75,17.927 3.75,18.75C3.75,19.573 4.427,20.25 5.25,20.25C6.073,20.25 6.75,19.573 6.75,18.75Z"/>
</svg>
