<?xml version="1.0" encoding="UTF-8" standalone="no"?>
<!DOCTYPE svg PUBLIC "-//W3C//DTD SVG 1.1//EN" "http://www.w3.org/Graphics/SVG/1.1/DTD/svg11.dtd">
<svg width="100%" height="100%" viewBox="0 0 24 24" version="1.1" xmlns="http://www.w3.org/2000/svg" xmlns:xlink="http://www.w3.org/1999/xlink" xml:space="preserve" xmlns:serif="http://www.serif.com/" style="fill-rule:evenodd;clip-rule:evenodd;stroke-linejoin:round;stroke-miterlimit:2;">
    <path d="M11.871,21.001L12,21C13.38,21 14.702,21.248 15.923,21.703C16.311,21.847 16.743,21.65 16.888,21.262C17.032,20.874 16.835,20.442 16.447,20.297C15.285,19.865 14.043,19.597 12.75,19.522L12.75,5.256C14.446,5.282 16.14,5.398 17.823,5.605L15.4,15.519C15.189,16.391 15.621,17.299 16.465,17.604C16.465,17.604 16.465,17.604 16.466,17.604C17.198,17.867 17.971,18.001 18.75,18C19.529,18.001 20.302,17.867 21.034,17.604C21.035,17.604 21.035,17.604 21.035,17.604C21.88,17.299 22.312,16.391 22.099,15.518L19.745,5.881C20.367,5.984 20.985,6.099 21.599,6.225C22.005,6.308 22.402,6.046 22.485,5.641C22.568,5.235 22.306,4.838 21.901,4.755C20.896,4.549 19.88,4.373 18.855,4.227L18.854,4.227C16.831,3.943 14.793,3.786 12.75,3.756L12.75,3C12.75,2.586 12.414,2.25 12,2.25C11.586,2.25 11.25,2.586 11.25,3L11.25,3.756C9.181,3.787 7.144,3.946 5.146,4.227L5.145,4.227C4.12,4.373 3.104,4.549 2.099,4.755C1.694,4.838 1.432,5.235 1.515,5.641C1.598,6.046 1.995,6.308 2.401,6.225C3.015,6.099 3.633,5.984 4.255,5.881L1.9,15.519C1.689,16.391 2.121,17.299 2.965,17.604C2.965,17.604 2.965,17.604 2.966,17.604C3.699,17.867 4.471,18.001 5.25,18C6.029,18.001 6.801,17.867 7.534,17.604C7.535,17.604 7.535,17.604 7.535,17.604C8.38,17.299 8.812,16.391 8.599,15.518L6.177,5.604C7.843,5.4 9.535,5.282 11.25,5.256L11.25,19.522C9.957,19.597 8.715,19.865 7.553,20.297C7.165,20.442 6.968,20.874 7.112,21.262C7.257,21.65 7.689,21.847 8.077,21.703C9.26,21.262 10.537,21.016 11.871,21.001ZM18.75,8.13L20.641,15.874C20.672,16 20.649,16.148 20.527,16.192C19.957,16.397 19.356,16.501 18.751,16.5C18.75,16.5 18.75,16.5 18.749,16.5C18.144,16.501 17.543,16.397 16.973,16.192C16.851,16.148 16.827,15.999 16.858,15.873L18.75,8.13ZM5.25,8.13L7.141,15.874C7.172,16 7.149,16.148 7.027,16.192C6.457,16.397 5.856,16.501 5.251,16.5C5.25,16.5 5.25,16.5 5.249,16.5C4.644,16.501 4.043,16.397 3.473,16.192C3.351,16.148 3.327,15.999 3.358,15.873L5.25,8.13Z"/>
</svg>
