<?xml version="1.0" encoding="UTF-8" standalone="no"?>
<!DOCTYPE svg PUBLIC "-//W3C//DTD SVG 1.1//EN" "http://www.w3.org/Graphics/SVG/1.1/DTD/svg11.dtd">
<svg width="100%" height="100%" viewBox="0 0 24 24" version="1.1" xmlns="http://www.w3.org/2000/svg" xmlns:xlink="http://www.w3.org/1999/xlink" xml:space="preserve" xmlns:serif="http://www.serif.com/" style="fill-rule:evenodd;clip-rule:evenodd;stroke-linejoin:round;stroke-miterlimit:2;">
    <g transform="matrix(1,0,0,1,0.0114936,0.00785742)">
        <path d="M11.323,9.39L9.759,8.487L8.223,7.601C7.865,7.394 7.406,7.516 7.199,7.875C6.992,8.233 7.114,8.692 7.473,8.899L9.009,9.787C9.44,10.035 9.709,10.492 9.717,10.989C9.722,11.332 9.763,11.672 9.836,12C9.763,12.329 9.722,12.668 9.717,13.014C9.709,13.508 9.439,13.965 9.009,14.213L7.473,15.101C7.114,15.308 6.992,15.767 7.199,16.125C7.406,16.484 7.865,16.606 8.223,16.399L9.759,15.513L11.323,14.61C11.887,15.138 12.566,15.533 13.31,15.76L18.636,17.389C19.576,17.677 20.579,17.694 21.529,17.439L22.331,17.224C22.624,17.146 22.841,16.899 22.881,16.598C22.92,16.297 22.775,16.002 22.512,15.85L15.843,12L22.512,8.15C22.775,7.998 22.92,7.703 22.881,7.402C22.841,7.101 22.624,6.854 22.331,6.776L21.528,6.56C20.578,6.306 19.575,6.324 18.635,6.612C18.635,6.612 13.31,8.24 13.31,8.24C12.566,8.467 11.886,8.862 11.323,9.39ZM19.966,16.113L14.343,12.866L12.707,13.81C13.022,14.037 13.374,14.211 13.748,14.326L19.074,15.955C19.366,16.044 19.665,16.097 19.966,16.113ZM19.965,7.888C19.664,7.904 19.365,7.957 19.073,8.046L13.748,9.674C13.079,9.879 12.485,10.275 12.039,10.814L12.039,10.814C11.706,11.216 11.465,11.685 11.333,12.19C11.27,12.431 11.231,12.681 11.22,12.937L13.968,11.35L19.965,7.888Z"/>
    </g>
    <path d="M8.495,15.371C7.823,14.224 6.589,13.517 5.26,13.517C3.203,13.517 1.51,15.21 1.51,17.267C1.51,17.917 1.679,18.556 2,19.121C2.666,20.292 3.913,21.017 5.26,21.017C7.317,21.017 9.01,19.324 9.01,17.267C9.01,16.601 8.832,15.946 8.495,15.371ZM7.201,16.129C7.403,16.474 7.51,16.867 7.51,17.267C7.51,18.502 6.494,19.517 5.26,19.517C4.452,19.517 3.703,19.082 3.304,18.379C3.111,18.04 3.01,17.657 3.01,17.267C3.01,16.033 4.026,15.017 5.26,15.017C6.057,15.017 6.798,15.441 7.201,16.129ZM8.5,8.621C8.821,8.056 8.99,7.417 8.99,6.767C8.99,4.71 7.297,3.017 5.24,3.017C3.911,3.017 2.677,3.724 2.005,4.871C1.668,5.446 1.49,6.101 1.49,6.767C1.49,8.824 3.183,10.517 5.24,10.517C6.587,10.517 7.834,9.792 8.5,8.621ZM7.196,7.879C6.797,8.582 6.048,9.017 5.24,9.017C4.006,9.017 2.99,8.002 2.99,6.767C2.99,6.367 3.097,5.974 3.299,5.629C3.702,4.941 4.443,4.517 5.24,4.517C6.474,4.517 7.49,5.533 7.49,6.767C7.49,7.157 7.389,7.54 7.196,7.879Z"/>
</svg>
