<?xml version="1.0" encoding="UTF-8" standalone="no"?>
<!DOCTYPE svg PUBLIC "-//W3C//DTD SVG 1.1//EN" "http://www.w3.org/Graphics/SVG/1.1/DTD/svg11.dtd">
<svg width="100%" height="100%" viewBox="0 0 24 24" version="1.1" xmlns="http://www.w3.org/2000/svg" xmlns:xlink="http://www.w3.org/1999/xlink" xml:space="preserve" xmlns:serif="http://www.serif.com/" style="fill-rule:evenodd;clip-rule:evenodd;stroke-linejoin:round;stroke-miterlimit:2;">
    <path d="M1.507,17.028L1.506,17.035L1.5,17.028L1.5,17.25C1.5,19.307 3.193,21 5.25,21C5.25,21 18.75,21 18.75,21C20.807,21 22.5,19.307 22.5,17.25L22.5,17.022C22.5,16.617 22.453,16.214 22.36,15.82L20.092,6.18C19.655,4.323 17.985,3 16.077,3L7.923,3C6.015,3 4.345,4.323 3.908,6.18L1.64,15.82C1.547,16.214 1.5,16.617 1.5,17.022L1.507,17.028ZM20.999,17.192C20.968,15.984 19.965,15 18.75,15C18.75,15 5.25,15 5.25,15C4.035,15 3.032,15.984 3.001,17.192L3,17.25C3,18.484 4.016,19.5 5.25,19.5L18.75,19.5C19.984,19.5 21,18.484 21,17.25L20.999,17.192ZM20.36,13.867L18.632,6.524C18.354,5.342 17.291,4.5 16.077,4.5C16.077,4.5 7.923,4.5 7.923,4.5C6.709,4.5 5.646,5.342 5.368,6.524L3.64,13.867C4.129,13.632 4.675,13.5 5.25,13.5L18.75,13.5C19.325,13.5 19.871,13.632 20.36,13.867Z"/>
    <g transform="matrix(1,0,0,1,-0.0202374,-0.0557192)">
        <circle cx="15.775" cy="17.313" r="0.754"/>
    </g>
    <g transform="matrix(1,0,0,1,2.99295,-0.0557192)">
        <circle cx="15.775" cy="17.313" r="0.754"/>
    </g>
</svg>
