<?xml version="1.0" encoding="UTF-8" standalone="no"?>
<!DOCTYPE svg PUBLIC "-//W3C//DTD SVG 1.1//EN" "http://www.w3.org/Graphics/SVG/1.1/DTD/svg11.dtd">
<svg width="100%" height="100%" viewBox="0 0 24 24" version="1.1" xmlns="http://www.w3.org/2000/svg" xmlns:xlink="http://www.w3.org/1999/xlink" xml:space="preserve" xmlns:serif="http://www.serif.com/" style="fill-rule:evenodd;clip-rule:evenodd;stroke-linejoin:round;stroke-miterlimit:2;">
    <path d="M1.5,11.25C1.5,12.471 2.096,13.564 3.011,14.25C2.096,14.936 1.5,16.029 1.5,17.25C1.5,19.307 3.193,21 5.25,21C5.25,21 18.75,21 18.75,21C20.807,21 22.5,19.307 22.5,17.25C22.5,16.029 21.904,14.936 20.989,14.25C21.904,13.564 22.5,12.471 22.5,11.25C22.5,10.114 22.131,9.009 21.45,8.1L18.863,4.65C18.083,3.611 16.861,3 15.563,3L8.437,3C7.14,3 5.915,3.612 5.137,4.65L2.55,8.1C1.869,9.009 1.5,10.114 1.5,11.25ZM5.192,15.001C3.984,15.032 3,16.035 3,17.25C3,18.484 4.016,19.5 5.25,19.5L18.75,19.5C19.984,19.5 21,18.484 21,17.25C21,16.016 19.984,15 18.75,15L5.25,15L5.192,15.001ZM21,11.25C21,10.016 19.984,9 18.75,9L5.25,9C4.016,9 3,10.016 3,11.25C3,12.484 4.016,13.5 5.25,13.5L18.75,13.5L18.808,13.499C20.016,13.468 21,12.465 21,11.25ZM19.141,7.521L17.663,5.55C17.167,4.889 16.389,4.5 15.563,4.5C15.563,4.5 8.437,4.5 8.437,4.5C7.611,4.5 6.832,4.889 6.337,5.55L4.859,7.521C4.988,7.507 5.118,7.5 5.25,7.5C5.25,7.5 18.75,7.5 18.75,7.5C18.882,7.5 19.012,7.507 19.141,7.521Z"/>
    <g transform="matrix(1.03316,0,0,1.03316,-0.522328,-0.393585)">
        <circle cx="15.753" cy="11.28" r="0.742"/>
    </g>
    <g transform="matrix(1.03316,0,0,1.03316,2.4471,-0.393585)">
        <circle cx="15.753" cy="11.28" r="0.742"/>
    </g>
    <g transform="matrix(1.03316,0,0,1.03316,-0.522328,5.60135)">
        <circle cx="15.753" cy="11.28" r="0.742"/>
    </g>
    <g transform="matrix(1.03316,0,0,1.03316,2.4471,5.60135)">
        <circle cx="15.753" cy="11.28" r="0.742"/>
    </g>
</svg>
