<?xml version="1.0" encoding="UTF-8" standalone="no"?>
<!DOCTYPE svg PUBLIC "-//W3C//DTD SVG 1.1//EN" "http://www.w3.org/Graphics/SVG/1.1/DTD/svg11.dtd">
<svg width="100%" height="100%" viewBox="0 0 24 24" version="1.1" xmlns="http://www.w3.org/2000/svg" xmlns:xlink="http://www.w3.org/1999/xlink" xml:space="preserve" xmlns:serif="http://www.serif.com/" style="fill-rule:evenodd;clip-rule:evenodd;stroke-linejoin:round;stroke-miterlimit:2;">
    <path d="M6.848,13.749L16.414,19.063C16.776,19.264 17.233,19.133 17.434,18.771C17.635,18.409 17.504,17.952 17.142,17.751L7.576,12.437C7.214,12.236 6.757,12.367 6.556,12.729C6.355,13.091 6.486,13.548 6.848,13.749Z"/>
    <path d="M7.576,11.563L17.142,6.249C17.504,6.048 17.635,5.591 17.434,5.229C17.233,4.867 16.776,4.736 16.414,4.937L6.848,10.251C6.486,10.452 6.355,10.909 6.556,11.271C6.757,11.633 7.214,11.764 7.576,11.563Z"/>
    <path d="M16.121,5.945C16.64,6.924 17.662,7.538 18.77,7.538C20.416,7.538 21.77,6.184 21.77,4.538C21.77,4.009 21.63,3.489 21.365,3.031C20.828,2.108 19.838,1.538 18.77,1.538C17.124,1.538 15.77,2.892 15.77,4.538C15.77,5.028 15.891,5.511 16.121,5.945ZM17.445,5.241C17.33,5.025 17.27,4.783 17.27,4.538C17.27,3.715 17.947,3.038 18.77,3.038C19.304,3.038 19.799,3.323 20.067,3.785C20.2,4.013 20.27,4.273 20.27,4.538C20.27,5.361 19.593,6.038 18.77,6.038C18.216,6.038 17.705,5.731 17.445,5.241Z"/>
    <g transform="matrix(1,0,0,1,-13.525,7.46651)">
        <path d="M16.121,5.945C16.64,6.924 17.662,7.538 18.77,7.538C20.416,7.538 21.77,6.184 21.77,4.538C21.77,4.009 21.63,3.489 21.365,3.031C20.828,2.108 19.838,1.538 18.77,1.538C17.124,1.538 15.77,2.892 15.77,4.538C15.77,5.028 15.891,5.511 16.121,5.945ZM17.445,5.241C17.33,5.025 17.27,4.783 17.27,4.538C17.27,3.715 17.947,3.038 18.77,3.038C19.304,3.038 19.799,3.323 20.067,3.785C20.2,4.013 20.27,4.273 20.27,4.538C20.27,5.361 19.593,6.038 18.77,6.038C18.216,6.038 17.705,5.731 17.445,5.241Z"/>
    </g>
    <g transform="matrix(1,0,0,1,-1.77636e-15,14.9696)">
        <path d="M16.121,5.945C16.64,6.924 17.662,7.538 18.77,7.538C20.416,7.538 21.77,6.184 21.77,4.538C21.77,4.009 21.63,3.489 21.365,3.031C20.828,2.108 19.838,1.538 18.77,1.538C17.124,1.538 15.77,2.892 15.77,4.538C15.77,5.028 15.891,5.511 16.121,5.945ZM17.445,5.241C17.33,5.025 17.27,4.783 17.27,4.538C17.27,3.715 17.947,3.038 18.77,3.038C19.304,3.038 19.799,3.323 20.067,3.785C20.2,4.013 20.27,4.273 20.27,4.538C20.27,5.361 19.593,6.038 18.77,6.038C18.216,6.038 17.705,5.731 17.445,5.241Z"/>
    </g>
</svg>
