<?xml version="1.0" encoding="UTF-8" standalone="no"?>
<!DOCTYPE svg PUBLIC "-//W3C//DTD SVG 1.1//EN" "http://www.w3.org/Graphics/SVG/1.1/DTD/svg11.dtd">
<svg width="100%" height="100%" viewBox="0 0 24 24" version="1.1" xmlns="http://www.w3.org/2000/svg" xmlns:xlink="http://www.w3.org/1999/xlink" xml:space="preserve" xmlns:serif="http://www.serif.com/" style="fill-rule:evenodd;clip-rule:evenodd;stroke-linejoin:round;stroke-miterlimit:2;">
    <path d="M20.25,5.256L20.25,5.25C17.254,5.25 14.531,4.079 12.516,2.17C12.226,1.895 11.773,1.896 11.484,2.17C9.362,4.185 6.534,5.291 3.608,5.25C3.281,5.245 2.988,5.455 2.885,5.766C2.463,7.052 2.249,8.397 2.25,9.75C2.25,15.692 6.314,20.683 11.813,22.098C11.936,22.13 12.064,22.13 12.187,22.098C17.687,20.683 21.75,15.692 21.75,9.75C21.75,8.358 21.527,7.019 21.114,5.766C21.114,5.766 21.077,5.25 20.326,5.25C20.299,5.25 20.273,5.252 20.25,5.256ZM12,3.722C14.127,5.529 16.855,6.65 19.843,6.743C20.109,7.701 20.25,8.708 20.25,9.75C20.25,14.924 16.758,19.283 12.001,20.596C7.242,19.283 3.75,14.925 3.75,9.75C3.75,9.75 3.75,9.75 3.75,9.749C3.749,8.733 3.886,7.723 4.156,6.745C7.038,6.656 9.806,5.589 12,3.722ZM11.25,9L11.25,12.75C11.25,13.164 11.586,13.5 12,13.5C12.414,13.5 12.75,13.164 12.75,12.75L12.75,9C12.75,8.586 12.414,8.25 12,8.25C11.586,8.25 11.25,8.586 11.25,9Z"/>
    <g transform="matrix(1.02179,0,0,1.02179,-0.287885,-0.379955)">
        <circle cx="12.016" cy="15.787" r="0.742"/>
    </g>
</svg>
