<?xml version="1.0" encoding="UTF-8" standalone="no"?>
<!DOCTYPE svg PUBLIC "-//W3C//DTD SVG 1.1//EN" "http://www.w3.org/Graphics/SVG/1.1/DTD/svg11.dtd">
<svg width="100%" height="100%" viewBox="0 0 24 24" version="1.1" xmlns="http://www.w3.org/2000/svg" xmlns:xlink="http://www.w3.org/1999/xlink" xml:space="preserve" xmlns:serif="http://www.serif.com/" style="fill-rule:evenodd;clip-rule:evenodd;stroke-linejoin:round;stroke-miterlimit:2;">
    <path d="M20.25,5.249L20.25,5.249C17.254,5.249 14.531,4.079 12.516,2.17C12.226,1.895 11.773,1.896 11.484,2.17C9.362,4.185 6.534,5.291 3.608,5.25C3.281,5.245 2.988,5.455 2.885,5.766C2.463,7.052 2.249,8.396 2.25,9.749C2.25,15.691 6.313,20.682 11.813,22.098C11.936,22.13 12.064,22.13 12.187,22.098C17.687,20.683 21.75,15.692 21.75,9.75C21.75,8.358 21.527,7.018 21.114,5.765C21.114,5.765 21.244,5.249 20.369,5.249L20.252,5.249L20.25,5.249ZM12,3.722C14.127,5.529 16.855,6.649 19.843,6.742C20.108,7.7 20.25,8.708 20.25,9.75C20.25,14.924 16.758,19.283 12.001,20.595C7.242,19.282 3.75,14.924 3.75,9.749C3.75,9.749 3.75,9.749 3.75,9.748C3.749,8.733 3.886,7.723 4.156,6.745C7.038,6.656 9.806,5.589 12,3.722ZM8.47,13.28L10.72,15.53C10.876,15.686 11.092,15.766 11.312,15.747C11.532,15.729 11.732,15.615 11.86,15.436L15.61,10.186C15.851,9.849 15.773,9.38 15.436,9.14C15.099,8.899 14.63,8.977 14.39,9.314L11.154,13.844C11.154,13.844 9.53,12.22 9.53,12.22C9.238,11.927 8.762,11.927 8.47,12.22C8.177,12.512 8.177,12.988 8.47,13.28Z"/>
</svg>
