<?xml version="1.0" encoding="UTF-8" standalone="no"?>
<!DOCTYPE svg PUBLIC "-//W3C//DTD SVG 1.1//EN" "http://www.w3.org/Graphics/SVG/1.1/DTD/svg11.dtd">
<svg width="100%" height="100%" viewBox="0 0 24 24" version="1.1" xmlns="http://www.w3.org/2000/svg" xmlns:xlink="http://www.w3.org/1999/xlink" xml:space="preserve" xmlns:serif="http://www.serif.com/" style="fill-rule:evenodd;clip-rule:evenodd;stroke-linejoin:round;stroke-miterlimit:2;">
    <path d="M6.75,20.25C6.75,19.427 6.073,18.75 5.25,18.75C4.427,18.75 3.75,19.427 3.75,20.25C3.75,21.073 4.427,21.75 5.25,21.75C6.073,21.75 6.75,21.073 6.75,20.25ZM19.5,20.25C19.5,19.427 18.823,18.75 18,18.75C17.177,18.75 16.5,19.427 16.5,20.25C16.5,21.073 17.177,21.75 18,21.75C18.823,21.75 19.5,21.073 19.5,20.25ZM4.381,5.465L6.556,13.622C4.95,14.045 3.75,15.518 3.75,17.25C3.75,17.664 4.086,18 4.5,18L20.25,18C20.664,18 21,17.664 21,17.25C21,16.836 20.664,16.5 20.25,16.5L5.38,16.5C5.692,15.63 6.528,15 7.5,15L7.51,15L18.718,15C19.005,15 19.267,14.836 19.392,14.579C20.527,12.25 21.519,9.836 22.353,7.351C22.419,7.153 22.4,6.937 22.301,6.753C22.201,6.57 22.029,6.437 21.827,6.385C16.552,5.04 11.12,4.409 5.679,4.509L5.447,3.641C5.227,2.821 4.486,2.25 3.636,2.25L2.25,2.25C1.836,2.25 1.5,2.586 1.5,3C1.5,3.414 1.836,3.75 2.25,3.75L3.636,3.75C3.806,3.75 3.954,3.865 3.999,4.029C3.999,4.029 4.381,5.465 4.381,5.465ZM8.076,13.5L18.247,13.5C19.154,11.602 19.963,9.647 20.667,7.643C15.89,6.495 10.99,5.944 6.077,6.003L8.076,13.5Z"/>
</svg>
