<?xml version="1.0" encoding="UTF-8" standalone="no"?>
<!DOCTYPE svg PUBLIC "-//W3C//DTD SVG 1.1//EN" "http://www.w3.org/Graphics/SVG/1.1/DTD/svg11.dtd">
<svg width="100%" height="100%" viewBox="0 0 24 24" version="1.1" xmlns="http://www.w3.org/2000/svg" xmlns:xlink="http://www.w3.org/1999/xlink" xml:space="preserve" xmlns:serif="http://www.serif.com/" style="fill-rule:evenodd;clip-rule:evenodd;stroke-linejoin:round;stroke-miterlimit:2;">
    <path d="M7.5,6.75L5.513,6.75C4.558,6.75 3.748,7.479 3.648,8.428L2.384,20.428C2.377,20.494 2.374,20.559 2.374,20.625C2.374,21.654 3.22,22.5 4.249,22.5L19.75,22.5C20.865,22.5 21.732,21.537 21.615,20.428L20.352,8.429C20.252,7.475 19.447,6.75 18.487,6.75L16.5,6.75L16.5,6C16.5,3.531 14.469,1.5 12,1.5C9.531,1.5 7.5,3.531 7.5,6L7.5,6.75ZM7.5,8.25L5.513,8.25C5.322,8.25 5.16,8.396 5.14,8.586L3.876,20.586L3.874,20.625C3.874,20.831 4.043,21 4.249,21L19.75,21C19.973,21 20.146,20.807 20.123,20.586L18.86,8.585C18.84,8.395 18.679,8.25 18.487,8.25L16.5,8.25L16.5,9.665C16.73,9.871 16.875,10.17 16.875,10.5C16.875,11.117 16.367,11.625 15.75,11.625C15.133,11.625 14.625,11.117 14.625,10.5C14.625,10.17 14.77,9.871 15,9.665L15,8.25L9,8.25L9,9.665C9.23,9.871 9.375,10.17 9.375,10.5C9.375,11.117 8.867,11.625 8.25,11.625C7.633,11.625 7.125,11.117 7.125,10.5C7.125,10.17 7.27,9.871 7.5,9.665L7.5,8.25ZM15,6.75L15,6C15,4.354 13.646,3 12,3C10.354,3 9,4.354 9,6L9,6.75L15,6.75Z"/>
</svg>
