<?xml version="1.0" encoding="UTF-8" standalone="no"?>
<!DOCTYPE svg PUBLIC "-//W3C//DTD SVG 1.1//EN" "http://www.w3.org/Graphics/SVG/1.1/DTD/svg11.dtd">
<svg width="100%" height="100%" viewBox="0 0 24 24" version="1.1" xmlns="http://www.w3.org/2000/svg" xmlns:xlink="http://www.w3.org/1999/xlink" xml:space="preserve" xmlns:serif="http://www.serif.com/" style="fill-rule:evenodd;clip-rule:evenodd;stroke-linejoin:round;stroke-miterlimit:2;">
    <path d="M18.364,5.635C21.879,9.15 21.879,14.849 18.364,18.365C18.071,18.657 18.071,19.133 18.364,19.425C18.656,19.718 19.132,19.718 19.424,19.425C23.525,15.323 23.525,8.676 19.424,4.575C19.132,4.282 18.656,4.282 18.364,4.575C18.071,4.867 18.071,5.343 18.364,5.635ZM5.636,18.364C2.121,14.849 2.121,9.151 5.636,5.635C5.929,5.343 5.929,4.867 5.636,4.575C5.344,4.282 4.868,4.282 4.576,4.575C0.475,8.677 0.475,15.323 4.576,19.424C4.868,19.717 5.344,19.717 5.636,19.424C5.929,19.132 5.929,18.656 5.636,18.364ZM7.757,16.243C6.633,15.118 6,13.591 6,12C6,10.409 6.633,8.882 7.757,7.757C8.05,7.465 8.05,6.989 7.757,6.697C7.465,6.404 6.989,6.404 6.697,6.697C5.291,8.103 4.5,10.012 4.5,12C4.5,13.988 5.291,15.897 6.697,17.303C6.989,17.596 7.465,17.596 7.757,17.303C8.05,17.011 8.05,16.535 7.757,16.243ZM16.243,7.757C17.367,8.882 18,10.409 18,12C18,13.591 17.367,15.118 16.243,16.243C15.95,16.535 15.95,17.011 16.243,17.303C16.535,17.596 17.011,17.596 17.303,17.303C18.709,15.897 19.5,13.988 19.5,12C19.5,10.012 18.709,8.103 17.303,6.697C17.011,6.404 16.535,6.404 16.243,6.697C15.95,6.989 15.95,7.465 16.243,7.757ZM9.878,14.121C8.715,12.957 8.715,11.042 9.878,9.878C10.171,9.586 10.171,9.11 9.878,8.818C9.586,8.525 9.11,8.525 8.818,8.818C7.072,10.563 7.072,13.436 8.818,15.181C9.11,15.474 9.586,15.474 9.878,15.181C10.171,14.889 10.171,14.413 9.878,14.121ZM14.122,9.878C15.285,11.042 15.285,12.957 14.122,14.121C13.829,14.413 13.829,14.889 14.122,15.181C14.414,15.474 14.89,15.474 15.182,15.181C16.928,13.436 16.928,10.563 15.182,8.818C14.89,8.525 14.414,8.525 14.122,8.818C13.829,9.11 13.829,9.586 14.122,9.878ZM13.125,12C13.125,11.383 12.617,10.875 12,10.875C11.383,10.875 10.875,11.383 10.875,12C10.875,12.617 11.383,13.125 12,13.125C12.617,13.125 13.125,12.617 13.125,12ZM11.625,12C11.625,11.794 11.794,11.625 12,11.625C12.206,11.625 12.375,11.794 12.375,12C12.375,12.206 12.206,12.375 12,12.375C11.794,12.375 11.625,12.206 11.625,12Z"/>
</svg>
