<?xml version="1.0" encoding="UTF-8" standalone="no"?>
<!DOCTYPE svg PUBLIC "-//W3C//DTD SVG 1.1//EN" "http://www.w3.org/Graphics/SVG/1.1/DTD/svg11.dtd">
<svg width="100%" height="100%" viewBox="0 0 24 24" version="1.1" xmlns="http://www.w3.org/2000/svg" xmlns:xlink="http://www.w3.org/1999/xlink" xml:space="preserve" xmlns:serif="http://www.serif.com/" style="fill-rule:evenodd;clip-rule:evenodd;stroke-linejoin:round;stroke-miterlimit:2;">
    <path d="M2.47,3.53L20.47,21.53C20.762,21.823 21.238,21.823 21.53,21.53C21.823,21.238 21.823,20.762 21.53,20.47L19.936,18.875C23.518,14.75 23.347,8.497 19.424,4.576C19.132,4.283 18.656,4.283 18.364,4.576C18.071,4.868 18.071,5.344 18.364,5.636C21.7,8.972 21.87,14.275 18.872,17.811L17.807,16.746C18.897,15.413 19.5,13.737 19.5,12C19.5,10.012 18.709,8.103 17.303,6.697C17.011,6.404 16.535,6.404 16.243,6.697C15.95,6.989 15.95,7.465 16.243,7.757C17.367,8.882 18,10.409 18,12C18,13.339 17.552,14.632 16.74,15.679L15.668,14.607C16.206,13.851 16.501,12.94 16.501,12C16.501,10.807 16.026,9.661 15.182,8.818C14.89,8.525 14.414,8.525 14.122,8.818C13.829,9.11 13.829,9.586 14.122,9.878C14.684,10.441 15.001,11.205 15.001,12C15.001,12.54 14.855,13.066 14.585,13.524L13.123,12.062C13.124,12.042 13.125,12.021 13.125,12C13.125,11.383 12.617,10.875 12,10.875C11.979,10.875 11.958,10.876 11.938,10.877L3.53,2.47C3.238,2.177 2.762,2.177 2.47,2.47C2.177,2.762 2.177,3.238 2.47,3.53ZM5.636,18.364C2.804,15.533 2.254,11.284 3.984,7.902C4.172,7.533 4.026,7.081 3.658,6.892C3.289,6.704 2.837,6.85 2.648,7.218C0.63,11.164 1.272,16.121 4.576,19.424C4.869,19.717 5.344,19.717 5.636,19.424C5.929,19.131 5.929,18.656 5.636,18.364ZM7.757,16.243C6.147,14.633 5.586,12.241 6.313,10.083C6.445,9.691 6.234,9.265 5.841,9.133C5.449,9.001 5.023,9.212 4.891,9.605C3.983,12.301 4.684,15.292 6.697,17.303C6.99,17.596 7.465,17.596 7.757,17.303C8.05,17.01 8.05,16.535 7.757,16.243ZM9.878,14.121C9.419,13.663 9.121,13.068 9.031,12.425C8.973,12.015 8.593,11.73 8.183,11.787C7.773,11.845 7.488,12.225 7.545,12.635C7.681,13.6 8.128,14.495 8.818,15.183C9.111,15.475 9.587,15.475 9.879,15.182C10.171,14.889 10.171,14.413 9.878,14.121ZM11.351,12.379C11.417,12.487 11.509,12.564 11.603,12.618L11.6,12.612C11.512,12.559 11.427,12.486 11.363,12.386L11.351,12.379ZM11.541,12.459C11.555,12.512 11.574,12.563 11.6,12.612C11.574,12.563 11.555,12.512 11.541,12.459Z"/>
</svg>
