<?xml version="1.0" encoding="UTF-8" standalone="no"?>
<!DOCTYPE svg PUBLIC "-//W3C//DTD SVG 1.1//EN" "http://www.w3.org/Graphics/SVG/1.1/DTD/svg11.dtd">
<svg width="100%" height="100%" viewBox="0 0 24 24" version="1.1" xmlns="http://www.w3.org/2000/svg" xmlns:xlink="http://www.w3.org/1999/xlink" xml:space="preserve" xmlns:serif="http://www.serif.com/" style="fill-rule:evenodd;clip-rule:evenodd;stroke-linejoin:round;stroke-miterlimit:2;">
    <path d="M17.606,20.804C17.755,20.357 18.107,20.005 18.554,19.856C18.554,19.856 19.737,19.462 19.737,19.462C20.043,19.36 20.25,19.073 20.25,18.75C20.25,18.427 20.043,18.14 19.737,18.038L18.554,17.644C18.107,17.495 17.755,17.143 17.606,16.696C17.606,16.696 17.212,15.513 17.212,15.513C17.11,15.207 16.823,15 16.5,15C16.177,15 15.89,15.207 15.788,15.513L15.394,16.696C15.245,17.143 14.893,17.495 14.446,17.644C14.446,17.644 13.263,18.038 13.263,18.038C12.957,18.14 12.75,18.427 12.75,18.75C12.75,19.073 12.957,19.36 13.263,19.462L14.446,19.856C14.893,20.005 15.245,20.357 15.394,20.804C15.394,20.804 15.788,21.987 15.788,21.987C15.89,22.293 16.177,22.5 16.5,22.5C16.823,22.5 17.11,22.293 17.212,21.987L17.606,20.804ZM16.5,17.835C16.265,18.203 15.953,18.515 15.585,18.75C15.953,18.985 16.265,19.297 16.5,19.665C16.735,19.297 17.047,18.985 17.415,18.75C17.047,18.515 16.735,18.203 16.5,17.835ZM10.526,16.14C10.529,16.129 10.532,16.119 10.535,16.109C10.891,14.865 11.866,13.89 13.11,13.534C13.11,13.534 15.956,12.721 15.956,12.721C16.278,12.629 16.5,12.335 16.5,12C16.5,11.665 16.278,11.371 15.956,11.279L13.109,10.465C11.865,10.109 10.89,9.134 10.534,7.89C10.534,7.89 9.721,5.044 9.721,5.044C9.629,4.722 9.335,4.5 9,4.5C8.665,4.5 8.371,4.722 8.279,5.044L7.465,7.891C7.109,9.135 6.134,10.11 4.89,10.466C4.89,10.466 2.044,11.279 2.044,11.279C1.722,11.371 1.5,11.665 1.5,12C1.5,12.335 1.722,12.629 2.044,12.721L4.891,13.535C6.135,13.891 7.11,14.866 7.466,16.11C7.466,16.11 8.279,18.956 8.279,18.956C8.371,19.278 8.665,19.5 9,19.5C9.335,19.5 9.629,19.278 9.721,18.956L10.526,16.14ZM9.093,15.697C9.028,15.923 9.027,15.924 9.092,15.698L9,16.02L8.908,15.698C8.41,13.956 7.045,12.591 5.303,12.093C5.303,12.093 4.979,12 4.979,12L5.302,11.908C7.044,11.41 8.409,10.045 8.907,8.303C8.907,8.303 9,7.979 9,7.979L9.092,8.302C9.59,10.044 10.955,11.409 12.697,11.907C12.697,11.907 13.021,12 13.021,12L12.698,12.092C10.956,12.59 9.591,13.955 9.093,15.697ZM18.728,9.932L18.987,8.897C19.221,7.958 19.958,7.221 20.897,6.987L21.932,6.728C22.266,6.644 22.5,6.344 22.5,6C22.5,5.656 22.266,5.356 21.932,5.272L20.897,5.013C19.958,4.779 19.221,4.042 18.987,3.103L18.728,2.068C18.644,1.734 18.344,1.5 18,1.5C17.656,1.5 17.356,1.734 17.272,2.068L17.013,3.103C16.779,4.042 16.043,4.778 15.104,5.013C15.104,5.013 14.068,5.272 14.068,5.272C13.734,5.356 13.5,5.656 13.5,6C13.5,6.344 13.734,6.644 14.068,6.728L15.104,6.987C16.043,7.222 16.779,7.958 17.013,8.897L17.272,9.932C17.356,10.266 17.656,10.5 18,10.5C18.344,10.5 18.644,10.266 18.728,9.932ZM18,4.594C18.347,5.17 18.83,5.653 19.406,6C18.83,6.347 18.347,6.83 18,7.406C17.653,6.83 17.17,6.347 16.595,6C17.17,5.653 17.653,5.17 18,4.594Z"/>
</svg>
