<?xml version="1.0" encoding="UTF-8" standalone="no"?>
<!DOCTYPE svg PUBLIC "-//W3C//DTD SVG 1.1//EN" "http://www.w3.org/Graphics/SVG/1.1/DTD/svg11.dtd">
<svg width="100%" height="100%" viewBox="0 0 24 24" version="1.1" xmlns="http://www.w3.org/2000/svg" xmlns:xlink="http://www.w3.org/1999/xlink" xml:space="preserve" xmlns:serif="http://www.serif.com/" style="fill-rule:evenodd;clip-rule:evenodd;stroke-linejoin:round;stroke-miterlimit:2;">
    <path d="M6.439,7.5L4.51,7.5C3.292,7.5 2.173,8.232 1.849,9.405C1.849,9.406 1.849,9.406 1.849,9.406C1.622,10.231 1.5,11.101 1.5,12C1.499,12.876 1.617,13.749 1.849,14.595C1.849,14.595 1.849,14.595 1.849,14.596C2.173,15.769 3.292,16.5 4.51,16.5L6.439,16.5L10.94,21.001C11.221,21.281 11.603,21.439 12,21.439C12.822,21.439 13.499,20.763 13.5,19.941L13.5,4.061C13.5,3.238 12.823,2.561 12,2.561C11.603,2.561 11.221,2.719 10.94,2.999L6.439,7.5ZM12,4.061L12,19.939L7.28,15.22C7.14,15.079 6.949,15 6.75,15L4.51,15C3.968,15 3.439,14.719 3.295,14.197C3.099,13.481 2.999,12.743 3,12.001C3,12 3,12 3,12C3,11.239 3.103,10.503 3.295,9.804C3.439,9.282 3.968,9 4.51,9L6.75,9C6.949,9 7.14,8.921 7.28,8.78L12,4.061ZM19.5,10.939L17.78,9.22C17.488,8.927 17.012,8.927 16.72,9.22C16.427,9.512 16.427,9.988 16.72,10.28L18.439,12L16.72,13.72C16.427,14.012 16.427,14.488 16.72,14.78C17.012,15.073 17.488,15.073 17.78,14.78L19.5,13.061L21.22,14.78C21.512,15.073 21.988,15.073 22.28,14.78C22.573,14.488 22.573,14.012 22.28,13.72L20.561,12L22.28,10.28C22.573,9.988 22.573,9.512 22.28,9.22C21.988,8.927 21.512,8.927 21.22,9.22L19.5,10.939Z"/>
</svg>
