<?xml version="1.0" encoding="UTF-8" standalone="no"?>
<!DOCTYPE svg PUBLIC "-//W3C//DTD SVG 1.1//EN" "http://www.w3.org/Graphics/SVG/1.1/DTD/svg11.dtd">
<svg width="100%" height="100%" viewBox="0 0 24 24" version="1.1" xmlns="http://www.w3.org/2000/svg" xmlns:xlink="http://www.w3.org/1999/xlink" xml:space="preserve" xmlns:serif="http://www.serif.com/" style="fill-rule:evenodd;clip-rule:evenodd;stroke-linejoin:round;stroke-miterlimit:2;">
    <path d="M6.439,7.5L4.51,7.5C3.292,7.5 2.173,8.231 1.849,9.404C1.849,9.405 1.849,9.405 1.849,9.405C1.621,10.231 1.5,11.101 1.5,12C1.499,12.876 1.617,13.749 1.849,14.595C1.849,14.595 1.849,14.595 1.849,14.596C2.173,15.768 3.292,16.5 4.51,16.5L6.439,16.5L10.94,21.001C11.221,21.281 11.603,21.439 12,21.439C12.822,21.439 13.499,20.763 13.5,19.941L13.5,4.059C13.499,3.237 12.822,2.561 12,2.561C11.603,2.561 11.221,2.719 10.94,2.999L6.439,7.5ZM12,4.061L12,19.939L7.28,15.22C7.14,15.079 6.949,15 6.75,15L4.51,15C3.968,15 3.439,14.718 3.295,14.197C3.099,13.481 2.999,12.743 3,12.001C3,12 3,12 3,12C3,11.239 3.103,10.503 3.295,9.803C3.439,9.281 3.968,9 4.51,9L6.75,9C6.949,9 7.14,8.921 7.28,8.78L12,4.061ZM18.584,6.166C20.13,7.713 21,9.813 21,12C21,14.187 20.13,16.287 18.584,17.834C18.291,18.126 18.291,18.602 18.584,18.894C18.876,19.187 19.352,19.187 19.644,18.894C21.472,17.067 22.5,14.585 22.5,12C22.5,9.415 21.472,6.933 19.644,5.106C19.352,4.813 18.876,4.813 18.584,5.106C18.291,5.398 18.291,5.874 18.584,6.166ZM15.933,8.818C17.678,10.564 17.678,13.436 15.933,15.182C15.64,15.474 15.64,15.95 15.933,16.242C16.225,16.535 16.701,16.535 16.993,16.242C19.32,13.915 19.32,10.085 16.993,7.758C16.701,7.465 16.225,7.465 15.933,7.758C15.64,8.05 15.64,8.526 15.933,8.818Z"/>
</svg>
