<?xml version="1.0" encoding="UTF-8" standalone="no"?>
<!DOCTYPE svg PUBLIC "-//W3C//DTD SVG 1.1//EN" "http://www.w3.org/Graphics/SVG/1.1/DTD/svg11.dtd">
<svg width="100%" height="100%" viewBox="0 0 24 24" version="1.1" xmlns="http://www.w3.org/2000/svg" xmlns:xlink="http://www.w3.org/1999/xlink" xml:space="preserve" xmlns:serif="http://www.serif.com/" style="fill-rule:evenodd;clip-rule:evenodd;stroke-linejoin:round;stroke-miterlimit:2;">
    <path d="M3,15.75L3,18C3,19.646 4.354,21 6,21C6,21 8.25,21 8.25,21C9.896,21 11.25,19.646 11.25,18L11.25,15.75C11.25,14.104 9.896,12.75 8.25,12.75C8.25,12.75 6,12.75 6,12.75C4.354,12.75 3,14.104 3,15.75ZM12.75,15.75L12.75,18C12.75,19.646 14.104,21 15.75,21C15.75,21 18,21 18,21C19.646,21 21,19.646 21,18C21,18 21,15.75 21,15.75C21,14.104 19.646,12.75 18,12.75C18,12.75 15.75,12.75 15.75,12.75C14.104,12.75 12.75,14.104 12.75,15.75ZM4.5,15.75C4.5,14.927 5.177,14.25 6,14.25L8.25,14.25C9.073,14.25 9.75,14.927 9.75,15.75C9.75,15.75 9.75,18 9.75,18C9.75,18.823 9.073,19.5 8.25,19.5L6,19.5C5.177,19.5 4.5,18.823 4.5,18C4.5,18 4.5,15.75 4.5,15.75ZM14.25,15.75C14.25,14.927 14.927,14.25 15.75,14.25L18,14.25C18.823,14.25 19.5,14.927 19.5,15.75L19.5,18C19.5,18.823 18.823,19.5 18,19.5L15.75,19.5C14.927,19.5 14.25,18.823 14.25,18L14.25,15.75ZM3,6L3,8.25C3,9.896 4.354,11.25 6,11.25L8.25,11.25C9.896,11.25 11.25,9.896 11.25,8.25L11.25,6C11.25,4.354 9.896,3 8.25,3L6,3C4.354,3 3,4.354 3,6ZM12.75,6L12.75,8.25C12.75,9.896 14.104,11.25 15.75,11.25L18,11.25C19.646,11.25 21,9.896 21,8.25C21,8.25 21,6 21,6C21,4.354 19.646,3 18,3L15.75,3C14.104,3 12.75,4.354 12.75,6ZM4.5,6C4.5,5.177 5.177,4.5 6,4.5C6,4.5 8.25,4.5 8.25,4.5C9.073,4.5 9.75,5.177 9.75,6C9.75,6 9.75,8.25 9.75,8.25C9.75,9.073 9.073,9.75 8.25,9.75C8.25,9.75 6,9.75 6,9.75C5.177,9.75 4.5,9.073 4.5,8.25C4.5,8.25 4.5,6 4.5,6ZM14.25,6C14.25,5.177 14.927,4.5 15.75,4.5C15.75,4.5 18,4.5 18,4.5C18.823,4.5 19.5,5.177 19.5,6L19.5,8.25C19.5,9.073 18.823,9.75 18,9.75C18,9.75 15.75,9.75 15.75,9.75C14.927,9.75 14.25,9.073 14.25,8.25L14.25,6Z"/>
</svg>
