<?xml version="1.0" encoding="UTF-8" standalone="no"?>
<!DOCTYPE svg PUBLIC "-//W3C//DTD SVG 1.1//EN" "http://www.w3.org/Graphics/SVG/1.1/DTD/svg11.dtd">
<svg width="100%" height="100%" viewBox="0 0 24 24" version="1.1" xmlns="http://www.w3.org/2000/svg" xmlns:xlink="http://www.w3.org/1999/xlink" xml:space="preserve" xmlns:serif="http://www.serif.com/" style="fill-rule:evenodd;clip-rule:evenodd;stroke-linejoin:round;stroke-miterlimit:2;">
    <path d="M16.125,16.125L13.5,16.125C13.086,16.125 12.75,16.461 12.75,16.875C12.75,17.289 13.086,17.625 13.5,17.625L16.125,17.625L16.125,20.25C16.125,20.664 16.461,21 16.875,21C17.289,21 17.625,20.664 17.625,20.25L17.625,17.625L20.25,17.625C20.664,17.625 21,17.289 21,16.875C21,16.461 20.664,16.125 20.25,16.125L17.625,16.125L17.625,13.5C17.625,13.086 17.289,12.75 16.875,12.75C16.461,12.75 16.125,13.086 16.125,13.5L16.125,16.125ZM6,21L8.25,21C9.896,21 11.25,19.646 11.25,18L11.25,15.75C11.25,14.104 9.896,12.75 8.25,12.75C8.25,12.75 6,12.75 6,12.75C4.354,12.75 3,14.104 3,15.75L3,18C3,19.646 4.354,21 6,21ZM6,19.5C5.177,19.5 4.5,18.823 4.5,18C4.5,18 4.5,15.75 4.5,15.75C4.5,14.927 5.177,14.25 6,14.25L8.25,14.25C9.073,14.25 9.75,14.927 9.75,15.75C9.75,15.75 9.75,18 9.75,18C9.75,18.823 9.073,19.5 8.25,19.5L6,19.5ZM6,11.25L8.25,11.25C9.896,11.25 11.25,9.896 11.25,8.25L11.25,6C11.25,4.354 9.896,3 8.25,3L6,3C4.354,3 3,4.354 3,6L3,8.25C3,9.896 4.354,11.25 6,11.25ZM15.75,11.25L18,11.25C19.646,11.25 21,9.896 21,8.25C21,8.25 21,6 21,6C21,4.354 19.646,3 18,3L15.75,3C14.104,3 12.75,4.354 12.75,6C12.75,6 12.75,8.25 12.75,8.25C12.75,9.896 14.104,11.25 15.75,11.25ZM6,9.75C5.177,9.75 4.5,9.073 4.5,8.25C4.5,8.25 4.5,6 4.5,6C4.5,5.177 5.177,4.5 6,4.5C6,4.5 8.25,4.5 8.25,4.5C9.073,4.5 9.75,5.177 9.75,6C9.75,6 9.75,8.25 9.75,8.25C9.75,9.073 9.073,9.75 8.25,9.75L6,9.75ZM15.75,9.75C14.927,9.75 14.25,9.073 14.25,8.25L14.25,6C14.25,5.177 14.927,4.5 15.75,4.5C15.75,4.5 18,4.5 18,4.5C18.823,4.5 19.5,5.177 19.5,6L19.5,8.25C19.5,9.073 18.823,9.75 18,9.75L15.75,9.75Z"/>
</svg>
