<?xml version="1.0" encoding="UTF-8" standalone="no"?>
<!DOCTYPE svg PUBLIC "-//W3C//DTD SVG 1.1//EN" "http://www.w3.org/Graphics/SVG/1.1/DTD/svg11.dtd">
<svg width="100%" height="100%" viewBox="0 0 24 24" version="1.1" xmlns="http://www.w3.org/2000/svg" xmlns:xlink="http://www.w3.org/1999/xlink" xml:space="preserve" xmlns:serif="http://www.serif.com/" style="fill-rule:evenodd;clip-rule:evenodd;stroke-linejoin:round;stroke-miterlimit:2;">
    <path d="M7.5,17.25L7.5,18C7.5,19.646 8.854,21 10.5,21C10.5,21 18,21 18,21C19.646,21 21,19.646 21,18C21,18 21,10.5 21,10.5C21,8.854 19.646,7.5 18,7.5L17.25,7.5L17.25,6C17.25,4.354 15.896,3 14.25,3L6,3C4.354,3 3,4.354 3,6L3,14.25C3,15.896 4.354,17.25 6,17.25L7.5,17.25ZM18,9L10.5,9C9.677,9 9,9.677 9,10.5L9,18C9,18.823 9.677,19.5 10.5,19.5L18,19.5C18.823,19.5 19.5,18.823 19.5,18L19.5,10.5C19.5,9.677 18.823,9 18,9ZM15.75,7.5L15.75,6C15.75,5.177 15.073,4.5 14.25,4.5C14.25,4.5 6,4.5 6,4.5C5.177,4.5 4.5,5.177 4.5,6C4.5,6 4.5,14.25 4.5,14.25C4.5,15.073 5.177,15.75 6,15.75L7.5,15.75L7.5,10.5C7.5,8.854 8.854,7.5 10.5,7.5L15.75,7.5Z"/>
</svg>
