<?xml version="1.0" encoding="UTF-8" standalone="no"?>
<!DOCTYPE svg PUBLIC "-//W3C//DTD SVG 1.1//EN" "http://www.w3.org/Graphics/SVG/1.1/DTD/svg11.dtd">
<svg width="100%" height="100%" viewBox="0 0 24 24" version="1.1" xmlns="http://www.w3.org/2000/svg" xmlns:xlink="http://www.w3.org/1999/xlink" xml:space="preserve" xmlns:serif="http://www.serif.com/" style="fill-rule:evenodd;clip-rule:evenodd;stroke-linejoin:round;stroke-miterlimit:2;">
    <path d="M10.786,3.215L8.706,8.217L3.301,8.65C2.623,8.705 2.095,9.278 2.095,9.958C2.095,10.34 2.262,10.704 2.552,10.954L6.671,14.483L5.412,19.756C5.389,19.856 5.377,19.958 5.377,20.061C5.377,20.78 5.969,21.373 6.689,21.373C6.93,21.373 7.167,21.306 7.374,21.18L12,18.354L16.627,21.179C16.833,21.305 17.07,21.372 17.311,21.372C18.031,21.372 18.623,20.779 18.623,20.06C18.623,19.957 18.611,19.855 18.587,19.755L17.329,14.483L21.447,10.955C22.333,10.197 21.862,8.743 20.698,8.649L15.294,8.217L13.213,3.211C13.012,2.723 12.531,2.4 12,2.4C11.469,2.4 10.988,2.723 10.786,3.215L10.786,3.215ZM12,4.202L13.953,8.898C14.141,9.352 14.57,9.663 15.06,9.703L20.129,10.109L16.267,13.417C15.895,13.736 15.73,14.238 15.843,14.716L17.024,19.664L12.683,17.014C12.264,16.758 11.736,16.758 11.317,17.014L6.976,19.665L8.157,14.717C8.27,14.239 8.106,13.736 7.732,13.417L3.871,10.109L8.94,9.703C9.43,9.663 9.859,9.352 10.047,8.898L12,4.202Z"/>
</svg>
