<?xml version="1.0" encoding="UTF-8" standalone="no"?>
<!DOCTYPE svg PUBLIC "-//W3C//DTD SVG 1.1//EN" "http://www.w3.org/Graphics/SVG/1.1/DTD/svg11.dtd">
<svg width="100%" height="100%" viewBox="0 0 24 24" version="1.1" xmlns="http://www.w3.org/2000/svg" xmlns:xlink="http://www.w3.org/1999/xlink" xml:space="preserve" xmlns:serif="http://www.serif.com/" style="fill-rule:evenodd;clip-rule:evenodd;stroke-linejoin:round;stroke-miterlimit:2;">
    <path d="M4.5,7.5L4.5,16.5C4.5,18.146 5.854,19.5 7.5,19.5L16.5,19.5C18.146,19.5 19.5,18.146 19.5,16.5L19.5,7.5C19.5,5.854 18.146,4.5 16.5,4.5C16.5,4.5 7.5,4.5 7.5,4.5C5.854,4.5 4.5,5.854 4.5,7.5ZM6,7.5C6,6.677 6.677,6 7.5,6L16.5,6C17.323,6 18,6.677 18,7.5C18,7.5 18,16.5 18,16.5C18,17.323 17.323,18 16.5,18C16.5,18 7.5,18 7.5,18C6.677,18 6,17.323 6,16.5L6,7.5Z"/>
</svg>
