<?xml version="1.0" encoding="UTF-8" standalone="no"?>
<!DOCTYPE svg PUBLIC "-//W3C//DTD SVG 1.1//EN" "http://www.w3.org/Graphics/SVG/1.1/DTD/svg11.dtd">
<svg width="100%" height="100%" viewBox="0 0 24 24" version="1.1" xmlns="http://www.w3.org/2000/svg" xmlns:xlink="http://www.w3.org/1999/xlink" xml:space="preserve" xmlns:serif="http://www.serif.com/" style="fill-rule:evenodd;clip-rule:evenodd;stroke-linejoin:round;stroke-miterlimit:2;">
    <path d="M21.75,12C21.75,6.651 17.349,2.25 12,2.25C6.651,2.25 2.25,6.651 2.25,12C2.25,17.349 6.651,21.75 12,21.75C17.349,21.75 21.75,17.349 21.75,12ZM20.25,12C20.25,16.526 16.526,20.25 12,20.25C7.474,20.25 3.75,16.526 3.75,12C3.75,7.474 7.474,3.75 12,3.75C16.526,3.75 20.25,7.474 20.25,12Z"/>
    <path d="M8.25,9.563L8.25,9.564L8.25,9.564L8.25,14.438C8.25,15.158 8.842,15.75 9.562,15.75L14.437,15.75C15.162,15.75 15.75,15.162 15.75,14.437C15.75,14.437 15.75,9.563 15.75,9.563C15.75,8.838 15.162,8.25 14.437,8.25C14.437,8.25 9.563,8.25 9.563,8.25C8.838,8.25 8.25,8.838 8.25,9.563ZM9.75,9.75L9.75,14.25L14.25,14.25L14.25,9.75L9.75,9.75ZM9,10.314L8.999,10.313L8.999,10.313L9,10.314ZM8.999,10.313C8.97,10.277 8.25,9.39 8.25,9.563L8.25,9.564L8.999,10.313L8.999,10.313ZM8.252,9.61C8.26,9.769 8.311,9.892 8.382,9.988C8.307,9.879 8.26,9.75 8.252,9.61ZM9.75,9.563L9.75,9.563C9.75,9.563 9.75,9.563 9.75,9.563Z"/>
</svg>
