<?xml version="1.0" encoding="UTF-8" standalone="no"?>
<!DOCTYPE svg PUBLIC "-//W3C//DTD SVG 1.1//EN" "http://www.w3.org/Graphics/SVG/1.1/DTD/svg11.dtd">
<svg width="100%" height="100%" viewBox="0 0 24 24" version="1.1" xmlns="http://www.w3.org/2000/svg" xmlns:xlink="http://www.w3.org/1999/xlink" xml:space="preserve" xmlns:serif="http://www.serif.com/" style="fill-rule:evenodd;clip-rule:evenodd;stroke-linejoin:round;stroke-miterlimit:2;">
    <path d="M11.25,18.75L11.25,21C11.25,21.414 11.586,21.75 12,21.75C12.414,21.75 12.75,21.414 12.75,21L12.75,18.75C12.75,18.336 12.414,18 12,18C11.586,18 11.25,18.336 11.25,18.75ZM18.894,17.834L17.303,16.243C17.011,15.95 16.535,15.95 16.243,16.243C15.95,16.535 15.95,17.011 16.243,17.303L17.834,18.894C18.126,19.187 18.602,19.187 18.894,18.894C19.187,18.602 19.187,18.126 18.894,17.834ZM6.697,16.243L5.106,17.834C4.813,18.126 4.813,18.602 5.106,18.894C5.398,19.187 5.874,19.187 6.166,18.894L7.757,17.303C8.05,17.011 8.05,16.535 7.757,16.243C7.465,15.95 6.989,15.95 6.697,16.243ZM16.5,12C16.5,9.531 14.469,7.5 12,7.5C9.531,7.5 7.5,9.531 7.5,12C7.5,14.469 9.531,16.5 12,16.5C14.469,16.5 16.5,14.469 16.5,12ZM15,12C15,13.646 13.646,15 12,15C10.354,15 9,13.646 9,12C9,10.354 10.354,9 12,9C13.646,9 15,10.354 15,12ZM21,11.25L18.75,11.25C18.336,11.25 18,11.586 18,12C18,12.414 18.336,12.75 18.75,12.75L21,12.75C21.414,12.75 21.75,12.414 21.75,12C21.75,11.586 21.414,11.25 21,11.25ZM5.25,11.25L3,11.25C2.586,11.25 2.25,11.586 2.25,12C2.25,12.414 2.586,12.75 3,12.75L5.25,12.75C5.664,12.75 6,12.414 6,12C6,11.586 5.664,11.25 5.25,11.25ZM7.757,6.697L6.166,5.106C5.874,4.813 5.398,4.813 5.106,5.106C4.813,5.398 4.813,5.874 5.106,6.166L6.697,7.757C6.989,8.05 7.465,8.05 7.757,7.757C8.05,7.465 8.05,6.989 7.757,6.697ZM17.834,5.106L16.243,6.697C15.95,6.989 15.95,7.465 16.243,7.757C16.535,8.05 17.011,8.05 17.303,7.757L18.894,6.166C19.187,5.874 19.187,5.398 18.894,5.106C18.602,4.813 18.126,4.813 17.834,5.106ZM11.25,3L11.25,5.25C11.25,5.664 11.586,6 12,6C12.414,6 12.75,5.664 12.75,5.25L12.75,3C12.75,2.586 12.414,2.25 12,2.25C11.586,2.25 11.25,2.586 11.25,3Z"/>
</svg>
