<?xml version="1.0" encoding="UTF-8" standalone="no"?>
<!DOCTYPE svg PUBLIC "-//W3C//DTD SVG 1.1//EN" "http://www.w3.org/Graphics/SVG/1.1/DTD/svg11.dtd">
<svg width="100%" height="100%" viewBox="0 0 24 24" version="1.1" xmlns="http://www.w3.org/2000/svg" xmlns:xlink="http://www.w3.org/1999/xlink" xml:space="preserve" xmlns:serif="http://www.serif.com/" style="fill-rule:evenodd;clip-rule:evenodd;stroke-linejoin:round;stroke-miterlimit:2;">
    <path d="M3.484,20.333C3.509,20.368 3.536,20.401 3.568,20.432C4.411,21.276 5.557,21.751 6.75,21.751L6.806,21.75L19.875,21.75C20.91,21.75 21.75,20.91 21.75,19.875L21.75,14.625C21.75,13.59 20.91,12.75 19.875,12.75L17.613,12.75L19.212,11.15C19.945,10.421 19.946,9.234 19.212,8.5L15.5,4.786C14.766,4.054 13.579,4.055 12.849,4.787L11.25,6.386L11.25,4.125C11.25,3.09 10.41,2.25 9.375,2.25L4.125,2.25C3.09,2.25 2.25,3.09 2.25,4.125L2.25,17.25C2.25,18.438 2.721,19.525 3.484,20.333ZM10.115,20.25L19.875,20.25C20.082,20.25 20.25,20.082 20.25,19.875C20.25,19.875 20.25,14.625 20.25,14.625C20.25,14.418 20.082,14.25 19.875,14.25L16.114,14.25L10.115,20.25ZM9.75,4.125C9.75,3.918 9.582,3.75 9.375,3.75C9.375,3.75 4.125,3.75 4.125,3.75C3.918,3.75 3.75,3.918 3.75,4.125C3.75,4.125 3.75,17.25 3.75,17.25C3.75,18.896 5.104,20.25 6.75,20.25L6.827,20.249C8.438,20.208 9.75,18.87 9.75,17.25L9.75,4.125ZM15.273,12.97L18.153,10.088C18.299,9.943 18.298,9.706 18.152,9.56L14.44,5.848C14.294,5.702 14.057,5.701 13.911,5.847L11.25,8.508L11.25,16.993L15.273,12.97Z"/>
    <g transform="matrix(1,0,0,1,0.0375447,0.00986913)">
        <circle cx="6.709" cy="17.246" r="0.752"/>
    </g>
</svg>
