<?xml version="1.0" encoding="UTF-8" standalone="no"?>
<!DOCTYPE svg PUBLIC "-//W3C//DTD SVG 1.1//EN" "http://www.w3.org/Graphics/SVG/1.1/DTD/svg11.dtd">
<svg width="100%" height="100%" viewBox="0 0 24 24" version="1.1" xmlns="http://www.w3.org/2000/svg" xmlns:xlink="http://www.w3.org/1999/xlink" xml:space="preserve" xmlns:serif="http://www.serif.com/" style="fill-rule:evenodd;clip-rule:evenodd;stroke-linejoin:round;stroke-miterlimit:2;">
    <path d="M3.375,20.25L20.625,20.25C21.66,20.25 22.5,19.41 22.5,18.375L22.5,5.625C22.5,4.59 21.66,3.75 20.625,3.75C20.625,3.75 3.375,3.75 3.375,3.75C2.34,3.75 1.5,4.59 1.5,5.625C1.5,5.625 1.5,18.375 1.5,18.375C1.5,19.404 2.346,20.25 3.375,20.25ZM10.875,16.5L3.375,16.5C3.168,16.5 3,16.668 3,16.875L3,18.375C3,18.581 3.169,18.75 3.375,18.75L10.875,18.75C11.082,18.75 11.25,18.582 11.25,18.375L11.25,16.875C11.25,16.668 11.082,16.5 10.875,16.5ZM20.625,16.5L13.125,16.5C12.931,16.5 12.771,16.648 12.752,16.837L12.75,16.875L12.75,18.375C12.75,18.581 12.919,18.75 13.125,18.75L20.625,18.75C20.832,18.75 21,18.582 21,18.375L21,16.875C21,16.668 20.832,16.5 20.625,16.5ZM13.125,12.75C12.931,12.75 12.771,12.898 12.752,13.087L12.75,13.125L12.75,14.625C12.75,14.832 12.918,15 13.125,15L20.625,15C20.832,15 21,14.832 21,14.625C21,14.625 21,13.125 21,13.125C21,12.918 20.832,12.75 20.625,12.75L13.125,12.75ZM3.375,12.75C3.168,12.75 3,12.918 3,13.125L3,14.625C3,14.832 3.168,15 3.375,15L10.875,15C11.082,15 11.25,14.832 11.25,14.625L11.25,13.125C11.25,12.918 11.082,12.75 10.875,12.75L3.375,12.75ZM3.375,9C3.168,9 3,9.168 3,9.375L3,10.875C3,11.082 3.168,11.25 3.375,11.25L10.875,11.25L10.913,11.248C11.102,11.229 11.25,11.069 11.25,10.875L11.25,9.375C11.25,9.168 11.082,9 10.875,9L3.375,9ZM13.125,9C12.918,9 12.75,9.168 12.75,9.375L12.75,10.875C12.75,11.082 12.918,11.25 13.125,11.25L20.625,11.25L20.663,11.248C20.852,11.229 21,11.069 21,10.875C21,10.875 21,9.375 21,9.375C21,9.168 20.832,9 20.625,9L13.125,9ZM20.625,7.5C20.832,7.5 21,7.332 21,7.125L21,5.625C21,5.418 20.832,5.25 20.625,5.25L3.375,5.25C3.181,5.25 3.021,5.398 3.002,5.587L3,5.625L3,7.125C3,7.332 3.168,7.5 3.375,7.5L20.625,7.5Z"/>
</svg>
