<?xml version="1.0" encoding="UTF-8" standalone="no"?>
<!DOCTYPE svg PUBLIC "-//W3C//DTD SVG 1.1//EN" "http://www.w3.org/Graphics/SVG/1.1/DTD/svg11.dtd">
<svg width="100%" height="100%" viewBox="0 0 24 24" version="1.1" xmlns="http://www.w3.org/2000/svg" xmlns:xlink="http://www.w3.org/1999/xlink" xml:space="preserve" xmlns:serif="http://www.serif.com/" style="fill-rule:evenodd;clip-rule:evenodd;stroke-linejoin:round;stroke-miterlimit:2;">
    <path d="M9.568,2.25L5.25,2.25C3.604,2.25 2.25,3.604 2.25,5.25L2.25,9.568C2.25,10.364 2.566,11.128 3.129,11.69C3.129,11.689 12.71,21.27 12.71,21.27C13.66,22.221 15.133,22.434 16.258,21.697C18.426,20.278 20.278,18.426 21.697,16.258C22.434,15.133 22.221,13.66 21.27,12.71C21.27,12.71 11.69,3.13 11.69,3.13C11.128,2.567 10.364,2.25 9.568,2.25L9.568,2.25ZM5.25,3.75L9.568,3.75C9.966,3.75 10.348,3.908 10.629,4.19L20.21,13.77C20.657,14.218 20.79,14.907 20.443,15.436C20.443,15.436 20.443,15.436 20.443,15.436C19.136,17.431 17.431,19.136 15.436,20.443C15.436,20.443 15.436,20.443 15.436,20.443C14.907,20.79 14.218,20.657 13.77,20.21L4.189,10.628C3.908,10.348 3.75,9.966 3.75,9.568C3.75,9.568 3.75,5.25 3.75,5.25C3.75,4.427 4.427,3.75 5.25,3.75Z"/>
    <circle cx="6.004" cy="6.003" r="0.765"/>
</svg>
