<?xml version="1.0" encoding="UTF-8" standalone="no"?>
<!DOCTYPE svg PUBLIC "-//W3C//DTD SVG 1.1//EN" "http://www.w3.org/Graphics/SVG/1.1/DTD/svg11.dtd">
<svg width="100%" height="100%" viewBox="0 0 24 24" version="1.1" xmlns="http://www.w3.org/2000/svg" xmlns:xlink="http://www.w3.org/1999/xlink" xml:space="preserve" xmlns:serif="http://www.serif.com/" style="fill-rule:evenodd;clip-rule:evenodd;stroke-linejoin:round;stroke-miterlimit:2;">
    <path d="M3.375,4.5C2.34,4.5 1.5,5.34 1.5,6.375C1.5,6.375 1.5,9.401 1.5,9.401C1.5,9.669 1.643,9.917 1.876,10.051C2.572,10.452 3.003,11.197 3.003,12C3.003,12.803 2.572,13.548 1.876,13.949C1.643,14.083 1.5,14.331 1.5,14.599L1.5,17.625C1.5,18.66 2.34,19.5 3.375,19.5L20.625,19.5C21.66,19.5 22.5,18.66 22.5,17.625L22.5,14.599C22.5,14.331 22.357,14.083 22.124,13.949C21.428,13.548 20.997,12.803 20.997,12C20.997,11.197 21.428,10.452 22.124,10.051C22.357,9.917 22.5,9.669 22.5,9.401L22.5,6.375C22.5,5.34 21.66,4.5 20.625,4.5L3.375,4.5ZM17.25,6C17.25,6 17.25,6.75 17.25,6.75C17.25,7.164 16.914,7.5 16.5,7.5C16.086,7.5 15.75,7.164 15.75,6.75L15.75,6L3.375,6C3.168,6 3,6.168 3,6.375C3,6.375 3,8.999 3,8.998C3.938,9.701 4.503,10.812 4.503,12C4.503,13.188 3.938,14.299 3,15.001L3,17.625C3,17.832 3.168,18 3.375,18L15.75,18L15.75,17.25C15.75,16.836 16.086,16.5 16.5,16.5C16.914,16.5 17.25,16.836 17.25,17.25L17.25,18C17.25,18 20.625,18 20.625,18C20.832,18 21,17.832 21,17.625C21,17.625 21,15.001 21,15.002C20.062,14.299 19.497,13.188 19.497,12C19.497,10.812 20.062,9.701 21,8.999C21,8.999 21,6.375 21,6.375C21,6.168 20.832,6 20.625,6L17.25,6ZM7.5,15.75L10.5,15.75C10.914,15.75 11.25,15.414 11.25,15C11.25,14.586 10.914,14.25 10.5,14.25L7.5,14.25C7.086,14.25 6.75,14.586 6.75,15C6.75,15.414 7.086,15.75 7.5,15.75ZM15.75,13.5L15.75,14.25C15.75,14.664 16.086,15 16.5,15C16.914,15 17.25,14.664 17.25,14.25L17.25,13.5C17.25,13.086 16.914,12.75 16.5,12.75C16.086,12.75 15.75,13.086 15.75,13.5ZM7.5,13.5L12.75,13.5C13.164,13.5 13.5,13.164 13.5,12.75C13.5,12.336 13.164,12 12.75,12L7.5,12C7.086,12 6.75,12.336 6.75,12.75C6.75,13.164 7.086,13.5 7.5,13.5ZM15.75,9.75L15.75,10.5C15.75,10.914 16.086,11.25 16.5,11.25C16.914,11.25 17.25,10.914 17.25,10.5L17.25,9.75C17.25,9.336 16.914,9 16.5,9C16.086,9 15.75,9.336 15.75,9.75Z"/>
</svg>
