<?xml version="1.0" encoding="UTF-8" standalone="no"?>
<!DOCTYPE svg PUBLIC "-//W3C//DTD SVG 1.1//EN" "http://www.w3.org/Graphics/SVG/1.1/DTD/svg11.dtd">
<svg width="100%" height="100%" viewBox="0 0 24 24" version="1.1" xmlns="http://www.w3.org/2000/svg" xmlns:xlink="http://www.w3.org/1999/xlink" xml:space="preserve" xmlns:serif="http://www.serif.com/" style="fill-rule:evenodd;clip-rule:evenodd;stroke-linejoin:round;stroke-miterlimit:2;">
    <path d="M7.5,4.704C6.551,4.791 5.604,4.906 4.662,5.048L4.66,5.048C4.312,5.1 3.967,5.156 3.622,5.216C3.214,5.287 2.94,5.675 3.011,6.083C3.082,6.491 3.47,6.765 3.878,6.694L4.087,6.658L5.092,19.731C5.212,21.285 6.525,22.5 8.084,22.5C8.084,22.5 15.916,22.5 15.916,22.5C17.475,22.5 18.788,21.285 18.908,19.731L19.913,6.659L20.122,6.695C20.53,6.766 20.918,6.492 20.989,6.084C21.06,5.676 20.786,5.288 20.378,5.217C20.033,5.157 19.688,5.101 19.341,5.049L19.34,5.048C18.397,4.906 17.45,4.791 16.5,4.704L16.5,4.477C16.5,2.891 15.269,1.576 13.684,1.526C12.561,1.491 11.439,1.491 10.316,1.526C8.731,1.576 7.5,2.893 7.5,4.477L7.5,4.704ZM15.692,6.141C13.234,5.951 10.766,5.951 8.308,6.141C7.394,6.212 6.482,6.309 5.574,6.433L6.588,19.615C6.648,20.393 7.304,21 8.084,21L15.916,21C16.696,21 17.352,20.393 17.412,19.615L18.426,6.433C17.518,6.309 16.606,6.212 15.692,6.141ZM13.991,8.971L13.645,17.971C13.629,18.385 13.952,18.734 14.365,18.749C14.779,18.765 15.128,18.442 15.143,18.029L15.489,9.029C15.505,8.615 15.182,8.266 14.769,8.251C14.355,8.235 14.006,8.558 13.991,8.971ZM10.355,17.971L10.009,8.971C9.994,8.558 9.645,8.235 9.231,8.251C8.818,8.266 8.495,8.615 8.511,9.029L8.857,18.029C8.872,18.442 9.221,18.765 9.635,18.749C10.048,18.734 10.371,18.385 10.355,17.971ZM15,4.59L15,4.477C15,3.703 14.411,3.05 13.636,3.026C13.636,3.026 13.636,3.026 13.636,3.026C12.546,2.991 11.454,2.991 10.364,3.026C10.364,3.026 10.364,3.026 10.364,3.026C9.589,3.05 9,3.703 9,4.477L9,4.59C10.998,4.468 13.002,4.468 15,4.59Z"/>
</svg>
