<?xml version="1.0" encoding="UTF-8" standalone="no"?>
<!DOCTYPE svg PUBLIC "-//W3C//DTD SVG 1.1//EN" "http://www.w3.org/Graphics/SVG/1.1/DTD/svg11.dtd">
<svg width="100%" height="100%" viewBox="0 0 24 24" version="1.1" xmlns="http://www.w3.org/2000/svg" xmlns:xlink="http://www.w3.org/1999/xlink" xml:space="preserve" xmlns:serif="http://www.serif.com/" style="fill-rule:evenodd;clip-rule:evenodd;stroke-linejoin:round;stroke-miterlimit:2;">
    <path d="M8.87,19.5L15.88,19.5C16.192,20.37 17.028,21 18,21C18.972,21 19.808,20.37 20.12,19.5L20.625,19.5C21.68,19.5 22.53,18.632 22.464,17.579C22.254,14.139 21.095,10.824 19.116,8.002C19.115,8.001 19.114,7.999 19.113,7.997C18.613,7.296 17.817,6.863 16.956,6.824C16.945,6.823 16.933,6.823 16.922,6.823L15,6.823L15,6.615C15,5.662 14.288,4.86 13.34,4.763C9.955,4.412 6.544,4.412 3.16,4.763C3.158,4.763 3.157,4.763 3.156,4.763C2.215,4.865 1.495,5.672 1.5,6.619L1.5,14.25L1.5,17.625C1.5,18.654 2.346,19.5 3.375,19.5L4.63,19.5C4.942,20.37 5.778,21 6.75,21C7.722,21 8.558,20.37 8.87,19.5ZM7.499,18.712C7.479,18.318 7.149,18 6.75,18C6.351,18 6.021,18.318 6.001,18.712L6,18.75C6,19.161 6.339,19.5 6.75,19.5C7.161,19.5 7.5,19.161 7.5,18.75L7.499,18.712ZM18.75,18.75C18.75,18.339 18.411,18 18,18C17.589,18 17.25,18.339 17.25,18.75C17.25,19.161 17.589,19.5 18,19.5C18.411,19.5 18.75,19.161 18.75,18.75ZM15,8.323L15,18L15.88,18C16.192,17.13 17.028,16.5 18,16.5C18.972,16.5 19.808,17.13 20.12,18L20.625,18C20.812,18 20.978,17.86 20.966,17.673C20.966,17.673 20.966,17.672 20.966,17.672C20.774,14.509 19.709,11.461 17.89,8.867C17.66,8.545 17.297,8.345 16.903,8.323L15,8.323ZM8.87,18L13.5,18L13.5,15L3,15L3,17.625C3,17.831 3.169,18 3.375,18L4.63,18C4.942,17.13 5.778,16.5 6.75,16.5C7.722,16.5 8.558,17.13 8.87,18ZM13.5,13.5L13.5,6.615C13.5,6.432 13.368,6.274 13.186,6.255C13.186,6.255 13.186,6.255 13.186,6.255C9.905,5.914 6.598,5.914 3.317,6.255C3.137,6.275 2.999,6.429 3,6.611L3,13.5L13.5,13.5Z"/>
</svg>
