<?xml version="1.0" encoding="UTF-8" standalone="no"?>
<!DOCTYPE svg PUBLIC "-//W3C//DTD SVG 1.1//EN" "http://www.w3.org/Graphics/SVG/1.1/DTD/svg11.dtd">
<svg width="100%" height="100%" viewBox="0 0 24 24" version="1.1" xmlns="http://www.w3.org/2000/svg" xmlns:xlink="http://www.w3.org/1999/xlink" xml:space="preserve" xmlns:serif="http://www.serif.com/" style="fill-rule:evenodd;clip-rule:evenodd;stroke-linejoin:round;stroke-miterlimit:2;">
    <path d="M6.717,14.549C6.255,14.353 5.757,14.25 5.251,14.25C3.194,14.25 1.501,15.943 1.501,18C1.501,18.101 1.505,18.202 1.513,18.302C1.537,18.598 1.733,18.851 2.012,18.95C3.067,19.321 4.177,19.507 5.292,19.501C5.319,19.738 5.457,19.948 5.664,20.066C7.529,21.137 9.694,21.75 11.999,21.75C14.222,21.753 16.408,21.173 18.336,20.067C18.543,19.948 18.681,19.738 18.708,19.501L18.708,19.5C19.823,19.504 20.933,19.318 21.988,18.949C22.269,18.851 22.465,18.597 22.489,18.302C22.497,18.201 22.501,18.1 22.501,17.998C22.501,15.941 20.808,14.248 18.751,14.248C18.244,14.248 17.745,14.351 17.284,14.548C16.012,12.948 14.067,11.999 12,12C9.932,11.999 7.988,12.949 6.717,14.549ZM16.427,15.926L16.427,15.925C15.464,14.415 13.792,13.499 12.001,13.5C12,13.5 12,13.5 12,13.5C10.209,13.499 8.537,14.415 7.574,15.925L7.568,15.935L7.562,15.945L7.559,15.949C7.034,16.778 6.754,17.739 6.751,18.721L6.751,18.732L6.75,18.75C6.75,18.818 6.751,18.886 6.754,18.955C8.32,19.782 10.106,20.25 12,20.25C12,20.25 12.001,20.25 12.001,20.25C13.831,20.253 15.631,19.807 17.246,18.954C17.249,18.889 17.25,18.823 17.25,18.756L17.25,18.744L17.249,18.744L17.25,18.744L17.249,18.719L17.25,18.693C17.241,17.712 16.956,16.753 16.427,15.926ZM18,19.5L17.97,19.47L17.97,19.47L18,19.5ZM5.904,15.847C5.694,15.783 5.474,15.75 5.251,15.75C4.12,15.75 3.172,16.603 3.022,17.696C3.761,17.903 4.525,18.005 5.292,18.001C5.374,17.253 5.581,16.525 5.904,15.847ZM20.98,17.694C20.829,16.601 19.882,15.748 18.751,15.748C18.527,15.748 18.307,15.782 18.095,15.846C18.419,16.525 18.626,17.253 18.709,18C19.476,18.003 20.241,17.9 20.98,17.694ZM21.75,9.75C21.75,8.104 20.396,6.75 18.75,6.75C17.104,6.75 15.75,8.104 15.75,9.75C15.75,11.396 17.104,12.75 18.75,12.75C20.396,12.75 21.75,11.396 21.75,9.75ZM8.25,9.75C8.25,8.104 6.896,6.75 5.25,6.75C3.604,6.75 2.25,8.104 2.25,9.75C2.25,11.396 3.604,12.75 5.25,12.75C6.896,12.75 8.25,11.396 8.25,9.75ZM20.25,9.75C20.25,10.573 19.573,11.25 18.75,11.25C17.927,11.25 17.25,10.573 17.25,9.75C17.25,8.927 17.927,8.25 18.75,8.25C19.573,8.25 20.25,8.927 20.25,9.75ZM6.75,9.75C6.75,10.573 6.073,11.25 5.25,11.25C4.427,11.25 3.75,10.573 3.75,9.75C3.75,8.927 4.427,8.25 5.25,8.25C6.073,8.25 6.75,8.927 6.75,9.75ZM15.75,6.75C15.75,4.693 14.057,3 12,3C9.943,3 8.25,4.693 8.25,6.75C8.25,8.807 9.943,10.5 12,10.5C14.057,10.5 15.75,8.807 15.75,6.75ZM14.25,6.75C14.25,7.984 13.234,9 12,9C10.766,9 9.75,7.984 9.75,6.75C9.75,5.516 10.766,4.5 12,4.5C13.234,4.5 14.25,5.516 14.25,6.75Z"/>
</svg>
