<?xml version="1.0" encoding="UTF-8" standalone="no"?>
<!DOCTYPE svg PUBLIC "-//W3C//DTD SVG 1.1//EN" "http://www.w3.org/Graphics/SVG/1.1/DTD/svg11.dtd">
<svg width="100%" height="100%" viewBox="0 0 24 24" version="1.1" xmlns="http://www.w3.org/2000/svg" xmlns:xlink="http://www.w3.org/1999/xlink" xml:space="preserve" xmlns:serif="http://www.serif.com/" style="fill-rule:evenodd;clip-rule:evenodd;stroke-linejoin:round;stroke-miterlimit:2;">
    <path d="M5.519,19.284L5.52,19.286C7.303,20.876 9.611,21.753 12,21.75C14.379,21.753 16.678,20.883 18.457,19.305C18.474,19.292 18.489,19.278 18.504,19.263C20.568,17.415 21.749,14.772 21.749,12C21.749,6.652 17.348,2.25 11.999,2.25C6.651,2.25 2.249,6.652 2.249,12C2.249,14.782 3.44,17.435 5.519,19.284ZM16.918,18.625C15.65,17.276 13.872,16.498 12.001,16.5C12,16.5 12,16.5 11.999,16.5C10.128,16.498 8.349,17.276 7.082,18.625C8.497,19.679 10.222,20.253 11.999,20.25C12,20.25 12,20.25 12.001,20.25C13.778,20.253 15.502,19.678 16.918,18.625ZM18.036,17.624C19.451,16.105 20.249,14.096 20.249,12C20.249,7.474 16.525,3.75 11.999,3.75C7.474,3.75 3.749,7.474 3.749,12C3.749,14.096 4.548,16.105 5.964,17.625C7.515,15.959 9.7,14.998 12,15C14.299,14.998 16.485,15.959 18.036,17.624ZM15.75,9.75C15.75,7.693 14.057,6 12,6C9.943,6 8.25,7.693 8.25,9.75C8.25,11.807 9.943,13.5 12,13.5C14.057,13.5 15.75,11.807 15.75,9.75ZM14.25,9.75C14.25,10.984 13.234,12 12,12C10.766,12 9.75,10.984 9.75,9.75C9.75,8.516 10.766,7.5 12,7.5C13.234,7.5 14.25,8.516 14.25,9.75Z"/>
</svg>
