<?xml version="1.0" encoding="UTF-8" standalone="no"?>
<!DOCTYPE svg PUBLIC "-//W3C//DTD SVG 1.1//EN" "http://www.w3.org/Graphics/SVG/1.1/DTD/svg11.dtd">
<svg width="100%" height="100%" viewBox="0 0 24 24" version="1.1" xmlns="http://www.w3.org/2000/svg" xmlns:xlink="http://www.w3.org/1999/xlink" xml:space="preserve" xmlns:serif="http://www.serif.com/" style="fill-rule:evenodd;clip-rule:evenodd;stroke-linejoin:round;stroke-miterlimit:2;">
    <path d="M3.25,19.128L3.25,19.125C3.25,15.216 6.466,12 10.375,12C14.284,12 17.5,15.216 17.5,19.125L17.5,19.125L17.5,19.128L17.5,19.232C17.5,19.617 17.263,19.807 17.056,19.899L17.137,19.876C15.096,21.106 12.756,21.754 10.373,21.75C7.901,21.75 5.588,21.065 3.613,19.877C3.613,19.877 3.389,19.721 3.308,19.53C3.272,19.447 3.25,19.232 3.25,19.232L3.25,19.128L3.25,19.128ZM15.991,18.806C14.274,19.755 12.341,20.253 10.375,20.25C10.375,20.25 10.374,20.25 10.374,20.25C8.338,20.25 6.424,19.726 4.759,18.806C4.927,15.866 7.396,13.5 10.375,13.5C13.354,13.5 15.823,15.866 15.991,18.806ZM22,9.75L16,9.75C15.586,9.75 15.25,10.086 15.25,10.5C15.25,10.914 15.586,11.25 16,11.25L22,11.25C22.414,11.25 22.75,10.914 22.75,10.5C22.75,10.086 22.414,9.75 22,9.75ZM14.5,6.375C14.5,4.112 12.638,2.25 10.375,2.25C8.112,2.25 6.25,4.112 6.25,6.375C6.25,8.638 8.112,10.5 10.375,10.5C12.638,10.5 14.5,8.638 14.5,6.375ZM13,6.375C13,7.815 11.815,9 10.375,9C8.935,9 7.75,7.815 7.75,6.375C7.75,4.935 8.935,3.75 10.375,3.75C11.815,3.75 13,4.935 13,6.375Z"/>
</svg>
