<?xml version="1.0" encoding="UTF-8" standalone="no"?>
<!DOCTYPE svg PUBLIC "-//W3C//DTD SVG 1.1//EN" "http://www.w3.org/Graphics/SVG/1.1/DTD/svg11.dtd">
<svg width="100%" height="100%" viewBox="0 0 24 24" version="1.1" xmlns="http://www.w3.org/2000/svg" xmlns:xlink="http://www.w3.org/1999/xlink" xml:space="preserve" xmlns:serif="http://www.serif.com/" style="fill-rule:evenodd;clip-rule:evenodd;stroke-linejoin:round;stroke-miterlimit:2;">
    <path d="M15.235,19.966C16.017,20.155 16.819,20.251 17.624,20.25C19.167,20.252 20.69,19.9 22.076,19.222C22.323,19.101 22.484,18.854 22.495,18.58C22.498,18.511 22.5,18.442 22.5,18.374C22.5,15.699 20.299,13.499 17.625,13.499C16.377,13.499 15.19,13.977 14.297,14.811C12.962,13.056 10.867,11.997 8.624,11.997C4.715,11.997 1.499,15.213 1.499,19.122C1.499,19.123 1.499,19.124 1.499,19.125L2.249,19.875C2.249,19.875 1.499,19.135 1.499,19.135C1.499,19.135 1.5,19.224 1.5,19.238C1.506,19.921 2.25,19.984 2.25,19.984C2.114,19.984 1.98,19.947 1.863,19.877C3.838,21.065 6.151,21.75 8.623,21.75C10.948,21.754 13.23,21.137 15.235,19.966ZM13.564,16.431L13.555,16.416C12.569,14.618 10.675,13.497 8.624,13.497C5.644,13.497 3.174,15.864 3.008,18.805C4.673,19.726 6.588,20.25 8.624,20.25C8.624,20.25 8.625,20.25 8.625,20.25C10.591,20.253 12.524,19.755 14.241,18.806C14.194,17.953 13.956,17.151 13.57,16.442L13.564,16.431ZM2.877,19.646C2.664,19.945 2.25,19.984 2.25,19.984C2.508,19.984 2.741,19.853 2.877,19.646ZM14.258,19.239L14.258,19.24L14.26,19.252L14.262,19.263L14.265,19.279L14.268,19.293C14.286,19.372 14.316,19.446 14.356,19.513C14.308,19.438 14.272,19.348 14.258,19.239ZM2.996,19.31L2.996,19.313L2.996,19.31ZM3,19.225L2.998,19.282C3,19.263 3,19.244 3,19.225ZM3,19.219L3,19.224L3,19.219ZM14.25,19.125L14.25,19.126L14.25,19.125L14.25,19.125L14.25,19.125ZM20.986,18.071C20.831,16.359 19.374,14.999 17.625,14.999C16.652,14.999 15.732,15.419 15.096,16.139C15.438,16.879 15.657,17.689 15.726,18.54C16.349,18.68 16.985,18.751 17.624,18.75C17.625,18.75 17.625,18.75 17.626,18.75C18.782,18.752 19.924,18.52 20.986,18.071ZM21,8.625C21,6.774 19.476,5.25 17.625,5.25C15.774,5.25 14.25,6.774 14.25,8.625C14.25,10.476 15.774,12 17.625,12C19.476,12 21,10.476 21,8.625ZM12.75,6.375C12.75,4.112 10.888,2.25 8.625,2.25C6.362,2.25 4.5,4.112 4.5,6.375C4.5,8.638 6.362,10.5 8.625,10.5C10.888,10.5 12.75,8.638 12.75,6.375ZM19.5,8.625C19.5,9.654 18.654,10.5 17.625,10.5C16.596,10.5 15.75,9.654 15.75,8.625C15.75,7.596 16.596,6.75 17.625,6.75C18.654,6.75 19.5,7.596 19.5,8.625ZM11.25,6.375C11.25,7.815 10.065,9 8.625,9C7.185,9 6,7.815 6,6.375C6,4.935 7.185,3.75 8.625,3.75C10.065,3.75 11.25,4.935 11.25,6.375Z"/>
</svg>
