<?xml version="1.0" encoding="UTF-8" standalone="no"?>
<!DOCTYPE svg PUBLIC "-//W3C//DTD SVG 1.1//EN" "http://www.w3.org/Graphics/SVG/1.1/DTD/svg11.dtd">
<svg width="100%" height="100%" viewBox="0 0 24 24" version="1.1" xmlns="http://www.w3.org/2000/svg" xmlns:xlink="http://www.w3.org/1999/xlink" xml:space="preserve" xmlns:serif="http://www.serif.com/" style="fill-rule:evenodd;clip-rule:evenodd;stroke-linejoin:round;stroke-miterlimit:2;">
    <path d="M3.751,20.106C3.746,20.403 3.918,20.675 4.188,20.8C6.566,21.891 9.212,22.5 12,22.5C14.696,22.504 17.361,21.924 19.812,20.8C20.082,20.676 20.254,20.403 20.249,20.106C20.176,15.631 16.475,11.99 12,11.99C7.525,11.99 3.824,15.631 3.751,20.106ZM5.277,19.64C5.584,16.207 8.503,13.49 12,13.49C15.497,13.49 18.415,16.207 18.723,19.64C16.598,20.54 14.312,21.003 12.001,21C12.001,21 12,21 12,21C9.615,21 7.343,20.516 5.277,19.641L5.277,19.64ZM16.5,6C16.5,3.531 14.469,1.5 12,1.5C9.531,1.5 7.5,3.531 7.5,6C7.5,8.469 9.531,10.5 12,10.5C14.469,10.5 16.5,8.469 16.5,6ZM15,6C15,7.646 13.646,9 12,9C10.354,9 9,7.646 9,6C9,4.354 10.354,3 12,3C13.646,3 15,4.354 15,6Z"/>
</svg>
