<?xml version="1.0" encoding="UTF-8" standalone="no"?>
<!DOCTYPE svg PUBLIC "-//W3C//DTD SVG 1.1//EN" "http://www.w3.org/Graphics/SVG/1.1/DTD/svg11.dtd">
<svg width="100%" height="100%" viewBox="0 0 24 24" version="1.1" xmlns="http://www.w3.org/2000/svg" xmlns:xlink="http://www.w3.org/1999/xlink" xml:space="preserve" xmlns:serif="http://www.serif.com/" style="fill-rule:evenodd;clip-rule:evenodd;stroke-linejoin:round;stroke-miterlimit:2;">
    <path d="M18.792,3.246C19.732,5.95 20.25,8.904 20.25,12C20.25,15.096 19.732,18.05 18.792,20.754C18.656,21.145 18.863,21.572 19.254,21.708C19.645,21.844 20.072,21.637 20.208,21.246C21.202,18.39 21.75,15.27 21.75,12C21.75,8.73 21.202,5.61 20.208,2.754C20.072,2.363 19.645,2.156 19.254,2.292C18.863,2.428 18.656,2.855 18.792,3.246ZM4.05,2.719C2.857,5.668 2.246,8.82 2.25,12C2.25,15.283 2.89,18.415 4.05,21.281C4.205,21.665 4.643,21.851 5.026,21.695C5.41,21.54 5.596,21.102 5.44,20.719C4.35,18.026 3.75,15.083 3.75,12C3.75,12 3.75,11.999 3.75,11.999C3.746,9.011 4.32,6.051 5.44,3.281C5.595,2.897 5.41,2.46 5.026,2.305C4.642,2.15 4.205,2.335 4.05,2.719ZM10.087,8.634L11.173,11.889L9.151,14.922C8.906,15.29 8.432,15.435 8.023,15.272L7.798,15.177C7.084,14.875 7.341,16.036 7.456,16.463C7.063,15.139 6.75,15.466 6.75,15.865C6.75,16.178 6.942,16.446 7.214,16.558L7.214,16.558C7.214,16.558 7.388,16.632 7.416,16.644L7.421,16.646L7.42,16.645C8.494,17.101 9.752,16.725 10.399,15.754L11.773,13.692L12.49,15.841C12.694,16.451 13.269,16.865 13.912,16.865C14.19,16.865 14.462,16.788 14.698,16.643L16.143,15.754C16.496,15.537 16.606,15.075 16.389,14.722C16.172,14.369 15.71,14.259 15.357,14.476L13.912,15.365L12.827,12.111L14.849,9.078C15.098,8.705 15.582,8.56 15.995,8.735L16.074,8.751L16.076,8.752L16.001,8.737C16.001,8.737 16.175,8.811 16.203,8.823L16.204,8.823C16.221,8.83 16.239,8.837 16.257,8.843L16.268,8.847L16.277,8.85C16.415,8.895 16.5,8.884 16.5,8.884L16.548,8.837C16.759,8.627 17.552,7.764 16.787,7.441C16.759,7.429 16.616,7.369 16.585,7.356L16.579,7.353L16.579,7.353C15.505,6.899 14.248,7.276 13.601,8.246L12.227,10.308L11.511,8.16C11.307,7.549 10.732,7.134 10.087,7.134C9.81,7.134 9.537,7.211 9.301,7.356L7.856,8.247C7.504,8.464 7.394,8.926 7.612,9.279C7.829,9.631 8.291,9.741 8.644,9.523L10.087,8.634Z"/>
</svg>
