<?xml version="1.0" encoding="UTF-8" standalone="no"?>
<!DOCTYPE svg PUBLIC "-//W3C//DTD SVG 1.1//EN" "http://www.w3.org/Graphics/SVG/1.1/DTD/svg11.dtd">
<svg width="100%" height="100%" viewBox="0 0 24 24" version="1.1" xmlns="http://www.w3.org/2000/svg" xmlns:xlink="http://www.w3.org/1999/xlink" xml:space="preserve" xmlns:serif="http://www.serif.com/" style="fill-rule:evenodd;clip-rule:evenodd;stroke-linejoin:round;stroke-miterlimit:2;">
    <path d="M0.97,5.03L15.97,20.03C16.262,20.323 16.738,20.323 17.03,20.03C17.323,19.738 17.323,19.262 17.03,18.97L16.084,18.024C16.348,17.577 16.5,17.056 16.5,16.5L16.5,15.311L19.94,18.751C20.221,19.031 20.603,19.189 21,19.189C21.822,19.189 22.499,18.513 22.5,17.691L22.5,6.309C22.499,5.487 21.822,4.811 21,4.811C20.603,4.811 20.221,4.969 19.94,5.249L16.5,8.689L16.5,7.5C16.5,5.854 15.146,4.5 13.5,4.5C13.5,4.5 4.5,4.5 4.5,4.5C3.944,4.5 3.423,4.652 2.976,4.916L2.03,3.97C1.738,3.677 1.262,3.677 0.97,3.97C0.677,4.262 0.677,4.738 0.97,5.03ZM12,18L4.5,18C3.677,18 3,17.323 3,16.5L3,9C3,8.586 2.664,8.25 2.25,8.25C1.836,8.25 1.5,8.586 1.5,9L1.5,16.5C1.5,18.146 2.854,19.5 4.5,19.5L12,19.5C12.414,19.5 12.75,19.164 12.75,18.75C12.75,18.336 12.414,18 12,18ZM16.5,10.811L16.5,13.189L21,17.689L20.983,17.671C20.947,17.629 20.97,17.622 21,17.63L21,6.368C20.971,6.374 20.953,6.362 21,6.311L16.5,10.811ZM14.949,16.888C14.982,16.764 15,16.634 15,16.5C15,16.5 15,7.5 15,7.5C15,6.677 14.323,6 13.5,6L4.5,6C4.366,6 4.236,6.018 4.112,6.051L14.949,16.888Z"/>
</svg>
