<?xml version="1.0" encoding="UTF-8" standalone="no"?>
<!DOCTYPE svg PUBLIC "-//W3C//DTD SVG 1.1//EN" "http://www.w3.org/Graphics/SVG/1.1/DTD/svg11.dtd">
<svg width="100%" height="100%" viewBox="0 0 24 24" version="1.1" xmlns="http://www.w3.org/2000/svg" xmlns:xlink="http://www.w3.org/1999/xlink" xml:space="preserve" xmlns:serif="http://www.serif.com/" style="fill-rule:evenodd;clip-rule:evenodd;stroke-linejoin:round;stroke-miterlimit:2;">
    <path d="M16.5,15.311L19.94,18.75C20.221,19.031 20.603,19.189 21,19.189C21.822,19.189 22.499,18.513 22.5,17.691L22.5,6.31C22.499,5.487 21.822,4.811 21,4.811C20.603,4.811 20.221,4.969 19.94,5.249L16.5,8.689L16.5,7.5C16.5,5.854 15.146,4.5 13.5,4.5C13.5,4.5 4.5,4.5 4.5,4.5C2.854,4.5 1.5,5.854 1.5,7.5C1.5,7.5 1.5,16.5 1.5,16.5C1.5,18.146 2.854,19.5 4.5,19.5L13.5,19.5C15.146,19.5 16.5,18.146 16.5,16.5L16.5,15.311ZM4.5,18C3.677,18 3,17.323 3,16.5L3,7.5C3,6.677 3.677,6 4.5,6L13.5,6C14.323,6 15,6.677 15,7.5C15,7.5 15,16.5 15,16.5C15,17.323 14.323,18 13.5,18C13.5,18 4.5,18 4.5,18ZM16.5,10.811L16.5,13.189L21,17.689L20.983,17.671C20.947,17.629 20.97,17.622 21,17.63L21,6.368C20.971,6.374 20.953,6.362 21,6.311L16.5,10.811Z"/>
</svg>
