<?xml version="1.0" encoding="UTF-8" standalone="no"?>
<!DOCTYPE svg PUBLIC "-//W3C//DTD SVG 1.1//EN" "http://www.w3.org/Graphics/SVG/1.1/DTD/svg11.dtd">
<svg width="100%" height="100%" viewBox="0 0 24 24" version="1.1" xmlns="http://www.w3.org/2000/svg" xmlns:xlink="http://www.w3.org/1999/xlink" xml:space="preserve" xmlns:serif="http://www.serif.com/" style="fill-rule:evenodd;clip-rule:evenodd;stroke-linejoin:round;stroke-miterlimit:2;">
    <path d="M4.125,20.25L19.875,20.25C20.91,20.25 21.75,19.41 21.75,18.375L21.75,5.625C21.75,4.59 20.91,3.75 19.875,3.75C19.875,3.75 4.125,3.75 4.125,3.75C3.09,3.75 2.25,4.59 2.25,5.625L2.25,18.375C2.25,19.41 3.09,20.25 4.125,20.25ZM8.25,5.25L8.25,18.75L4.125,18.75C3.918,18.75 3.75,18.582 3.75,18.375C3.75,18.375 3.75,5.625 3.75,5.625C3.75,5.418 3.918,5.25 4.125,5.25L8.25,5.25ZM9.75,5.25L9.75,18.75L14.25,18.75L14.25,5.25L9.75,5.25ZM15.75,5.25L19.875,5.25C20.082,5.25 20.25,5.418 20.25,5.625C20.25,5.625 20.25,18.375 20.25,18.375C20.25,18.582 20.082,18.75 19.875,18.75L15.75,18.75L15.75,5.25Z"/>
</svg>
