<?xml version="1.0" encoding="UTF-8" standalone="no"?>
<!DOCTYPE svg PUBLIC "-//W3C//DTD SVG 1.1//EN" "http://www.w3.org/Graphics/SVG/1.1/DTD/svg11.dtd">
<svg width="100%" height="100%" viewBox="0 0 24 24" version="1.1" xmlns="http://www.w3.org/2000/svg" xmlns:xlink="http://www.w3.org/1999/xlink" xml:space="preserve" xmlns:serif="http://www.serif.com/" style="fill-rule:evenodd;clip-rule:evenodd;stroke-linejoin:round;stroke-miterlimit:2;">
    <path d="M19.5,16.5L19.5,18C19.5,18.823 18.823,19.5 18,19.5L16.5,19.5C16.086,19.5 15.75,19.836 15.75,20.25C15.75,20.664 16.086,21 16.5,21L18,21C19.646,21 21,19.646 21,18C21,18 21,16.5 21,16.5C21,16.086 20.664,15.75 20.25,15.75C19.836,15.75 19.5,16.086 19.5,16.5ZM7.5,19.5L6,19.5C5.177,19.5 4.5,18.823 4.5,18C4.5,18 4.5,16.5 4.5,16.5C4.5,16.086 4.164,15.75 3.75,15.75C3.336,15.75 3,16.086 3,16.5L3,18C3,19.646 4.354,21 6,21C6,21 7.5,21 7.5,21C7.914,21 8.25,20.664 8.25,20.25C8.25,19.836 7.914,19.5 7.5,19.5ZM15.75,12C15.75,9.943 14.057,8.25 12,8.25C9.943,8.25 8.25,9.943 8.25,12C8.25,14.057 9.943,15.75 12,15.75C14.057,15.75 15.75,14.057 15.75,12ZM14.25,12C14.25,13.234 13.234,14.25 12,14.25C10.766,14.25 9.75,13.234 9.75,12C9.75,10.766 10.766,9.75 12,9.75C13.234,9.75 14.25,10.766 14.25,12ZM7.5,3L6,3C4.354,3 3,4.354 3,6L3,7.5C3,7.914 3.336,8.25 3.75,8.25C4.164,8.25 4.5,7.914 4.5,7.5L4.5,6C4.5,5.177 5.177,4.5 6,4.5C6,4.5 7.5,4.5 7.5,4.5C7.914,4.5 8.25,4.164 8.25,3.75C8.25,3.336 7.914,3 7.5,3ZM16.5,4.5L18,4.5C18.823,4.5 19.5,5.177 19.5,6L19.5,7.5C19.5,7.914 19.836,8.25 20.25,8.25C20.664,8.25 21,7.914 21,7.5L21,6C21,4.354 19.646,3 18,3L16.5,3C16.086,3 15.75,3.336 15.75,3.75C15.75,4.164 16.086,4.5 16.5,4.5Z"/>
</svg>
