<?xml version="1.0" encoding="UTF-8" standalone="no"?>
<!DOCTYPE svg PUBLIC "-//W3C//DTD SVG 1.1//EN" "http://www.w3.org/Graphics/SVG/1.1/DTD/svg11.dtd">
<svg width="100%" height="100%" viewBox="0 0 24 24" version="1.1" xmlns="http://www.w3.org/2000/svg" xmlns:xlink="http://www.w3.org/1999/xlink" xml:space="preserve" xmlns:serif="http://www.serif.com/" style="fill-rule:evenodd;clip-rule:evenodd;stroke-linejoin:round;stroke-miterlimit:2;">
    <path d="M2.25,6L2.25,18C2.25,19.646 3.604,21 5.25,21C5.25,21 18.75,21 18.75,21C20.396,21 21.75,19.646 21.75,18L21.75,6C21.75,4.354 20.396,3 18.75,3L5.25,3C3.604,3 2.25,4.354 2.25,6ZM20.25,12C20.25,11.177 19.573,10.5 18.75,10.5C18.75,10.5 15.674,10.5 15.674,10.5C15.322,12.203 13.801,13.5 12,13.5C10.199,13.5 8.678,12.203 8.326,10.5L5.25,10.5C4.453,10.5 3.793,11.135 3.752,11.923L3.75,12C3.75,12 3.75,18 3.75,18C3.75,18.823 4.427,19.5 5.25,19.5L18.75,19.5C19.573,19.5 20.25,18.823 20.25,18L20.25,12ZM3.75,9.407C4.192,9.148 4.705,9 5.25,9L9,9C9.414,9 9.75,9.336 9.75,9.75C9.75,10.984 10.766,12 12,12C13.234,12 14.25,10.984 14.25,9.75C14.25,9.336 14.586,9 15,9C15,9 18.75,9 18.75,9C19.295,9 19.808,9.148 20.25,9.407L20.25,9C20.25,8.177 19.573,7.5 18.75,7.5L5.25,7.5C4.427,7.5 3.75,8.177 3.75,9L3.75,9.407ZM20.25,6.407L20.25,6C20.25,5.177 19.573,4.5 18.75,4.5C18.75,4.5 5.25,4.5 5.25,4.5C4.427,4.5 3.75,5.177 3.75,6L3.75,6.407C4.192,6.148 4.705,6 5.25,6C5.25,6 18.75,6 18.75,6C19.295,6 19.808,6.148 20.25,6.407Z"/>
</svg>
