<?xml version="1.0" encoding="UTF-8" standalone="no"?>
<!DOCTYPE svg PUBLIC "-//W3C//DTD SVG 1.1//EN" "http://www.w3.org/Graphics/SVG/1.1/DTD/svg11.dtd">
<svg width="100%" height="100%" viewBox="0 0 24 24" version="1.1" xmlns="http://www.w3.org/2000/svg" xmlns:xlink="http://www.w3.org/1999/xlink" xml:space="preserve" xmlns:serif="http://www.serif.com/" style="fill-rule:evenodd;clip-rule:evenodd;stroke-linejoin:round;stroke-miterlimit:2;">
    <path d="M13.06,18.75C13.201,18.61 13.28,18.419 13.28,18.22C13.28,18.021 13.201,17.83 13.06,17.689C12.478,17.108 11.522,17.108 10.94,17.689C10.799,17.83 10.72,18.021 10.72,18.22C10.72,18.419 10.799,18.61 10.94,18.75L11.47,19.28C11.763,19.573 12.237,19.573 12.53,19.28L13.06,18.75ZM12,18.751L12,18.22L12,18.22L12,18.751ZM8.818,15.568C10.564,13.823 13.436,13.823 15.182,15.568C15.474,15.861 15.95,15.861 16.242,15.568C16.535,15.276 16.535,14.8 16.242,14.508C13.915,12.181 10.085,12.181 7.758,14.508C7.465,14.8 7.465,15.276 7.758,15.568C8.05,15.861 8.526,15.861 8.818,15.568ZM5.636,12.386C9.151,8.871 14.849,8.871 18.364,12.386C18.656,12.679 19.132,12.679 19.424,12.386C19.717,12.094 19.717,11.618 19.424,11.326C15.323,7.225 8.675,7.225 4.576,11.326C4.283,11.618 4.283,12.094 4.576,12.386C4.868,12.679 5.344,12.679 5.636,12.386ZM2.454,9.204C7.726,3.932 16.274,3.932 21.546,9.204C21.838,9.497 22.314,9.497 22.606,9.204C22.899,8.912 22.899,8.436 22.606,8.144C16.748,2.286 7.252,2.286 1.394,8.144C1.101,8.436 1.101,8.912 1.394,9.204C1.686,9.497 2.162,9.497 2.454,9.204Z"/>
</svg>
