<?xml version="1.0" encoding="UTF-8" standalone="no"?>
<!DOCTYPE svg PUBLIC "-//W3C//DTD SVG 1.1//EN" "http://www.w3.org/Graphics/SVG/1.1/DTD/svg11.dtd">
<svg width="100%" height="100%" viewBox="0 0 24 24" version="1.1" xmlns="http://www.w3.org/2000/svg" xmlns:xlink="http://www.w3.org/1999/xlink" xml:space="preserve" xmlns:serif="http://www.serif.com/" style="fill-rule:evenodd;clip-rule:evenodd;stroke-linejoin:round;stroke-miterlimit:2;">
    <path d="M8.902,11.553L2.702,16.658C1.94,17.283 1.497,18.22 1.497,19.207C1.497,21.016 2.986,22.505 4.795,22.505C5.782,22.505 6.719,22.062 7.345,21.299L11.474,16.284L16.728,21.539C17.363,22.153 18.212,22.497 19.095,22.497C20.961,22.497 22.497,20.961 22.497,19.095C22.497,18.212 22.153,17.363 21.539,16.728L16.791,11.98L16.805,11.981C16.952,11.994 17.102,12 17.252,12C20.132,12 22.502,9.631 22.502,6.75C22.502,6.005 22.343,5.268 22.037,4.589C21.935,4.365 21.73,4.204 21.488,4.16C21.245,4.116 20.997,4.194 20.823,4.368L17.87,7.322C17.336,7.093 16.909,6.666 16.681,6.132C16.68,6.132 19.633,3.179 19.633,3.179C19.807,3.005 19.885,2.757 19.841,2.514C19.797,2.272 19.636,2.067 19.412,1.965C18.733,1.659 17.996,1.5 17.251,1.5C14.37,1.5 12.001,3.87 12.001,6.75C12.001,6.9 12.007,7.05 12.02,7.199C12.074,7.844 12.052,8.553 11.74,9.088L8.25,5.598C8.25,5.598 8.25,4.5 8.25,4.5C8.25,4.237 8.112,3.992 7.886,3.857L4.136,1.607C3.841,1.43 3.463,1.476 3.22,1.72L1.72,3.22C1.476,3.463 1.43,3.841 1.607,4.136L3.857,7.886C3.992,8.112 4.237,8.25 4.5,8.25L5.598,8.25L8.902,11.553ZM14.959,10.641C15.584,10.464 16.274,10.432 16.929,10.487L17.252,10.5C19.309,10.5 21.002,8.808 21.002,6.75C21.002,6.611 20.994,6.471 20.979,6.333L18.607,8.705C18.424,8.888 18.16,8.964 17.908,8.906C16.513,8.583 15.419,7.489 15.096,6.094C15.038,5.842 15.114,5.578 15.297,5.395C15.297,5.395 17.668,3.023 17.669,3.023C17.53,3.008 17.391,3 17.251,3C15.193,3 13.501,4.693 13.501,6.75L13.514,7.072C13.626,8.39 13.36,9.823 12.34,10.664L12.243,10.744L12.203,10.776L10.526,12.157L10.518,12.164L10.489,12.189L10.488,12.19L3.655,17.817C3.239,18.158 2.997,18.669 2.997,19.207C2.997,20.193 3.809,21.005 4.795,21.005C5.333,21.005 5.844,20.763 6.185,20.347L10.841,14.693L13.338,11.663C13.739,11.176 14.267,10.857 14.857,10.672C14.89,10.659 14.925,10.649 14.959,10.641ZM14.943,12.254C14.774,12.345 14.621,12.464 14.494,12.617L12.432,15.121L17.78,20.469C18.133,20.807 18.605,20.997 19.095,20.997C20.138,20.997 20.997,20.138 20.997,19.095C20.997,18.602 20.806,18.129 20.464,17.775L14.943,12.254ZM18.905,17.845L16.28,15.22C15.988,14.927 15.512,14.927 15.22,15.22C14.927,15.512 14.927,15.988 15.22,16.28L17.845,18.905C18.137,19.198 18.613,19.198 18.905,18.905C19.198,18.613 19.198,18.137 18.905,17.845ZM10.646,10.115L6.97,6.439C6.829,6.299 6.75,6.108 6.75,5.909C6.75,5.909 6.75,4.925 6.75,4.925C6.75,4.925 3.866,3.194 3.866,3.194C3.866,3.194 3.194,3.866 3.194,3.866C3.194,3.866 4.925,6.75 4.925,6.75L5.909,6.75C6.108,6.75 6.299,6.829 6.439,6.97L10.064,10.594L10.646,10.115Z"/>
    <g transform="matrix(1.05153,0,0,1.05153,-0.629554,12.817)">
        <circle cx="5.242" cy="5.987" r="0.732"/>
    </g>
</svg>
