<?xml version="1.0" encoding="UTF-8" standalone="no"?>
<!DOCTYPE svg PUBLIC "-//W3C//DTD SVG 1.1//EN" "http://www.w3.org/Graphics/SVG/1.1/DTD/svg11.dtd">
<svg width="100%" height="100%" viewBox="0 0 24 24" version="1.1" xmlns="http://www.w3.org/2000/svg" xmlns:xlink="http://www.w3.org/1999/xlink" xml:space="preserve" xmlns:serif="http://www.serif.com/" style="fill-rule:evenodd;clip-rule:evenodd;stroke-linejoin:round;stroke-miterlimit:2;">
    <path d="M22.5,6.75C22.5,5.98 22.334,5.248 22.035,4.588C21.934,4.364 21.728,4.204 21.486,4.16C21.244,4.116 20.996,4.194 20.822,4.368L17.869,7.321C17.335,7.092 16.908,6.665 16.68,6.131C16.679,6.131 19.632,3.178 19.632,3.178C19.806,3.004 19.884,2.756 19.84,2.513C19.796,2.271 19.635,2.066 19.411,1.964C18.732,1.658 17.995,1.499 17.25,1.499C14.369,1.499 12,3.869 12,6.749C12,6.899 12.006,7.049 12.019,7.198C12.089,8.032 12.031,8.973 11.385,9.505L2.701,16.657C1.939,17.282 1.496,18.219 1.496,19.206C1.496,21.015 2.985,22.504 4.794,22.504C5.781,22.504 6.718,22.061 7.344,21.298C7.343,21.299 14.495,12.615 14.495,12.615C14.495,12.615 14.495,12.615 14.495,12.615C15.027,11.969 15.968,11.911 16.803,11.981C16.951,11.994 17.1,12 17.25,12C20.13,12 22.5,9.63 22.5,6.75L22.5,6.75ZM21,6.75L21,6.75C21,8.808 19.307,10.5 17.25,10.5L16.929,10.487C15.611,10.375 14.177,10.641 13.337,11.661L6.184,20.346C5.843,20.762 5.332,21.004 4.794,21.004C3.808,21.004 2.996,20.192 2.996,19.206C2.996,18.668 3.238,18.157 3.654,17.816L12.339,10.663C13.359,9.823 13.625,8.389 13.513,7.071L13.5,6.749C13.5,4.692 15.192,2.999 17.25,2.999C17.39,2.999 17.529,3.007 17.668,3.022C17.667,3.022 15.296,5.394 15.296,5.394C15.113,5.577 15.037,5.841 15.095,6.093C15.418,7.488 16.512,8.582 17.907,8.905C18.159,8.963 18.423,8.887 18.606,8.704L20.977,6.334C20.992,6.47 21,6.609 21,6.75Z"/>
    <g transform="matrix(1.05153,0,0,1.05153,-0.638584,12.8092)">
        <circle cx="5.242" cy="5.987" r="0.732"/>
    </g>
</svg>
