<?xml version="1.0" encoding="UTF-8" standalone="no"?>
<!DOCTYPE svg PUBLIC "-//W3C//DTD SVG 1.1//EN" "http://www.w3.org/Graphics/SVG/1.1/DTD/svg11.dtd">
<svg width="100%" height="100%" viewBox="0 0 24 24" version="1.1" xmlns="http://www.w3.org/2000/svg" xmlns:xlink="http://www.w3.org/1999/xlink" xml:space="preserve" xmlns:serif="http://www.serif.com/" style="fill-rule:evenodd;clip-rule:evenodd;stroke-linejoin:round;stroke-miterlimit:2;">
    <path d="M21.75,12C21.75,6.651 17.349,2.25 12,2.25C6.651,2.25 2.25,6.651 2.25,12C2.25,17.349 6.651,21.75 12,21.75C17.349,21.75 21.75,17.349 21.75,12ZM20.25,12C20.25,16.526 16.526,20.25 12,20.25C7.474,20.25 3.75,16.526 3.75,12C3.75,7.474 7.474,3.75 12,3.75C16.526,3.75 20.25,7.474 20.25,12ZM12,10.939L10.28,9.22C9.988,8.927 9.512,8.927 9.22,9.22C8.927,9.512 8.927,9.988 9.22,10.28L10.939,12L9.22,13.72C8.927,14.012 8.927,14.488 9.22,14.78C9.512,15.073 9.988,15.073 10.28,14.78L12,13.061L13.72,14.78C14.012,15.073 14.488,15.073 14.78,14.78C15.073,14.488 15.073,14.012 14.78,13.72L13.061,12L14.78,10.28C15.073,9.988 15.073,9.512 14.78,9.22C14.488,8.927 14.012,8.927 13.72,9.22L12,10.939Z"/>
</svg>
